*
G04 Mass Parameters ***
*
G04 Image ***
*
%INE:\CALYX_FEMTO_2017-06-01\FINAL\CALYX_FEMTO_2017-06-01.SSB*%
%ICAS*%
%MOIN*%
%IPPOS*%
%ASAXBY*%
G74*%FSLAN2X34Y34*%
*
G04 Aperture Definitions ***
*
%ADD10R,0.0661X0.0299*%
%ADD11R,0.0299X0.0661*%
%ADD12R,0.0500X0.0500*%
%ADD13R,0.0600X0.0600*%
%ADD14C,0.0401*%
%ADD15R,0.0787X0.2913*%
%ADD16C,0.0500*%
%ADD17O,0.1400X0.0300*%
%ADD18O,0.0300X0.1400*%
%ADD19O,0.0500X0.2000*%
%ADD20C,0.1200*%
%ADD21R,0.0200X0.0200*%
%ADD22O,0.1500X0.1100*%
%ADD23C,0.0630*%
%ADD24R,0.0630X0.0630*%
%ADD25C,0.0600*%
%ADD26R,0.0315X0.0315*%
%ADD27R,0.0236X0.0197*%
%ADD28R,0.0197X0.0236*%
%ADD29O,0.1000X0.0500*%
%ADD30C,0.0236*%
%ADD31R,0.0240X0.0320*%
%ADD32R,0.0320X0.0240*%
%ADD33C,0.0394*%
%ADD34R,0.0276X0.0276*%
%ADD35C,0.1024*%
%ADD36R,0.0106X0.0197*%
%ADD37R,0.0551X0.0787*%
%ADD38R,0.0400X0.0500*%
%ADD39O,0.0740X0.0260*%
%ADD40R,0.0740X0.0260*%
%ADD41O,0.0260X0.0740*%
%ADD42R,0.0260X0.0740*%
%ADD43O,0.0472X0.0157*%
%ADD44R,0.0472X0.0157*%
%ADD45R,0.0630X0.0551*%
%ADD46O,0.0118X0.0315*%
%ADD47R,0.0118X0.0315*%
%ADD48R,0.0900X0.0550*%
%ADD49R,0.0550X0.0900*%
%ADD50O,0.0860X0.0250*%
%ADD51R,0.0860X0.0250*%
%ADD52O,0.0250X0.0860*%
%ADD53R,0.0250X0.0860*%
%ADD54O,0.0230X0.0610*%
%ADD55R,0.0230X0.0610*%
%ADD56O,0.0315X0.0079*%
%ADD57O,0.0079X0.0315*%
%ADD58R,0.0079X0.0315*%
%ADD59O,0.0230X0.0512*%
%ADD60R,0.0230X0.0512*%
%ADD61O,0.0787X0.0110*%
%ADD62R,0.0787X0.0110*%
%ADD63O,0.0110X0.0787*%
%ADD64R,0.0110X0.0787*%
%ADD65C,0.0181*%
%ADD66O,0.0394X0.0091*%
%ADD67R,0.0394X0.0091*%
%ADD68R,0.0551X0.0472*%
%ADD69R,0.0472X0.0551*%
%ADD70O,0.0260X0.0866*%
%ADD71R,0.0260X0.0866*%
%ADD72C,0.0787*%
%ADD73C,0.0945*%
%ADD74C,0.1417*%
%ADD75C,0.1300*%
%ADD76R,0.0905X0.0275*%
%ADD77C,0.0700*%
%ADD78R,0.0700X0.0700*%
%ADD79R,0.0275X0.0905*%
%ADD80R,0.0394X0.0590*%
%ADD81R,0.1181X0.0394*%
%ADD82R,0.0394X0.1181*%
%ADD83C,0.0335*%
%ADD84R,0.0335X0.0335*%
%ADD85R,0.0500X0.0400*%
%ADD86O,0.2200X0.1000*%
%ADD87C,0.1279*%
%ADD88C,0.0400*%
%ADD89O,0.0590X0.0157*%
%ADD90R,0.0590X0.0157*%
%ADD91C,0.0551*%
%ADD92O,0.0700X0.0200*%
%ADD93O,0.0200X0.0700*%
%ADD94R,0.0200X0.0700*%
%ADD95O,0.0236X0.0787*%
%ADD96R,0.0236X0.0787*%
%ADD97R,0.0400X0.0120*%
%ADD98R,0.0551X0.0630*%
%ADD99C,0.0520*%
%ADD100C,0.0354*%
%ADD101C,0.0039*%
%ADD102C,0.0040*%
%ADD103C,0.0100*%
%ADD104C,0.0400*%
%ADD105C,0.0080*%
%ADD106C,0.0060*%
%ADD107C,0.0059*%
%ADD108C,0.0118*%
%ADD109C,0.0394*%
%ADD110C,0.0590*%
%ADD111C,0.0138*%
%ADD112C,0.0197*%
%ADD113C,0.0236*%
%ADD114C,0.0140*%
%ADD115C,0.0315*%
%ADD116C,0.1000*%
%ADD117C,0.0200*%
%ADD118C,0.0079*%
%ADD119C,0.0800*%
%ADD120C,0.0600*%
%ADD121C,0.0472*%
%ADD122C,0.0300*%
%ADD123C,0.0098*%
%ADD124C,0.0276*%
%ADD125C,0.0110*%
%ADD126C,0.1181*%
%ADD127C,0.0500*%
%ADD128C,0.0787*%
%ADD129C,0.0591*%
%ADD130C,0.0256*%
%ADD131C,0.0401*%
%ADD132C,0.0600*%
%ADD133R,0.0600X0.0600*%
%ADD134O,0.1300X0.1700*%
%ADD135O,0.1700X0.1300*%
%ADD136O,0.1500X0.1100*%
%ADD137C,0.0630*%
%ADD138R,0.0630X0.0630*%
%ADD139O,0.1000X0.0500*%
%ADD140C,0.0236*%
%ADD141C,0.0394*%
%ADD142C,0.1260*%
%ADD143C,0.0181*%
%ADD144O,0.0260X0.0740*%
%ADD145R,0.0260X0.0740*%
%ADD146C,0.0945*%
%ADD147C,0.1102*%
%ADD148C,0.1417*%
%ADD149C,0.1700*%
%ADD150C,0.0640*%
%ADD151C,0.0709*%
%ADD152C,0.0700*%
%ADD153R,0.0700X0.0700*%
%ADD154C,0.0591*%
%ADD155R,0.0591X0.0591*%
%ADD156O,0.2200X0.1000*%
%ADD157C,0.1279*%
%ADD158C,0.0400*%
%ADD159C,0.0551*%
%ADD160O,0.0394X0.0630*%
%ADD161C,0.0820*%
%ADD162C,0.0354*%
%ADD163C,0.0236*%
%ADD164C,0.0780*%
%ADD165R,0.0780X0.0780*%
%ADD166O,0.1299X0.1701*%
%ADD167O,0.1900X0.1500*%
%ADD168O,0.1680X0.1300*%
%ADD169C,0.0830*%
%ADD170R,0.0830X0.0830*%
%ADD171C,0.0787*%
%ADD172O,0.1200X0.0700*%
%ADD173C,0.0275*%
%ADD174C,0.1024*%
%ADD175C,0.0940*%
%ADD176C,0.1100*%
%ADD177C,0.0810*%
%ADD178C,0.1600*%
%ADD179C,0.1880*%
%ADD180C,0.0710*%
%ADD181R,0.0787X0.0787*%
%ADD182O,0.2400X0.1200*%
%ADD183C,0.1000*%
%ADD184C,0.0244*%
%ADD185C,0.0256*%
%ADD186C,0.0010*%
%ADD187C,0.0256*%
%ADD188C,0.0256*%
%ADD189C,0.1496*%
%ADD190C,0.0256*%
%ADD191R,0.0661X0.0299*%
%ADD192R,0.0299X0.0661*%
%ADD193R,0.0500X0.0500*%
%ADD194R,0.0787X0.2913*%
%ADD195C,0.0500*%
%ADD196O,0.1400X0.0300*%
%ADD197O,0.0300X0.1400*%
%ADD198O,0.0500X0.2000*%
%ADD199R,0.0315X0.0315*%
%ADD200R,0.0236X0.0197*%
%ADD201R,0.0197X0.0236*%
%ADD202R,0.0240X0.0320*%
%ADD203R,0.0320X0.0240*%
%ADD204R,0.0276X0.0276*%
%ADD205R,0.0106X0.0197*%
%ADD206R,0.0551X0.0787*%
%ADD207R,0.0400X0.0500*%
%ADD208O,0.0740X0.0260*%
%ADD209R,0.0740X0.0260*%
%ADD210O,0.0472X0.0157*%
%ADD211R,0.0472X0.0157*%
%ADD212R,0.0630X0.0551*%
%ADD213O,0.0118X0.0315*%
%ADD214R,0.0118X0.0315*%
%ADD215R,0.0900X0.0550*%
%ADD216R,0.0550X0.0900*%
%ADD217O,0.0860X0.0250*%
%ADD218R,0.0860X0.0250*%
%ADD219O,0.0250X0.0860*%
%ADD220R,0.0250X0.0860*%
%ADD221O,0.0230X0.0610*%
%ADD222R,0.0230X0.0610*%
%ADD223O,0.0315X0.0079*%
%ADD224O,0.0079X0.0315*%
%ADD225R,0.0079X0.0315*%
%ADD226O,0.0230X0.0512*%
%ADD227R,0.0230X0.0512*%
%ADD228O,0.0787X0.0110*%
%ADD229R,0.0787X0.0110*%
%ADD230O,0.0110X0.0787*%
%ADD231R,0.0110X0.0787*%
%ADD232O,0.0394X0.0091*%
%ADD233R,0.0394X0.0091*%
%ADD234R,0.0551X0.0472*%
%ADD235R,0.0472X0.0551*%
%ADD236O,0.0260X0.0866*%
%ADD237R,0.0260X0.0866*%
%ADD238C,0.1300*%
%ADD239R,0.0905X0.0275*%
%ADD240R,0.0275X0.0905*%
%ADD241R,0.0394X0.0590*%
%ADD242R,0.1181X0.0394*%
%ADD243R,0.0394X0.1181*%
%ADD244C,0.0335*%
%ADD245R,0.0335X0.0335*%
%ADD246R,0.0500X0.0400*%
%ADD247O,0.0590X0.0157*%
%ADD248R,0.0590X0.0157*%
%ADD249O,0.0700X0.0200*%
%ADD250O,0.0200X0.0700*%
%ADD251R,0.0200X0.0700*%
%ADD252O,0.0236X0.0787*%
%ADD253R,0.0236X0.0787*%
%ADD254C,0.0320*%
%ADD255R,0.0400X0.0120*%
%ADD256R,0.0551X0.0630*%
%ADD257C,0.0520*%
%ADD258R,0.0106X0.0157*%
%ADD259C,0.0157*%
%ADD260C,0.0050*%
*
G04 Plot Data ***
*
G54D101*
G01X0016532Y0091820D02*
X0016400D01*
X0016378Y0091776D01*
Y0091733D01*
X0016400Y0091689D01*
X0016532D01*
X0016553Y0091733D01*
Y0091776D01*
X0016466Y0091951D01*
X0016807Y0091820D02*
X0016676D01*
X0016654Y0091776D01*
Y0091733D01*
X0016676Y0091689D01*
X0016807D01*
X0016829Y0091733D01*
Y0091776D01*
X0016741Y0091951D01*
X0016929Y0091733D02*
X0016951Y0091689D01*
X0017083D01*
X0017104Y0091733D01*
Y0091908D01*
X0017083Y0091951D01*
X0016951D01*
X0016929Y0091908D01*
X0017205Y0091689D02*
X0017292D01*
X0017249D02*
Y0091951D01*
X0017205D02*
X0017292D01*
X0073448Y0017291D02*
X0073536D01*
Y0017378D01*
X0073514Y0017422D01*
X0073383D01*
X0073361Y0017378D01*
Y0017203D01*
X0073383Y0017159D01*
X0073514D01*
X0073536Y0017203D01*
X0072794Y0017227D02*
X0072663D01*
X0072641Y0017271D01*
Y0017358D01*
X0072663Y0017402D01*
X0072794D01*
X0072541Y0017227D02*
X0072410D01*
X0072388Y0017271D01*
Y0017358D01*
X0072410Y0017402D01*
X0072541D01*
X0072287Y0017140D02*
Y0017227D01*
X0072200Y0017402D01*
X0072112Y0017227D01*
Y0017140D01*
X0074831Y0017211D02*
X0074700D01*
X0074853Y0017386D02*
X0074765D01*
X0074744Y0017343D01*
Y0017124D01*
X0074577Y0017211D02*
Y0017386D01*
X0074599D02*
X0074446D01*
X0074424Y0017343D01*
Y0017211D01*
X0074171Y0017386D02*
X0074149Y0017343D01*
Y0017168D01*
X0074171Y0017124D01*
X0074302D01*
X0074324Y0017168D01*
Y0017343D01*
X0074302Y0017386D01*
X0074171D01*
X0042740Y0017291D02*
X0042827D01*
Y0017378D01*
X0042805Y0017422D01*
X0042674D01*
X0042652Y0017378D01*
Y0017203D01*
X0042674Y0017159D01*
X0042805D01*
X0042827Y0017203D01*
X0042086Y0017227D02*
X0041955D01*
X0041933Y0017271D01*
Y0017358D01*
X0041955Y0017402D01*
X0042086D01*
X0041832Y0017227D02*
X0041701D01*
X0041679Y0017271D01*
Y0017358D01*
X0041701Y0017402D01*
X0041832D01*
X0041578Y0017140D02*
Y0017227D01*
X0041491Y0017402D01*
X0041404Y0017227D01*
Y0017140D01*
X0044122Y0017211D02*
X0043991D01*
X0044144Y0017386D02*
X0044057D01*
X0044035Y0017343D01*
Y0017124D01*
X0043869Y0017211D02*
Y0017386D01*
X0043891D02*
X0043738D01*
X0043716Y0017343D01*
Y0017211D01*
X0043462Y0017386D02*
X0043440Y0017343D01*
Y0017168D01*
X0043462Y0017124D01*
X0043593D01*
X0043615Y0017168D01*
Y0017343D01*
X0043593Y0017386D01*
X0043462D01*
X0052976Y0017291D02*
X0053063D01*
Y0017378D01*
X0053041Y0017422D01*
X0052910D01*
X0052888Y0017378D01*
Y0017203D01*
X0052910Y0017159D01*
X0053041D01*
X0053063Y0017203D01*
X0052322Y0017227D02*
X0052191D01*
X0052169Y0017271D01*
Y0017358D01*
X0052191Y0017402D01*
X0052322D01*
X0052068Y0017227D02*
X0051937D01*
X0051915Y0017271D01*
Y0017358D01*
X0051937Y0017402D01*
X0052068D01*
X0051815Y0017140D02*
Y0017227D01*
X0051727Y0017402D01*
X0051640Y0017227D01*
Y0017140D01*
X0054359Y0017211D02*
X0054228D01*
X0054381Y0017386D02*
X0054293D01*
X0054271Y0017343D01*
Y0017124D01*
X0054105Y0017211D02*
Y0017386D01*
X0054127D02*
X0053974D01*
X0053952Y0017343D01*
Y0017211D01*
X0053698Y0017386D02*
X0053677Y0017343D01*
Y0017168D01*
X0053698Y0017124D01*
X0053830D01*
X0053851Y0017168D01*
Y0017343D01*
X0053830Y0017386D01*
X0053698D01*
X0063212Y0017291D02*
X0063299D01*
Y0017378D01*
X0063278Y0017422D01*
X0063146D01*
X0063125Y0017378D01*
Y0017203D01*
X0063146Y0017159D01*
X0063278D01*
X0063299Y0017203D01*
X0062558Y0017227D02*
X0062427D01*
X0062405Y0017271D01*
Y0017358D01*
X0062427Y0017402D01*
X0062558D01*
X0062305Y0017227D02*
X0062173D01*
X0062152Y0017271D01*
Y0017358D01*
X0062173Y0017402D01*
X0062305D01*
X0062051Y0017140D02*
Y0017227D01*
X0061964Y0017402D01*
X0061876Y0017227D01*
Y0017140D01*
X0064595Y0017211D02*
X0064464D01*
X0064617Y0017386D02*
X0064529D01*
X0064507Y0017343D01*
Y0017124D01*
X0064341Y0017211D02*
Y0017386D01*
X0064363D02*
X0064210D01*
X0064188Y0017343D01*
Y0017211D01*
X0063935Y0017386D02*
X0063913Y0017343D01*
Y0017168D01*
X0063935Y0017124D01*
X0064066D01*
X0064088Y0017168D01*
Y0017343D01*
X0064066Y0017386D01*
X0063935D01*
X0051275Y0085630D02*
X0050489D01*
X0050882Y0085236D02*
Y0086023D01*
X0079255Y0085630D02*
X0078469D01*
X0078862Y0085236D02*
Y0086023D01*
G54D102*
G01X0055534Y0029816D02*
X0055600D01*
X0055567D02*
Y0030016D01*
X0055600Y0029983D01*
X0055730Y0030016D02*
Y0029949D01*
X0055797Y0029816D01*
X0055864Y0029949D01*
Y0030016D01*
X0056094Y0029849D02*
X0056077Y0029816D01*
X0055977D01*
X0055960Y0029849D01*
Y0029916D01*
X0055994Y0029949D01*
X0056094D01*
Y0030016D01*
X0055960D01*
X0056307Y0029816D02*
Y0030016D01*
X0056324Y0029816D02*
X0056224D01*
X0056190Y0029883D01*
Y0029949D01*
X0056224Y0030016D01*
X0056324D01*
X0056420Y0029749D02*
X0056554D01*
X0056784Y0029916D02*
X0056684D01*
X0056650Y0029949D01*
Y0029983D01*
X0056684Y0030016D01*
X0056784D01*
Y0029816D01*
X0017023Y0093217D02*
X0016890D01*
X0017023Y0093084D01*
Y0093051D01*
X0017006Y0093017D01*
X0016906D01*
X0016890Y0093051D01*
X0016676Y0093217D02*
Y0093017D01*
X0016660Y0093217D02*
X0016760D01*
X0016793Y0093151D01*
Y0093084D01*
X0016760Y0093017D01*
X0016660D01*
X0016563D02*
Y0093217D01*
X0016530Y0093184D01*
X0016463Y0093051D01*
X0016430Y0093017D01*
Y0093217D01*
X0016266Y0093117D02*
X0016333D01*
Y0093184D01*
X0016316Y0093217D01*
X0016216D01*
X0016200Y0093184D01*
Y0093051D01*
X0016216Y0093017D01*
X0016316D01*
X0016333Y0093051D01*
X0060620Y0026349D02*
X0060686D01*
X0060653D02*
Y0026549D01*
X0060686Y0026515D01*
X0060933Y0026349D02*
Y0026549D01*
X0060950Y0026349D02*
X0060850D01*
X0060816Y0026415D01*
Y0026482D01*
X0060850Y0026549D01*
X0060950D01*
X0061046D02*
Y0026349D01*
X0061080Y0026382D01*
X0061146Y0026515D01*
X0061180Y0026549D01*
Y0026349D01*
X0061343Y0026449D02*
X0061276D01*
Y0026382D01*
X0061293Y0026349D01*
X0061393D01*
X0061410Y0026382D01*
Y0026515D01*
X0061393Y0026549D01*
X0061293D01*
X0061276Y0026515D01*
X0082724Y0017169D02*
Y0017347D01*
X0082813Y0017258D02*
X0082636D01*
X0082378Y0017391D02*
Y0017125D01*
X0082356Y0017391D02*
X0082489D01*
X0082533Y0017302D01*
Y0017213D01*
X0082489Y0017125D01*
X0082356D01*
X0084593Y0018186D02*
X0084616Y0018230D01*
X0084749D01*
X0084771Y0018186D01*
Y0018141D01*
X0084749Y0018097D01*
X0084616D01*
X0084593Y0018052D01*
Y0018008D01*
X0084616Y0017963D01*
X0084749D01*
X0084771Y0018008D01*
X0084873Y0018230D02*
Y0018008D01*
X0084896Y0017963D01*
X0085029D01*
X0085051Y0018008D01*
Y0018230D01*
X0085309Y0017963D02*
Y0018230D01*
X0085331Y0017963D02*
X0085198D01*
X0085153Y0018008D01*
Y0018052D01*
X0085176Y0018097D01*
X0085309D02*
X0085176D01*
X0085153Y0018141D01*
Y0018186D01*
X0085198Y0018230D01*
X0085331D01*
X0085433D02*
Y0018141D01*
X0085522Y0017963D01*
X0085611Y0018141D01*
Y0018230D01*
X0082813Y0018108D02*
X0082636D01*
X0082378Y0018241D02*
Y0017975D01*
X0082356Y0018241D02*
X0082489D01*
X0082533Y0018152D01*
Y0018063D01*
X0082489Y0017975D01*
X0082356D01*
X0084779Y0017163D02*
Y0017430D01*
X0084801Y0017163D02*
X0084668D01*
X0084623Y0017252D01*
Y0017341D01*
X0084668Y0017430D01*
X0084801D01*
X0084903D02*
Y0017163D01*
X0084948Y0017208D01*
X0085037Y0017386D01*
X0085081Y0017430D01*
Y0017163D01*
X0085272Y0017297D02*
X0085183D01*
Y0017208D01*
X0085206Y0017163D01*
X0085339D01*
X0085361Y0017208D01*
Y0017386D01*
X0085339Y0017430D01*
X0085206D01*
X0085183Y0017386D01*
X0028987Y0023019D02*
Y0023086D01*
Y0023052D02*
X0028787D01*
X0028820Y0023086D01*
X0027967Y0022996D02*
Y0023129D01*
X0027833Y0022996D01*
X0027800D01*
X0027767Y0023012D01*
Y0023112D01*
X0027800Y0023129D01*
X0026873Y0023149D02*
X0026907Y0023116D01*
Y0023049D01*
X0026873Y0023016D01*
X0026840D01*
X0026773Y0023082D01*
X0026707Y0023016D01*
Y0023149D01*
X0028897Y0026072D02*
Y0025972D01*
X0028930Y0025956D01*
X0028963D01*
X0028997Y0025972D01*
Y0026072D01*
X0028963Y0026089D01*
X0028930D01*
X0028797Y0026022D01*
X0027943Y0026099D02*
X0027977Y0026082D01*
Y0025982D01*
X0027943Y0025966D01*
X0027877D01*
X0027843Y0025999D01*
Y0026099D01*
X0027777D01*
Y0025966D01*
X0026850Y0025986D02*
Y0026119D01*
X0026717Y0026052D01*
Y0026019D01*
X0026917D01*
X0026562Y0024572D02*
X0026512Y0024622D01*
X0026462Y0024647D01*
X0026362D01*
X0026312Y0024622D01*
X0026262Y0024572D01*
Y0024522D01*
X0026312Y0024472D01*
X0026362Y0024447D01*
X0026462D01*
X0026512Y0024472D01*
X0026562Y0024522D01*
Y0024572D01*
Y0024752D02*
Y0024852D01*
Y0024802D02*
X0026262D01*
X0026312Y0024852D01*
X0026562Y0025007D02*
Y0025182D01*
X0026262D01*
X0088194Y0028241D02*
X0088261D01*
X0088228D02*
Y0028441D01*
X0088261Y0028408D01*
X0088441Y0028341D02*
X0088391Y0028241D01*
X0088524Y0028341D02*
X0088424D01*
X0088391Y0028374D01*
Y0028408D01*
X0088424Y0028441D01*
X0088524D01*
Y0028241D01*
X0088621Y0028441D02*
Y0028274D01*
X0088638Y0028241D01*
X0088688Y0028341D01*
Y0028374D02*
Y0028341D01*
X0088738Y0028241D01*
X0088754Y0028274D01*
Y0028441D01*
X0088984Y0028341D02*
X0088884D01*
X0088851Y0028374D01*
Y0028408D01*
X0088884Y0028441D01*
X0088984D01*
Y0028241D01*
X0089081Y0028174D02*
X0089214D01*
X0089428Y0028241D02*
Y0028441D01*
X0089444Y0028241D02*
X0089344D01*
X0089311Y0028274D01*
Y0028308D01*
X0089328Y0028341D01*
X0089428D02*
X0089328D01*
X0089311Y0028374D01*
Y0028408D01*
X0089344Y0028441D01*
X0089444D01*
X0089541Y0028408D02*
X0089558Y0028441D01*
X0089658D01*
X0089674Y0028408D01*
Y0028374D01*
X0089658Y0028341D01*
X0089558D01*
X0089541Y0028308D01*
Y0028274D01*
X0089558Y0028241D01*
X0089658D01*
X0089674Y0028274D01*
X0089771Y0028441D02*
Y0028274D01*
X0089788Y0028241D01*
X0089888D01*
X0089904Y0028274D01*
Y0028441D01*
X0088194Y0028268D02*
X0088261D01*
X0088228D02*
Y0028468D01*
X0088261Y0028435D01*
X0088441Y0028368D02*
X0088391Y0028268D01*
X0088524Y0028368D02*
X0088424D01*
X0088391Y0028401D01*
Y0028435D01*
X0088424Y0028468D01*
X0088524D01*
Y0028268D01*
X0088621Y0028468D02*
Y0028301D01*
X0088638Y0028268D01*
X0088688Y0028368D01*
Y0028401D02*
Y0028368D01*
X0088738Y0028268D01*
X0088754Y0028301D01*
Y0028468D01*
X0088984Y0028368D02*
X0088884D01*
X0088851Y0028401D01*
Y0028435D01*
X0088884Y0028468D01*
X0088984D01*
Y0028268D01*
X0089081Y0028201D02*
X0089214D01*
X0089428Y0028268D02*
Y0028468D01*
X0089444Y0028268D02*
X0089344D01*
X0089311Y0028301D01*
Y0028335D01*
X0089328Y0028368D01*
X0089428D02*
X0089328D01*
X0089311Y0028401D01*
Y0028435D01*
X0089344Y0028468D01*
X0089444D01*
X0089541Y0028435D02*
X0089558Y0028468D01*
X0089658D01*
X0089674Y0028435D01*
Y0028401D01*
X0089658Y0028368D01*
X0089558D01*
X0089541Y0028335D01*
Y0028301D01*
X0089558Y0028268D01*
X0089658D01*
X0089674Y0028301D01*
X0089771Y0028468D02*
Y0028301D01*
X0089788Y0028268D01*
X0089888D01*
X0089904Y0028301D01*
Y0028468D01*
G54D103*
G01X0039251Y0096763D02*
X0039607D01*
X0039251Y0097119D01*
Y0097208D01*
X0039296Y0097297D01*
X0039563D01*
X0039607Y0097208D01*
X0040163Y0096763D02*
X0040207Y0096852D01*
Y0097208D01*
X0040163Y0097297D01*
X0039896D01*
X0039851Y0097208D01*
Y0096852D01*
X0039896Y0096763D01*
X0040163D01*
X0040629D02*
Y0097297D01*
X0040451D02*
X0040807D01*
X0041051Y0096763D02*
Y0097297D01*
X0041140Y0097208D01*
X0041229Y0097030D01*
X0041318Y0097208D01*
X0041407Y0097297D01*
Y0096763D01*
X0041740Y0097030D02*
X0042007D01*
X0041651Y0096763D02*
X0042007D01*
Y0097297D01*
X0041651D01*
X0042340Y0097030D02*
X0042607D01*
Y0096763D02*
Y0097297D01*
X0042251D01*
X0036696Y0095188D02*
X0036785Y0095277D01*
X0036829Y0095366D01*
Y0095544D01*
X0036785Y0095633D01*
X0036696Y0095722D01*
X0036607D01*
X0036518Y0095633D01*
X0036474Y0095544D01*
Y0095366D01*
X0036518Y0095277D01*
X0036607Y0095188D01*
X0036696D01*
X0037074Y0095722D02*
Y0095544D01*
X0037252Y0095188D01*
X0037429Y0095544D01*
Y0095722D01*
X0037674Y0095188D02*
X0037852D01*
X0037763D02*
Y0095722D01*
X0037852Y0095633D01*
X0038185Y0095011D02*
X0038540D01*
X0038963Y0095188D02*
Y0095455D01*
X0038785Y0095722D02*
X0038918Y0095455D01*
X0039007D01*
X0039140Y0095722D01*
X0039385Y0095366D02*
X0039740D01*
X0039385Y0095188D02*
Y0095455D01*
X0039518Y0095722D01*
X0039607D01*
X0039740Y0095455D01*
Y0095188D01*
X0039985D02*
X0040296D01*
Y0095722D01*
X0040896Y0095455D02*
X0040629D01*
X0040540Y0095544D01*
Y0095633D01*
X0040629Y0095722D01*
X0040896D01*
Y0095188D01*
X0041140Y0095633D02*
X0041185Y0095722D01*
X0041452D01*
X0041496Y0095633D01*
Y0095544D01*
X0041452Y0095455D01*
X0041185D01*
X0041140Y0095366D01*
Y0095277D01*
X0041185Y0095188D01*
X0041452D01*
X0041496Y0095277D01*
X0041740Y0095188D02*
X0041918D01*
X0041829D02*
Y0095722D01*
X0041740D02*
X0041918D01*
X0042563Y0095188D02*
Y0095722D01*
X0042607Y0095188D02*
X0042340D01*
X0042251Y0095366D01*
Y0095544D01*
X0042340Y0095722D01*
X0042607D01*
X0077212Y0071186D02*
Y0069386D01*
X0078782Y0071176D02*
Y0069376D01*
X0040712Y0051037D02*
Y0048874D01*
X0039689D02*
Y0051037D01*
X0038706Y0048874D02*
Y0051037D01*
X0037683Y0048874D02*
Y0051037D01*
X0036700Y0048874D02*
Y0051037D01*
X0035677Y0048874D02*
Y0051037D01*
X0034694Y0048874D02*
Y0051037D01*
X0033671Y0048874D02*
Y0051037D01*
X0032688Y0048834D02*
Y0050998D01*
X0031700Y0048874D02*
Y0051037D01*
X0030677Y0048874D02*
Y0051037D01*
X0029694Y0048874D02*
Y0051037D01*
X0028671Y0048874D02*
Y0051037D01*
X0027688Y0048834D02*
Y0050998D01*
X0041892Y0049936D02*
X0026800D01*
X0121612Y0081693D02*
Y0079530D01*
X0120589D02*
Y0081693D01*
X0119606Y0079530D02*
Y0081693D01*
X0118583Y0079530D02*
Y0081693D01*
X0117600Y0079530D02*
Y0081693D01*
X0116577Y0079530D02*
Y0081693D01*
X0115594Y0079530D02*
Y0081693D01*
X0114571Y0079530D02*
Y0081693D01*
X0113588Y0079491D02*
Y0081654D01*
X0112600Y0079530D02*
Y0081693D01*
X0111577Y0079530D02*
Y0081693D01*
X0110594Y0079530D02*
Y0081693D01*
X0109571Y0079530D02*
Y0081693D01*
X0108588Y0079491D02*
Y0081654D01*
X0122792Y0080592D02*
X0107700D01*
X0121023Y0019678D02*
Y0020779D01*
X0119568Y0019678D02*
Y0020779D01*
X0099763Y0019678D02*
Y0020779D01*
X0098308Y0019678D02*
Y0020779D01*
X0026920Y0024631D02*
X0028760D01*
X0026830Y0024906D02*
Y0025276D01*
X0028850Y0023796D02*
Y0024166D01*
X0026850Y0023786D02*
Y0024156D01*
X0028830Y0024916D02*
Y0025286D01*
X0028760Y0024426D02*
X0026920D01*
X0006750Y0074598D02*
X0008550D01*
X0006760Y0076168D02*
X0008560D01*
X0017700Y0074598D02*
X0019500D01*
X0017710Y0076168D02*
X0019510D01*
X0050512Y0071186D02*
Y0069386D01*
X0052082Y0071176D02*
Y0069376D01*
X0095650Y0082217D02*
Y0083217D01*
X0096650Y0082217D02*
Y0083217D01*
G01X0033736Y0005552D02*
G03X0034876Y0006692I0000000J0001140D01*
G01X0032596D02*
G03X0033736Y0005552I0001140J0000000D01*
Y0007832D02*
G03X0032596Y0006692I0000000J0001140D01*
G01X0034876D02*
G03X0033736Y0007832I0001140J0000000D01*
G01X0139764Y0000259D02*
G03X0141467Y0001962I0000000J0001703D01*
G01X0138061D02*
G03X0139764Y0000259I0001703J0000000D01*
Y0003665D02*
G03X0138061Y0001962I0000000J0001703D01*
G01X0141467D02*
G03X0139764Y0003665I0001703J0000000D01*
G01X0001968Y0000259D02*
G03X0003671Y0001962I0000000J0001703D01*
G01X0000265D02*
G03X0001968Y0000259I0001703J0000000D01*
Y0003666D02*
G03X0000264Y0001962I0000000J0001704D01*
G01X0003672D02*
G03X0001968Y0003666I0001704J0000000D01*
Y0072701D02*
G03X0003671Y0074404I0000000J0001703D01*
G01X0000265D02*
G03X0001968Y0072701I0001703J0000000D01*
Y0076107D02*
G03X0000265Y0074404I0000000J0001703D01*
G01X0003671D02*
G03X0001968Y0076107I0001703J0000000D01*
Y0080575D02*
G03X0003671Y0082278I0000000J0001703D01*
G01X0000265D02*
G03X0001968Y0080575I0001703J0000000D01*
Y0083981D02*
G03X0000265Y0082278I0000000J0001703D01*
G01X0003671D02*
G03X0001968Y0083981I0001703J0000000D01*
G01X0029528Y0080575D02*
G03X0031231Y0082278I0000000J0001703D01*
G01X0027825D02*
G03X0029528Y0080575I0001703J0000000D01*
Y0083981D02*
G03X0027825Y0082278I0000000J0001703D01*
G01X0031231D02*
G03X0029528Y0083981I0001703J0000000D01*
Y0072701D02*
G03X0031231Y0074404I0000000J0001703D01*
G01X0027825D02*
G03X0029528Y0072701I0001703J0000000D01*
Y0076107D02*
G03X0027825Y0074404I0000000J0001703D01*
G01X0031231D02*
G03X0029528Y0076107I0001703J0000000D01*
G01X0026955Y0024780D02*
G03X0027080Y0024891I0000000J0000126D01*
G01X0026830D02*
G03X0026955Y0024780I0000125J0000015D01*
G01X0027090Y0025046D02*
G03X0027190Y0025146I0000000J0000100D01*
G01X0026990D02*
G03X0027090Y0025046I0000100J0000000D01*
Y0025246D02*
G03X0026990Y0025146I0000000J0000100D01*
G01X0027190D02*
G03X0027090Y0025246I0000100J0000000D01*
G01X0028205Y0024780D02*
G03X0028330Y0024891I0000000J0000126D01*
G01X0028080D02*
G03X0028205Y0024780I0000125J0000015D01*
G01X0027955D02*
G03X0028080Y0024891I0000000J0000126D01*
G01X0027830D02*
G03X0027955Y0024780I0000125J0000015D01*
G01X0027705D02*
G03X0027830Y0024891I0000000J0000126D01*
G01X0027580D02*
G03X0027705Y0024780I0000125J0000015D01*
G01X0027455D02*
G03X0027580Y0024891I0000000J0000126D01*
G01X0027330D02*
G03X0027455Y0024780I0000125J0000015D01*
G01X0027205D02*
G03X0027330Y0024891I0000000J0000126D01*
G01X0027080D02*
G03X0027205Y0024780I0000125J0000015D01*
G01X0028550Y0023776D02*
G03X0028650Y0023876I0000000J0000100D01*
G01X0028450D02*
G03X0028550Y0023776I0000100J0000000D01*
Y0023976D02*
G03X0028450Y0023876I0000000J0000100D01*
G01X0028650D02*
G03X0028550Y0023976I0000100J0000000D01*
G01X0026975Y0024277D02*
G03X0026850Y0024166I0000000J0000126D01*
G01X0027100D02*
G03X0026975Y0024277I0000125J0000015D01*
G01X0027225D02*
G03X0027100Y0024166I0000000J0000126D01*
G01X0027350D02*
G03X0027225Y0024277I0000125J0000015D01*
G01X0027475D02*
G03X0027350Y0024166I0000000J0000126D01*
G01X0027600D02*
G03X0027475Y0024277I0000125J0000015D01*
G01X0027725D02*
G03X0027600Y0024166I0000000J0000126D01*
G01X0027850D02*
G03X0027725Y0024277I0000125J0000015D01*
G01X0027975D02*
G03X0027850Y0024166I0000000J0000126D01*
G01X0028100D02*
G03X0027975Y0024277I0000125J0000015D01*
G01X0028225D02*
G03X0028100Y0024166I0000000J0000126D01*
G01X0028350D02*
G03X0028225Y0024277I0000125J0000015D01*
G01X0028475D02*
G03X0028350Y0024166I0000000J0000126D01*
G01X0028600D02*
G03X0028475Y0024277I0000125J0000015D01*
G01X0028725D02*
G03X0028600Y0024166I0000000J0000126D01*
G01X0028850D02*
G03X0028725Y0024277I0000125J0000015D01*
G01X0028705Y0024780D02*
G03X0028830Y0024891I0000000J0000126D01*
G01X0028580D02*
G03X0028705Y0024780I0000125J0000015D01*
G01X0028455D02*
G03X0028580Y0024891I0000000J0000126D01*
G01X0028330D02*
G03X0028455Y0024780I0000125J0000015D01*
G01X0027559Y0084917D02*
G03X0029262Y0086620I0000000J0001703D01*
G01X0025856D02*
G03X0027559Y0084917I0001703J0000000D01*
Y0088323D02*
G03X0025856Y0086620I0000000J0001703D01*
G01X0029262D02*
G03X0027559Y0088323I0001703J0000000D01*
G01X0001962Y0084911D02*
G03X0003665Y0086614I0000000J0001703D01*
G01X0000259D02*
G03X0001962Y0084911I0001703J0000000D01*
Y0088318D02*
G03X0000258Y0086614I0000000J0001704D01*
G01X0003666D02*
G03X0001962Y0088318I0001704J0000000D01*
Y0095147D02*
G03X0003665Y0096850I0000000J0001703D01*
G01X0000259D02*
G03X0001962Y0095147I0001703J0000000D01*
Y0098554D02*
G03X0000258Y0096850I0000000J0001704D01*
G01X0003666D02*
G03X0001962Y0098554I0001704J0000000D01*
G01X0003931Y0021526D02*
G03X0005634Y0023229I0000000J0001703D01*
G01X0002228D02*
G03X0003931Y0021526I0001703J0000000D01*
Y0024932D02*
G03X0002228Y0023229I0000000J0001703D01*
G01X0005634D02*
G03X0003931Y0024932I0001703J0000000D01*
G01X0139758Y0021526D02*
G03X0141461Y0023229I0000000J0001703D01*
G01X0138055D02*
G03X0139758Y0021526I0001703J0000000D01*
Y0024932D02*
G03X0138055Y0023229I0000000J0001703D01*
G01X0141461D02*
G03X0139758Y0024932I0001703J0000000D01*
G01X0061018Y0031368D02*
G03X0062721Y0033071I0000000J0001703D01*
G01X0059315D02*
G03X0061018Y0031368I0001703J0000000D01*
Y0034774D02*
G03X0059315Y0033071I0000000J0001703D01*
G01X0062721D02*
G03X0061018Y0034774I0001703J0000000D01*
G01X0096451Y0031368D02*
G03X0098154Y0033071I0000000J0001703D01*
G01X0094748D02*
G03X0096451Y0031368I0001703J0000000D01*
Y0034774D02*
G03X0094748Y0033071I0000000J0001703D01*
G01X0098154D02*
G03X0096451Y0034774I0001703J0000000D01*
G01X0003931Y0068770D02*
G03X0005634Y0070473I0000000J0001703D01*
G01X0002228D02*
G03X0003931Y0068770I0001703J0000000D01*
Y0072176D02*
G03X0002228Y0070473I0000000J0001703D01*
G01X0005634D02*
G03X0003931Y0072176I0001703J0000000D01*
G01X0033465Y0095141D02*
G03X0035168Y0096844I0000000J0001703D01*
G01X0031762D02*
G03X0033465Y0095141I0001703J0000000D01*
Y0098547D02*
G03X0031762Y0096844I0000000J0001703D01*
G01X0035168D02*
G03X0033465Y0098547I0001703J0000000D01*
Y0072701D02*
G03X0035168Y0074404I0000000J0001703D01*
G01X0031762D02*
G03X0033465Y0072701I0001703J0000000D01*
Y0076107D02*
G03X0031762Y0074404I0000000J0001703D01*
G01X0035168D02*
G03X0033465Y0076107I0001703J0000000D01*
G01X0139764Y0072701D02*
G03X0141467Y0074404I0000000J0001703D01*
G01X0138061D02*
G03X0139764Y0072701I0001703J0000000D01*
Y0076107D02*
G03X0138061Y0074404I0000000J0001703D01*
G01X0141467D02*
G03X0139764Y0076107I0001703J0000000D01*
Y0095141D02*
G03X0141467Y0096844I0000000J0001703D01*
G01X0138061D02*
G03X0139764Y0095141I0001703J0000000D01*
Y0098547D02*
G03X0138061Y0096844I0000000J0001703D01*
G01X0141467D02*
G03X0139764Y0098547I0001703J0000000D01*
Y0068764D02*
G03X0141467Y0070467I0000000J0001703D01*
G01X0138061D02*
G03X0139764Y0068764I0001703J0000000D01*
Y0072170D02*
G03X0138061Y0070467I0000000J0001703D01*
G01X0141467D02*
G03X0139764Y0072170I0001703J0000000D01*
G01X0125984Y0072701D02*
G03X0127687Y0074404I0000000J0001703D01*
G01X0124281D02*
G03X0125984Y0072701I0001703J0000000D01*
Y0076107D02*
G03X0124281Y0074404I0000000J0001703D01*
G01X0127687D02*
G03X0125984Y0076107I0001703J0000000D01*
Y0095141D02*
G03X0127687Y0096844I0000000J0001703D01*
G01X0124281D02*
G03X0125984Y0095141I0001703J0000000D01*
Y0098547D02*
G03X0124281Y0096844I0000000J0001703D01*
G01X0127687D02*
G03X0125984Y0098547I0001703J0000000D01*
G01X0027559Y0095153D02*
G03X0029262Y0096856I0000000J0001703D01*
G01X0025856D02*
G03X0027559Y0095153I0001703J0000000D01*
Y0098559D02*
G03X0025856Y0096856I0000000J0001703D01*
G01X0029262D02*
G03X0027559Y0098559I0001703J0000000D01*
G01X0061693Y0005560D02*
G03X0062833Y0006700I0000000J0001140D01*
G01X0060553D02*
G03X0061693Y0005560I0001140J0000000D01*
Y0007840D02*
G03X0060553Y0006700I0000000J0001140D01*
G01X0062833D02*
G03X0061693Y0007840I0001140J0000000D01*
G54D105*
G01X0046389Y0004600D02*
X0049989D01*
Y0001700D01*
X0046389D01*
Y0004600D01*
X0049989Y0005243D02*
X0046389D01*
Y0008143D01*
X0049989D01*
Y0005243D01*
X0036921Y0002095D02*
Y0003095D01*
X0037901Y0002095D02*
Y0003095D01*
X0033981Y0002095D02*
Y0003095D01*
X0038811Y0001875D02*
X0039371Y0002435D01*
X0032511Y0003815D02*
X0039371D01*
Y0001875D01*
X0032511D01*
Y0003815D01*
X0035941Y0003095D02*
Y0002095D01*
X0034961D02*
Y0003095D01*
X0046446Y0005243D02*
X0042846D01*
Y0008143D01*
X0046446D01*
Y0005243D01*
X0060225Y0008786D02*
X0056625D01*
Y0011686D01*
X0060225D01*
Y0008786D01*
X0107392Y0086612D02*
X0106392D01*
X0107392Y0087592D02*
X0106392D01*
Y0085632D02*
X0107392D01*
X0107612Y0088502D02*
X0107052Y0089062D01*
X0105672Y0084170D02*
Y0089062D01*
X0107612D01*
Y0084170D01*
X0105672D01*
X0049989Y0008786D02*
X0046389D01*
Y0011686D01*
X0049989D01*
Y0008786D01*
X0060225Y0001699D02*
X0056625D01*
Y0004599D01*
X0060225D01*
Y0001699D01*
X0049932Y0008143D02*
X0053532D01*
Y0005243D01*
X0049932D01*
Y0008143D01*
X0014205Y0049431D02*
X0013205D01*
X0014205Y0050411D02*
X0013205D01*
Y0048451D02*
X0014205D01*
X0014425Y0051321D02*
X0013865Y0051881D01*
X0012485Y0046989D02*
Y0051881D01*
X0014425D01*
Y0046989D01*
X0012485D01*
X0107268Y0089980D02*
X0107828Y0090540D01*
X0104328Y0090200D02*
Y0091200D01*
X0105308Y0090200D02*
Y0091200D01*
X0101388Y0090200D02*
Y0091200D01*
X0098848Y0091920D02*
X0107848D01*
Y0089980D01*
X0098848D01*
Y0091920D01*
X0103348Y0091200D02*
Y0090200D01*
X0102368D02*
Y0091200D01*
X0100388Y0090200D02*
Y0091200D01*
X0106288Y0090200D02*
Y0091200D01*
X0105496Y0088502D02*
X0104936Y0089062D01*
X0103556Y0083186D02*
Y0089062D01*
X0105496D01*
Y0083186D01*
X0103556D01*
X0104276Y0085632D02*
X0105276D01*
Y0086612D02*
X0104276D01*
X0105276Y0087592D02*
X0104276D01*
X0105276Y0084652D02*
X0104276D01*
X0016615Y0051345D02*
X0016055Y0051905D01*
X0014675Y0046029D02*
Y0051905D01*
X0016615D01*
Y0046029D01*
X0014675D01*
X0015395Y0048475D02*
X0016395D01*
Y0049455D02*
X0015395D01*
X0016395Y0050435D02*
X0015395D01*
X0016395Y0047495D02*
X0015395D01*
X0103159Y0086611D02*
X0102159D01*
X0103159Y0087591D02*
X0102159D01*
X0103159Y0083671D02*
X0102159D01*
X0103379Y0088501D02*
X0102819Y0089061D01*
X0101439Y0082201D02*
Y0089061D01*
X0103379D01*
Y0082201D01*
X0101439D01*
X0102159Y0085631D02*
X0103159D01*
Y0084651D02*
X0102159D01*
X0064873Y0002100D02*
Y0003100D01*
X0065853Y0002100D02*
Y0003100D01*
X0061933Y0002100D02*
Y0003100D01*
X0066763Y0001880D02*
X0067323Y0002440D01*
X0060463Y0003820D02*
X0067323D01*
Y0001880D01*
X0060463D01*
Y0003820D01*
X0063893Y0003100D02*
Y0002100D01*
X0062913D02*
Y0003100D01*
X0134430Y0090462D02*
Y0086862D01*
X0131530D01*
Y0090462D01*
X0134430D01*
X0082533Y0070090D02*
Y0070740D01*
X0082183Y0070390D01*
X0082533Y0070040D01*
Y0070640D01*
X0082233Y0070340D01*
X0082283D01*
X0082483Y0070540D01*
Y0070140D01*
X0082308Y0070315D01*
X0082433Y0070440D01*
Y0070340D01*
X0082383D01*
X0082433Y0070240D01*
X0016195Y0092502D02*
X0014145D01*
Y0091002D01*
X0016195D01*
Y0092502D01*
X0015945D02*
Y0091002D01*
X0073984Y0017096D02*
Y0016166D01*
X0072944Y0016156D02*
Y0017086D01*
X0063748Y0017096D02*
Y0016166D01*
X0062708Y0016156D02*
Y0017086D01*
X0053512Y0017096D02*
Y0016166D01*
X0052472Y0016156D02*
Y0017086D01*
X0043276Y0017096D02*
Y0016166D01*
X0042236Y0016156D02*
Y0017086D01*
X0136597Y0069774D02*
X0125810D01*
Y0067834D01*
X0136597D01*
Y0069774D01*
X0126299Y0067834D02*
X0125811Y0068322D01*
X0008425Y0086337D02*
Y0097132D01*
X0011535D01*
Y0086337D01*
X0008425D01*
X0011532Y0096573D02*
X0010972Y0097133D01*
X0054969Y0007415D02*
Y0008415D01*
X0082974Y0007472D02*
Y0008472D01*
X0007885Y0078125D02*
X0007235D01*
X0007585Y0077775D01*
X0007935Y0078125D01*
X0007335D01*
X0007635Y0077825D01*
Y0077875D01*
X0007435Y0078075D01*
X0007835D01*
X0007660Y0077900D01*
X0007535Y0078025D01*
X0007635D01*
Y0077975D01*
X0007735Y0078025D01*
X0018835Y0078125D02*
X0018185D01*
X0018535Y0077775D01*
X0018885Y0078125D01*
X0018285D01*
X0018585Y0077825D01*
Y0077875D01*
X0018385Y0078075D01*
X0018785D01*
X0018610Y0077900D01*
X0018485Y0078025D01*
X0018585D01*
Y0077975D01*
X0018685Y0078025D01*
X0135074Y0074657D02*
Y0078257D01*
X0137974D01*
Y0074657D01*
X0135074D01*
X0054040Y0070051D02*
Y0070701D01*
X0053690Y0070351D01*
X0054040Y0070001D01*
Y0070601D01*
X0053740Y0070301D01*
X0053790D01*
X0053990Y0070501D01*
Y0070101D01*
X0053815Y0070276D01*
X0053940Y0070401D01*
Y0070301D01*
X0053890D01*
X0053940Y0070201D01*
X0099224Y0029618D02*
Y0029468D01*
X0098724Y0030618D02*
Y0031078D01*
Y0029618D02*
Y0029168D01*
X0098974Y0030618D02*
Y0030978D01*
X0099224Y0030618D02*
Y0030768D01*
X0098974Y0029618D02*
Y0029268D01*
X0105129Y0029618D02*
Y0029468D01*
X0104629Y0030618D02*
Y0031078D01*
Y0029618D02*
Y0029168D01*
X0104879Y0030618D02*
Y0030978D01*
X0105129Y0030618D02*
Y0030768D01*
X0104879Y0029618D02*
Y0029268D01*
X0111084Y0029618D02*
Y0029468D01*
X0110584Y0030618D02*
Y0031078D01*
Y0029618D02*
Y0029168D01*
X0110834Y0030618D02*
Y0030978D01*
X0111084Y0030618D02*
Y0030768D01*
X0110834Y0029618D02*
Y0029268D01*
X0116940Y0029618D02*
Y0029468D01*
X0116440Y0030618D02*
Y0031078D01*
Y0029618D02*
Y0029168D01*
X0116690Y0030618D02*
Y0030978D01*
X0116940Y0030618D02*
Y0030768D01*
X0116690Y0029618D02*
Y0029268D01*
X0122846Y0029618D02*
Y0029468D01*
X0122346Y0030618D02*
Y0031078D01*
Y0029618D02*
Y0029168D01*
X0122596Y0030618D02*
Y0030978D01*
X0122846Y0030618D02*
Y0030768D01*
X0122596Y0029618D02*
Y0029268D01*
X0128751Y0029618D02*
Y0029468D01*
X0128251Y0030618D02*
Y0031078D01*
Y0029618D02*
Y0029168D01*
X0128501Y0030618D02*
Y0030978D01*
X0128751Y0030618D02*
Y0030768D01*
X0128501Y0029618D02*
Y0029268D01*
X0074398Y0005243D02*
X0070798D01*
Y0008143D01*
X0074398D01*
Y0005243D01*
X0088178Y0008786D02*
X0084578D01*
Y0011686D01*
X0088178D01*
Y0008786D01*
X0077942D02*
X0074342D01*
Y0011686D01*
X0077942D01*
Y0008786D01*
Y0005243D02*
X0074342D01*
Y0008143D01*
X0077942D01*
Y0005243D01*
X0074342Y0004600D02*
X0077942D01*
Y0001700D01*
X0074342D01*
Y0004600D01*
X0077885Y0008143D02*
X0081485D01*
Y0005243D01*
X0077885D01*
Y0008143D01*
X0088178Y0001700D02*
X0084578D01*
Y0004600D01*
X0088178D01*
Y0001700D01*
X0127999Y0074657D02*
Y0078257D01*
X0130899D01*
Y0074657D01*
X0127999D01*
X0018805Y0051370D02*
X0018245Y0051930D01*
X0018585Y0049480D02*
X0017585D01*
X0018585Y0050460D02*
X0017585D01*
X0018585Y0046540D02*
X0017585D01*
X0016865Y0045070D02*
Y0051930D01*
X0018805D01*
Y0045070D01*
X0016865D01*
X0017585Y0048500D02*
X0018585D01*
X0134430Y0094399D02*
Y0090799D01*
X0131530D01*
Y0094399D01*
X0134430D01*
X0130489Y0090462D02*
Y0086862D01*
X0127589D01*
Y0090462D01*
X0130489D01*
X0018585Y0047520D02*
X0017585D01*
X0134430Y0086525D02*
Y0082925D01*
X0131530D01*
Y0086525D01*
X0134430D01*
X0138367Y0090462D02*
Y0086862D01*
X0135467D01*
Y0090462D01*
X0138367D01*
G01X0016295Y0090490D02*
G03X0016407Y0090602I0000000J0000112D01*
G01X0016183D02*
G03X0016295Y0090490I0000112J0000000D01*
Y0090714D02*
G03X0016183Y0090602I0000000J0000112D01*
G01X0016407D02*
G03X0016295Y0090714I0000112J0000000D01*
G01X0097474Y0030118D02*
G03X0098474Y0029118I0001000J0000000D01*
G03X0099474Y0030118I0000000J0001000D01*
G03X0098474Y0031118I0001000J0000000D01*
G03X0097474Y0030118I0000000J0001000D01*
G03X0098474Y0029118I0001000J0000000D01*
G03X0099474Y0030118I0000000J0001000D01*
G03X0098474Y0031118I0001000J0000000D01*
G03X0097474Y0030118I0000000J0001000D01*
G01X0103379D02*
G03X0104379Y0029118I0001000J0000000D01*
G03X0105379Y0030118I0000000J0001000D01*
G03X0104379Y0031118I0001000J0000000D01*
G03X0103379Y0030118I0000000J0001000D01*
G03X0104379Y0029118I0001000J0000000D01*
G03X0105379Y0030118I0000000J0001000D01*
G03X0104379Y0031118I0001000J0000000D01*
G03X0103379Y0030118I0000000J0001000D01*
G01X0109334D02*
G03X0110334Y0029118I0001000J0000000D01*
G03X0111334Y0030118I0000000J0001000D01*
G03X0110334Y0031118I0001000J0000000D01*
G03X0109334Y0030118I0000000J0001000D01*
G03X0110334Y0029118I0001000J0000000D01*
G03X0111334Y0030118I0000000J0001000D01*
G03X0110334Y0031118I0001000J0000000D01*
G03X0109334Y0030118I0000000J0001000D01*
G01X0115190D02*
G03X0116190Y0029118I0001000J0000000D01*
G03X0117190Y0030118I0000000J0001000D01*
G03X0116190Y0031118I0001000J0000000D01*
G03X0115190Y0030118I0000000J0001000D01*
G03X0116190Y0029118I0001000J0000000D01*
G03X0117190Y0030118I0000000J0001000D01*
G03X0116190Y0031118I0001000J0000000D01*
G03X0115190Y0030118I0000000J0001000D01*
G01X0121096D02*
G03X0122096Y0029118I0001000J0000000D01*
G03X0123096Y0030118I0000000J0001000D01*
G03X0122096Y0031118I0001000J0000000D01*
G03X0121096Y0030118I0000000J0001000D01*
G03X0122096Y0029118I0001000J0000000D01*
G03X0123096Y0030118I0000000J0001000D01*
G03X0122096Y0031118I0001000J0000000D01*
G03X0121096Y0030118I0000000J0001000D01*
G01X0127001D02*
G03X0128001Y0029118I0001000J0000000D01*
G03X0129001Y0030118I0000000J0001000D01*
G03X0128001Y0031118I0001000J0000000D01*
G03X0127001Y0030118I0000000J0001000D01*
G03X0128001Y0029118I0001000J0000000D01*
G03X0129001Y0030118I0000000J0001000D01*
G03X0128001Y0031118I0001000J0000000D01*
G03X0127001Y0030118I0000000J0001000D01*
G54D107*
G01X0076143Y0089171D02*
X0076318D01*
X0076231Y0089346D01*
X0076187D01*
Y0089084D01*
X0076458D02*
X0076633D01*
X0076458Y0089259D01*
Y0089302D01*
X0076480Y0089346D01*
X0076611D01*
X0076633Y0089302D01*
X0077321Y0089147D02*
X0077277Y0089103D01*
X0077190D01*
X0077146Y0089147D01*
Y0089191D01*
X0077234Y0089278D01*
X0077146Y0089366D01*
X0077321D01*
X0077461Y0089103D02*
X0077636D01*
X0077461Y0089278D01*
Y0089322D01*
X0077483Y0089366D01*
X0077614D01*
X0077636Y0089322D01*
X0078188Y0089084D02*
X0078363D01*
X0078188Y0089259D01*
Y0089302D01*
X0078210Y0089346D01*
X0078342D01*
X0078363Y0089302D01*
X0078503Y0089084D02*
X0078678D01*
X0078503Y0089259D01*
Y0089302D01*
X0078525Y0089346D01*
X0078656D01*
X0078678Y0089302D01*
X0079235Y0089103D02*
X0079323D01*
X0079279D02*
Y0089366D01*
X0079323Y0089322D01*
X0079506Y0089103D02*
X0079681D01*
X0079506Y0089278D01*
Y0089322D01*
X0079528Y0089366D01*
X0079659D01*
X0079681Y0089322D01*
X0080264Y0089103D02*
X0080308Y0089147D01*
X0080330Y0089191D01*
Y0089278D01*
X0080308Y0089322D01*
X0080264Y0089366D01*
X0080221D01*
X0080177Y0089322D01*
X0080155Y0089278D01*
Y0089191D01*
X0080177Y0089147D01*
X0080221Y0089103D01*
X0080264D01*
X0080470D02*
X0080645D01*
X0080470Y0089278D01*
Y0089322D01*
X0080492Y0089366D01*
X0080623D01*
X0080645Y0089322D01*
X0085467Y0089127D02*
X0085446Y0089084D01*
X0085314D01*
X0085292Y0089127D01*
Y0089215D01*
X0085336Y0089259D01*
X0085467D01*
Y0089346D01*
X0085292D01*
X0085607Y0089084D02*
X0085695D01*
X0085651D02*
Y0089346D01*
X0085695Y0089302D01*
X0081361Y0089215D02*
X0081493D01*
X0081514Y0089259D01*
Y0089302D01*
X0081493Y0089346D01*
X0081361D01*
X0081339Y0089302D01*
Y0089259D01*
X0081427Y0089084D01*
X0081654D02*
X0081742D01*
X0081698D02*
Y0089346D01*
X0081742Y0089302D01*
X0082325Y0089235D02*
X0082303Y0089278D01*
Y0089322D01*
X0082325Y0089366D01*
X0082456D01*
X0082478Y0089322D01*
Y0089278D01*
X0082456Y0089235D01*
X0082325D01*
X0082303Y0089191D01*
Y0089147D01*
X0082325Y0089103D01*
X0082456D01*
X0082478Y0089147D01*
Y0089191D01*
X0082456Y0089235D01*
X0082618Y0089103D02*
X0082705D01*
X0082662D02*
Y0089366D01*
X0082705Y0089322D01*
X0072306Y0081875D02*
X0072393D01*
X0072349D02*
Y0082138D01*
X0072393Y0082094D01*
X0084482Y0089215D02*
X0084351D01*
X0084329Y0089171D01*
Y0089127D01*
X0084351Y0089084D01*
X0084482D01*
X0084504Y0089127D01*
Y0089171D01*
X0084416Y0089346D01*
X0084644Y0089084D02*
X0084731D01*
X0084687D02*
Y0089346D01*
X0084731Y0089302D01*
X0083496Y0089084D02*
X0083365Y0089346D01*
X0083540D01*
X0083680Y0089084D02*
X0083767D01*
X0083724D02*
Y0089346D01*
X0083767Y0089302D01*
X0073265Y0081875D02*
X0073440D01*
X0073265Y0082050D01*
Y0082094D01*
X0073287Y0082138D01*
X0073418D01*
X0073440Y0082094D01*
X0074462Y0081919D02*
X0074419Y0081875D01*
X0074331D01*
X0074287Y0081919D01*
Y0081963D01*
X0074375Y0082050D01*
X0074287Y0082138D01*
X0074462D01*
X0075290Y0081963D02*
X0075465D01*
X0075378Y0082138D01*
X0075334D01*
Y0081875D01*
X0076429Y0081939D02*
X0076407Y0081895D01*
X0076276D01*
X0076254Y0081939D01*
Y0082026D01*
X0076298Y0082070D01*
X0076429D01*
Y0082157D01*
X0076254D01*
X0077410Y0082046D02*
X0077279D01*
X0077257Y0082002D01*
Y0081958D01*
X0077279Y0081915D01*
X0077410D01*
X0077432Y0081958D01*
Y0082002D01*
X0077345Y0082177D01*
X0078431Y0081895D02*
X0078299Y0082157D01*
X0078474D01*
X0079324Y0082046D02*
X0079302Y0082089D01*
Y0082133D01*
X0079324Y0082177D01*
X0079456D01*
X0079477Y0082133D01*
Y0082089D01*
X0079456Y0082046D01*
X0079324D01*
X0079302Y0082002D01*
Y0081958D01*
X0079324Y0081915D01*
X0079456D01*
X0079477Y0081958D01*
Y0082002D01*
X0079456Y0082046D01*
X0080288D02*
X0080419D01*
X0080441Y0082089D01*
Y0082133D01*
X0080419Y0082177D01*
X0080288D01*
X0080266Y0082133D01*
Y0082089D01*
X0080354Y0081915D01*
X0081245Y0081895D02*
X0081289Y0081939D01*
X0081311Y0081982D01*
Y0082070D01*
X0081289Y0082114D01*
X0081245Y0082157D01*
X0081201D01*
X0081158Y0082114D01*
X0081136Y0082070D01*
Y0081982D01*
X0081158Y0081939D01*
X0081201Y0081895D01*
X0081245D01*
X0081451D02*
X0081538D01*
X0081494D02*
Y0082157D01*
X0081538Y0082114D01*
X0082143Y0081915D02*
X0082231D01*
X0082187D02*
Y0082177D01*
X0082231Y0082133D01*
X0082414Y0081915D02*
X0082502D01*
X0082458D02*
Y0082177D01*
X0082502Y0082133D01*
X0084300Y0081939D02*
X0084256Y0081895D01*
X0084169D01*
X0084125Y0081939D01*
Y0081982D01*
X0084213Y0082070D01*
X0084125Y0082157D01*
X0084300D01*
X0084440Y0081895D02*
X0084527D01*
X0084484D02*
Y0082157D01*
X0084527Y0082114D01*
X0083161Y0081895D02*
X0083336D01*
X0083161Y0082070D01*
Y0082114D01*
X0083183Y0082157D01*
X0083315D01*
X0083336Y0082114D01*
X0083476Y0081895D02*
X0083564D01*
X0083520D02*
Y0082157D01*
X0083564Y0082114D01*
X0085089Y0081982D02*
X0085264D01*
X0085176Y0082157D01*
X0085132D01*
Y0081895D01*
X0085404D02*
X0085491D01*
X0085447D02*
Y0082157D01*
X0085491Y0082114D01*
X0075354Y0089108D02*
X0075333Y0089064D01*
X0075201D01*
X0075179Y0089108D01*
Y0089195D01*
X0075223Y0089239D01*
X0075354D01*
Y0089326D01*
X0075179D01*
X0075494Y0089064D02*
X0075669D01*
X0075494Y0089239D01*
Y0089283D01*
X0075516Y0089326D01*
X0075647D01*
X0075669Y0089283D01*
X0072173Y0089195D02*
X0072151Y0089239D01*
Y0089283D01*
X0072173Y0089326D01*
X0072304D01*
X0072326Y0089283D01*
Y0089239D01*
X0072304Y0089195D01*
X0072173D01*
X0072151Y0089151D01*
Y0089108D01*
X0072173Y0089064D01*
X0072304D01*
X0072326Y0089108D01*
Y0089151D01*
X0072304Y0089195D01*
X0072466Y0089064D02*
X0072641D01*
X0072466Y0089239D01*
Y0089283D01*
X0072488Y0089326D01*
X0072619D01*
X0072641Y0089283D01*
X0073285Y0089064D02*
X0073154Y0089326D01*
X0073329D01*
X0073469Y0089064D02*
X0073644D01*
X0073469Y0089239D01*
Y0089283D01*
X0073491Y0089326D01*
X0073622D01*
X0073644Y0089283D01*
X0074330Y0089195D02*
X0074198D01*
X0074176Y0089151D01*
Y0089108D01*
X0074198Y0089064D01*
X0074330D01*
X0074351Y0089108D01*
Y0089151D01*
X0074264Y0089326D01*
X0074491Y0089064D02*
X0074666D01*
X0074491Y0089239D01*
Y0089283D01*
X0074513Y0089326D01*
X0074644D01*
X0074666Y0089283D01*
X0046350Y0089195D02*
X0046218D01*
X0046196Y0089151D01*
Y0089108D01*
X0046218Y0089064D01*
X0046350D01*
X0046371Y0089108D01*
Y0089151D01*
X0046284Y0089326D01*
X0046511Y0089064D02*
X0046686D01*
X0046511Y0089239D01*
Y0089283D01*
X0046533Y0089326D01*
X0046664D01*
X0046686Y0089283D01*
X0048163Y0089171D02*
X0048338D01*
X0048251Y0089346D01*
X0048207D01*
Y0089084D01*
X0048478D02*
X0048653D01*
X0048478Y0089259D01*
Y0089302D01*
X0048500Y0089346D01*
X0048631D01*
X0048653Y0089302D01*
X0049341Y0089147D02*
X0049297Y0089103D01*
X0049210D01*
X0049166Y0089147D01*
Y0089191D01*
X0049254Y0089278D01*
X0049166Y0089366D01*
X0049341D01*
X0049481Y0089103D02*
X0049656D01*
X0049481Y0089278D01*
Y0089322D01*
X0049503Y0089366D01*
X0049634D01*
X0049656Y0089322D01*
X0045285Y0081875D02*
X0045460D01*
X0045285Y0082050D01*
Y0082094D01*
X0045307Y0082138D01*
X0045438D01*
X0045460Y0082094D01*
X0050208Y0089084D02*
X0050383D01*
X0050208Y0089259D01*
Y0089302D01*
X0050230Y0089346D01*
X0050362D01*
X0050383Y0089302D01*
X0050523Y0089084D02*
X0050698D01*
X0050523Y0089259D01*
Y0089302D01*
X0050545Y0089346D01*
X0050676D01*
X0050698Y0089302D01*
X0051255Y0089103D02*
X0051343D01*
X0051299D02*
Y0089366D01*
X0051343Y0089322D01*
X0051526Y0089103D02*
X0051701D01*
X0051526Y0089278D01*
Y0089322D01*
X0051548Y0089366D01*
X0051679D01*
X0051701Y0089322D01*
X0046482Y0081919D02*
X0046439Y0081875D01*
X0046351D01*
X0046307Y0081919D01*
Y0081963D01*
X0046395Y0082050D01*
X0046307Y0082138D01*
X0046482D01*
X0047310Y0081963D02*
X0047485D01*
X0047398Y0082138D01*
X0047354D01*
Y0081875D01*
X0048449Y0081939D02*
X0048427Y0081895D01*
X0048296D01*
X0048274Y0081939D01*
Y0082026D01*
X0048318Y0082070D01*
X0048449D01*
Y0082157D01*
X0048274D01*
X0052284Y0089103D02*
X0052328Y0089147D01*
X0052350Y0089191D01*
Y0089278D01*
X0052328Y0089322D01*
X0052284Y0089366D01*
X0052241D01*
X0052197Y0089322D01*
X0052175Y0089278D01*
Y0089191D01*
X0052197Y0089147D01*
X0052241Y0089103D01*
X0052284D01*
X0052490D02*
X0052665D01*
X0052490Y0089278D01*
Y0089322D01*
X0052512Y0089366D01*
X0052643D01*
X0052665Y0089322D01*
X0049430Y0082046D02*
X0049299D01*
X0049277Y0082002D01*
Y0081958D01*
X0049299Y0081915D01*
X0049430D01*
X0049452Y0081958D01*
Y0082002D01*
X0049365Y0082177D01*
X0057487Y0089127D02*
X0057466Y0089084D01*
X0057334D01*
X0057312Y0089127D01*
Y0089215D01*
X0057356Y0089259D01*
X0057487D01*
Y0089346D01*
X0057312D01*
X0057627Y0089084D02*
X0057715D01*
X0057671D02*
Y0089346D01*
X0057715Y0089302D01*
X0054345Y0089235D02*
X0054323Y0089278D01*
Y0089322D01*
X0054345Y0089366D01*
X0054476D01*
X0054498Y0089322D01*
Y0089278D01*
X0054476Y0089235D01*
X0054345D01*
X0054323Y0089191D01*
Y0089147D01*
X0054345Y0089103D01*
X0054476D01*
X0054498Y0089147D01*
Y0089191D01*
X0054476Y0089235D01*
X0054638Y0089103D02*
X0054725D01*
X0054682D02*
Y0089366D01*
X0054725Y0089322D01*
X0050451Y0081895D02*
X0050319Y0082157D01*
X0050494D01*
X0053381Y0089215D02*
X0053513D01*
X0053534Y0089259D01*
Y0089302D01*
X0053513Y0089346D01*
X0053381D01*
X0053359Y0089302D01*
Y0089259D01*
X0053447Y0089084D01*
X0053674D02*
X0053762D01*
X0053718D02*
Y0089346D01*
X0053762Y0089302D01*
X0051344Y0082046D02*
X0051322Y0082089D01*
Y0082133D01*
X0051344Y0082177D01*
X0051476D01*
X0051497Y0082133D01*
Y0082089D01*
X0051476Y0082046D01*
X0051344D01*
X0051322Y0082002D01*
Y0081958D01*
X0051344Y0081915D01*
X0051476D01*
X0051497Y0081958D01*
Y0082002D01*
X0051476Y0082046D01*
X0052308D02*
X0052439D01*
X0052461Y0082089D01*
Y0082133D01*
X0052439Y0082177D01*
X0052308D01*
X0052286Y0082133D01*
Y0082089D01*
X0052374Y0081915D01*
X0053265Y0081895D02*
X0053309Y0081939D01*
X0053331Y0081982D01*
Y0082070D01*
X0053309Y0082114D01*
X0053265Y0082157D01*
X0053221D01*
X0053178Y0082114D01*
X0053156Y0082070D01*
Y0081982D01*
X0053178Y0081939D01*
X0053221Y0081895D01*
X0053265D01*
X0053471D02*
X0053558D01*
X0053514D02*
Y0082157D01*
X0053558Y0082114D01*
X0054163Y0081915D02*
X0054251D01*
X0054207D02*
Y0082177D01*
X0054251Y0082133D01*
X0054434Y0081915D02*
X0054522D01*
X0054478D02*
Y0082177D01*
X0054522Y0082133D01*
X0056320Y0081939D02*
X0056276Y0081895D01*
X0056189D01*
X0056145Y0081939D01*
Y0081982D01*
X0056233Y0082070D01*
X0056145Y0082157D01*
X0056320D01*
X0056460Y0081895D02*
X0056547D01*
X0056504D02*
Y0082157D01*
X0056547Y0082114D01*
X0055181Y0081895D02*
X0055356D01*
X0055181Y0082070D01*
Y0082114D01*
X0055203Y0082157D01*
X0055335D01*
X0055356Y0082114D01*
X0055496Y0081895D02*
X0055584D01*
X0055540D02*
Y0082157D01*
X0055584Y0082114D01*
X0057109Y0081982D02*
X0057284D01*
X0057196Y0082157D01*
X0057152D01*
Y0081895D01*
X0057424D02*
X0057511D01*
X0057467D02*
Y0082157D01*
X0057511Y0082114D01*
X0047374Y0089108D02*
X0047353Y0089064D01*
X0047221D01*
X0047199Y0089108D01*
Y0089195D01*
X0047243Y0089239D01*
X0047374D01*
Y0089326D01*
X0047199D01*
X0047514Y0089064D02*
X0047689D01*
X0047514Y0089239D01*
Y0089283D01*
X0047536Y0089326D01*
X0047667D01*
X0047689Y0089283D01*
X0044193Y0089195D02*
X0044171Y0089239D01*
Y0089283D01*
X0044193Y0089326D01*
X0044324D01*
X0044346Y0089283D01*
Y0089239D01*
X0044324Y0089195D01*
X0044193D01*
X0044171Y0089151D01*
Y0089108D01*
X0044193Y0089064D01*
X0044324D01*
X0044346Y0089108D01*
Y0089151D01*
X0044324Y0089195D01*
X0044486Y0089064D02*
X0044661D01*
X0044486Y0089239D01*
Y0089283D01*
X0044508Y0089326D01*
X0044639D01*
X0044661Y0089283D01*
X0045305Y0089064D02*
X0045174Y0089326D01*
X0045349D01*
X0045489Y0089064D02*
X0045664D01*
X0045489Y0089239D01*
Y0089283D01*
X0045511Y0089326D01*
X0045642D01*
X0045664Y0089283D01*
X0055516Y0089084D02*
X0055385Y0089346D01*
X0055560D01*
X0055700Y0089084D02*
X0055787D01*
X0055744D02*
Y0089346D01*
X0055787Y0089302D01*
X0044326Y0081875D02*
X0044413D01*
X0044369D02*
Y0082138D01*
X0044413Y0082094D01*
X0056502Y0089215D02*
X0056371D01*
X0056349Y0089171D01*
Y0089127D01*
X0056371Y0089084D01*
X0056502D01*
X0056524Y0089127D01*
Y0089171D01*
X0056436Y0089346D01*
X0056664Y0089084D02*
X0056751D01*
X0056707D02*
Y0089346D01*
X0056751Y0089302D01*
G54D112*
G01X0117205Y0027448D02*
X0115157D01*
X0116181Y0028378D02*
Y0024388D01*
X0117205Y0025518D02*
X0115157D01*
X0105388Y0026582D02*
X0103341D01*
X0105388Y0027448D02*
X0103341D01*
X0104365Y0028378D02*
Y0024388D01*
X0105388Y0025518D02*
X0103341D01*
X0099480Y0026582D02*
X0097433D01*
X0099480Y0027448D02*
X0097433D01*
X0098457Y0028378D02*
Y0024388D01*
X0099480Y0025518D02*
X0097433D01*
X0111297Y0026582D02*
X0109249D01*
X0111297Y0027448D02*
X0109249D01*
X0110273Y0028378D02*
Y0024388D01*
X0111297Y0025518D02*
X0109249D01*
X0020021Y0092749D02*
Y0090702D01*
X0019154Y0092749D02*
Y0090702D01*
X0018224Y0091725D02*
X0022214D01*
X0021084Y0092749D02*
Y0090702D01*
X0129021Y0026582D02*
X0126973D01*
X0129021Y0027448D02*
X0126973D01*
X0127997Y0028378D02*
Y0024388D01*
X0129021Y0025518D02*
X0126973D01*
X0123113Y0026582D02*
X0121065D01*
X0123113Y0027448D02*
X0121065D01*
X0122089Y0028378D02*
Y0024388D01*
X0123113Y0025518D02*
X0121065D01*
X0117205Y0026582D02*
X0115157D01*
G54D117*
G01X0098474Y0029618D02*
Y0030618D01*
Y0029618D02*
Y0030618D01*
X0104379Y0029618D02*
Y0030618D01*
Y0029618D02*
Y0030618D01*
X0110334Y0029618D02*
Y0030618D01*
Y0029618D02*
Y0030618D01*
X0116190Y0029618D02*
Y0030618D01*
Y0029618D02*
Y0030618D01*
X0122096Y0029618D02*
Y0030618D01*
Y0029618D02*
Y0030618D01*
X0128001Y0029618D02*
Y0030618D01*
Y0029618D02*
Y0030618D01*
G54D118*
G01X0027051Y0017585D02*
X0027313D01*
X0027051Y0017389D02*
Y0017782D01*
X0027313Y0017389D02*
Y0017782D01*
X0027503Y0017389D02*
X0027766D01*
X0027503Y0017651D01*
Y0017717D01*
X0027536Y0017782D01*
X0027733D01*
X0027766Y0017717D01*
X0030316Y0017389D02*
X0030184D01*
Y0017257D01*
X0030217Y0017192D01*
X0030414D01*
X0030447Y0017257D01*
Y0017520D01*
X0030414Y0017586D01*
X0030217D01*
X0030184Y0017520D01*
X0030637Y0017192D02*
X0030768D01*
X0030703D02*
Y0017586D01*
X0030768Y0017520D01*
X0028567Y0019120D02*
X0028600Y0019055D01*
X0028796D01*
X0028829Y0019120D01*
Y0019383D01*
X0028796Y0019448D01*
X0028600D01*
X0028567Y0019383D01*
X0029282Y0019120D02*
X0029216Y0019055D01*
X0029085D01*
X0029019Y0019120D01*
Y0019186D01*
X0029151Y0019317D01*
X0029019Y0019448D01*
X0029282D01*
X0118629Y0019249D02*
X0118498D01*
Y0019118D01*
X0118531Y0019053D01*
X0118728D01*
X0118761Y0019118D01*
Y0019381D01*
X0118728Y0019446D01*
X0118531D01*
X0118498Y0019381D01*
X0118951Y0019053D02*
X0119082D01*
X0119016D02*
Y0019446D01*
X0119082Y0019381D01*
X0119956Y0019168D02*
X0119989Y0019103D01*
X0120185D01*
X0120218Y0019168D01*
Y0019431D01*
X0120185Y0019496D01*
X0119989D01*
X0119956Y0019431D01*
X0120671Y0019168D02*
X0120605Y0019103D01*
X0120474D01*
X0120408Y0019168D01*
Y0019234D01*
X0120540Y0019365D01*
X0120408Y0019496D01*
X0120671D01*
X0121518Y0019299D02*
X0121781D01*
X0121518Y0019103D02*
Y0019496D01*
X0121781Y0019103D02*
Y0019496D01*
X0121971Y0019103D02*
X0122234D01*
X0121971Y0019365D01*
Y0019431D01*
X0122004Y0019496D01*
X0122201D01*
X0122234Y0019431D01*
X0097319Y0019249D02*
X0097188D01*
Y0019118D01*
X0097221Y0019053D01*
X0097418D01*
X0097451Y0019118D01*
Y0019381D01*
X0097418Y0019446D01*
X0097221D01*
X0097188Y0019381D01*
X0097641Y0019053D02*
X0097772D01*
X0097706D02*
Y0019446D01*
X0097772Y0019381D01*
X0098696Y0019118D02*
X0098729Y0019053D01*
X0098925D01*
X0098958Y0019118D01*
Y0019381D01*
X0098925Y0019446D01*
X0098729D01*
X0098696Y0019381D01*
X0099411Y0019118D02*
X0099345Y0019053D01*
X0099214D01*
X0099148Y0019118D01*
Y0019184D01*
X0099280Y0019315D01*
X0099148Y0019446D01*
X0099411D01*
X0100208Y0019299D02*
X0100471D01*
X0100208Y0019103D02*
Y0019496D01*
X0100471Y0019103D02*
Y0019496D01*
X0100661Y0019103D02*
X0100924D01*
X0100661Y0019365D01*
Y0019431D01*
X0100694Y0019496D01*
X0100891D01*
X0100924Y0019431D01*
G54D260*
G01X0018710Y0097245D02*
X0018766Y0097301D01*
X0018793Y0097356D01*
Y0097467D01*
X0018766Y0097523D01*
X0018710Y0097579D01*
X0018655D01*
X0018599Y0097523D01*
X0018571Y0097467D01*
Y0097356D01*
X0018599Y0097301D01*
X0018655Y0097245D01*
X0018710D01*
X0018921Y0097579D02*
Y0097467D01*
X0019032Y0097245D01*
X0019143Y0097467D01*
Y0097579D01*
X0019271Y0097245D02*
X0019382D01*
X0019327D02*
Y0097579D01*
X0019382Y0097523D01*
X0019566Y0097134D02*
X0019788D01*
X0019916Y0097245D02*
X0020082Y0097412D01*
X0019916Y0097579D01*
X0020138D02*
Y0097245D01*
X0020266Y0097301D02*
X0020293Y0097245D01*
X0020460D01*
X0020488Y0097301D01*
Y0097523D01*
X0020460Y0097579D01*
X0020293D01*
X0020266Y0097523D01*
X0020616Y0097356D02*
X0020838D01*
X0020616Y0097245D02*
Y0097412D01*
X0020699Y0097579D01*
X0020755D01*
X0020838Y0097412D01*
Y0097245D01*
X0021160Y0097356D02*
Y0097301D01*
X0021132Y0097245D01*
X0021021D01*
X0020993Y0097301D01*
Y0097579D01*
X0020966D02*
X0021077D01*
X0021343Y0097412D02*
X0021510D01*
X0021288Y0097245D02*
X0021510D01*
Y0097579D01*
X0021288D01*
X0021638D02*
Y0097245D01*
X0021693Y0097301D01*
X0021804Y0097523D01*
X0021860Y0097579D01*
Y0097245D01*
X0022182D02*
X0022210Y0097301D01*
Y0097523D01*
X0022182Y0097579D01*
X0022016D01*
X0021988Y0097523D01*
Y0097301D01*
X0022016Y0097245D01*
X0022182D01*
X0022338Y0097412D02*
X0022560D01*
X0022338Y0097245D02*
Y0097579D01*
X0022560Y0097245D02*
Y0097579D01*
X0022910Y0097412D02*
X0022743D01*
X0022688Y0097467D01*
Y0097523D01*
X0022743Y0097579D01*
X0022910D01*
Y0097245D01*
X0020938Y0097895D02*
X0021160D01*
X0020938Y0098118D01*
Y0098173D01*
X0020966Y0098229D01*
X0021132D01*
X0021160Y0098173D01*
X0021482Y0097895D02*
X0021510Y0097951D01*
Y0098173D01*
X0021482Y0098229D01*
X0021316D01*
X0021288Y0098173D01*
Y0097951D01*
X0021316Y0097895D01*
X0021482D01*
X0021749D02*
Y0098229D01*
X0021638D02*
X0021860D01*
X0021988Y0097895D02*
Y0098229D01*
X0022043Y0098173D01*
X0022099Y0098062D01*
X0022154Y0098173D01*
X0022210Y0098229D01*
Y0097895D01*
X0022393Y0098062D02*
X0022560D01*
X0022338Y0097895D02*
X0022560D01*
Y0098229D01*
X0022338D01*
X0022743Y0098062D02*
X0022910D01*
Y0097895D02*
Y0098229D01*
X0022688D01*
M02*
