*
G04 Mass Parameters ***
*
G04 Image ***
*
%INE:\CALYX_FEMTO_2017-06-01\FINAL\CALYX_FEMTO_2017-06-01.SMB*%
%ICAS*%
%MOIN*%
%IPPOS*%
%ASAXBY*%
G74*%FSLAN2X34Y34*%
*
G04 Aperture Definitions ***
*
%ADD10R,0.0661X0.0299*%
%ADD11R,0.0299X0.0661*%
%ADD12R,0.0500X0.0500*%
%ADD13R,0.0600X0.0600*%
%ADD14C,0.0401*%
%ADD15R,0.0787X0.2913*%
%ADD16C,0.0500*%
%ADD17O,0.1400X0.0300*%
%ADD18O,0.0300X0.1400*%
%ADD19O,0.0500X0.2000*%
%ADD20C,0.1200*%
%ADD21R,0.0200X0.0200*%
%ADD22O,0.1500X0.1100*%
%ADD23C,0.0630*%
%ADD24R,0.0630X0.0630*%
%ADD25C,0.0600*%
%ADD26R,0.0315X0.0315*%
%ADD27R,0.0236X0.0197*%
%ADD28R,0.0197X0.0236*%
%ADD29O,0.1000X0.0500*%
%ADD30C,0.0236*%
%ADD31R,0.0240X0.0320*%
%ADD32R,0.0320X0.0240*%
%ADD33C,0.0394*%
%ADD34R,0.0276X0.0276*%
%ADD35C,0.1024*%
%ADD36R,0.0106X0.0197*%
%ADD37R,0.0551X0.0787*%
%ADD38R,0.0400X0.0500*%
%ADD39O,0.0740X0.0260*%
%ADD40R,0.0740X0.0260*%
%ADD41O,0.0260X0.0740*%
%ADD42R,0.0260X0.0740*%
%ADD43O,0.0472X0.0157*%
%ADD44R,0.0472X0.0157*%
%ADD45R,0.0630X0.0551*%
%ADD46O,0.0118X0.0315*%
%ADD47R,0.0118X0.0315*%
%ADD48R,0.0900X0.0550*%
%ADD49R,0.0550X0.0900*%
%ADD50O,0.0860X0.0250*%
%ADD51R,0.0860X0.0250*%
%ADD52O,0.0250X0.0860*%
%ADD53R,0.0250X0.0860*%
%ADD54O,0.0230X0.0610*%
%ADD55R,0.0230X0.0610*%
%ADD56O,0.0315X0.0079*%
%ADD57O,0.0079X0.0315*%
%ADD58R,0.0079X0.0315*%
%ADD59O,0.0230X0.0512*%
%ADD60R,0.0230X0.0512*%
%ADD61O,0.0787X0.0110*%
%ADD62R,0.0787X0.0110*%
%ADD63O,0.0110X0.0787*%
%ADD64R,0.0110X0.0787*%
%ADD65C,0.0181*%
%ADD66O,0.0394X0.0091*%
%ADD67R,0.0394X0.0091*%
%ADD68R,0.0551X0.0472*%
%ADD69R,0.0472X0.0551*%
%ADD70O,0.0260X0.0866*%
%ADD71R,0.0260X0.0866*%
%ADD72C,0.0787*%
%ADD73C,0.0945*%
%ADD74C,0.1417*%
%ADD75C,0.1300*%
%ADD76R,0.0905X0.0275*%
%ADD77C,0.0700*%
%ADD78R,0.0700X0.0700*%
%ADD79R,0.0275X0.0905*%
%ADD80R,0.0394X0.0590*%
%ADD81R,0.1181X0.0394*%
%ADD82R,0.0394X0.1181*%
%ADD83C,0.0335*%
%ADD84R,0.0335X0.0335*%
%ADD85R,0.0500X0.0400*%
%ADD86O,0.2200X0.1000*%
%ADD87C,0.1279*%
%ADD88C,0.0400*%
%ADD89O,0.0590X0.0157*%
%ADD90R,0.0590X0.0157*%
%ADD91C,0.0551*%
%ADD92O,0.0700X0.0200*%
%ADD93O,0.0200X0.0700*%
%ADD94R,0.0200X0.0700*%
%ADD95O,0.0236X0.0787*%
%ADD96R,0.0236X0.0787*%
%ADD97R,0.0400X0.0120*%
%ADD98R,0.0551X0.0630*%
%ADD99C,0.0520*%
%ADD100C,0.0354*%
%ADD101C,0.0039*%
%ADD102C,0.0040*%
%ADD103C,0.0100*%
%ADD104C,0.0400*%
%ADD105C,0.0080*%
%ADD106C,0.0060*%
%ADD107C,0.0059*%
%ADD108C,0.0118*%
%ADD109C,0.0394*%
%ADD110C,0.0590*%
%ADD111C,0.0138*%
%ADD112C,0.0197*%
%ADD113C,0.0236*%
%ADD114C,0.0140*%
%ADD115C,0.0315*%
%ADD116C,0.1000*%
%ADD117C,0.0200*%
%ADD118C,0.0079*%
%ADD119C,0.0800*%
%ADD120C,0.0600*%
%ADD121C,0.0472*%
%ADD122C,0.0300*%
%ADD123C,0.0098*%
%ADD124C,0.0276*%
%ADD125C,0.0110*%
%ADD126C,0.1181*%
%ADD127C,0.0500*%
%ADD128C,0.0787*%
%ADD129C,0.0591*%
%ADD130C,0.0256*%
%ADD131C,0.0401*%
%ADD132C,0.0600*%
%ADD133R,0.0600X0.0600*%
%ADD134O,0.1300X0.1700*%
%ADD135O,0.1700X0.1300*%
%ADD136O,0.1500X0.1100*%
%ADD137C,0.0630*%
%ADD138R,0.0630X0.0630*%
%ADD139O,0.1000X0.0500*%
%ADD140C,0.0236*%
%ADD141C,0.0394*%
%ADD142C,0.1260*%
%ADD143C,0.0181*%
%ADD144O,0.0260X0.0740*%
%ADD145R,0.0260X0.0740*%
%ADD146C,0.0945*%
%ADD147C,0.1102*%
%ADD148C,0.1417*%
%ADD149C,0.1700*%
%ADD150C,0.0640*%
%ADD151C,0.0709*%
%ADD152C,0.0700*%
%ADD153R,0.0700X0.0700*%
%ADD154C,0.0591*%
%ADD155R,0.0591X0.0591*%
%ADD156O,0.2200X0.1000*%
%ADD157C,0.1279*%
%ADD158C,0.0400*%
%ADD159C,0.0551*%
%ADD160O,0.0394X0.0630*%
%ADD161C,0.0820*%
%ADD162C,0.0354*%
%ADD163C,0.0236*%
%ADD164C,0.0780*%
%ADD165R,0.0780X0.0780*%
%ADD166O,0.1299X0.1701*%
%ADD167O,0.1900X0.1500*%
%ADD168O,0.1680X0.1300*%
%ADD169C,0.0830*%
%ADD170R,0.0830X0.0830*%
%ADD171C,0.0787*%
%ADD172O,0.1200X0.0700*%
%ADD173C,0.0275*%
%ADD174C,0.1024*%
%ADD175C,0.0940*%
%ADD176C,0.1100*%
%ADD177C,0.0810*%
%ADD178C,0.1600*%
%ADD179C,0.1880*%
%ADD180C,0.0710*%
%ADD181R,0.0787X0.0787*%
%ADD182O,0.2400X0.1200*%
%ADD183C,0.1000*%
%ADD184C,0.0244*%
%ADD185C,0.0256*%
%ADD186C,0.0010*%
%ADD187C,0.0256*%
%ADD188C,0.0256*%
%ADD189C,0.1496*%
%ADD190C,0.0256*%
%ADD191R,0.0661X0.0299*%
%ADD192R,0.0299X0.0661*%
%ADD193R,0.0500X0.0500*%
%ADD194R,0.0787X0.2913*%
%ADD195C,0.0500*%
%ADD196O,0.1400X0.0300*%
%ADD197O,0.0300X0.1400*%
%ADD198O,0.0500X0.2000*%
%ADD199R,0.0315X0.0315*%
%ADD200R,0.0236X0.0197*%
%ADD201R,0.0197X0.0236*%
%ADD202R,0.0240X0.0320*%
%ADD203R,0.0320X0.0240*%
%ADD204R,0.0276X0.0276*%
%ADD205R,0.0106X0.0197*%
%ADD206R,0.0551X0.0787*%
%ADD207R,0.0400X0.0500*%
%ADD208O,0.0740X0.0260*%
%ADD209R,0.0740X0.0260*%
%ADD210O,0.0472X0.0157*%
%ADD211R,0.0472X0.0157*%
%ADD212R,0.0630X0.0551*%
%ADD213O,0.0118X0.0315*%
%ADD214R,0.0118X0.0315*%
%ADD215R,0.0900X0.0550*%
%ADD216R,0.0550X0.0900*%
%ADD217O,0.0860X0.0250*%
%ADD218R,0.0860X0.0250*%
%ADD219O,0.0250X0.0860*%
%ADD220R,0.0250X0.0860*%
%ADD221O,0.0230X0.0610*%
%ADD222R,0.0230X0.0610*%
%ADD223O,0.0315X0.0079*%
%ADD224O,0.0079X0.0315*%
%ADD225R,0.0079X0.0315*%
%ADD226O,0.0230X0.0512*%
%ADD227R,0.0230X0.0512*%
%ADD228O,0.0787X0.0110*%
%ADD229R,0.0787X0.0110*%
%ADD230O,0.0110X0.0787*%
%ADD231R,0.0110X0.0787*%
%ADD232O,0.0394X0.0091*%
%ADD233R,0.0394X0.0091*%
%ADD234R,0.0551X0.0472*%
%ADD235R,0.0472X0.0551*%
%ADD236O,0.0260X0.0866*%
%ADD237R,0.0260X0.0866*%
%ADD238C,0.1300*%
%ADD239R,0.0905X0.0275*%
%ADD240R,0.0275X0.0905*%
%ADD241R,0.0394X0.0590*%
%ADD242R,0.1181X0.0394*%
%ADD243R,0.0394X0.1181*%
%ADD244C,0.0335*%
%ADD245R,0.0335X0.0335*%
%ADD246R,0.0500X0.0400*%
%ADD247O,0.0590X0.0157*%
%ADD248R,0.0590X0.0157*%
%ADD249O,0.0700X0.0200*%
%ADD250O,0.0200X0.0700*%
%ADD251R,0.0200X0.0700*%
%ADD252O,0.0236X0.0787*%
%ADD253R,0.0236X0.0787*%
%ADD254C,0.0320*%
%ADD255R,0.0400X0.0120*%
%ADD256R,0.0551X0.0630*%
%ADD257C,0.0520*%
*
G04 Plot Data ***
*
G54D101*
G01X0100954Y0041413D02*
Y0041031D01*
X0100635Y0041331D02*
Y0040859D01*
X0100494Y0041406D02*
Y0040810D01*
X0099007Y0041979D02*
Y0041143D01*
X0098865Y0043359D02*
Y0042482D01*
Y0042098D02*
Y0041285D01*
X0098830Y0043317D02*
Y0042415D01*
Y0042164D02*
Y0041327D01*
X0100340Y0043048D02*
X0099837D01*
X0101198Y0043402D02*
X0098904D01*
X0099861Y0043012D02*
X0099840D01*
X0100341D02*
X0100241D01*
X0098807Y0042269D02*
X0098477D01*
X0100140Y0041610D02*
Y0040749D01*
X0100175Y0041615D02*
Y0040752D01*
X0100210Y0041623D02*
Y0040755D01*
X0100246Y0041632D02*
Y0040759D01*
X0100281Y0041643D02*
Y0040764D01*
X0099538Y0043811D02*
Y0043336D01*
X0100989Y0043587D02*
Y0043180D01*
X0100954Y0043613D02*
Y0043240D01*
X0100918Y0043637D02*
Y0043280D01*
X0100883Y0043659D02*
Y0043310D01*
X0100848Y0043681D02*
Y0043333D01*
X0100812Y0043701D02*
Y0043351D01*
X0100777Y0043720D02*
Y0043363D01*
X0100741Y0043738D02*
Y0043372D01*
X0100706Y0043754D02*
Y0043376D01*
X0099419Y0042658D02*
X0098512D01*
X0100635Y0043785D02*
Y0043374D01*
X0100600Y0043798D02*
Y0043368D01*
X0100564Y0043811D02*
Y0043357D01*
X0100529Y0043823D02*
Y0043342D01*
X0100494Y0043834D02*
Y0043321D01*
X0100352Y0041671D02*
Y0040776D01*
X0100423Y0043852D02*
Y0043259D01*
X0100387Y0043861D02*
Y0043210D01*
X0101024Y0043560D02*
Y0042709D01*
X0100594Y0043366D02*
X0098872D01*
X0099502Y0043798D02*
Y0043338D01*
X0099160Y0041632D02*
X0098635D01*
X0099467Y0043785D02*
Y0043336D01*
X0100671Y0041324D02*
Y0040874D01*
X0100600Y0041342D02*
Y0040846D01*
X0100529Y0041378D02*
Y0040821D01*
X0100458Y0041442D02*
Y0040801D01*
X0101483Y0041667D02*
X0101060D01*
X0099856Y0043885D02*
Y0043011D01*
X0099185Y0042871D02*
X0098575D01*
X0099856Y0041632D02*
Y0040759D01*
X0099201Y0042835D02*
X0098562D01*
X0101514Y0042906D02*
X0100994D01*
X0099223Y0042800D02*
X0098550D01*
X0101540Y0042835D02*
X0100954D01*
X0099252Y0042765D02*
X0098539D01*
X0101563D02*
X0100884D01*
X0100352Y0043868D02*
Y0043126D01*
X0101060Y0043531D02*
Y0042708D01*
X0101572Y0042729D02*
X0100825D01*
X0100989Y0042894D02*
Y0042706D01*
X0100954Y0042834D02*
Y0042699D01*
X0100918Y0042794D02*
Y0042688D01*
X0100883Y0042764D02*
Y0042673D01*
X0100848Y0042741D02*
Y0042653D01*
X0100812Y0042723D02*
Y0042626D01*
X0100777Y0042711D02*
Y0042591D01*
X0100741Y0042702D02*
Y0042541D01*
X0101342Y0043225D02*
X0100964D01*
X0101343Y0042225D02*
Y0041421D01*
X0101308Y0042166D02*
Y0041373D01*
X0101272Y0042125D02*
Y0041327D01*
X0101237Y0042095D02*
Y0041285D01*
X0101201Y0042072D02*
Y0041246D01*
X0101166Y0042055D02*
Y0041210D01*
X0101131Y0042042D02*
Y0041175D01*
X0101060Y0041652D02*
Y0041113D01*
X0100989Y0041452D02*
Y0041057D01*
X0100918Y0041384D02*
Y0041007D01*
X0100848Y0041345D02*
Y0040963D01*
X0100777Y0041325D02*
Y0040924D01*
X0099325Y0043720D02*
Y0043290D01*
X0098972Y0043469D02*
Y0042582D01*
Y0041998D02*
Y0041175D01*
X0098936Y0043435D02*
Y0042557D01*
Y0042022D02*
Y0041209D01*
X0098818Y0042198D02*
X0098481D01*
X0101626Y0042340D02*
X0101373D01*
X0098830Y0042163D02*
X0098484D01*
X0101625Y0042269D02*
X0101360D01*
X0098847Y0042127D02*
X0098488D01*
X0101621Y0042198D02*
X0101329D01*
X0098869Y0042092D02*
X0098493D01*
X0101597Y0042021D02*
X0100702D01*
X0098898Y0042057D02*
X0098498D01*
X0101552Y0042800D02*
X0100925D01*
X0101060Y0042029D02*
Y0041669D01*
X0101024Y0042028D02*
Y0041812D01*
X0100989Y0042031D02*
Y0041868D01*
X0100954Y0042038D02*
Y0041907D01*
X0100918Y0042048D02*
Y0041937D01*
X0100883Y0042064D02*
Y0041959D01*
X0100848Y0042084D02*
Y0041976D01*
X0100812Y0042111D02*
Y0041988D01*
X0100777Y0042146D02*
Y0041996D01*
X0100458Y0043843D02*
Y0043295D01*
X0100706Y0042698D02*
Y0042612D01*
X0100671Y0042697D02*
Y0042682D01*
X0100381Y0041632D02*
X0100247D01*
X0100387Y0041587D02*
Y0040783D01*
X0098901Y0043398D02*
Y0042525D01*
Y0042054D02*
Y0041246D01*
X0101573Y0041915D02*
X0100945D01*
X0099161Y0041596D02*
X0098653D01*
X0101552Y0041844D02*
X0101006D01*
X0099165Y0041561D02*
X0098672D01*
X0101527Y0041773D02*
X0101041D01*
X0099174Y0041526D02*
X0098692D01*
X0101499Y0041703D02*
X0101057D01*
X0099186Y0041490D02*
X0098713D01*
X0101467Y0041632D02*
X0101059D01*
X0099203Y0041455D02*
X0098736D01*
X0101430Y0041561D02*
X0101045D01*
X0099226Y0041420D02*
X0098760D01*
X0101388Y0041490D02*
X0101014D01*
X0099256Y0041384D02*
X0098786D01*
X0101342Y0041420D02*
X0100960D01*
X0099296Y0041349D02*
X0098813D01*
X0101366Y0041455D02*
X0100991D01*
X0101618Y0042163D02*
X0101306D01*
X0099432Y0041288D02*
Y0040874D01*
X0099182Y0043119D02*
X0098692D01*
X0100741Y0042129D02*
Y0042000D01*
X0100706Y0042030D02*
Y0042000D01*
X0100317Y0041656D02*
Y0040770D01*
X0101591Y0042653D02*
Y0041991D01*
X0101555Y0042788D02*
Y0041856D01*
X0101520Y0042890D02*
Y0041754D01*
X0101485Y0042974D02*
Y0041670D01*
X0101449Y0043047D02*
Y0041597D01*
X0101414Y0043111D02*
Y0041533D01*
X0099855Y0041632D02*
X0099840D01*
X0101343Y0043223D02*
Y0042512D01*
X0101308Y0043271D02*
Y0042571D01*
X0101272Y0043317D02*
Y0042612D01*
X0101237Y0043358D02*
Y0042642D01*
X0101201Y0043398D02*
Y0042665D01*
X0101166Y0043434D02*
Y0042682D01*
X0101131Y0043469D02*
Y0042695D01*
X0101095Y0042033D02*
Y0041143D01*
X0101581Y0042694D02*
X0101134D01*
X0099113Y0043587D02*
Y0042628D01*
X0101590Y0042658D02*
X0101212D01*
X0099432Y0043770D02*
Y0043331D01*
X0101597Y0042623D02*
X0101260D01*
X0099113Y0041951D02*
Y0041057D01*
X0101603Y0042588D02*
X0101295D01*
X0099078Y0043560D02*
Y0042623D01*
X0101609Y0042552D02*
X0101321D01*
X0099078Y0041956D02*
Y0041084D01*
X0099042Y0043532D02*
Y0042614D01*
X0101366Y0043189D02*
X0100985D01*
X0099396Y0043754D02*
Y0043322D01*
X0101388Y0043154D02*
X0101000D01*
X0099042Y0041966D02*
Y0041112D01*
X0101410Y0043119D02*
X0101011D01*
X0099361Y0043738D02*
Y0043308D01*
X0101430Y0043083D02*
X0101018D01*
X0100317Y0043874D02*
Y0042987D01*
X0100281Y0043880D02*
Y0043000D01*
X0100246Y0043885D02*
Y0043011D01*
X0100210Y0043889D02*
Y0043020D01*
X0100175Y0043892D02*
Y0043027D01*
X0100140Y0043894D02*
Y0043032D01*
X0100104Y0043896D02*
Y0043036D01*
X0100069Y0043897D02*
Y0043038D01*
X0099164Y0043048D02*
X0098653D01*
X0099161Y0042977D02*
X0098619D01*
X0098817Y0042375D02*
X0098477D01*
X0098806Y0042304D02*
X0098476D01*
X0098811Y0042234D02*
X0098478D01*
X0101261Y0041313D02*
X0099646D01*
X0099219Y0041429D02*
Y0040984D01*
X0099184Y0041496D02*
Y0041007D01*
X0099821Y0041507D02*
Y0040764D01*
X0099786Y0041435D02*
Y0040769D01*
X0099750Y0041390D02*
Y0040776D01*
X0099715Y0041357D02*
Y0040783D01*
X0099679Y0041332D02*
Y0040791D01*
X0099644Y0041312D02*
Y0040800D01*
X0099609Y0041298D02*
Y0040810D01*
X0099573Y0041289D02*
Y0040821D01*
X0098982Y0042588D02*
X0098499D01*
X0099467Y0041282D02*
Y0040859D01*
X0098993Y0041986D02*
X0098512D01*
X0099415Y0041950D02*
X0099174D01*
X0099361Y0041311D02*
Y0040906D01*
X0099325Y0041329D02*
Y0040924D01*
X0099255Y0041385D02*
Y0040963D01*
X0099171Y0043083D02*
X0098672D01*
X0100883Y0041362D02*
Y0040985D01*
X0100741Y0041321D02*
Y0040906D01*
X0100564Y0041357D02*
Y0040833D01*
X0099007Y0043501D02*
Y0042600D01*
X0101618Y0042481D02*
X0101355D01*
X0101623Y0042411D02*
X0101372D01*
X0101582Y0041950D02*
X0100898D01*
X0099290Y0043701D02*
Y0043265D01*
X0099892Y0041623D02*
Y0040755D01*
X0098795Y0043272D02*
Y0041372D01*
X0098759Y0043223D02*
Y0041421D01*
X0098724Y0043170D02*
Y0041474D01*
X0098688Y0043112D02*
Y0041532D01*
X0098653Y0043047D02*
Y0041597D01*
X0098618Y0042975D02*
Y0041669D01*
X0098582Y0042890D02*
Y0041753D01*
X0098547Y0042789D02*
Y0041855D01*
X0098511Y0042654D02*
Y0041990D01*
X0100382Y0043862D02*
X0099720D01*
X0100517Y0043826D02*
X0099585D01*
X0100619Y0043791D02*
X0099483D01*
X0100703Y0043756D02*
X0099399D01*
X0100776Y0043720D02*
X0099326D01*
X0100840Y0043685D02*
X0099262D01*
X0100899Y0043649D02*
X0099203D01*
X0100952Y0043614D02*
X0099150D01*
X0101000Y0043579D02*
X0099102D01*
X0101046Y0043543D02*
X0099056D01*
X0101087Y0043508D02*
X0099014D01*
X0101127Y0043472D02*
X0098975D01*
X0101163Y0043437D02*
X0098939D01*
X0101230Y0043366D02*
X0100766D01*
X0101603Y0042057D02*
X0101171D01*
X0099149Y0043613D02*
Y0042630D01*
X0099431Y0043331D02*
X0098842D01*
X0100856Y0042658D02*
X0100683D01*
X0099347Y0042694D02*
X0098520D01*
X0099247Y0043225D02*
X0098760D01*
X0099219Y0043189D02*
X0098736D01*
X0099198Y0043154D02*
X0098714D01*
X0099290Y0041353D02*
Y0040943D01*
X0100033Y0043897D02*
Y0043038D01*
Y0041605D02*
Y0040747D01*
X0099998Y0043896D02*
Y0043036D01*
Y0041607D02*
Y0040748D01*
X0099963Y0043894D02*
Y0043033D01*
X0101467Y0043012D02*
X0101020D01*
X0101499Y0042942D02*
X0101007D01*
X0101527Y0042871D02*
X0100977D01*
X0101095Y0043501D02*
Y0042703D01*
X0099336Y0043295D02*
X0098813D01*
X0099284Y0043260D02*
X0098786D01*
X0099400Y0042021D02*
X0099356D01*
X0099538Y0041283D02*
Y0040833D01*
X0099078Y0042623D02*
X0098505D01*
X0099396Y0041297D02*
Y0040890D01*
X0099329Y0041915D02*
X0098529D01*
X0098893Y0042517D02*
X0098488D01*
X0098865Y0042481D02*
X0098484D01*
X0099219Y0043659D02*
Y0043190D01*
X0099173Y0042906D02*
X0098588D01*
X0099963Y0041610D02*
Y0040749D01*
X0099927Y0043892D02*
Y0043027D01*
Y0041615D02*
Y0040752D01*
X0099892Y0043889D02*
Y0043020D01*
X0099291Y0042729D02*
X0098530D01*
X0101626Y0042304D02*
X0101369D01*
X0101623Y0042234D02*
X0101347D01*
X0101609Y0042092D02*
X0101233D01*
X0101625Y0042375D02*
X0101375D01*
X0098844Y0042446D02*
X0098481D01*
X0098828Y0042411D02*
X0098478D01*
X0098930Y0042552D02*
X0098493D01*
X0099502Y0041281D02*
Y0040846D01*
X0099119Y0041950D02*
X0098520D01*
X0099279Y0041880D02*
X0098539D01*
X0099243Y0041844D02*
X0098550D01*
X0099786Y0043874D02*
Y0043183D01*
X0099715Y0043861D02*
Y0043262D01*
X0099644Y0043844D02*
Y0043306D01*
X0099573Y0043823D02*
Y0043330D01*
X0101289Y0043295D02*
X0100902D01*
X0101563Y0041880D02*
X0100980D01*
X0101540Y0041809D02*
X0101026D01*
X0101514Y0041738D02*
X0101051D01*
X0098937Y0042021D02*
X0098505D01*
X0101449Y0041596D02*
X0101054D01*
X0101410Y0041526D02*
X0101032D01*
X0101316Y0041384D02*
X0100918D01*
X0099355Y0041313D02*
X0098841D01*
X0101230Y0041278D02*
X0098872D01*
X0101198Y0041243D02*
X0098904D01*
X0101164Y0041207D02*
X0098938D01*
X0101127Y0041172D02*
X0098975D01*
X0101088Y0041136D02*
X0099014D01*
X0101046Y0041101D02*
X0099056D01*
X0101001Y0041066D02*
X0099101D01*
X0100952Y0041030D02*
X0099150D01*
X0100899Y0040995D02*
X0099203D01*
X0100841Y0040959D02*
X0099261D01*
X0100776Y0040924D02*
X0099326D01*
X0100704Y0040889D02*
X0099398D01*
X0100619Y0040853D02*
X0099482D01*
X0100518Y0040818D02*
X0099584D01*
X0100383Y0040782D02*
X0099719D01*
X0101614Y0042517D02*
X0101341D01*
X0101614Y0042127D02*
X0101275D01*
X0099361Y0042025D02*
Y0041931D01*
X0099396Y0042030D02*
Y0041945D01*
X0099325Y0042000D02*
Y0041913D01*
X0099290Y0041981D02*
Y0041889D01*
X0099255Y0041967D02*
Y0041857D01*
X0099219Y0041957D02*
Y0041813D01*
X0099184Y0041951D02*
Y0041746D01*
X0100748Y0042552D02*
X0100729D01*
X0099396Y0042674D02*
Y0042613D01*
X0099418Y0041986D02*
X0099300D01*
X0100671Y0043770D02*
Y0043377D01*
X0100379Y0041667D02*
X0100344D01*
X0100385Y0041596D02*
X0099840D01*
X0100394Y0041561D02*
X0099835D01*
X0100407Y0041526D02*
X0099827D01*
X0100425Y0041490D02*
X0099815D01*
X0100448Y0041455D02*
X0099797D01*
X0100479Y0041420D02*
X0099775D01*
X0100521Y0041384D02*
X0099745D01*
X0100583Y0041349D02*
X0099705D01*
X0101289D02*
X0100857D01*
X0099401Y0042623D02*
X0099215D01*
X0099386Y0042588D02*
X0099311D01*
X0099373Y0042552D02*
X0099363D01*
X0100774Y0042588D02*
X0100716D01*
X0099361Y0042687D02*
Y0042554D01*
X0100809Y0042623D02*
X0100701D01*
X0099325Y0042706D02*
Y0042579D01*
X0099290Y0042730D02*
Y0042598D01*
X0099255Y0042762D02*
Y0042612D01*
X0099219Y0042806D02*
Y0042622D01*
X0099184Y0042872D02*
Y0042628D01*
X0099217Y0041809D02*
X0098562D01*
X0101024Y0041509D02*
Y0041084D01*
X0100812Y0041333D02*
Y0040943D01*
X0100706Y0041320D02*
Y0040890D01*
X0100423Y0041494D02*
Y0040791D01*
X0101378Y0043170D02*
Y0041474D01*
X0101621Y0042446D02*
X0101366D01*
X0101590Y0041986D02*
X0100819D01*
X0100069Y0041605D02*
Y0040747D01*
X0099255Y0043681D02*
Y0043233D01*
X0101483Y0042977D02*
X0101015D01*
X0098810Y0042340D02*
X0098476D01*
X0099165Y0042942D02*
X0098603D01*
X0099160Y0043012D02*
X0098635D01*
X0099184Y0043637D02*
Y0043123D01*
X0100104Y0041607D02*
Y0040748D01*
X0101449Y0043048D02*
X0101020D01*
X0100763Y0042163D02*
X0100750D01*
X0100794Y0042127D02*
X0100741D01*
X0100836Y0042092D02*
X0100730D01*
X0100898Y0042057D02*
X0100717D01*
X0100509Y0043331D02*
X0099569D01*
X0100459Y0043295D02*
X0099665D01*
X0100423Y0043260D02*
X0099717D01*
X0100935Y0042694D02*
X0100663D01*
X0100396Y0043225D02*
X0099754D01*
X0100376Y0043189D02*
X0099782D01*
X0100361Y0043154D02*
X0099803D01*
X0100350Y0043119D02*
X0099818D01*
X0100343Y0043083D02*
X0099830D01*
X0099149Y0041949D02*
Y0041031D01*
X0099821Y0043880D02*
Y0043112D01*
X0099196Y0041773D02*
X0098575D01*
X0099750Y0043868D02*
Y0043229D01*
X0099181Y0041738D02*
X0098588D01*
X0099679Y0043853D02*
Y0043287D01*
X0099170Y0041703D02*
X0098603D01*
X0099609Y0043834D02*
Y0043320D01*
X0099163Y0041667D02*
X0098619D01*
X0101260Y0043331D02*
X0100852D01*
X0101316Y0043260D02*
X0100937D01*
X0098767Y0055298D02*
X0098476D01*
X0099948Y0056006D02*
X0099801D01*
X0099810Y0055971D02*
X0099798D01*
X0100304D02*
X0100292D01*
X0100301Y0056006D02*
X0100154D01*
X0100033Y0054620D02*
Y0053741D01*
X0100069Y0054620D02*
Y0053741D01*
X0100104Y0054622D02*
Y0053742D01*
X0100140Y0054625D02*
Y0053743D01*
X0099502Y0056792D02*
Y0056355D01*
X0100954Y0056606D02*
Y0056151D01*
X0100918Y0056630D02*
Y0056214D01*
X0100883Y0056653D02*
Y0056256D01*
X0100848Y0056674D02*
Y0056287D01*
X0100812Y0056695D02*
Y0056311D01*
X0100777Y0056713D02*
Y0056329D01*
X0100741Y0056731D02*
Y0056342D01*
X0100706Y0056748D02*
Y0056351D01*
X0100966Y0055687D02*
X0100726D01*
X0099121Y0054661D02*
X0098619D01*
X0100317Y0054672D02*
Y0053763D01*
X0100600Y0056792D02*
Y0056355D01*
X0100564Y0056805D02*
Y0056349D01*
X0100529Y0056816D02*
Y0056338D01*
X0100494Y0056827D02*
Y0056324D01*
X0100458Y0056837D02*
Y0056304D01*
X0099440Y0055652D02*
X0098512D01*
X0100387Y0056854D02*
Y0056244D01*
X0100989Y0056581D02*
Y0055689D01*
X0100317Y0056868D02*
Y0056120D01*
X0099467Y0056778D02*
Y0056357D01*
X0101289Y0056289D02*
X0100845D01*
X0099432Y0056764D02*
Y0056356D01*
X0100671Y0054300D02*
Y0053868D01*
X0100600Y0054310D02*
Y0053839D01*
X0100529Y0054335D02*
Y0053815D01*
X0100458Y0054382D02*
Y0053794D01*
X0100387Y0054467D02*
Y0053777D01*
X0101230Y0056360D02*
X0098872D01*
X0099157Y0055864D02*
X0098575D01*
X0101483Y0055971D02*
X0100978D01*
X0099177Y0055829D02*
X0098562D01*
X0101514Y0055900D02*
X0100961D01*
X0099204Y0055794D02*
X0098550D01*
X0101540Y0055829D02*
X0100925D01*
X0099240Y0055758D02*
X0098539D01*
X0101563D02*
X0100862D01*
X0100352Y0056862D02*
Y0056197D01*
X0101572Y0055723D02*
X0100812D01*
X0100954Y0055883D02*
Y0055686D01*
X0100918Y0055820D02*
Y0055680D01*
X0100883Y0055778D02*
Y0055670D01*
X0100848Y0055746D02*
Y0055655D01*
X0100812Y0055723D02*
Y0055635D01*
X0100777Y0055705D02*
Y0055609D01*
X0100741Y0055692D02*
Y0055575D01*
X0099815Y0054661D02*
X0099801D01*
X0101342Y0056218D02*
X0100915D01*
X0101308Y0055214D02*
Y0054366D01*
X0101272Y0055151D02*
Y0054321D01*
X0101237Y0055109D02*
Y0054279D01*
X0101201Y0055078D02*
Y0054240D01*
X0101166Y0055054D02*
Y0054203D01*
X0101131Y0055036D02*
Y0054169D01*
X0101095Y0055023D02*
Y0054137D01*
X0101060Y0055014D02*
Y0054106D01*
X0101024Y0055009D02*
Y0054078D01*
X0100954Y0054438D02*
Y0054025D01*
X0100883Y0054367D02*
Y0053978D01*
X0100812Y0054327D02*
Y0053937D01*
X0100741Y0054305D02*
Y0053900D01*
X0099325Y0056714D02*
Y0056329D01*
X0098972Y0056463D02*
Y0055621D01*
Y0054997D02*
Y0054169D01*
X0098936Y0056428D02*
Y0055603D01*
Y0055015D02*
Y0054203D01*
X0099290Y0055723D02*
X0098530D01*
X0101626Y0055333D02*
X0101335D01*
X0098803Y0055156D02*
X0098484D01*
X0101625Y0055263D02*
X0101324D01*
X0098823Y0055121D02*
X0098488D01*
X0101621Y0055192D02*
X0101297D01*
X0098850Y0055086D02*
X0098493D01*
X0101614Y0055121D02*
X0101248D01*
X0098886Y0055050D02*
X0098498D01*
X0101603D02*
X0101159D01*
X0101552Y0055794D02*
X0100898D01*
X0100989Y0055008D02*
Y0054783D01*
X0100954Y0055010D02*
Y0054843D01*
X0100918Y0055017D02*
Y0054884D01*
X0100883Y0055027D02*
Y0054914D01*
X0100848Y0055042D02*
Y0054937D01*
X0100812Y0055061D02*
Y0054954D01*
X0100777Y0055087D02*
Y0054967D01*
X0100741Y0055121D02*
Y0054975D01*
X0099960Y0054626D02*
X0099801D01*
X0101597Y0055015D02*
X0101063D01*
X0100671Y0055678D02*
Y0055636D01*
X0100341Y0054661D02*
X0100287D01*
X0100352Y0054551D02*
Y0053770D01*
X0098901Y0055038D02*
Y0054240D01*
X0099121Y0054626D02*
X0098635D01*
X0101573Y0054909D02*
X0100890D01*
X0099124Y0054590D02*
X0098653D01*
X0101552Y0054838D02*
X0100957D01*
X0099132Y0054555D02*
X0098672D01*
X0101527Y0054767D02*
X0100996D01*
X0099143Y0054519D02*
X0098692D01*
X0101499Y0054696D02*
X0101016D01*
X0098936Y0055015D02*
X0098505D01*
X0101467Y0054626D02*
X0101020D01*
X0099180Y0054449D02*
X0098736D01*
X0101430Y0054555D02*
X0101010D01*
X0099208Y0054413D02*
X0098760D01*
X0101388Y0054484D02*
X0100983D01*
X0099244Y0054378D02*
X0098786D01*
X0101342Y0054413D02*
X0100934D01*
X0099296Y0054342D02*
X0098813D01*
X0101289D02*
X0100845D01*
X0101316Y0054378D02*
X0100897D01*
X0101609Y0055086D02*
X0101211D01*
X0099432Y0054301D02*
Y0053868D01*
X0099134Y0056112D02*
X0098692D01*
X0100706Y0055078D02*
Y0054980D01*
X0100423Y0056846D02*
Y0056278D01*
X0100210Y0054638D02*
Y0053749D01*
X0101591Y0055647D02*
Y0054985D01*
X0101555Y0055782D02*
Y0054849D01*
X0101520Y0055884D02*
Y0054748D01*
X0101485Y0055968D02*
Y0054664D01*
X0101449Y0056041D02*
Y0054591D01*
X0101414Y0056105D02*
Y0054526D01*
X0101378Y0056163D02*
Y0054468D01*
X0100706Y0055683D02*
Y0055555D01*
X0101308Y0056265D02*
Y0055483D01*
X0101272Y0056310D02*
Y0055546D01*
X0101237Y0056352D02*
Y0055588D01*
X0101201Y0056391D02*
Y0055619D01*
X0101166Y0056428D02*
Y0055643D01*
X0101131Y0056462D02*
Y0055660D01*
X0101095Y0056495D02*
Y0055674D01*
X0101060Y0056525D02*
Y0055682D01*
X0101581Y0055687D02*
X0101024D01*
X0099113Y0054969D02*
Y0054050D01*
X0101590Y0055652D02*
X0101149D01*
X0100918Y0054397D02*
Y0054001D01*
X0101597Y0055617D02*
X0101204D01*
X0099078Y0056554D02*
Y0055648D01*
X0101603Y0055581D02*
X0101243D01*
X0099078Y0054970D02*
Y0054077D01*
X0101609Y0055546D02*
X0101272D01*
X0099042Y0056525D02*
Y0055643D01*
X0101366Y0056183D02*
X0100938D01*
X0099396Y0056748D02*
Y0056351D01*
X0101388Y0056148D02*
X0100955D01*
X0099042Y0054975D02*
Y0054106D01*
X0101410Y0056112D02*
X0100968D01*
X0099361Y0056731D02*
Y0056342D01*
X0101430Y0056077D02*
X0100976D01*
X0099007Y0056495D02*
Y0055634D01*
X0100281Y0056874D02*
Y0055975D01*
X0100246Y0056879D02*
Y0055986D01*
X0100210Y0056883D02*
Y0055995D01*
X0100175Y0056886D02*
Y0056003D01*
X0100140Y0056888D02*
Y0056008D01*
X0100104Y0056890D02*
Y0056012D01*
X0100069Y0056891D02*
Y0056013D01*
X0100033Y0056891D02*
Y0056013D01*
X0099998Y0056890D02*
Y0056012D01*
X0099963Y0056888D02*
Y0056008D01*
X0099121Y0056006D02*
X0098635D01*
X0099131Y0055935D02*
X0098603D01*
X0099856Y0056879D02*
Y0055986D01*
X0099113Y0056581D02*
Y0055649D01*
X0099184Y0054443D02*
Y0054001D01*
X0099149Y0054505D02*
Y0054025D01*
X0099786Y0054538D02*
Y0053763D01*
X0099750Y0054461D02*
Y0053770D01*
X0099715Y0054414D02*
Y0053777D01*
X0099679Y0054379D02*
Y0053785D01*
X0099644Y0054353D02*
Y0053794D01*
X0099609Y0054334D02*
Y0053804D01*
X0099573Y0054319D02*
Y0053815D01*
X0099538Y0054309D02*
Y0053827D01*
X0098903Y0055581D02*
X0098499D01*
X0098772Y0055369D02*
X0098477D01*
X0099433Y0054980D02*
X0099192D01*
X0099361Y0054315D02*
Y0053900D01*
X0099325Y0054328D02*
Y0053918D01*
X0099290Y0054346D02*
Y0053937D01*
X0099219Y0054401D02*
Y0053978D01*
X0100989Y0054497D02*
Y0054051D01*
X0100777Y0054314D02*
Y0053918D01*
X0100564Y0054320D02*
Y0053827D01*
X0101590Y0054980D02*
X0100708D01*
X0101618Y0055475D02*
X0101311D01*
X0101623Y0055404D02*
X0101331D01*
X0098901Y0056392D02*
Y0055580D01*
X0099290Y0056695D02*
Y0056311D01*
X0099219Y0056653D02*
Y0056257D01*
X0098787Y0055192D02*
X0098481D01*
X0098759Y0056217D02*
Y0054415D01*
X0098724Y0056164D02*
Y0054468D01*
X0098688Y0056106D02*
Y0054526D01*
X0098653Y0056041D02*
Y0054590D01*
X0098618Y0055968D02*
Y0054663D01*
X0098582Y0055884D02*
Y0054747D01*
X0098547Y0055783D02*
Y0054849D01*
X0098511Y0055648D02*
Y0054984D01*
X0100382Y0056855D02*
X0099720D01*
X0100517Y0056820D02*
X0099585D01*
X0100619Y0056785D02*
X0099483D01*
X0100703Y0056749D02*
X0099399D01*
X0100776Y0056714D02*
X0099326D01*
X0100840Y0056679D02*
X0099262D01*
X0100899Y0056643D02*
X0099203D01*
X0100952Y0056608D02*
X0099150D01*
X0101000Y0056572D02*
X0099102D01*
X0101046Y0056537D02*
X0099056D01*
X0101087Y0056502D02*
X0099014D01*
X0101127Y0056466D02*
X0098975D01*
X0101163Y0056431D02*
X0098939D01*
X0101198Y0056395D02*
X0098904D01*
X0099184Y0054838D02*
X0098550D01*
X0099376Y0055687D02*
X0098520D01*
X0099315Y0056325D02*
X0098842D01*
X0099257Y0056289D02*
X0098813D01*
X0099217Y0056254D02*
X0098786D01*
X0099187Y0056218D02*
X0098760D01*
X0099164Y0056183D02*
X0098736D01*
X0099147Y0056148D02*
X0098714D01*
X0101261Y0054307D02*
X0100749D01*
X0099255Y0054370D02*
Y0053957D01*
X0099927Y0056886D02*
Y0056003D01*
Y0054631D02*
Y0053746D01*
X0099892Y0056883D02*
Y0055995D01*
Y0054638D02*
Y0053749D01*
X0101467Y0056006D02*
X0100981D01*
X0101499Y0055935D02*
X0100971D01*
X0101527Y0055864D02*
X0100945D01*
X0101024Y0056554D02*
Y0055687D01*
X0100671Y0054997D02*
Y0054981D01*
X0099423Y0055015D02*
X0099278D01*
X0099502Y0054303D02*
Y0053839D01*
X0098961Y0055617D02*
X0098505D01*
X0099396Y0054306D02*
Y0053883D01*
X0099308Y0054944D02*
X0098520D01*
X0098833Y0055510D02*
X0098488D01*
X0098810Y0055475D02*
X0098484D01*
X0098793Y0055440D02*
X0098481D01*
X0099149Y0056606D02*
Y0056152D01*
X0099856Y0054647D02*
Y0053753D01*
X0099821Y0056874D02*
Y0055975D01*
Y0054659D02*
Y0053758D01*
X0098770Y0055263D02*
X0098477D01*
X0098777Y0055227D02*
X0098478D01*
X0101626Y0055298D02*
X0101332D01*
X0101623Y0055227D02*
X0101313D01*
X0101618Y0055156D02*
X0101276D01*
X0101449Y0056041D02*
X0100980D01*
X0098780Y0055404D02*
X0098478D01*
X0098863Y0055546D02*
X0098493D01*
X0099467Y0054300D02*
Y0053853D01*
X0099022Y0054980D02*
X0098512D01*
X0099252Y0054909D02*
X0098529D01*
X0099213Y0054873D02*
X0098539D01*
X0099786Y0056868D02*
Y0056119D01*
X0099715Y0056854D02*
Y0056244D01*
X0099644Y0056837D02*
Y0056304D01*
X0099573Y0056816D02*
Y0056338D01*
X0100671Y0056764D02*
Y0056356D01*
X0101582Y0054944D02*
X0100834D01*
X0101563Y0054873D02*
X0100928D01*
X0101540Y0054803D02*
X0100980D01*
X0101514Y0054732D02*
X0101008D01*
X0101483Y0054661D02*
X0101020D01*
X0101449Y0054590D02*
X0101017D01*
X0101410Y0054519D02*
X0100998D01*
X0101366Y0054449D02*
X0100961D01*
X0099392Y0054307D02*
X0098841D01*
X0101230Y0054272D02*
X0098872D01*
X0101198Y0054236D02*
X0098904D01*
X0101164Y0054201D02*
X0098938D01*
X0101127Y0054165D02*
X0098975D01*
X0101088Y0054130D02*
X0099014D01*
X0101046Y0054095D02*
X0099056D01*
X0101001Y0054059D02*
X0099101D01*
X0100952Y0054024D02*
X0099150D01*
X0100899Y0053988D02*
X0099203D01*
X0100841Y0053953D02*
X0099261D01*
X0100776Y0053918D02*
X0099326D01*
X0100704Y0053882D02*
X0099398D01*
X0100619Y0053847D02*
X0099482D01*
X0100518Y0053811D02*
X0099584D01*
X0100383Y0053776D02*
X0099719D01*
X0100340Y0054626D02*
X0100142D01*
X0100841Y0055652D02*
X0100662D01*
X0101614Y0055510D02*
X0101294D01*
X0100281Y0054659D02*
Y0053758D01*
X0100246Y0054647D02*
Y0053753D01*
X0100779Y0055086D02*
X0100709D01*
X0100831Y0055050D02*
X0100695D01*
X0100927Y0055015D02*
X0100679D01*
X0099432Y0054997D02*
Y0054979D01*
X0099361Y0055082D02*
Y0054966D01*
X0099396Y0055077D02*
Y0054974D01*
X0099325Y0055048D02*
Y0054953D01*
X0099290Y0055022D02*
Y0054935D01*
X0099255Y0055002D02*
Y0054911D01*
X0099219Y0054988D02*
Y0054880D01*
X0099184Y0054977D02*
Y0054838D01*
X0099149Y0054971D02*
Y0054775D01*
X0099432Y0055678D02*
Y0055637D01*
X0099396Y0055683D02*
Y0055556D01*
X0100635Y0056778D02*
Y0056357D01*
X0100344Y0054590D02*
X0099798D01*
X0100351Y0054555D02*
X0099790D01*
X0100362Y0054519D02*
X0099779D01*
X0100378Y0054484D02*
X0099763D01*
X0100399Y0054449D02*
X0099742D01*
X0100427Y0054413D02*
X0099714D01*
X0100464Y0054378D02*
X0099678D01*
X0100516Y0054342D02*
X0099625D01*
X0100612Y0054307D02*
X0099530D01*
X0099422Y0055617D02*
X0099253D01*
X0099406Y0055581D02*
X0099311D01*
X0099393Y0055546D02*
X0099351D01*
X0099361Y0055692D02*
Y0055536D01*
X0100718Y0055546D02*
X0100709D01*
X0100747Y0055581D02*
X0100696D01*
X0100786Y0055617D02*
X0100680D01*
X0099325Y0055705D02*
Y0055570D01*
X0099290Y0055723D02*
Y0055596D01*
X0099255Y0055746D02*
Y0055616D01*
X0099219Y0055777D02*
Y0055630D01*
X0099184Y0055819D02*
Y0055641D01*
X0099149Y0055882D02*
Y0055647D01*
X0099126Y0056077D02*
X0098672D01*
X0100848Y0054344D02*
Y0053957D01*
X0100706Y0054301D02*
Y0053883D01*
X0100423Y0054418D02*
Y0053785D01*
X0101343Y0056216D02*
Y0054415D01*
X0101621Y0055440D02*
X0101323D01*
X0101625Y0055369D02*
X0101335D01*
X0099159Y0054484D02*
X0098713D01*
X0099255Y0056675D02*
Y0056288D01*
X0099184Y0056630D02*
Y0056215D01*
X0098768Y0055333D02*
X0098476D01*
X0099141Y0055900D02*
X0098588D01*
X0099124Y0055971D02*
X0098619D01*
X0098795Y0055174D02*
Y0054366D01*
X0099998Y0054622D02*
Y0053742D01*
X0100175Y0054631D02*
Y0053746D01*
X0098865Y0056352D02*
Y0055549D01*
X0100742Y0055121D02*
X0100720D01*
X0099393Y0055086D02*
X0099364D01*
X0099407Y0055050D02*
X0099328D01*
X0100495Y0056325D02*
X0099607D01*
X0100437Y0056289D02*
X0099665D01*
X0100397Y0056254D02*
X0099705D01*
X0100367Y0056218D02*
X0099735D01*
X0100344Y0056183D02*
X0099758D01*
X0100327Y0056148D02*
X0099775D01*
X0100314Y0056112D02*
X0099788D01*
X0100306Y0056077D02*
X0099796D01*
X0100302Y0056041D02*
X0099800D01*
X0099122D02*
X0098653D01*
X0099162Y0054803D02*
X0098562D01*
X0099750Y0056862D02*
Y0056196D01*
X0099145Y0054767D02*
X0098575D01*
X0099679Y0056846D02*
Y0056278D01*
X0099133Y0054732D02*
X0098588D01*
X0099609Y0056827D02*
Y0056324D01*
X0099125Y0054696D02*
X0098603D01*
X0099538Y0056805D02*
Y0056349D01*
X0101260Y0056325D02*
X0100787D01*
X0101316Y0056254D02*
X0100885D01*
X0100635Y0054303D02*
Y0053853D01*
X0100494Y0054356D02*
Y0053804D01*
X0099007Y0054984D02*
Y0054136D01*
X0099963Y0054625D02*
Y0053743D01*
X0098865Y0055069D02*
Y0054279D01*
X0098830Y0056310D02*
Y0055507D01*
Y0055111D02*
Y0054321D01*
X0098795Y0056265D02*
Y0055444D01*
X0128678Y0054526D02*
Y0053758D01*
X0128251Y0056006D02*
X0128118D01*
X0128571Y0054611D02*
Y0053746D01*
X0128536Y0056888D02*
Y0056028D01*
X0129826Y0054555D02*
X0129327D01*
X0129806Y0054519D02*
X0129316D01*
X0127238Y0055015D02*
X0126901D01*
X0127478Y0054590D02*
X0127049D01*
X0127488Y0054519D02*
X0127088D01*
X0127514Y0054449D02*
X0127132D01*
X0127561Y0054378D02*
X0127182D01*
X0128258Y0054626D02*
X0128157D01*
X0127757Y0055097D02*
Y0054936D01*
X0127722Y0055048D02*
Y0054927D01*
X0127686Y0055012D02*
Y0054915D01*
X0127651Y0054985D02*
Y0054898D01*
X0127616Y0054965D02*
Y0054875D01*
X0127580Y0054950D02*
Y0054844D01*
X0127545Y0054939D02*
Y0054804D01*
X0127509Y0054932D02*
Y0054745D01*
X0127793Y0055025D02*
Y0054940D01*
X0128658Y0054626D02*
X0128637D01*
X0127828Y0054956D02*
Y0054941D01*
X0127782Y0055050D02*
X0127724D01*
X0128607Y0054618D02*
Y0053749D01*
X0127815Y0054980D02*
X0127642D01*
X0128669Y0054555D02*
X0128155D01*
X0128680Y0054519D02*
X0128148D01*
X0128696Y0054484D02*
X0128138D01*
X0128717Y0054449D02*
X0128122D01*
X0128745Y0054413D02*
X0128102D01*
X0128781Y0054378D02*
X0128075D01*
X0128833Y0054342D02*
X0128039D01*
X0127647Y0054307D02*
X0127238D01*
X0127970Y0054296D02*
Y0053815D01*
X0127793Y0055638D02*
Y0055608D01*
X0127722Y0055642D02*
Y0055492D01*
X0127686Y0055650D02*
Y0055527D01*
X0127651Y0055662D02*
Y0055554D01*
X0127616Y0055679D02*
Y0055574D01*
X0127580Y0055701D02*
Y0055590D01*
X0127545Y0055730D02*
Y0055600D01*
X0127509Y0055769D02*
Y0055607D01*
X0127474Y0055826D02*
Y0055610D01*
X0127439Y0055963D02*
Y0055609D01*
Y0054930D02*
Y0054106D01*
X0127403Y0054935D02*
Y0054136D01*
X0127368Y0054943D02*
Y0054169D01*
X0127332Y0054956D02*
Y0054203D01*
X0127297Y0054973D02*
Y0054240D01*
X0127262Y0054996D02*
Y0054279D01*
X0127226Y0055026D02*
Y0054321D01*
X0127191Y0055067D02*
Y0054366D01*
X0127781Y0055581D02*
X0127601D01*
X0127768Y0055546D02*
X0127663D01*
X0127757Y0055510D02*
X0127704D01*
X0127757Y0056731D02*
Y0056317D01*
Y0055638D02*
Y0055510D01*
X0127125Y0055298D02*
X0126872D01*
X0127453Y0056077D02*
X0127068D01*
X0127642Y0056289D02*
X0127209D01*
X0128465Y0054600D02*
Y0053741D01*
X0128501Y0054602D02*
Y0053742D01*
X0128536Y0054605D02*
Y0053743D01*
X0127769Y0055086D02*
X0127750D01*
X0128661Y0054590D02*
X0128158D01*
X0130022Y0055333D02*
X0129692D01*
X0127155Y0056217D02*
Y0055413D01*
X0127521Y0054767D02*
X0126971D01*
X0128890Y0054318D02*
Y0053804D01*
X0127504Y0054732D02*
X0126985D01*
X0128005Y0056827D02*
Y0056232D01*
X0127491Y0054696D02*
X0126999D01*
X0128854Y0054332D02*
Y0053794D01*
X0127483Y0054661D02*
X0127015D01*
X0129826Y0056077D02*
X0129333D01*
X0127479Y0054626D02*
X0127032D01*
X0127155Y0055126D02*
Y0054415D01*
X0129350Y0055008D02*
Y0054025D01*
X0127327Y0055581D02*
X0126895D01*
X0130020Y0055404D02*
X0129688D01*
X0127265Y0055546D02*
X0126889D01*
X0127616Y0056653D02*
Y0056276D01*
X0127223Y0055510D02*
X0126884D01*
X0130021Y0055369D02*
X0129692D01*
X0127193Y0055475D02*
X0126880D01*
X0127169Y0055440D02*
X0126877D01*
X0128794Y0056289D02*
X0127916D01*
X0128754Y0056254D02*
X0127978D01*
X0128724Y0056218D02*
X0128019D01*
X0128701Y0056183D02*
X0128050D01*
X0128684Y0056148D02*
X0128074D01*
X0128671Y0056112D02*
X0128091D01*
X0128663Y0056077D02*
X0128104D01*
X0128659Y0056041D02*
X0128113D01*
X0129198Y0055652D02*
X0129081D01*
X0127538Y0056218D02*
X0127157D01*
X0128154Y0055971D02*
X0128119D01*
X0129143Y0055617D02*
X0129098D01*
X0127138Y0055369D02*
X0126873D01*
X0128324Y0054611D02*
Y0053746D01*
X0128359Y0054605D02*
Y0053743D01*
X0128394Y0054602D02*
Y0053742D01*
X0127601Y0055687D02*
X0126917D01*
X0127544Y0054803D02*
X0126958D01*
X0127286Y0054980D02*
X0126909D01*
X0127748Y0055475D02*
X0127735D01*
X0129986Y0054980D02*
X0129080D01*
X0129987Y0055647D02*
Y0054985D01*
X0129952Y0055782D02*
Y0054849D01*
X0129916Y0055884D02*
Y0054748D01*
X0129881Y0055968D02*
Y0054664D01*
X0129846Y0056041D02*
Y0054591D01*
X0129810Y0056105D02*
Y0054526D01*
X0129775Y0056163D02*
Y0054468D01*
X0129739Y0056216D02*
Y0054415D01*
X0129669Y0056310D02*
Y0055473D01*
X0129633Y0056352D02*
Y0055540D01*
X0129598Y0056391D02*
Y0055584D01*
X0129562Y0056428D02*
Y0055616D01*
X0129863Y0054626D02*
X0129338D01*
X0129315Y0054516D02*
Y0054001D01*
X0129244Y0054405D02*
Y0053957D01*
X0129173Y0054348D02*
Y0053918D01*
X0129102Y0054316D02*
Y0053883D01*
X0129492Y0056495D02*
Y0055659D01*
Y0055038D02*
Y0054137D01*
X0129456Y0056525D02*
Y0055672D01*
Y0055024D02*
Y0054106D01*
X0129421Y0056554D02*
Y0055682D01*
Y0055015D02*
Y0054078D01*
X0129385Y0056581D02*
Y0055687D01*
Y0055010D02*
Y0054051D01*
X0129350Y0056606D02*
Y0055689D01*
X0129031Y0054302D02*
Y0053853D01*
X0127673Y0054909D02*
X0126926D01*
X0127574Y0054838D02*
X0126947D01*
X0128076Y0056846D02*
Y0056144D01*
X0127934Y0056805D02*
Y0056280D01*
X0127474Y0056554D02*
Y0056129D01*
X0129845Y0056041D02*
X0129337D01*
X0128784Y0054376D02*
Y0053777D01*
X0129863Y0056006D02*
X0129338D01*
X0127835Y0054944D02*
X0127563D01*
X0130021Y0055263D02*
X0129681D01*
X0128713Y0054454D02*
Y0053763D01*
X0128571Y0056886D02*
Y0056023D01*
X0129785Y0054484D02*
X0129300D01*
X0128501Y0056890D02*
Y0056031D01*
X0128465Y0056891D02*
Y0056033D01*
X0128430Y0056891D02*
Y0056033D01*
X0128394Y0056890D02*
Y0056031D01*
X0128359Y0056888D02*
Y0056028D01*
X0128324Y0056886D02*
Y0056023D01*
X0128288Y0056883D02*
Y0056015D01*
X0127484Y0056148D02*
X0127110D01*
X0127439Y0056006D02*
X0127032D01*
X0127863Y0054264D02*
Y0053853D01*
X0129627Y0054272D02*
X0127904D01*
X0127509Y0054457D02*
Y0054050D01*
X0128111Y0054428D02*
Y0053777D01*
X0128076Y0054379D02*
Y0053785D01*
X0128040Y0054343D02*
Y0053794D01*
X0128005Y0054317D02*
Y0053804D01*
X0128147Y0056862D02*
Y0055967D01*
X0127934Y0054281D02*
Y0053827D01*
X0127899Y0054270D02*
Y0053839D01*
X0128929Y0054307D02*
X0127989D01*
X0128996Y0054300D02*
Y0053839D01*
X0127793Y0054262D02*
Y0053883D01*
X0127757Y0054266D02*
Y0053900D01*
X0127722Y0054275D02*
Y0053918D01*
X0127686Y0054287D02*
Y0053937D01*
X0127651Y0054304D02*
Y0053957D01*
X0127616Y0054327D02*
Y0053978D01*
X0127580Y0054357D02*
Y0054001D01*
X0129806Y0056112D02*
X0129325D01*
X0127403Y0056495D02*
Y0055605D01*
X0127368Y0056463D02*
Y0055596D01*
X0127332Y0056428D02*
Y0055584D01*
X0127297Y0056392D02*
Y0055566D01*
X0127262Y0056352D02*
Y0055543D01*
X0127226Y0056310D02*
Y0055513D01*
X0127191Y0056265D02*
Y0055473D01*
X0128182Y0054651D02*
Y0053763D01*
X0127120Y0056164D02*
Y0054468D01*
X0127085Y0056106D02*
Y0054526D01*
X0127049Y0056041D02*
Y0054590D01*
X0127014Y0055968D02*
Y0054663D01*
X0126979Y0055884D02*
Y0054747D01*
X0126943Y0055783D02*
Y0054849D01*
X0126908Y0055648D02*
Y0054984D01*
X0128778Y0056855D02*
X0128116D01*
X0128913Y0056820D02*
X0127981D01*
X0129015Y0056785D02*
X0127879D01*
X0129099Y0056749D02*
X0127795D01*
X0129172Y0056714D02*
X0127722D01*
X0129237Y0056679D02*
X0127658D01*
X0129295Y0056643D02*
X0127600D01*
X0129348Y0056608D02*
X0127547D01*
X0129397Y0056572D02*
X0127498D01*
X0129442Y0056537D02*
X0127453D01*
X0129484Y0056502D02*
X0127411D01*
X0129523Y0056466D02*
X0127372D01*
X0129560Y0056431D02*
X0127335D01*
X0129594Y0056395D02*
X0127301D01*
X0127447Y0055900D02*
X0126985D01*
X0127545Y0054398D02*
Y0054025D01*
X0129880Y0055971D02*
X0129335D01*
X0128253Y0056879D02*
Y0056006D01*
X0129657Y0056325D02*
X0129144D01*
X0128852D02*
X0127238D01*
X0129895Y0055935D02*
X0129328D01*
X0128253Y0054627D02*
Y0053753D01*
X0129910Y0055900D02*
X0129318D01*
X0128217Y0056874D02*
Y0055995D01*
X0129924Y0055864D02*
X0129302D01*
X0129936Y0055829D02*
X0129282D01*
X0127438Y0055971D02*
X0127015D01*
X0129948Y0055794D02*
X0129255D01*
X0127796Y0055617D02*
X0126901D01*
X0129959Y0055758D02*
X0129219D01*
X0127472Y0055829D02*
X0126958D01*
X0129969Y0055723D02*
X0129169D01*
X0127519Y0055758D02*
X0126936D01*
X0130014Y0055156D02*
X0129633D01*
X0127793Y0056748D02*
Y0056318D01*
X0127722Y0056714D02*
Y0056313D01*
X0127651Y0056675D02*
Y0056293D01*
X0127580Y0056630D02*
Y0056254D01*
X0127509Y0056581D02*
Y0056186D01*
X0128819Y0054351D02*
Y0053785D01*
X0128217Y0054638D02*
Y0053758D01*
X0130020Y0055227D02*
X0129670D01*
X0128182Y0056868D02*
Y0055982D01*
X0130017Y0055192D02*
X0129654D01*
X0130010Y0055121D02*
X0129605D01*
X0127124Y0055263D02*
X0126873D01*
X0130005Y0055086D02*
X0129568D01*
X0127133Y0055192D02*
X0126877D01*
X0130000Y0055050D02*
X0129516D01*
X0127158Y0055121D02*
X0126884D01*
X0129993Y0055015D02*
X0129420D01*
X0127204Y0055050D02*
X0126895D01*
X0129762Y0054449D02*
X0129279D01*
X0127828Y0054261D02*
Y0053868D01*
X0129785Y0056148D02*
X0129312D01*
X0128961Y0054302D02*
Y0053827D01*
X0127614Y0054873D02*
X0126936D01*
X0128925Y0054308D02*
Y0053815D01*
X0128111Y0056854D02*
Y0056050D01*
X0128040Y0056837D02*
Y0056195D01*
X0127970Y0056816D02*
Y0056259D01*
X0127899Y0056792D02*
Y0056296D01*
X0127828Y0056764D02*
Y0056314D01*
X0127365Y0054944D02*
X0126917D01*
X0129738Y0054413D02*
X0129251D01*
X0127481Y0054555D02*
X0127068D01*
X0129713Y0054378D02*
X0129215D01*
X0127498Y0054484D02*
X0127110D01*
X0129686Y0054342D02*
X0129162D01*
X0127534Y0054413D02*
X0127157D01*
X0129657Y0054307D02*
X0129067D01*
X0127597Y0054342D02*
X0127209D01*
X0127732Y0054272D02*
X0127268D01*
X0129594Y0054236D02*
X0127300D01*
X0129560Y0054201D02*
X0127335D01*
X0129523Y0054165D02*
X0127371D01*
X0129484Y0054130D02*
X0127411D01*
X0129442Y0054095D02*
X0127452D01*
X0129397Y0054059D02*
X0127498D01*
X0129348Y0054024D02*
X0127546D01*
X0129295Y0053988D02*
X0127599D01*
X0129237Y0053953D02*
X0127657D01*
X0129173Y0053918D02*
X0127722D01*
X0129100Y0053882D02*
X0127795D01*
X0129016Y0053847D02*
X0127879D01*
X0128914Y0053811D02*
X0127980D01*
X0128779Y0053776D02*
X0128115D01*
X0128658Y0056006D02*
X0128643D01*
X0130022Y0055298D02*
X0129689D01*
X0129986Y0055652D02*
X0129506D01*
X0129845Y0054590D02*
X0129335D01*
X0129978Y0054944D02*
X0129151D01*
X0129136Y0055086D02*
X0129126D01*
X0129188Y0055050D02*
X0129113D01*
X0129284Y0055015D02*
X0129097D01*
X0129315Y0056630D02*
Y0056142D01*
X0129279Y0056653D02*
Y0056209D01*
X0129244Y0056674D02*
Y0056252D01*
X0129208Y0056695D02*
Y0056284D01*
X0129173Y0056713D02*
Y0056309D01*
X0129138Y0056731D02*
Y0056327D01*
X0129102Y0056748D02*
Y0056341D01*
X0129067Y0056764D02*
Y0056350D01*
X0129031Y0056778D02*
Y0056356D01*
X0128996Y0056792D02*
Y0056357D01*
X0128961Y0056805D02*
Y0056355D01*
X0128925Y0056816D02*
Y0056349D01*
X0128890Y0056827D02*
Y0056340D01*
X0128854Y0056837D02*
Y0056326D01*
X0129323Y0055687D02*
X0129083D01*
X0128819Y0056846D02*
Y0056307D01*
X0128784Y0056854D02*
Y0056281D01*
X0128748Y0056862D02*
Y0056248D01*
X0128713Y0056868D02*
Y0056203D01*
X0128678Y0056874D02*
Y0056132D01*
X0129685Y0056289D02*
X0129202D01*
X0129712Y0056254D02*
X0129242D01*
X0130017Y0055440D02*
X0129680D01*
X0128147Y0054512D02*
Y0053770D01*
X0127474Y0054929D02*
Y0054077D01*
X0127863Y0056778D02*
Y0056307D01*
X0129993Y0055617D02*
X0129561D01*
X0128748Y0054409D02*
Y0053770D01*
X0128288Y0054618D02*
Y0053749D01*
X0127580Y0056254D02*
X0127182D01*
X0127507Y0056183D02*
X0127133D01*
X0127466Y0056112D02*
X0127089D01*
X0127444Y0056041D02*
X0127049D01*
X0129626Y0056360D02*
X0127268D01*
X0127441Y0055935D02*
X0126999D01*
X0127458Y0055864D02*
X0126971D01*
X0127492Y0055794D02*
X0126947D01*
X0127797Y0055015D02*
X0127690D01*
X0129315Y0055892D02*
Y0055687D01*
X0129279Y0055825D02*
Y0055681D01*
X0129244Y0055782D02*
Y0055671D01*
X0129208Y0055750D02*
Y0055657D01*
X0129173Y0055725D02*
Y0055638D01*
X0129138Y0055707D02*
Y0055613D01*
X0129102Y0055693D02*
Y0055608D01*
X0129738Y0056218D02*
X0129272D01*
X0130000Y0055581D02*
X0129600D01*
X0130005Y0055546D02*
X0129629D01*
X0130010Y0055510D02*
X0129651D01*
X0130014Y0055475D02*
X0129668D01*
X0129762Y0056183D02*
X0129295D01*
X0129669Y0055223D02*
Y0054321D01*
X0129633Y0055157D02*
Y0054279D01*
X0129598Y0055113D02*
Y0054240D01*
X0129562Y0055081D02*
Y0054203D01*
X0129527Y0055056D02*
Y0054169D01*
X0129279Y0054449D02*
Y0053978D01*
X0129208Y0054373D02*
Y0053937D01*
X0129138Y0054330D02*
Y0053900D01*
X0129067Y0054307D02*
Y0053868D01*
X0127686Y0056695D02*
Y0056305D01*
X0127545Y0056606D02*
Y0056225D01*
X0127439Y0056525D02*
Y0055993D01*
X0129704Y0056265D02*
Y0054366D01*
X0128642Y0056879D02*
Y0056006D01*
Y0054627D02*
Y0053753D01*
X0129978Y0055687D02*
X0129381D01*
X0128607Y0056883D02*
Y0056015D01*
X0127151Y0055404D02*
X0126875D01*
X0127130Y0055333D02*
X0126872D01*
X0127553Y0055723D02*
X0126926D01*
X0127680Y0055652D02*
X0126909D01*
X0127126Y0055227D02*
X0126875D01*
X0127143Y0055156D02*
X0126880D01*
X0127178Y0055086D02*
X0126889D01*
X0129527Y0056462D02*
Y0055640D01*
X0129969Y0054909D02*
X0129207D01*
X0129959Y0054873D02*
X0129246D01*
X0129948Y0054838D02*
X0129275D01*
X0129936Y0054803D02*
X0129297D01*
X0129924Y0054767D02*
X0129314D01*
X0129910Y0054732D02*
X0129326D01*
X0129895Y0054696D02*
X0129334D01*
X0129880Y0054661D02*
X0129338D01*
X0128430Y0054600D02*
Y0053741D01*
X0129315Y0055010D02*
Y0054765D01*
X0129279Y0055016D02*
Y0054832D01*
X0129244Y0055026D02*
Y0054876D01*
X0129208Y0055040D02*
Y0054908D01*
X0129173Y0055059D02*
Y0054932D01*
X0129138Y0055084D02*
Y0054951D01*
X0129102Y0055026D02*
Y0054964D01*
X0128571Y0043892D02*
Y0043008D01*
X0129845Y0041596D02*
X0129377D01*
X0129826Y0041561D02*
X0129372D01*
X0129806Y0041526D02*
X0129364D01*
X0128324Y0043892D02*
Y0043008D01*
X0127518Y0041596D02*
X0127049D01*
X0127531Y0041526D02*
X0127088D01*
X0127560Y0041455D02*
X0127132D01*
X0127613Y0041384D02*
X0127182D01*
X0128205Y0041667D02*
X0128194D01*
X0127828Y0042001D02*
Y0041960D01*
X0127757Y0042063D02*
Y0041946D01*
X0127722Y0042029D02*
Y0041933D01*
X0127686Y0042003D02*
Y0041915D01*
X0127651Y0041983D02*
Y0041892D01*
X0127616Y0041968D02*
Y0041861D01*
X0127580Y0041958D02*
Y0041819D01*
X0127545Y0041952D02*
Y0041756D01*
X0127793Y0042081D02*
Y0041955D01*
X0128700Y0041667D02*
X0128689D01*
X0127802Y0042057D02*
X0127751D01*
X0129170Y0042588D02*
X0129092D01*
X0129220Y0042623D02*
X0129076D01*
X0128607Y0041642D02*
Y0040755D01*
X0128353Y0043012D02*
X0128158D01*
X0128698Y0041596D02*
X0128197D01*
X0128702Y0041561D02*
X0128192D01*
X0128711Y0041526D02*
X0128184D01*
X0128723Y0041490D02*
X0128172D01*
X0128740Y0041455D02*
X0128154D01*
X0128763Y0041420D02*
X0128132D01*
X0128793Y0041384D02*
X0128102D01*
X0128833Y0041349D02*
X0128062D01*
X0128040Y0041334D02*
Y0040800D01*
X0127828Y0042657D02*
Y0042642D01*
X0127757Y0042663D02*
Y0042516D01*
X0127722Y0042671D02*
Y0042551D01*
X0127686Y0042684D02*
Y0042577D01*
X0127651Y0042701D02*
Y0042596D01*
X0127616Y0042724D02*
Y0042611D01*
X0127580Y0042754D02*
Y0042621D01*
X0127545Y0042795D02*
Y0042627D01*
X0127509Y0042854D02*
Y0042630D01*
X0128961Y0041289D02*
Y0040833D01*
X0127474Y0041951D02*
Y0041084D01*
X0127439Y0041956D02*
Y0041112D01*
X0127403Y0041964D02*
Y0041143D01*
X0127368Y0041977D02*
Y0041175D01*
X0127332Y0041995D02*
Y0041209D01*
X0127297Y0042019D02*
Y0041246D01*
X0127262Y0042050D02*
Y0041285D01*
X0127226Y0042092D02*
Y0041327D01*
X0129102Y0042082D02*
Y0041955D01*
X0129067Y0042001D02*
Y0041960D01*
X0127819Y0042623D02*
X0127572D01*
X0127803Y0042588D02*
X0127668D01*
X0127789Y0042552D02*
X0127720D01*
X0127778Y0042517D02*
X0127757D01*
X0127616Y0043659D02*
Y0043271D01*
X0127793Y0042658D02*
Y0042561D01*
X0128968Y0043331D02*
X0127887D01*
X0127489Y0043083D02*
X0127068D01*
X0127564Y0043225D02*
X0127157D01*
X0128536Y0041630D02*
Y0040749D01*
X0128571Y0041635D02*
Y0040752D01*
X0129863Y0041632D02*
X0129377D01*
X0127789Y0042092D02*
X0127780D01*
X0127818Y0042021D02*
X0127713D01*
X0127863Y0041281D02*
Y0040859D01*
X0127191Y0042155D02*
Y0041372D01*
X0127574Y0041809D02*
X0126958D01*
X0128111Y0043861D02*
Y0043170D01*
X0127553Y0041773D02*
X0126971D01*
X0128925Y0041300D02*
Y0040821D01*
X0127538Y0041738D02*
X0126985D01*
X0129806Y0043119D02*
X0129355D01*
X0127527Y0041703D02*
X0126999D01*
X0128890Y0041314D02*
Y0040810D01*
X0127520Y0041667D02*
X0127015D01*
X0129421Y0043560D02*
Y0042668D01*
X0127435Y0042623D02*
X0126901D01*
X0129421Y0041990D02*
Y0041084D01*
X0127339Y0042588D02*
X0126895D01*
X0129385Y0043587D02*
Y0042669D01*
X0127287Y0042552D02*
X0126889D01*
X0129385Y0041989D02*
Y0041057D01*
X0127250Y0042517D02*
X0126884D01*
X0130020Y0042411D02*
X0129722D01*
X0128873Y0043295D02*
X0127983D01*
X0128821Y0043260D02*
X0128035D01*
X0128784Y0043225D02*
X0128072D01*
X0128756Y0043189D02*
X0128099D01*
X0128735Y0043154D02*
X0128120D01*
X0128719Y0043119D02*
X0128136D01*
X0128708Y0043083D02*
X0128147D01*
X0128701Y0043048D02*
X0128155D01*
X0129626Y0043366D02*
X0127268D01*
X0128210Y0042977D02*
X0128158D01*
X0128698D02*
X0128685D01*
X0127174Y0042375D02*
X0126873D01*
X0128359Y0041630D02*
Y0040749D01*
X0128394Y0041626D02*
Y0040748D01*
X0128430Y0041624D02*
Y0040747D01*
X0128465Y0041624D02*
Y0040747D01*
X0127665Y0042694D02*
X0126917D01*
X0127600Y0041844D02*
X0126947D01*
X0127517Y0041632D02*
X0127032D01*
X0129134Y0042552D02*
X0129105D01*
X0128678Y0043880D02*
Y0042980D01*
X0129987Y0042653D02*
Y0041991D01*
X0129952Y0042788D02*
Y0041856D01*
X0129916Y0042890D02*
Y0041754D01*
X0129881Y0042974D02*
Y0041670D01*
X0129846Y0043047D02*
Y0041597D01*
X0129810Y0043111D02*
Y0041533D01*
X0129775Y0043170D02*
Y0041474D01*
X0129102Y0042664D02*
Y0042561D01*
X0129704Y0043271D02*
Y0042463D01*
X0129669Y0043317D02*
Y0042526D01*
X0129633Y0043358D02*
Y0042568D01*
X0129598Y0043398D02*
Y0042600D01*
X0129315Y0041424D02*
Y0041007D01*
X0129244Y0041350D02*
Y0040963D01*
X0129173Y0041309D02*
Y0040924D01*
X0129102Y0041287D02*
Y0040890D01*
X0127757Y0043738D02*
Y0043333D01*
X0129598Y0042058D02*
Y0041246D01*
X0129562Y0043434D02*
Y0042623D01*
Y0042035D02*
Y0041210D01*
X0129527Y0043469D02*
Y0042641D01*
Y0042017D02*
Y0041175D01*
X0129492Y0043501D02*
Y0042654D01*
Y0042004D02*
Y0041143D01*
X0129456Y0043531D02*
Y0042663D01*
Y0041995D02*
Y0041113D01*
X0128182Y0041519D02*
Y0040769D01*
X0127686Y0041915D02*
X0126926D01*
X0127509Y0041949D02*
Y0041057D01*
X0128040Y0043844D02*
Y0043255D01*
X0127899Y0043798D02*
Y0043328D01*
X0130020Y0042234D02*
X0129718D01*
X0129845Y0043048D02*
X0129374D01*
X0128819Y0041360D02*
Y0040791D01*
X0129863Y0043012D02*
X0129377D01*
X0128342Y0041632D02*
X0128197D01*
X0129739Y0043223D02*
Y0041421D01*
X0130022Y0042304D02*
X0129731D01*
X0128748Y0041441D02*
Y0040776D01*
X0129785Y0041490D02*
X0129352D01*
X0128536Y0043894D02*
Y0043013D01*
X0128501Y0043896D02*
Y0043017D01*
X0128465Y0043897D02*
Y0043018D01*
X0128430Y0043897D02*
Y0043018D01*
X0128394Y0043896D02*
Y0043017D01*
X0128359Y0043894D02*
Y0043013D01*
X0127653Y0043295D02*
X0127209D01*
X0127516Y0043154D02*
X0127110D01*
X0127201Y0042446D02*
X0126877D01*
X0127899Y0041283D02*
Y0040846D01*
X0127653Y0041349D02*
X0127209D01*
X0127545Y0041486D02*
Y0041031D01*
X0128147Y0041442D02*
Y0040776D01*
X0128111Y0041394D02*
Y0040783D01*
X0128076Y0041360D02*
Y0040791D01*
X0128182Y0043874D02*
Y0042966D01*
X0128005Y0041314D02*
Y0040810D01*
X0127970Y0041300D02*
Y0040821D01*
X0127934Y0041289D02*
Y0040833D01*
X0128892Y0041313D02*
X0128003D01*
X0129762Y0043189D02*
X0129319D01*
X0127828Y0041282D02*
Y0040874D01*
X0127793Y0041287D02*
Y0040890D01*
X0127757Y0041296D02*
Y0040906D01*
X0127722Y0041309D02*
Y0040924D01*
X0127686Y0041327D02*
Y0040943D01*
X0127651Y0041350D02*
Y0040963D01*
X0127580Y0041423D02*
Y0041007D01*
X0127474Y0043560D02*
Y0042629D01*
X0127439Y0043532D02*
Y0042624D01*
X0127403Y0043501D02*
Y0042615D01*
X0127368Y0043469D02*
Y0042602D01*
X0127332Y0043435D02*
Y0042584D01*
X0127297Y0043398D02*
Y0042560D01*
X0127262Y0043359D02*
Y0042529D01*
X0127226Y0043317D02*
Y0042487D01*
X0127163Y0042304D02*
X0126872D01*
X0127155Y0043223D02*
Y0041421D01*
X0127120Y0043170D02*
Y0041474D01*
X0127085Y0043112D02*
Y0041532D01*
X0127049Y0043047D02*
Y0041597D01*
X0127014Y0042975D02*
Y0041669D01*
X0126979Y0042890D02*
Y0041753D01*
X0126943Y0042789D02*
Y0041855D01*
X0126908Y0042654D02*
Y0041990D01*
X0128778Y0043862D02*
X0128116D01*
X0128913Y0043826D02*
X0127981D01*
X0129015Y0043791D02*
X0127879D01*
X0129099Y0043756D02*
X0127795D01*
X0129172Y0043720D02*
X0127722D01*
X0129237Y0043685D02*
X0127658D01*
X0129295Y0043649D02*
X0127600D01*
X0129348Y0043614D02*
X0127547D01*
X0129397Y0043579D02*
X0127498D01*
X0129442Y0043543D02*
X0127453D01*
X0129484Y0043508D02*
X0127411D01*
X0129523Y0043472D02*
X0127372D01*
X0129560Y0043437D02*
X0127335D01*
X0129594Y0043402D02*
X0127301D01*
X0127616Y0041381D02*
Y0040984D01*
X0129762Y0041455D02*
X0129334D01*
X0129880Y0042977D02*
X0129377D01*
X0128324Y0041635D02*
Y0040752D01*
X0129895Y0042942D02*
X0129373D01*
X0128288Y0043889D02*
Y0043000D01*
X0129910Y0042906D02*
X0129365D01*
X0128288Y0041642D02*
Y0040755D01*
X0129924Y0042871D02*
X0129353D01*
X0128253Y0043885D02*
Y0042991D01*
X0129936Y0042835D02*
X0129336D01*
X0128217Y0041663D02*
Y0040764D01*
X0129948Y0042800D02*
X0129314D01*
X0127482Y0042942D02*
X0126999D01*
X0129959Y0042765D02*
X0129285D01*
X0127502Y0042871D02*
X0126971D01*
X0129969Y0042729D02*
X0129246D01*
X0127541Y0042800D02*
X0126947D01*
X0129978Y0042694D02*
X0129191D01*
X0127609Y0042729D02*
X0126926D01*
X0127191Y0043272D02*
Y0042425D01*
X0127793Y0043754D02*
Y0043337D01*
X0127722Y0043720D02*
Y0043324D01*
X0127651Y0043681D02*
Y0043294D01*
X0127580Y0043637D02*
Y0043241D01*
X0127509Y0043587D02*
Y0043141D01*
X0127478Y0043012D02*
X0127032D01*
X0128253Y0041652D02*
Y0040759D01*
X0130017Y0042198D02*
X0129706D01*
X0128217Y0043880D02*
Y0042980D01*
X0130014Y0042163D02*
X0129688D01*
X0130010Y0042127D02*
X0129666D01*
X0127164Y0042269D02*
X0126873D01*
X0130005Y0042092D02*
X0129636D01*
X0127175Y0042198D02*
X0126877D01*
X0130000Y0042057D02*
X0129595D01*
X0127204Y0042127D02*
X0126884D01*
X0129993Y0042021D02*
X0129537D01*
X0129986Y0041986D02*
X0129059D01*
X0127294Y0042021D02*
X0126901D01*
X0127772Y0041950D02*
X0127531D01*
X0129031Y0041281D02*
Y0040859D01*
X0128996Y0041283D02*
Y0040846D01*
X0129785Y0043154D02*
X0129340D01*
X0128147Y0043868D02*
Y0043086D01*
X0128076Y0043853D02*
Y0043220D01*
X0128005Y0043834D02*
Y0043282D01*
X0127934Y0043811D02*
Y0043318D01*
X0127863Y0043785D02*
Y0043335D01*
X0127350Y0041986D02*
X0126909D01*
X0127476Y0041950D02*
X0126917D01*
X0129738Y0041420D02*
X0129312D01*
X0127522Y0041561D02*
X0127068D01*
X0129713Y0041384D02*
X0129282D01*
X0127543Y0041490D02*
X0127110D01*
X0129686Y0041349D02*
X0129242D01*
X0127583Y0041420D02*
X0127157D01*
X0129657Y0041313D02*
X0129183D01*
X0127712D02*
X0127238D01*
X0129627Y0041278D02*
X0127268D01*
X0129594Y0041243D02*
X0127300D01*
X0129560Y0041207D02*
X0127335D01*
X0129523Y0041172D02*
X0127371D01*
X0129484Y0041136D02*
X0127411D01*
X0129442Y0041101D02*
X0127452D01*
X0129397Y0041066D02*
X0127498D01*
X0129348Y0041030D02*
X0127546D01*
X0129295Y0040995D02*
X0127599D01*
X0129237Y0040959D02*
X0127657D01*
X0129173Y0040924D02*
X0127722D01*
X0129100Y0040889D02*
X0127795D01*
X0129016Y0040853D02*
X0127879D01*
X0128914Y0040818D02*
X0127980D01*
X0128779Y0040782D02*
X0128115D01*
X0128697Y0043012D02*
X0128541D01*
X0128697Y0041632D02*
X0128552D01*
X0130021Y0042375D02*
X0129728D01*
X0130022Y0042340D02*
X0129731D01*
X0130021Y0042269D02*
X0129726D01*
X0129147Y0042092D02*
X0129106D01*
X0129187Y0042057D02*
X0129093D01*
X0129246Y0042021D02*
X0129077D01*
X0127255Y0042057D02*
X0126895D01*
X0129350Y0043613D02*
Y0043132D01*
X0129315Y0043637D02*
Y0043195D01*
X0129279Y0043659D02*
Y0043237D01*
X0129244Y0043681D02*
Y0043268D01*
X0129208Y0043701D02*
Y0043292D01*
X0129173Y0043720D02*
Y0043310D01*
X0129138Y0043738D02*
Y0043323D01*
X0129102Y0043754D02*
Y0043332D01*
X0129067Y0043770D02*
Y0043337D01*
X0129031Y0043785D02*
Y0043338D01*
X0128996Y0043798D02*
Y0043335D01*
X0128961Y0043811D02*
Y0043329D01*
X0128925Y0043823D02*
Y0043319D01*
X0128890Y0043834D02*
Y0043304D01*
X0128854Y0043843D02*
Y0043285D01*
X0129306Y0042658D02*
X0129064D01*
X0129657Y0043331D02*
X0129106D01*
X0128819Y0043852D02*
Y0043259D01*
X0128784Y0043861D02*
Y0043225D01*
X0128748Y0043868D02*
Y0043177D01*
X0128713Y0043874D02*
Y0043101D01*
X0129685Y0043295D02*
X0129202D01*
X0129712Y0043260D02*
X0129254D01*
X0129067Y0041282D02*
Y0040874D01*
X0127636Y0041880D02*
X0126936D01*
X0127970Y0043823D02*
Y0043302D01*
X0127222Y0042481D02*
X0126880D01*
X0128854Y0041334D02*
Y0040801D01*
X0128784Y0041394D02*
Y0040783D01*
X0127749Y0043331D02*
X0127238D01*
X0127601Y0043260D02*
X0127182D01*
X0127537Y0043189D02*
X0127133D01*
X0127500Y0043119D02*
X0127089D01*
X0127481Y0043048D02*
X0127049D01*
X0127478Y0042977D02*
X0127015D01*
X0127490Y0042906D02*
X0126985D01*
X0127519Y0042835D02*
X0126958D01*
X0127570Y0042765D02*
X0126936D01*
X0127836Y0041986D02*
X0127657D01*
X0129350Y0042863D02*
Y0042667D01*
X0129315Y0042800D02*
Y0042661D01*
X0129279Y0042758D02*
Y0042650D01*
X0129244Y0042727D02*
Y0042636D01*
X0129208Y0042703D02*
Y0042616D01*
X0129173Y0042686D02*
Y0042590D01*
X0129138Y0042672D02*
Y0042556D01*
X0129738Y0043225D02*
X0129291D01*
X0129993Y0042623D02*
X0129563D01*
X0130000Y0042588D02*
X0129613D01*
X0130005Y0042552D02*
X0129648D01*
X0130010Y0042517D02*
X0129675D01*
X0130014Y0042481D02*
X0129696D01*
X0130017Y0042446D02*
X0129711D01*
X0129704Y0042195D02*
Y0041373D01*
X0129669Y0042132D02*
Y0041327D01*
X0129880Y0041667D02*
X0129374D01*
X0129350Y0041487D02*
Y0041031D01*
X0129279Y0041382D02*
Y0040985D01*
X0129208Y0041327D02*
Y0040943D01*
X0129138Y0041296D02*
Y0040906D01*
X0127828Y0043770D02*
Y0043338D01*
X0127686Y0043701D02*
Y0043312D01*
X0127545Y0043613D02*
Y0043201D01*
X0129826Y0043083D02*
X0129367D01*
X0128678Y0041663D02*
Y0040764D01*
X0128642Y0043885D02*
Y0042991D01*
Y0041652D02*
Y0040759D01*
X0129986Y0042658D02*
X0129477D01*
X0128607Y0043889D02*
Y0043000D01*
X0127185Y0042411D02*
X0126875D01*
X0127167Y0042340D02*
X0126872D01*
X0127791Y0042658D02*
X0126909D01*
X0127168Y0042234D02*
X0126875D01*
X0127187Y0042163D02*
X0126880D01*
X0127226Y0042092D02*
X0126889D01*
X0129633Y0042090D02*
Y0041285D01*
X0129978Y0041950D02*
X0129123D01*
X0129969Y0041915D02*
X0129209D01*
X0129959Y0041880D02*
X0129258D01*
X0129948Y0041844D02*
X0129294D01*
X0129936Y0041809D02*
X0129321D01*
X0129924Y0041773D02*
X0129342D01*
X0129910Y0041738D02*
X0129357D01*
X0129895Y0041703D02*
X0129368D01*
X0128501Y0041626D02*
Y0040748D01*
X0129350Y0041991D02*
Y0041755D01*
X0129315Y0041997D02*
Y0041818D01*
X0129279Y0042008D02*
Y0041860D01*
X0129244Y0042022D02*
Y0041891D01*
X0129208Y0042042D02*
Y0041915D01*
X0129173Y0042068D02*
Y0041933D01*
X0129138Y0042102D02*
Y0041946D01*
X0129067Y0042659D02*
Y0042641D01*
X0128713Y0041518D02*
Y0040770D01*
X0070933Y0022221D02*
Y0021839D01*
X0070615Y0022138D02*
Y0021667D01*
X0070473Y0022213D02*
Y0021618D01*
X0068987Y0022787D02*
Y0021950D01*
X0068845Y0024166D02*
Y0023289D01*
Y0022905D02*
Y0022093D01*
X0068810Y0024124D02*
Y0023222D01*
Y0022972D02*
Y0022134D01*
X0070320Y0023855D02*
X0069817D01*
X0071177Y0024209D02*
X0068884D01*
X0069841Y0023820D02*
X0069820D01*
X0070321D02*
X0070221D01*
X0068786Y0023076D02*
X0068457D01*
X0070119Y0022417D02*
Y0021557D01*
X0070155Y0022423D02*
Y0021559D01*
X0070190Y0022430D02*
Y0021562D01*
X0070225Y0022439D02*
Y0021566D01*
X0070261Y0022450D02*
Y0021571D01*
X0069518Y0024618D02*
Y0024143D01*
X0070969Y0024394D02*
Y0023987D01*
X0070933Y0024420D02*
Y0024047D01*
X0070898Y0024444D02*
Y0024088D01*
X0070863Y0024467D02*
Y0024118D01*
X0070827Y0024488D02*
Y0024141D01*
X0070792Y0024508D02*
Y0024158D01*
X0070756Y0024527D02*
Y0024171D01*
X0070721Y0024545D02*
Y0024179D01*
X0070686Y0024562D02*
Y0024184D01*
X0069398Y0023466D02*
X0068492D01*
X0070615Y0024592D02*
Y0024182D01*
X0070579Y0024606D02*
Y0024175D01*
X0070544Y0024618D02*
Y0024164D01*
X0070509Y0024630D02*
Y0024149D01*
X0070473Y0024641D02*
Y0024129D01*
X0070332Y0022478D02*
Y0021583D01*
X0070402Y0024660D02*
Y0024067D01*
X0070367Y0024668D02*
Y0024018D01*
X0071004Y0024367D02*
Y0023516D01*
X0070574Y0024174D02*
X0068852D01*
X0069482Y0024606D02*
Y0024145D01*
X0069140Y0022439D02*
X0068615D01*
X0069447Y0024592D02*
Y0024144D01*
X0070650Y0022131D02*
Y0021681D01*
X0070579Y0022149D02*
Y0021653D01*
X0070509Y0022186D02*
Y0021629D01*
X0070438Y0022250D02*
Y0021608D01*
X0071463Y0022475D02*
X0071040D01*
X0069836Y0024692D02*
Y0023818D01*
X0069164Y0023678D02*
X0068554D01*
X0069836Y0022439D02*
Y0021566D01*
X0069181Y0023643D02*
X0068542D01*
X0071493Y0023713D02*
X0070974D01*
X0069203Y0023607D02*
X0068530D01*
X0071520Y0023643D02*
X0070934D01*
X0069232Y0023572D02*
X0068519D01*
X0071542D02*
X0070864D01*
X0070332Y0024675D02*
Y0023934D01*
X0071040Y0024339D02*
Y0023515D01*
X0071552Y0023536D02*
X0070805D01*
X0070969Y0023701D02*
Y0023513D01*
X0070933Y0023642D02*
Y0023506D01*
X0070898Y0023601D02*
Y0023496D01*
X0070863Y0023571D02*
Y0023480D01*
X0070827Y0023548D02*
Y0023460D01*
X0070792Y0023531D02*
Y0023433D01*
X0070756Y0023518D02*
Y0023398D01*
X0070721Y0023509D02*
Y0023349D01*
X0071321Y0024032D02*
X0070944D01*
X0071323Y0023032D02*
Y0022229D01*
X0071287Y0022973D02*
Y0022180D01*
X0071252Y0022932D02*
Y0022135D01*
X0071217Y0022902D02*
Y0022093D01*
X0071181Y0022879D02*
Y0022054D01*
X0071146Y0022862D02*
Y0022017D01*
X0071110Y0022849D02*
Y0021983D01*
X0071040Y0022459D02*
Y0021920D01*
X0070969Y0022260D02*
Y0021864D01*
X0070898Y0022191D02*
Y0021815D01*
X0070827Y0022152D02*
Y0021771D01*
X0070756Y0022132D02*
Y0021731D01*
X0069305Y0024527D02*
Y0024097D01*
X0068951Y0024276D02*
Y0023389D01*
Y0022805D02*
Y0021982D01*
X0068916Y0024242D02*
Y0023365D01*
Y0022829D02*
Y0022017D01*
X0068798Y0023006D02*
X0068461D01*
X0071606Y0023147D02*
X0071353D01*
X0068810Y0022970D02*
X0068464D01*
X0071605Y0023076D02*
X0071339D01*
X0068827Y0022935D02*
X0068468D01*
X0071601Y0023006D02*
X0071309D01*
X0068849Y0022899D02*
X0068473D01*
X0071577Y0022829D02*
X0070681D01*
X0068878Y0022864D02*
X0068478D01*
X0071531Y0023607D02*
X0070904D01*
X0071040Y0022836D02*
Y0022476D01*
X0071004Y0022835D02*
Y0022619D01*
X0070969Y0022838D02*
Y0022676D01*
X0070933Y0022845D02*
Y0022715D01*
X0070898Y0022856D02*
Y0022744D01*
X0070863Y0022871D02*
Y0022766D01*
X0070827Y0022891D02*
Y0022783D01*
X0070792Y0022918D02*
Y0022795D01*
X0070756Y0022953D02*
Y0022803D01*
X0070438Y0024651D02*
Y0024102D01*
X0070686Y0023505D02*
Y0023420D01*
X0070650Y0023504D02*
Y0023489D01*
X0070360Y0022439D02*
X0070226D01*
X0070367Y0022394D02*
Y0021591D01*
X0068880Y0024205D02*
Y0023333D01*
Y0022861D02*
Y0022053D01*
X0071552Y0022722D02*
X0070925D01*
X0069141Y0022404D02*
X0068633D01*
X0071531Y0022652D02*
X0070986D01*
X0069145Y0022368D02*
X0068652D01*
X0071507Y0022581D02*
X0071020D01*
X0069153Y0022333D02*
X0068672D01*
X0071479Y0022510D02*
X0071037D01*
X0069166Y0022298D02*
X0068693D01*
X0071446Y0022439D02*
X0071038D01*
X0069183Y0022262D02*
X0068716D01*
X0071410Y0022368D02*
X0071025D01*
X0069206Y0022227D02*
X0068740D01*
X0071368Y0022298D02*
X0070994D01*
X0069236Y0022191D02*
X0068765D01*
X0071321Y0022227D02*
X0070940D01*
X0069276Y0022156D02*
X0068792D01*
X0071345Y0022262D02*
X0070971D01*
X0071598Y0022970D02*
X0071285D01*
X0069411Y0022095D02*
Y0021681D01*
X0069162Y0023926D02*
X0068672D01*
X0070721Y0022936D02*
Y0022807D01*
X0070686Y0022838D02*
Y0022808D01*
X0070296Y0022463D02*
Y0021577D01*
X0071570Y0023460D02*
Y0022798D01*
X0071535Y0023595D02*
Y0022663D01*
X0071500Y0023697D02*
Y0022561D01*
X0071464Y0023781D02*
Y0022477D01*
X0071429Y0023854D02*
Y0022404D01*
X0071394Y0023919D02*
Y0022340D01*
X0069835Y0022439D02*
X0069820D01*
X0071323Y0024030D02*
Y0023319D01*
X0071287Y0024079D02*
Y0023378D01*
X0071252Y0024124D02*
Y0023419D01*
X0071217Y0024166D02*
Y0023449D01*
X0071181Y0024205D02*
Y0023472D01*
X0071146Y0024242D02*
Y0023489D01*
X0071110Y0024276D02*
Y0023502D01*
X0071075Y0022841D02*
Y0021950D01*
X0071561Y0023501D02*
X0071114D01*
X0069093Y0024395D02*
Y0023436D01*
X0071569Y0023466D02*
X0071192D01*
X0069411Y0024577D02*
Y0024138D01*
X0071577Y0023430D02*
X0071240D01*
X0069093Y0022758D02*
Y0021864D01*
X0071583Y0023395D02*
X0071274D01*
X0069057Y0024368D02*
Y0023430D01*
X0071589Y0023360D02*
X0071300D01*
X0069057Y0022764D02*
Y0021891D01*
X0069022Y0024339D02*
Y0023421D01*
X0071345Y0023997D02*
X0070964D01*
X0069376Y0024562D02*
Y0024129D01*
X0071368Y0023961D02*
X0070980D01*
X0069022Y0022773D02*
Y0021920D01*
X0071389Y0023926D02*
X0070990D01*
X0069341Y0024545D02*
Y0024115D01*
X0071410Y0023890D02*
X0070997D01*
X0070296Y0024682D02*
Y0023794D01*
X0070261Y0024687D02*
Y0023807D01*
X0070225Y0024692D02*
Y0023818D01*
X0070190Y0024696D02*
Y0023827D01*
X0070155Y0024699D02*
Y0023835D01*
X0070119Y0024702D02*
Y0023840D01*
X0070084Y0024703D02*
Y0023843D01*
X0070048Y0024704D02*
Y0023845D01*
X0069143Y0023855D02*
X0068633D01*
X0069140Y0023784D02*
X0068598D01*
X0068797Y0023183D02*
X0068457D01*
X0068786Y0023112D02*
X0068456D01*
X0068790Y0023041D02*
X0068458D01*
X0071240Y0022121D02*
X0069625D01*
X0069199Y0022236D02*
Y0021792D01*
X0069164Y0022303D02*
Y0021814D01*
X0069801Y0022314D02*
Y0021571D01*
X0069765Y0022243D02*
Y0021577D01*
X0069730Y0022197D02*
Y0021583D01*
X0069695Y0022164D02*
Y0021591D01*
X0069659Y0022139D02*
Y0021599D01*
X0069624Y0022120D02*
Y0021608D01*
X0069588Y0022106D02*
Y0021618D01*
X0069553Y0022096D02*
Y0021629D01*
X0068961Y0023395D02*
X0068478D01*
X0069447Y0022090D02*
Y0021667D01*
X0068973Y0022793D02*
X0068492D01*
X0069395Y0022758D02*
X0069154D01*
X0069341Y0022118D02*
Y0021714D01*
X0069305Y0022136D02*
Y0021731D01*
X0069234Y0022193D02*
Y0021770D01*
X0069151Y0023890D02*
X0068652D01*
X0070863Y0022169D02*
Y0021792D01*
X0070721Y0022128D02*
Y0021714D01*
X0070544Y0022165D02*
Y0021640D01*
X0068987Y0024309D02*
Y0023407D01*
X0071598Y0023289D02*
X0071335D01*
X0071603Y0023218D02*
X0071352D01*
X0071561Y0022758D02*
X0070877D01*
X0069270Y0024508D02*
Y0024073D01*
X0069871Y0022430D02*
Y0021562D01*
X0068774Y0024079D02*
Y0022180D01*
X0068739Y0024030D02*
Y0022228D01*
X0068703Y0023977D02*
Y0022281D01*
X0068668Y0023919D02*
Y0022339D01*
X0068633Y0023855D02*
Y0022404D01*
X0068597Y0023782D02*
Y0022477D01*
X0068562Y0023698D02*
Y0022561D01*
X0068526Y0023596D02*
Y0022662D01*
X0068491Y0023461D02*
Y0022797D01*
X0070362Y0024669D02*
X0069700D01*
X0070497Y0024634D02*
X0069564D01*
X0070599Y0024598D02*
X0069463D01*
X0070683Y0024563D02*
X0069379D01*
X0070756Y0024528D02*
X0069306D01*
X0070820Y0024492D02*
X0069241D01*
X0070878Y0024457D02*
X0069183D01*
X0070931Y0024421D02*
X0069130D01*
X0070980Y0024386D02*
X0069081D01*
X0071025Y0024351D02*
X0069036D01*
X0071067Y0024315D02*
X0068994D01*
X0071106Y0024280D02*
X0068955D01*
X0071143Y0024244D02*
X0068918D01*
X0071210Y0024174D02*
X0070746D01*
X0071583Y0022864D02*
X0071151D01*
X0069128Y0024420D02*
Y0023437D01*
X0069411Y0024138D02*
X0068821D01*
X0070836Y0023466D02*
X0070663D01*
X0069327Y0023501D02*
X0068500D01*
X0069226Y0024032D02*
X0068740D01*
X0069199Y0023997D02*
X0068716D01*
X0069178Y0023961D02*
X0068693D01*
X0069270Y0022161D02*
Y0021750D01*
X0070013Y0024704D02*
Y0023845D01*
Y0022412D02*
Y0021554D01*
X0069978Y0024703D02*
Y0023843D01*
Y0022414D02*
Y0021555D01*
X0069942Y0024702D02*
Y0023840D01*
X0071446Y0023820D02*
X0070999D01*
X0071479Y0023749D02*
X0070987D01*
X0071507Y0023678D02*
X0070957D01*
X0071075Y0024308D02*
Y0023510D01*
X0069315Y0024103D02*
X0068793D01*
X0069263Y0024067D02*
X0068766D01*
X0069380Y0022829D02*
X0069335D01*
X0069518Y0022090D02*
Y0021640D01*
X0069057Y0023430D02*
X0068485D01*
X0069376Y0022104D02*
Y0021697D01*
X0069309Y0022722D02*
X0068509D01*
X0068873Y0023324D02*
X0068468D01*
X0068845Y0023289D02*
X0068464D01*
X0069199Y0024467D02*
Y0023997D01*
X0069152Y0023713D02*
X0068568D01*
X0069942Y0022417D02*
Y0021557D01*
X0069907Y0024699D02*
Y0023835D01*
Y0022423D02*
Y0021559D01*
X0069871Y0024696D02*
Y0023827D01*
X0069271Y0023536D02*
X0068509D01*
X0071606Y0023112D02*
X0071348D01*
X0071603Y0023041D02*
X0071327D01*
X0071589Y0022899D02*
X0071213D01*
X0071605Y0023183D02*
X0071354D01*
X0068824Y0023253D02*
X0068461D01*
X0068808Y0023218D02*
X0068458D01*
X0068909Y0023360D02*
X0068473D01*
X0069482Y0022088D02*
Y0021653D01*
X0069098Y0022758D02*
X0068500D01*
X0069259Y0022687D02*
X0068519D01*
X0069223Y0022652D02*
X0068530D01*
X0069765Y0024682D02*
Y0023991D01*
X0069695Y0024668D02*
Y0024069D01*
X0069624Y0024651D02*
Y0024113D01*
X0069553Y0024630D02*
Y0024137D01*
X0071269Y0024103D02*
X0070881D01*
X0071542Y0022687D02*
X0070960D01*
X0071520Y0022616D02*
X0071006D01*
X0071493Y0022545D02*
X0071031D01*
X0068917Y0022829D02*
X0068485D01*
X0071429Y0022404D02*
X0071034D01*
X0071390Y0022333D02*
X0071012D01*
X0071296Y0022191D02*
X0070898D01*
X0069334Y0022121D02*
X0068821D01*
X0071210Y0022085D02*
X0068851D01*
X0071178Y0022050D02*
X0068884D01*
X0071143Y0022014D02*
X0068918D01*
X0071107Y0021979D02*
X0068955D01*
X0071067Y0021944D02*
X0068994D01*
X0071025Y0021908D02*
X0069036D01*
X0070980Y0021873D02*
X0069081D01*
X0070932Y0021837D02*
X0069130D01*
X0070879Y0021802D02*
X0069183D01*
X0070821Y0021767D02*
X0069241D01*
X0070756Y0021731D02*
X0069305D01*
X0070683Y0021696D02*
X0069378D01*
X0070599Y0021661D02*
X0069462D01*
X0070498Y0021625D02*
X0069564D01*
X0070363Y0021590D02*
X0069699D01*
X0071594Y0023324D02*
X0071320D01*
X0071594Y0022935D02*
X0071254D01*
X0069341Y0022833D02*
Y0022739D01*
X0069376Y0022837D02*
Y0022752D01*
X0069305Y0022808D02*
Y0022720D01*
X0069270Y0022789D02*
Y0022696D01*
X0069234Y0022774D02*
Y0022664D01*
X0069199Y0022765D02*
Y0022620D01*
X0069164Y0022759D02*
Y0022554D01*
X0070728Y0023360D02*
X0070709D01*
X0069376Y0023481D02*
Y0023420D01*
X0069397Y0022793D02*
X0069279D01*
X0070650Y0024577D02*
Y0024185D01*
X0070359Y0022475D02*
X0070324D01*
X0070365Y0022404D02*
X0069819D01*
X0070374Y0022368D02*
X0069815D01*
X0070387Y0022333D02*
X0069807D01*
X0070404Y0022298D02*
X0069794D01*
X0070428Y0022262D02*
X0069777D01*
X0070459Y0022227D02*
X0069754D01*
X0070500Y0022191D02*
X0069724D01*
X0070562Y0022156D02*
X0069684D01*
X0071269D02*
X0070836D01*
X0069381Y0023430D02*
X0069195D01*
X0069365Y0023395D02*
X0069291D01*
X0069352Y0023360D02*
X0069343D01*
X0070754Y0023395D02*
X0070696D01*
X0069341Y0023495D02*
Y0023361D01*
X0070788Y0023430D02*
X0070681D01*
X0069305Y0023513D02*
Y0023386D01*
X0069270Y0023537D02*
Y0023405D01*
X0069234Y0023569D02*
Y0023420D01*
X0069199Y0023613D02*
Y0023429D01*
X0069164Y0023680D02*
Y0023435D01*
X0069196Y0022616D02*
X0068542D01*
X0071004Y0022316D02*
Y0021891D01*
X0070792Y0022140D02*
Y0021750D01*
X0070686Y0022128D02*
Y0021697D01*
X0070402Y0022301D02*
Y0021599D01*
X0071358Y0023977D02*
Y0022282D01*
X0071601Y0023253D02*
X0071345D01*
X0071569Y0022793D02*
X0070799D01*
X0070048Y0022412D02*
Y0021554D01*
X0069234Y0024488D02*
Y0024041D01*
X0071463Y0023784D02*
X0070995D01*
X0068789Y0023147D02*
X0068456D01*
X0069144Y0023749D02*
X0068583D01*
X0069140Y0023820D02*
X0068615D01*
X0069164Y0024444D02*
Y0023930D01*
X0070084Y0022414D02*
Y0021555D01*
X0071428Y0023855D02*
X0071000D01*
X0070743Y0022970D02*
X0070730D01*
X0070774Y0022935D02*
X0070721D01*
X0070815Y0022899D02*
X0070710D01*
X0070877Y0022864D02*
X0070697D01*
X0070488Y0024138D02*
X0069549D01*
X0070439Y0024103D02*
X0069645D01*
X0070403Y0024067D02*
X0069697D01*
X0070914Y0023501D02*
X0070643D01*
X0070376Y0024032D02*
X0069734D01*
X0070356Y0023997D02*
X0069761D01*
X0070340Y0023961D02*
X0069782D01*
X0070330Y0023926D02*
X0069798D01*
X0070323Y0023890D02*
X0069809D01*
X0069128Y0022757D02*
Y0021839D01*
X0069801Y0024687D02*
Y0023919D01*
X0069176Y0022581D02*
X0068554D01*
X0069730Y0024675D02*
Y0024036D01*
X0069160Y0022545D02*
X0068568D01*
X0069659Y0024660D02*
Y0024094D01*
X0069150Y0022510D02*
X0068583D01*
X0069588Y0024641D02*
Y0024128D01*
X0069143Y0022475D02*
X0068598D01*
X0071240Y0024138D02*
X0070832D01*
X0071296Y0024067D02*
X0070917D01*
X0068746Y0036105D02*
X0068456D01*
X0069927Y0036813D02*
X0069781D01*
X0069789Y0036778D02*
X0069778D01*
X0070283D02*
X0070272D01*
X0070280Y0036813D02*
X0070134D01*
X0070013Y0035427D02*
Y0034548D01*
X0070048Y0035427D02*
Y0034548D01*
X0070084Y0035429D02*
Y0034549D01*
X0070119Y0035433D02*
Y0034550D01*
X0069482Y0037599D02*
Y0037162D01*
X0070933Y0037414D02*
Y0036959D01*
X0070898Y0037438D02*
Y0037022D01*
X0070863Y0037460D02*
Y0037064D01*
X0070827Y0037482D02*
Y0037095D01*
X0070792Y0037502D02*
Y0037118D01*
X0070756Y0037521D02*
Y0037136D01*
X0070721Y0037539D02*
Y0037150D01*
X0070686Y0037555D02*
Y0037158D01*
X0070946Y0036495D02*
X0070706D01*
X0069101Y0035468D02*
X0068598D01*
X0070296Y0035480D02*
Y0034571D01*
X0070579Y0037599D02*
Y0037162D01*
X0070544Y0037612D02*
Y0037156D01*
X0070509Y0037624D02*
Y0037146D01*
X0070473Y0037635D02*
Y0037131D01*
X0070438Y0037644D02*
Y0037111D01*
X0069420Y0036459D02*
X0068492D01*
X0070367Y0037662D02*
Y0037051D01*
X0070969Y0037388D02*
Y0036496D01*
X0070296Y0037675D02*
Y0036927D01*
X0069447Y0037586D02*
Y0037165D01*
X0071269Y0037096D02*
X0070825D01*
X0069411Y0037571D02*
Y0037163D01*
X0070650Y0035107D02*
Y0034675D01*
X0070579Y0035117D02*
Y0034647D01*
X0070509Y0035143D02*
Y0034622D01*
X0070438Y0035190D02*
Y0034602D01*
X0070367Y0035274D02*
Y0034584D01*
X0071210Y0037167D02*
X0068852D01*
X0069136Y0036672D02*
X0068554D01*
X0071463Y0036778D02*
X0070958D01*
X0069157Y0036636D02*
X0068542D01*
X0071493Y0036707D02*
X0070940D01*
X0069184Y0036601D02*
X0068530D01*
X0071520Y0036636D02*
X0070904D01*
X0069220Y0036566D02*
X0068519D01*
X0071542D02*
X0070842D01*
X0070332Y0037669D02*
Y0037004D01*
X0071552Y0036530D02*
X0070792D01*
X0070933Y0036690D02*
Y0036493D01*
X0070898Y0036627D02*
Y0036487D01*
X0070863Y0036585D02*
Y0036477D01*
X0070827Y0036554D02*
Y0036462D01*
X0070792Y0036530D02*
Y0036443D01*
X0070756Y0036512D02*
Y0036417D01*
X0070721Y0036499D02*
Y0036383D01*
X0069794Y0035468D02*
X0069780D01*
X0071321Y0037026D02*
X0070895D01*
X0071287Y0036021D02*
Y0035174D01*
X0071252Y0035958D02*
Y0035128D01*
X0071217Y0035916D02*
Y0035086D01*
X0071181Y0035885D02*
Y0035047D01*
X0071146Y0035861D02*
Y0035011D01*
X0071110Y0035844D02*
Y0034976D01*
X0071075Y0035830D02*
Y0034944D01*
X0071040Y0035822D02*
Y0034914D01*
X0071004Y0035817D02*
Y0034885D01*
X0070933Y0035245D02*
Y0034832D01*
X0070863Y0035174D02*
Y0034786D01*
X0070792Y0035134D02*
Y0034744D01*
X0070721Y0035113D02*
Y0034707D01*
X0069305Y0037521D02*
Y0037137D01*
X0068951Y0037270D02*
Y0036429D01*
Y0035804D02*
Y0034976D01*
X0068916Y0037236D02*
Y0036411D01*
Y0035822D02*
Y0035010D01*
X0069269Y0036530D02*
X0068509D01*
X0071606Y0036141D02*
X0071315D01*
X0068782Y0035964D02*
X0068464D01*
X0071605Y0036070D02*
X0071304D01*
X0068803Y0035928D02*
X0068468D01*
X0071601Y0035999D02*
X0071277D01*
X0068830Y0035893D02*
X0068473D01*
X0071594Y0035928D02*
X0071228D01*
X0068865Y0035858D02*
X0068478D01*
X0071583D02*
X0071139D01*
X0071531Y0036601D02*
X0070877D01*
X0070969Y0035815D02*
Y0035591D01*
X0070933Y0035818D02*
Y0035650D01*
X0070898Y0035824D02*
Y0035691D01*
X0070863Y0035834D02*
Y0035721D01*
X0070827Y0035849D02*
Y0035744D01*
X0070792Y0035869D02*
Y0035761D01*
X0070756Y0035895D02*
Y0035774D01*
X0070721Y0035929D02*
Y0035782D01*
X0069940Y0035433D02*
X0069781D01*
X0071577Y0035822D02*
X0071043D01*
X0070650Y0036485D02*
Y0036443D01*
X0070320Y0035468D02*
X0070267D01*
X0070332Y0035358D02*
Y0034577D01*
X0068880Y0035846D02*
Y0035047D01*
X0069101Y0035433D02*
X0068615D01*
X0071552Y0035716D02*
X0070869D01*
X0069104Y0035397D02*
X0068633D01*
X0071531Y0035645D02*
X0070937D01*
X0069111Y0035362D02*
X0068652D01*
X0071507Y0035574D02*
X0070976D01*
X0069123Y0035327D02*
X0068672D01*
X0071479Y0035504D02*
X0070996D01*
X0068915Y0035822D02*
X0068485D01*
X0071446Y0035433D02*
X0071000D01*
X0069159Y0035256D02*
X0068716D01*
X0071410Y0035362D02*
X0070989D01*
X0069187Y0035221D02*
X0068740D01*
X0071368Y0035291D02*
X0070962D01*
X0069224Y0035185D02*
X0068765D01*
X0071321Y0035221D02*
X0070913D01*
X0069276Y0035150D02*
X0068792D01*
X0071269D02*
X0070824D01*
X0071296Y0035185D02*
X0070877D01*
X0071589Y0035893D02*
X0071191D01*
X0069411Y0035109D02*
Y0034675D01*
X0069114Y0036920D02*
X0068672D01*
X0070686Y0035885D02*
Y0035787D01*
X0070402Y0037653D02*
Y0037085D01*
X0070190Y0035445D02*
Y0034556D01*
X0071570Y0036454D02*
Y0035792D01*
X0071535Y0036589D02*
Y0035657D01*
X0071500Y0036691D02*
Y0035555D01*
X0071464Y0036775D02*
Y0035471D01*
X0071429Y0036848D02*
Y0035398D01*
X0071394Y0036912D02*
Y0035334D01*
X0071358Y0036971D02*
Y0035275D01*
X0070686Y0036490D02*
Y0036363D01*
X0071287Y0037072D02*
Y0036290D01*
X0071252Y0037118D02*
Y0036353D01*
X0071217Y0037159D02*
Y0036395D01*
X0071181Y0037199D02*
Y0036426D01*
X0071146Y0037235D02*
Y0036450D01*
X0071110Y0037270D02*
Y0036468D01*
X0071075Y0037302D02*
Y0036481D01*
X0071040Y0037332D02*
Y0036490D01*
X0071561Y0036495D02*
X0071004D01*
X0069093Y0035776D02*
Y0034858D01*
X0071569Y0036459D02*
X0071128D01*
X0070898Y0035204D02*
Y0034808D01*
X0071577Y0036424D02*
X0071184D01*
X0069057Y0037361D02*
Y0036455D01*
X0071583Y0036389D02*
X0071223D01*
X0069057Y0035777D02*
Y0034885D01*
X0071589Y0036353D02*
X0071252D01*
X0069022Y0037333D02*
Y0036450D01*
X0071345Y0036990D02*
X0070918D01*
X0069376Y0037555D02*
Y0037158D01*
X0071368Y0036955D02*
X0070935D01*
X0069022Y0035782D02*
Y0034913D01*
X0071389Y0036920D02*
X0070947D01*
X0069341Y0037539D02*
Y0037150D01*
X0071410Y0036884D02*
X0070956D01*
X0068987Y0037302D02*
Y0036442D01*
X0070261Y0037681D02*
Y0036782D01*
X0070225Y0037686D02*
Y0036793D01*
X0070190Y0037690D02*
Y0036803D01*
X0070155Y0037693D02*
Y0036810D01*
X0070119Y0037695D02*
Y0036815D01*
X0070084Y0037697D02*
Y0036819D01*
X0070048Y0037698D02*
Y0036821D01*
X0070013Y0037698D02*
Y0036821D01*
X0069978Y0037697D02*
Y0036819D01*
X0069942Y0037695D02*
Y0036815D01*
X0069100Y0036813D02*
X0068615D01*
X0069110Y0036743D02*
X0068583D01*
X0069836Y0037686D02*
Y0036793D01*
X0069093Y0037388D02*
Y0036457D01*
X0069164Y0035250D02*
Y0034808D01*
X0069128Y0035313D02*
Y0034832D01*
X0069765Y0035346D02*
Y0034570D01*
X0069730Y0035268D02*
Y0034577D01*
X0069695Y0035221D02*
Y0034584D01*
X0069659Y0035187D02*
Y0034592D01*
X0069624Y0035161D02*
Y0034601D01*
X0069588Y0035141D02*
Y0034611D01*
X0069553Y0035126D02*
Y0034622D01*
X0069518Y0035116D02*
Y0034634D01*
X0068882Y0036389D02*
X0068478D01*
X0068752Y0036176D02*
X0068457D01*
X0069413Y0035787D02*
X0069172D01*
X0069341Y0035122D02*
Y0034707D01*
X0069305Y0035135D02*
Y0034725D01*
X0069270Y0035153D02*
Y0034744D01*
X0069199Y0035208D02*
Y0034785D01*
X0070969Y0035305D02*
Y0034858D01*
X0070756Y0035121D02*
Y0034725D01*
X0070544Y0035128D02*
Y0034634D01*
X0071569Y0035787D02*
X0070688D01*
X0071598Y0036282D02*
X0071291D01*
X0071603Y0036212D02*
X0071310D01*
X0068880Y0037199D02*
Y0036387D01*
X0069270Y0037502D02*
Y0037119D01*
X0069199Y0037460D02*
Y0037064D01*
X0068767Y0035999D02*
X0068461D01*
X0068739Y0037024D02*
Y0035222D01*
X0068703Y0036971D02*
Y0035275D01*
X0068668Y0036913D02*
Y0035333D01*
X0068633Y0036848D02*
Y0035398D01*
X0068597Y0036776D02*
Y0035470D01*
X0068562Y0036691D02*
Y0035554D01*
X0068526Y0036590D02*
Y0035656D01*
X0068491Y0036455D02*
Y0035791D01*
X0070362Y0037663D02*
X0069700D01*
X0070497Y0037627D02*
X0069564D01*
X0070599Y0037592D02*
X0069463D01*
X0070683Y0037557D02*
X0069379D01*
X0070756Y0037521D02*
X0069306D01*
X0070820Y0037486D02*
X0069241D01*
X0070878Y0037450D02*
X0069183D01*
X0070931Y0037415D02*
X0069130D01*
X0070980Y0037380D02*
X0069081D01*
X0071025Y0037344D02*
X0069036D01*
X0071067Y0037309D02*
X0068994D01*
X0071106Y0037273D02*
X0068955D01*
X0071143Y0037238D02*
X0068918D01*
X0071177Y0037203D02*
X0068884D01*
X0069164Y0035645D02*
X0068530D01*
X0069356Y0036495D02*
X0068500D01*
X0069295Y0037132D02*
X0068821D01*
X0069236Y0037096D02*
X0068793D01*
X0069196Y0037061D02*
X0068766D01*
X0069166Y0037026D02*
X0068740D01*
X0069144Y0036990D02*
X0068716D01*
X0069126Y0036955D02*
X0068693D01*
X0071240Y0035114D02*
X0070729D01*
X0069234Y0035177D02*
Y0034764D01*
X0069907Y0037693D02*
Y0036810D01*
Y0035438D02*
Y0034553D01*
X0069871Y0037690D02*
Y0036803D01*
Y0035445D02*
Y0034556D01*
X0071446Y0036813D02*
X0070961D01*
X0071479Y0036743D02*
X0070951D01*
X0071507Y0036672D02*
X0070925D01*
X0071004Y0037361D02*
Y0036495D01*
X0070650Y0035805D02*
Y0035788D01*
X0069402Y0035822D02*
X0069258D01*
X0069482Y0035110D02*
Y0034647D01*
X0068941Y0036424D02*
X0068485D01*
X0069376Y0035114D02*
Y0034691D01*
X0069287Y0035751D02*
X0068500D01*
X0068812Y0036318D02*
X0068468D01*
X0068790Y0036282D02*
X0068464D01*
X0068772Y0036247D02*
X0068461D01*
X0069128Y0037414D02*
Y0036959D01*
X0069836Y0035455D02*
Y0034560D01*
X0069801Y0037681D02*
Y0036782D01*
Y0035466D02*
Y0034565D01*
X0068749Y0036070D02*
X0068457D01*
X0068756Y0036035D02*
X0068458D01*
X0071606Y0036105D02*
X0071311D01*
X0071603Y0036035D02*
X0071293D01*
X0071598Y0035964D02*
X0071256D01*
X0071428Y0036849D02*
X0070960D01*
X0068760Y0036212D02*
X0068458D01*
X0068842Y0036353D02*
X0068473D01*
X0069447Y0035107D02*
Y0034660D01*
X0069001Y0035787D02*
X0068492D01*
X0069231Y0035716D02*
X0068509D01*
X0069193Y0035681D02*
X0068519D01*
X0069765Y0037675D02*
Y0036926D01*
X0069695Y0037662D02*
Y0037051D01*
X0069624Y0037645D02*
Y0037111D01*
X0069553Y0037624D02*
Y0037146D01*
X0070650Y0037571D02*
Y0037163D01*
X0071561Y0035751D02*
X0070813D01*
X0071542Y0035681D02*
X0070908D01*
X0071520Y0035610D02*
X0070959D01*
X0071493Y0035539D02*
X0070988D01*
X0071463Y0035468D02*
X0071000D01*
X0071429Y0035397D02*
X0070997D01*
X0071390Y0035327D02*
X0070978D01*
X0071345Y0035256D02*
X0070941D01*
X0069372Y0035114D02*
X0068821D01*
X0071210Y0035079D02*
X0068851D01*
X0071178Y0035044D02*
X0068884D01*
X0071143Y0035008D02*
X0068918D01*
X0071107Y0034973D02*
X0068955D01*
X0071067Y0034937D02*
X0068994D01*
X0071025Y0034902D02*
X0069036D01*
X0070980Y0034867D02*
X0069081D01*
X0070932Y0034831D02*
X0069130D01*
X0070879Y0034796D02*
X0069183D01*
X0070821Y0034760D02*
X0069241D01*
X0070756Y0034725D02*
X0069305D01*
X0070683Y0034690D02*
X0069378D01*
X0070599Y0034654D02*
X0069462D01*
X0070498Y0034619D02*
X0069564D01*
X0070363Y0034583D02*
X0069699D01*
X0070320Y0035433D02*
X0070121D01*
X0070821Y0036459D02*
X0070642D01*
X0071594Y0036318D02*
X0071274D01*
X0070261Y0035466D02*
Y0034565D01*
X0070225Y0035455D02*
Y0034560D01*
X0070758Y0035893D02*
X0070688D01*
X0070810Y0035858D02*
X0070675D01*
X0070906Y0035822D02*
X0070659D01*
X0069411Y0035804D02*
Y0035787D01*
X0069341Y0035890D02*
Y0035773D01*
X0069376Y0035885D02*
Y0035782D01*
X0069305Y0035855D02*
Y0035760D01*
X0069270Y0035829D02*
Y0035742D01*
X0069234Y0035810D02*
Y0035718D01*
X0069199Y0035795D02*
Y0035687D01*
X0069164Y0035785D02*
Y0035645D01*
X0069128Y0035779D02*
Y0035582D01*
X0069411Y0036485D02*
Y0036444D01*
X0069376Y0036490D02*
Y0036363D01*
X0070615Y0037586D02*
Y0037165D01*
X0070323Y0035397D02*
X0069777D01*
X0070331Y0035362D02*
X0069770D01*
X0070342Y0035327D02*
X0069759D01*
X0070358Y0035291D02*
X0069743D01*
X0070379Y0035256D02*
X0069722D01*
X0070407Y0035221D02*
X0069694D01*
X0070443Y0035185D02*
X0069657D01*
X0070495Y0035150D02*
X0069605D01*
X0070591Y0035114D02*
X0069509D01*
X0069401Y0036424D02*
X0069232D01*
X0069386Y0036389D02*
X0069291D01*
X0069372Y0036353D02*
X0069331D01*
X0069341Y0036499D02*
Y0036343D01*
X0070697Y0036353D02*
X0070689D01*
X0070726Y0036389D02*
X0070676D01*
X0070765Y0036424D02*
X0070660D01*
X0069305Y0036512D02*
Y0036377D01*
X0069270Y0036530D02*
Y0036403D01*
X0069234Y0036554D02*
Y0036423D01*
X0069199Y0036585D02*
Y0036438D01*
X0069164Y0036627D02*
Y0036448D01*
X0069128Y0036689D02*
Y0036454D01*
X0069106Y0036884D02*
X0068652D01*
X0070827Y0035151D02*
Y0034764D01*
X0070686Y0035108D02*
Y0034691D01*
X0070402Y0035225D02*
Y0034592D01*
X0071323Y0037024D02*
Y0035222D01*
X0071601Y0036247D02*
X0071302D01*
X0071605Y0036176D02*
X0071314D01*
X0069138Y0035291D02*
X0068693D01*
X0069234Y0037482D02*
Y0037095D01*
X0069164Y0037438D02*
Y0037022D01*
X0068747Y0036141D02*
X0068456D01*
X0069121Y0036707D02*
X0068568D01*
X0069103Y0036778D02*
X0068598D01*
X0068774Y0035981D02*
Y0035173D01*
X0069978Y0035429D02*
Y0034549D01*
X0070155Y0035438D02*
Y0034553D01*
X0068845Y0037160D02*
Y0036356D01*
X0070721Y0035928D02*
X0070700D01*
X0069373Y0035893D02*
X0069343D01*
X0069387Y0035858D02*
X0069308D01*
X0070475Y0037132D02*
X0069586D01*
X0070416Y0037096D02*
X0069645D01*
X0070376Y0037061D02*
X0069685D01*
X0070346Y0037026D02*
X0069715D01*
X0070324Y0036990D02*
X0069738D01*
X0070306Y0036955D02*
X0069755D01*
X0070294Y0036920D02*
X0069767D01*
X0070286Y0036884D02*
X0069776D01*
X0070281Y0036849D02*
X0069780D01*
X0069101D02*
X0068633D01*
X0069141Y0035610D02*
X0068542D01*
X0069730Y0037669D02*
Y0037004D01*
X0069125Y0035574D02*
X0068554D01*
X0069659Y0037654D02*
Y0037085D01*
X0069113Y0035539D02*
X0068568D01*
X0069588Y0037635D02*
Y0037131D01*
X0069105Y0035504D02*
X0068583D01*
X0069518Y0037612D02*
Y0037156D01*
X0071240Y0037132D02*
X0070766D01*
X0071296Y0037061D02*
X0070865D01*
X0070615Y0035110D02*
Y0034660D01*
X0070473Y0035163D02*
Y0034611D01*
X0068987Y0035791D02*
Y0034944D01*
X0069942Y0035433D02*
Y0034550D01*
X0068845Y0035877D02*
Y0035086D01*
X0068810Y0037118D02*
Y0036314D01*
Y0035919D02*
Y0035128D01*
X0068774Y0037073D02*
Y0036251D01*
G01X0100346Y0042975D02*
G03X0100051Y0043038I0000295J0000654D01*
G01X0100691Y0041999D02*
G03X0100753Y0042177I0000640J0000322D01*
G01X0100736Y0042532D02*
G03X0100661Y0042697I0000685J0000211D01*
G01X0099160Y0041621D02*
G03X0099500Y0041281I0000340J0000000D01*
G03X0099840Y0041621I0000000J0000340D01*
G01X0099841D02*
G03X0099840Y0041636I0000341J0000000D01*
G01X0098806Y0042290D02*
G03X0099146Y0041950I0000340J0000000D01*
G01X0099435Y0041955D02*
G03X0099160Y0041621I0000065J0000334D01*
G01X0099146Y0041949D02*
G03X0099388Y0042050I0000000J0000341D01*
G01X0099146Y0042630D02*
G03X0098806Y0042290I0000000J0000340D01*
G01X0099370Y0042546D02*
G03X0099146Y0042630I0000224J0000256D01*
G01X0099160Y0042998D02*
G03X0099423Y0042666I0000340J0000000D01*
G01X0099500Y0043338D02*
G03X0099160Y0042998I0000000J0000340D01*
G01X0099841Y0043006D02*
G03X0099500Y0043339I0000341J0000008D01*
G01X0100680Y0042697D02*
G03X0101020Y0043037I0000000J0000340D01*
G01X0101021D02*
G03X0100680Y0043378I0000341J0000000D01*
Y0043377D02*
G03X0100340Y0043037I0000000J0000340D01*
G01X0100661Y0042697D02*
G03X0100680Y0042696I0000019J0000340D01*
G01X0101034Y0042028D02*
G03X0101374Y0042368I0000000J0000340D01*
G01X0101375D02*
G03X0101034Y0042709I0000341J0000000D01*
G01X0100753Y0042177D02*
G03X0101034Y0042028I0000281J0000191D01*
G01X0100379Y0041660D02*
G03X0100720Y0041319I0000341J0000000D01*
Y0041320D02*
G03X0101060Y0041660I0000000J0000340D01*
G03X0100720Y0042000I0000340J0000000D01*
G01X0101034Y0042709D02*
G03X0100736Y0042532I0000000J0000341D01*
G01X0100051Y0040747D02*
G03X0101626Y0042322I0000000J0001575D01*
G01X0098476D02*
G03X0100051Y0040747I0001575J0000000D01*
Y0043897D02*
G03X0098476Y0042322I0000000J0001575D01*
G01X0101626D02*
G03X0100051Y0043897I0001575J0000000D01*
Y0041605D02*
G03X0100380Y0041685I0000000J0000716D01*
G03X0100379Y0041660I0000340J0000025D01*
G01X0099423Y0042666D02*
G03X0099370Y0042546I0000628J0000345D01*
G01X0100340Y0043037D02*
G03X0100346Y0042975I0000340J0000000D01*
G01X0100720Y0042001D02*
G03X0100691Y0041999I0000000J0000341D01*
G01X0099388Y0042050D02*
G03X0099435Y0041955I0000663J0000271D01*
G01X0099840Y0041636D02*
G03X0100051Y0041604I0000211J0000685D01*
Y0043038D02*
G03X0099841Y0043006I0000000J0000717D01*
G01X0100304Y0055966D02*
G03X0100051Y0056014I0000253J0000649D01*
G01X0100661Y0054980D02*
G03X0100725Y0055141I0000610J0000337D01*
G01X0099121Y0054640D02*
G03X0099461Y0054300I0000340J0000000D01*
G03X0099801Y0054640I0000000J0000340D01*
G03X0099800Y0054666I0000340J0000000D01*
G01X0098767Y0055309D02*
G03X0099107Y0054969I0000340J0000000D01*
G01X0099441Y0054980D02*
G03X0099120Y0054640I0000020J0000340D01*
G01X0099107Y0054969D02*
G03X0099385Y0055112I0000000J0000340D01*
G01X0099107Y0055649D02*
G03X0098767Y0055309I0000000J0000340D01*
G01X0099381Y0055510D02*
G03X0099107Y0055649I0000274J0000201D01*
G01X0099121Y0056017D02*
G03X0099454Y0055677I0000340J0000000D01*
G01X0099801Y0056017D02*
G03X0099461Y0056357I0000340J0000000D01*
G03X0099121Y0056017I0000000J0000340D01*
G01X0099797Y0055966D02*
G03X0099801Y0056017I0000336J0000051D01*
G01X0100301D02*
G03X0100305Y0055966I0000340J0000000D01*
G01X0100981Y0056017D02*
G03X0100641Y0056357I0000340J0000000D01*
G03X0100301Y0056017I0000000J0000340D01*
G01X0100648Y0055677D02*
G03X0100981Y0056017I0000007J0000340D01*
G01X0100995Y0055008D02*
G03X0101335Y0055348I0000000J0000340D01*
G03X0100995Y0055688I0000340J0000000D01*
G01X0100725Y0055141D02*
G03X0100995Y0055008I0000270J0000207D01*
G01X0100340Y0054640D02*
G03X0100680Y0054300I0000340J0000000D01*
G03X0101020Y0054640I0000000J0000340D01*
G01X0101021D02*
G03X0100680Y0054981I0000341J0000000D01*
G01X0100995Y0055689D02*
G03X0100712Y0055538I0000000J0000341D01*
G01X0100051Y0053741D02*
G03X0101626Y0055316I0000000J0001575D01*
G01X0098476D02*
G03X0100051Y0053741I0001575J0000000D01*
Y0056891D02*
G03X0098476Y0055316I0000000J0001575D01*
G01X0101626D02*
G03X0100051Y0056891I0001575J0000000D01*
Y0054620D02*
G03X0100343Y0054684I0000000J0000697D01*
G03X0100340Y0054640I0000337J0000044D01*
G01X0099454Y0055677D02*
G03X0099381Y0055510I0000597J0000360D01*
G01X0100712Y0055538D02*
G03X0100648Y0055677I0000661J0000221D01*
G01X0100680Y0054981D02*
G03X0100661Y0054980I0000000J0000341D01*
G01X0099385Y0055112D02*
G03X0099440Y0054980I0000666J0000205D01*
G01X0099800Y0054666D02*
G03X0100051Y0054619I0000251J0000651D01*
Y0056014D02*
G03X0099797Y0055966I0000000J0000697D01*
G01X0127762Y0055106D02*
G03X0127837Y0054941I0000685J0000211D01*
G01X0127779Y0055637D02*
G03X0127807Y0055638I0000000J0000341D01*
G01X0128118Y0055953D02*
G03X0128119Y0055978I0000339J0000025D01*
G01X0128447Y0056033D02*
G03X0128118Y0055953I0000000J0000716D01*
G01X0127837Y0054941D02*
G03X0127818Y0054942I0000019J0000340D01*
G01X0128658Y0056017D02*
G03X0128658Y0056002I0000340J0000000D01*
G01X0129338Y0056017D02*
G03X0128998Y0056357I0000340J0000000D01*
G03X0128658Y0056017I0000000J0000340D01*
G01X0129063Y0055683D02*
G03X0129338Y0056017I0000065J0000334D01*
G01X0129352Y0055008D02*
G03X0129692Y0055348I0000000J0000340D01*
G03X0129352Y0055688I0000340J0000000D01*
G01X0129128Y0055092D02*
G03X0129352Y0055008I0000224J0000256D01*
Y0055689D02*
G03X0129111Y0055588I0000000J0000341D01*
G01X0128998Y0054300D02*
G03X0129338Y0054640I0000000J0000340D01*
G01X0128658Y0054632D02*
G03X0128998Y0054300I0000340J0000008D01*
G01X0129338Y0054640D02*
G03X0129075Y0054972I0000340J0000000D01*
G01X0127478Y0054601D02*
G03X0127818Y0054261I0000340J0000000D01*
G03X0128158Y0054601I0000000J0000340D01*
G01X0127818Y0054941D02*
G03X0127478Y0054601I0000000J0000340D01*
G01X0127124Y0055270D02*
G03X0127464Y0054930I0000340J0000000D01*
G01X0128158Y0054601D02*
G03X0128153Y0054663I0000340J0000000D01*
G01X0127464Y0054929D02*
G03X0127762Y0055106I0000000J0000341D01*
G01X0127464Y0055610D02*
G03X0127124Y0055270I0000000J0000340D01*
G01X0127438Y0055978D02*
G03X0127779Y0055637I0000341J0000000D01*
G01X0127745Y0055461D02*
G03X0127464Y0055610I0000281J0000191D01*
G01X0128119Y0055978D02*
G03X0127779Y0056318I0000340J0000000D01*
G03X0127439Y0055978I0000000J0000340D01*
G01X0128447Y0053741D02*
G03X0130022Y0055316I0000000J0001575D01*
G01X0126872D02*
G03X0128447Y0053741I0001575J0000000D01*
Y0056891D02*
G03X0126872Y0055316I0000000J0001575D01*
G01X0130022D02*
G03X0128447Y0056891I0001575J0000000D01*
Y0054600D02*
G03X0128658Y0054632I0000000J0000717D01*
G01X0128153Y0054663D02*
G03X0128447Y0054600I0000294J0000654D01*
G01X0127807Y0055638D02*
G03X0127745Y0055461I0000640J0000321D01*
G01X0128658Y0056002D02*
G03X0128447Y0056034I0000211J0000685D01*
G01X0129076Y0054972D02*
G03X0129128Y0055092I0000629J0000345D01*
G01X0129111Y0055588D02*
G03X0129063Y0055683I0000664J0000271D01*
G01X0127786Y0042100D02*
G03X0127850Y0041961I0000661J0000221D01*
G01X0127818Y0042657D02*
G03X0127836Y0042658I0000000J0000341D01*
G01X0128156Y0042955D02*
G03X0128159Y0042998I0000338J0000043D01*
G01X0128447Y0043019D02*
G03X0128156Y0042955I0000000J0000698D01*
G01X0128697Y0042998D02*
G03X0128698Y0042972I0000340J0000000D01*
G01X0129378Y0042998D02*
G03X0129037Y0043339I0000341J0000000D01*
Y0043338D02*
G03X0128697Y0042998I0000000J0000340D01*
G01X0129058Y0042658D02*
G03X0129378Y0042998I0000021J0000340D01*
G01X0129391Y0041989D02*
G03X0129731Y0042329I0000000J0000340D01*
G01X0129732D02*
G03X0129391Y0042670I0000341J0000000D01*
G01X0129117Y0042127D02*
G03X0129391Y0041989I0000274J0000202D01*
G01X0128697Y0041621D02*
G03X0129037Y0041281I0000340J0000000D01*
G03X0129377Y0041621I0000000J0000340D01*
G01X0129391Y0042669D02*
G03X0129114Y0042526I0000000J0000340D01*
G01X0129378Y0041621D02*
G03X0129045Y0041961I0000341J0000000D01*
G01X0127517Y0041621D02*
G03X0127857Y0041281I0000340J0000000D01*
G03X0128197Y0041621I0000000J0000340D01*
G01X0128701Y0041672D02*
G03X0128697Y0041621I0000336J0000051D01*
G01X0128198D02*
G03X0128194Y0041672I0000341J0000000D01*
G01X0127163Y0042290D02*
G03X0127503Y0041950I0000340J0000000D01*
G01X0127850Y0041961D02*
G03X0127517Y0041621I0000007J0000340D01*
G01X0127503Y0041949D02*
G03X0127786Y0042100I0000000J0000341D01*
G01X0127503Y0042630D02*
G03X0127163Y0042290I0000000J0000340D01*
G01X0127478Y0042998D02*
G03X0127818Y0042658I0000340J0000000D01*
G01X0127773Y0042498D02*
G03X0127503Y0042631I0000270J0000208D01*
G01X0128158Y0042998D02*
G03X0127818Y0043338I0000340J0000000D01*
G03X0127478Y0042998I0000000J0000340D01*
G01X0128447Y0040747D02*
G03X0130022Y0042322I0000000J0001575D01*
G01X0126872D02*
G03X0128447Y0040747I0001575J0000000D01*
Y0043897D02*
G03X0126872Y0042322I0000000J0001575D01*
G01X0130022D02*
G03X0128447Y0043897I0001575J0000000D01*
Y0041624D02*
G03X0128701Y0041672I0000000J0000697D01*
G01X0128194D02*
G03X0128447Y0041624I0000253J0000649D01*
G01X0127836Y0042658D02*
G03X0127773Y0042498I0000611J0000337D01*
G01X0128698Y0042972D02*
G03X0128447Y0043019I0000251J0000651D01*
G01X0129045Y0041961D02*
G03X0129117Y0042127I0000598J0000360D01*
G01X0129114Y0042526D02*
G03X0129058Y0042658I0000667J0000205D01*
G01X0070325Y0023782D02*
G03X0070031Y0023845I0000294J0000653D01*
G01X0070671Y0022807D02*
G03X0070733Y0022984I0000640J0000322D01*
G01X0070716Y0023339D02*
G03X0070641Y0023505I0000685J0000210D01*
G01X0069140Y0022428D02*
G03X0069480Y0022088I0000340J0000000D01*
G03X0069820Y0022428I0000000J0000340D01*
G03X0069820Y0022444I0000340J0000000D01*
G01X0068786Y0023097D02*
G03X0069126Y0022757I0000340J0000000D01*
G01X0069415Y0022762D02*
G03X0069140Y0022428I0000065J0000334D01*
G01X0069126Y0022757D02*
G03X0069367Y0022857I0000000J0000340D01*
G01X0069126Y0023437D02*
G03X0068786Y0023097I0000000J0000340D01*
G01X0069350Y0023353D02*
G03X0069126Y0023437I0000224J0000256D01*
G01X0069140Y0023805D02*
G03X0069402Y0023474I0000340J0000000D01*
G01X0069480Y0024145D02*
G03X0069140Y0023805I0000000J0000340D01*
G01X0069820Y0023814D02*
G03X0069480Y0024145I0000340J0000009D01*
G01X0070660Y0023504D02*
G03X0071000Y0023844I0000000J0000340D01*
G03X0070660Y0024184I0000340J0000000D01*
Y0024185D02*
G03X0070319Y0023844I0000000J0000341D01*
G01X0070641Y0023505D02*
G03X0070660Y0023504I0000019J0000339D01*
G01X0071014Y0022835D02*
G03X0071355Y0023176I0000000J0000341D01*
G01X0071354D02*
G03X0071014Y0023516I0000340J0000000D01*
G01X0070733Y0022984D02*
G03X0071014Y0022836I0000281J0000192D01*
G01X0070359Y0022468D02*
G03X0070699Y0022128I0000340J0000000D01*
Y0022127D02*
G03X0071040Y0022468I0000000J0000341D01*
G03X0070699Y0022809I0000341J0000000D01*
G01X0071014Y0023516D02*
G03X0070716Y0023339I0000000J0000340D01*
G01X0070031Y0021554D02*
G03X0071606Y0023129I0000000J0001575D01*
G01X0068456D02*
G03X0070031Y0021554I0001575J0000000D01*
Y0024704D02*
G03X0068456Y0023129I0000000J0001575D01*
G01X0071606D02*
G03X0070031Y0024704I0001575J0000000D01*
Y0022412D02*
G03X0070360Y0022492I0000000J0000717D01*
G03X0070359Y0022468I0000339J0000024D01*
G01X0069402Y0023474D02*
G03X0069350Y0023353I0000629J0000345D01*
G01X0070320Y0023844D02*
G03X0070325Y0023782I0000340J0000000D01*
G01X0070699Y0022808D02*
G03X0070671Y0022807I0000000J0000340D01*
G01X0069367Y0022857D02*
G03X0069415Y0022762I0000664J0000272D01*
G01X0069820Y0022444D02*
G03X0070031Y0022412I0000211J0000685D01*
Y0023845D02*
G03X0069820Y0023814I0000000J0000716D01*
G01X0070284Y0036773D02*
G03X0070031Y0036821I0000253J0000649D01*
G01X0070641Y0035787D02*
G03X0070705Y0035948I0000610J0000337D01*
G01X0069100Y0035448D02*
G03X0069441Y0035107I0000341J0000000D01*
G03X0069782Y0035448I0000000J0000341D01*
G01X0069781D02*
G03X0069780Y0035474I0000340J0000000D01*
G01X0068746Y0036116D02*
G03X0069087Y0035775I0000341J0000000D01*
G01X0069420Y0035787D02*
G03X0069101Y0035448I0000021J0000339D01*
G01X0069087Y0035776D02*
G03X0069364Y0035919I0000000J0000340D01*
G01X0069087Y0036457D02*
G03X0068746Y0036116I0000000J0000341D01*
G01X0069361Y0036318D02*
G03X0069087Y0036456I0000274J0000202D01*
G01X0069100Y0036824D02*
G03X0069434Y0036484I0000341J0000000D01*
G01X0069781Y0036824D02*
G03X0069441Y0037164I0000340J0000000D01*
Y0037165D02*
G03X0069100Y0036824I0000000J0000341D01*
G01X0069777Y0036773D02*
G03X0069781Y0036824I0000336J0000051D01*
G01X0070280D02*
G03X0070284Y0036773I0000341J0000000D01*
G01X0070961Y0036824D02*
G03X0070621Y0037164I0000340J0000000D01*
Y0037165D02*
G03X0070280Y0036824I0000000J0000341D01*
G01X0070627Y0036484D02*
G03X0070961Y0036824I0000006J0000340D01*
G01X0070975Y0035815D02*
G03X0071316Y0036156I0000000J0000341D01*
G01X0071315D02*
G03X0070975Y0036496I0000340J0000000D01*
G01X0070705Y0035948D02*
G03X0070975Y0035815I0000270J0000208D01*
G01X0070320Y0035448D02*
G03X0070660Y0035108I0000340J0000000D01*
Y0035107D02*
G03X0071001Y0035448I0000000J0000341D01*
G01X0071000D02*
G03X0070660Y0035788I0000340J0000000D01*
G01X0070975Y0036496D02*
G03X0070692Y0036345I0000000J0000340D01*
G01X0070031Y0034548D02*
G03X0071606Y0036123I0000000J0001575D01*
G01X0068456D02*
G03X0070031Y0034548I0001575J0000000D01*
Y0037698D02*
G03X0068456Y0036123I0000000J0001575D01*
G01X0071606D02*
G03X0070031Y0037698I0001575J0000000D01*
Y0035427D02*
G03X0070322Y0035491I0000000J0000697D01*
G03X0070319Y0035448I0000338J0000043D01*
G01X0069434Y0036484D02*
G03X0069361Y0036318I0000597J0000360D01*
G01X0070692Y0036345D02*
G03X0070627Y0036484I0000661J0000221D01*
G01X0070660Y0035788D02*
G03X0070641Y0035787I0000000J0000340D01*
G01X0069364Y0035919D02*
G03X0069420Y0035787I0000667J0000205D01*
G01X0069780Y0035474D02*
G03X0070031Y0035427I0000251J0000650D01*
Y0036821D02*
G03X0069777Y0036773I0000000J0000697D01*
G54D104*
G01X0099613Y0041508D02*
X0099500Y0041621D01*
X0099387Y0041734D02*
X0099500Y0041621D01*
X0099387Y0041508D02*
X0099500Y0041621D01*
X0099259Y0042177D02*
X0099146Y0042290D01*
X0099033Y0042403D02*
X0099146Y0042290D01*
X0099259Y0042403D02*
X0099146Y0042290D01*
X0099033Y0042177D02*
X0099146Y0042290D01*
X0099387Y0043111D02*
X0099500Y0042998D01*
X0099613Y0043111D02*
X0099500Y0042998D01*
X0099387Y0042885D02*
X0099500Y0042998D01*
X0100793Y0042924D02*
X0100680Y0043037D01*
X0100567Y0043150D02*
X0100680Y0043037D01*
X0100793Y0043150D02*
X0100680Y0043037D01*
X0100567Y0042924D02*
X0100680Y0043037D01*
X0099574Y0054527D02*
X0099461Y0054640D01*
X0099348Y0054753D02*
X0099461Y0054640D01*
X0099348Y0054527D02*
X0099461Y0054640D01*
X0099220Y0055196D02*
X0099107Y0055309D01*
X0098994Y0055422D02*
X0099107Y0055309D01*
X0099220Y0055422D02*
X0099107Y0055309D01*
X0098994Y0055196D02*
X0099107Y0055309D01*
X0099574Y0055904D02*
X0099461Y0056017D01*
X0099348Y0056130D02*
X0099461Y0056017D01*
X0099574Y0056130D02*
X0099461Y0056017D01*
X0099348Y0055904D02*
X0099461Y0056017D01*
X0100754Y0055904D02*
X0100641Y0056017D01*
X0100528Y0056130D02*
X0100641Y0056017D01*
X0100754Y0056130D02*
X0100641Y0056017D01*
X0100528Y0055904D02*
X0100641Y0056017D01*
X0101108Y0055235D02*
X0100995Y0055348D01*
X0100882Y0055461D02*
X0100995Y0055348D01*
X0101108Y0055461D02*
X0100995Y0055348D01*
X0100882Y0055235D02*
X0100995Y0055348D01*
X0100793Y0054527D02*
X0100680Y0054640D01*
X0100567Y0054753D02*
X0100680Y0054640D01*
X0100793Y0054753D02*
X0100680Y0054640D01*
X0100567Y0054527D02*
X0100680Y0054640D01*
X0128885Y0056130D02*
X0128998Y0056017D01*
X0129111Y0055904D02*
X0128998Y0056017D01*
X0129111Y0056130D02*
X0128998Y0056017D01*
X0129239Y0055461D02*
X0129352Y0055348D01*
X0129465Y0055235D02*
X0129352Y0055348D01*
X0129239Y0055235D02*
X0129352Y0055348D01*
X0129465Y0055461D02*
X0129352Y0055348D01*
X0129111Y0054527D02*
X0128998Y0054640D01*
X0128885Y0054527D02*
X0128998Y0054640D01*
X0129111Y0054753D02*
X0128998Y0054640D01*
X0127705Y0054714D02*
X0127818Y0054601D01*
X0127931Y0054488D02*
X0127818Y0054601D01*
X0127705Y0054488D02*
X0127818Y0054601D01*
X0127931Y0054714D02*
X0127818Y0054601D01*
X0128924Y0043111D02*
X0129037Y0042998D01*
X0129150Y0042885D02*
X0129037Y0042998D01*
X0129150Y0043111D02*
X0129037Y0042998D01*
X0129278Y0042442D02*
X0129391Y0042329D01*
X0129504Y0042216D02*
X0129391Y0042329D01*
X0129278Y0042216D02*
X0129391Y0042329D01*
X0129504Y0042442D02*
X0129391Y0042329D01*
X0128924Y0041734D02*
X0129037Y0041621D01*
X0129150Y0041508D02*
X0129037Y0041621D01*
X0128924Y0041508D02*
X0129037Y0041621D01*
X0129150Y0041734D02*
X0129037Y0041621D01*
X0127744Y0041734D02*
X0127857Y0041621D01*
X0127970Y0041508D02*
X0127857Y0041621D01*
X0127744Y0041508D02*
X0127857Y0041621D01*
X0127970Y0041734D02*
X0127857Y0041621D01*
X0127390Y0042403D02*
X0127503Y0042290D01*
X0127616Y0042177D02*
X0127503Y0042290D01*
X0127390Y0042177D02*
X0127503Y0042290D01*
X0127616Y0042403D02*
X0127503Y0042290D01*
X0127705Y0043111D02*
X0127818Y0042998D01*
X0127931Y0042885D02*
X0127818Y0042998D01*
X0127705Y0042885D02*
X0127818Y0042998D01*
X0127931Y0043111D02*
X0127818Y0042998D01*
X0069593Y0022315D02*
X0069480Y0022428D01*
X0069367Y0022541D02*
X0069480Y0022428D01*
X0069367Y0022315D02*
X0069480Y0022428D01*
X0069239Y0022984D02*
X0069126Y0023097D01*
X0069013Y0023210D02*
X0069126Y0023097D01*
X0069239Y0023210D02*
X0069126Y0023097D01*
X0069013Y0022984D02*
X0069126Y0023097D01*
X0069367Y0023918D02*
X0069480Y0023805D01*
X0069593Y0023918D02*
X0069480Y0023805D01*
X0069367Y0023692D02*
X0069480Y0023805D01*
X0070773Y0023731D02*
X0070660Y0023844D01*
X0070547Y0023957D02*
X0070660Y0023844D01*
X0070773Y0023957D02*
X0070660Y0023844D01*
X0070547Y0023731D02*
X0070660Y0023844D01*
X0069554Y0035335D02*
X0069441Y0035448D01*
X0069328Y0035561D02*
X0069441Y0035448D01*
X0069328Y0035335D02*
X0069441Y0035448D01*
X0069200Y0036003D02*
X0069087Y0036116D01*
X0068974Y0036229D02*
X0069087Y0036116D01*
X0069200Y0036229D02*
X0069087Y0036116D01*
X0068974Y0036003D02*
X0069087Y0036116D01*
X0069554Y0036711D02*
X0069441Y0036824D01*
X0069328Y0036937D02*
X0069441Y0036824D01*
X0069554Y0036937D02*
X0069441Y0036824D01*
X0069328Y0036711D02*
X0069441Y0036824D01*
X0070734Y0036711D02*
X0070621Y0036824D01*
X0070508Y0036937D02*
X0070621Y0036824D01*
X0070734Y0036937D02*
X0070621Y0036824D01*
X0070508Y0036711D02*
X0070621Y0036824D01*
X0071088Y0036043D02*
X0070975Y0036156D01*
X0070862Y0036269D02*
X0070975Y0036156D01*
X0071088Y0036269D02*
X0070975Y0036156D01*
X0070862Y0036043D02*
X0070975Y0036156D01*
X0070773Y0035335D02*
X0070660Y0035448D01*
X0070547Y0035561D02*
X0070660Y0035448D01*
X0070773Y0035561D02*
X0070660Y0035448D01*
X0070547Y0035335D02*
X0070660Y0035448D01*
G54D105*
G01X0028670Y0087703D02*
Y0087514D01*
X0028598Y0087775D02*
Y0087514D01*
X0028526Y0087847D02*
Y0087514D01*
X0028454Y0087919D02*
Y0087514D01*
X0028877Y0085768D02*
X0028759D01*
X0028310Y0085714D02*
Y0085264D01*
X0028238Y0085714D02*
Y0085264D01*
X0028166Y0085714D02*
Y0085264D01*
X0028094Y0085714D02*
Y0085264D01*
X0028022Y0085714D02*
Y0085264D01*
X0027950Y0085714D02*
Y0085264D01*
X0027878Y0085714D02*
Y0085264D01*
X0027806Y0085714D02*
Y0085264D01*
X0027734Y0085714D02*
Y0085264D01*
X0027662Y0085714D02*
Y0085264D01*
X0027590Y0085714D02*
Y0085264D01*
X0027518Y0085714D02*
Y0085264D01*
X0027446Y0085714D02*
Y0085264D01*
X0027374Y0085714D02*
Y0085264D01*
X0027302Y0085714D02*
Y0085264D01*
X0027230Y0085714D02*
Y0085264D01*
X0027158Y0085714D02*
Y0085264D01*
X0027086Y0085714D02*
Y0085264D01*
X0027014Y0085714D02*
Y0085264D01*
X0026942Y0085714D02*
Y0085264D01*
X0029112Y0086632D02*
X0028759D01*
X0026726Y0087964D02*
Y0087514D01*
X0026654Y0087909D02*
Y0087514D01*
X0026582Y0087837D02*
Y0087514D01*
X0026510Y0087765D02*
Y0087514D01*
X0026438Y0087693D02*
Y0087514D01*
X0028898Y0087424D02*
X0028759D01*
X0026294Y0087542D02*
Y0085686D01*
X0026222Y0087428D02*
Y0085800D01*
X0026150Y0087286D02*
Y0085942D01*
X0026078Y0087095D02*
Y0086133D01*
X0028445Y0087928D02*
X0026673D01*
X0028517Y0087856D02*
X0026601D01*
X0028589Y0087784D02*
X0026529D01*
X0028661Y0087712D02*
X0026457D01*
X0028733Y0087640D02*
X0026385D01*
X0026366Y0087621D02*
Y0087514D01*
X0028855Y0087496D02*
X0028759D01*
X0026870Y0085714D02*
Y0085264D01*
X0028382Y0085714D02*
Y0085264D01*
X0026359Y0087352D02*
X0026181D01*
X0026359Y0087280D02*
X0026147D01*
X0026359Y0087208D02*
X0026117D01*
X0026359Y0087136D02*
X0026091D01*
X0026359Y0087064D02*
X0026069D01*
X0026359Y0086992D02*
X0026050D01*
X0026359Y0086920D02*
X0026035D01*
X0026359Y0086848D02*
X0026023D01*
X0026359Y0086776D02*
X0026014D01*
X0026359Y0086704D02*
X0026008D01*
X0026359Y0087424D02*
X0026220D01*
X0026359Y0086560D02*
X0026007D01*
X0026359Y0086488D02*
X0026011D01*
X0026359Y0086416D02*
X0026018D01*
X0026359Y0086344D02*
X0026028D01*
X0026359Y0086272D02*
X0026042D01*
X0026359Y0086200D02*
X0026059D01*
X0026359Y0086128D02*
X0026080D01*
X0026359Y0086056D02*
X0026104D01*
X0026359Y0085984D02*
X0026132D01*
X0028918Y0085840D02*
X0028759D01*
X0026359Y0085768D02*
X0026241D01*
X0028831Y0085696D02*
X0026287D01*
X0028769Y0085624D02*
X0026349D01*
X0028697Y0085552D02*
X0026421D01*
X0028625Y0085480D02*
X0026493D01*
X0028553Y0085408D02*
X0026565D01*
X0026359Y0085912D02*
X0026164D01*
X0026438Y0085714D02*
Y0085535D01*
X0026366Y0085714D02*
Y0085607D01*
X0026359Y0087496D02*
X0026263D01*
X0026359Y0085840D02*
X0026200D01*
X0028310Y0087964D02*
Y0087514D01*
X0028238Y0087964D02*
Y0087514D01*
X0028166Y0087964D02*
Y0087514D01*
X0028094Y0087964D02*
Y0087514D01*
X0028022Y0087964D02*
Y0087514D01*
X0027950Y0087964D02*
Y0087514D01*
X0027878Y0087964D02*
Y0087514D01*
X0027806Y0087964D02*
Y0087514D01*
X0027734Y0087964D02*
Y0087514D01*
X0027662Y0087964D02*
Y0087514D01*
X0027590Y0087964D02*
Y0087514D01*
X0027518Y0087964D02*
Y0087514D01*
X0027446Y0087964D02*
Y0087514D01*
X0027374Y0087964D02*
Y0087514D01*
X0027302Y0087964D02*
Y0087514D01*
X0027230Y0087964D02*
Y0087514D01*
X0027158Y0087964D02*
Y0087514D01*
X0027086Y0087964D02*
Y0087514D01*
X0027014Y0087964D02*
Y0087514D01*
X0026942Y0087964D02*
Y0087514D01*
X0026870Y0087964D02*
Y0087514D01*
X0028937Y0087352D02*
X0028759D01*
X0028814Y0087557D02*
Y0085671D01*
X0029001Y0087208D02*
X0028759D01*
X0029027Y0087136D02*
X0028759D01*
X0029049Y0087064D02*
X0028759D01*
X0029068Y0086992D02*
X0028759D01*
X0029083Y0086920D02*
X0028759D01*
X0029095Y0086848D02*
X0028759D01*
X0029104Y0086776D02*
X0028759D01*
X0029110Y0086704D02*
X0028759D01*
X0028805Y0087568D02*
X0026313D01*
X0029111Y0086560D02*
X0028759D01*
X0029107Y0086488D02*
X0028759D01*
X0029100Y0086416D02*
X0028759D01*
X0029090Y0086344D02*
X0028759D01*
X0029076Y0086272D02*
X0028759D01*
X0029059Y0086200D02*
X0028759D01*
X0029038Y0086128D02*
X0028759D01*
X0029014Y0086056D02*
X0028759D01*
X0028986Y0085984D02*
X0028759D01*
X0028954Y0085912D02*
X0028759D01*
X0028382Y0087964D02*
Y0087514D01*
X0028481Y0085336D02*
X0026637D01*
X0028759Y0087514D02*
Y0085714D01*
Y0087514D02*
X0026359D01*
Y0085714D01*
X0028759D02*
X0026359D01*
X0026798Y0087964D02*
Y0087514D01*
X0028409Y0085264D02*
X0026709D01*
X0026309Y0085664D02*
X0026709Y0085264D01*
Y0087964D02*
X0026309Y0087564D01*
X0028409Y0087964D02*
X0026709D01*
X0028409D02*
X0028809Y0087564D01*
Y0085664D02*
X0028409Y0085264D01*
X0028971Y0087280D02*
X0028759D01*
X0029102Y0086795D02*
Y0086433D01*
X0029030Y0087126D02*
Y0086102D01*
X0028958Y0087308D02*
Y0085920D01*
X0028886Y0087445D02*
Y0085783D01*
X0028742Y0087631D02*
Y0087514D01*
X0026798Y0085714D02*
Y0085264D01*
X0028742Y0085714D02*
Y0085597D01*
X0028670Y0085714D02*
Y0085525D01*
X0028598Y0085714D02*
Y0085453D01*
X0028526Y0085714D02*
Y0085381D01*
X0028454Y0085714D02*
Y0085309D01*
X0026359Y0086632D02*
X0026006D01*
X0026726Y0085714D02*
Y0085264D01*
X0026654Y0085714D02*
Y0085319D01*
X0026582Y0085714D02*
Y0085391D01*
X0026510Y0085714D02*
Y0085463D01*
X0002850Y0087910D02*
Y0087814D01*
X0002975Y0085421D02*
X0002868D01*
X0002706Y0085414D02*
Y0085236D01*
X0002634Y0085414D02*
Y0085202D01*
X0002562Y0085414D02*
Y0085172D01*
X0002490Y0085414D02*
Y0085146D01*
X0002418Y0085414D02*
Y0085124D01*
X0002346Y0085414D02*
Y0085105D01*
X0002274Y0085414D02*
Y0085090D01*
X0002202Y0085414D02*
Y0085078D01*
X0002130Y0085414D02*
Y0085069D01*
X0002058Y0085414D02*
Y0085063D01*
X0001986Y0085414D02*
Y0085061D01*
X0001914Y0085414D02*
Y0085062D01*
X0001842Y0085414D02*
Y0085066D01*
X0001770Y0085414D02*
Y0085073D01*
X0001698Y0085414D02*
Y0085083D01*
X0001626Y0085414D02*
Y0085097D01*
X0001554Y0085414D02*
Y0085114D01*
X0001482Y0085414D02*
Y0085135D01*
X0001410Y0085414D02*
Y0085159D01*
X0001338Y0085414D02*
Y0085187D01*
X0003318Y0086645D02*
X0002868D01*
X0001068Y0087437D02*
X0000618D01*
X0001050Y0087886D02*
Y0085342D01*
X0000978Y0087824D02*
Y0085404D01*
X0000906Y0087752D02*
Y0085476D01*
X0000834Y0087680D02*
Y0085548D01*
X0000762Y0087608D02*
Y0085620D01*
X0001068Y0085925D02*
X0000618D01*
X0002150Y0088157D02*
X0001787D01*
X0002481Y0088085D02*
X0001456D01*
X0002662Y0088013D02*
X0001274D01*
X0002799Y0087941D02*
X0001137D01*
X0001122Y0087932D02*
Y0087814D01*
X0002985Y0087797D02*
X0002868D01*
X0003057Y0087725D02*
X0002868D01*
X0003129Y0087653D02*
X0002868D01*
X0003201Y0087581D02*
X0002868D01*
X0003273Y0087509D02*
X0002868D01*
X0001266Y0085414D02*
Y0085219D01*
X0002778Y0085414D02*
Y0085275D01*
X0001068Y0087365D02*
X0000618D01*
X0001068Y0087293D02*
X0000618D01*
X0001068Y0087221D02*
X0000618D01*
X0001068Y0087149D02*
X0000618D01*
X0001068Y0087077D02*
X0000618D01*
X0001068Y0087005D02*
X0000618D01*
X0001068Y0086933D02*
X0000618D01*
X0001068Y0086861D02*
X0000618D01*
X0001068Y0086789D02*
X0000618D01*
X0001068Y0086717D02*
X0000618D01*
X0002911Y0087869D02*
X0001025D01*
X0001068Y0086573D02*
X0000618D01*
X0001068Y0086501D02*
X0000618D01*
X0001068Y0086429D02*
X0000618D01*
X0001068Y0086357D02*
X0000618D01*
X0001068Y0086285D02*
X0000618D01*
X0001068Y0086213D02*
X0000618D01*
X0001068Y0086141D02*
X0000618D01*
X0001068Y0086069D02*
X0000618D01*
X0001068Y0085997D02*
X0000618D01*
X0003318Y0085853D02*
X0002868D01*
X0003318Y0085781D02*
X0002868D01*
X0003263Y0085709D02*
X0002868D01*
X0003191Y0085637D02*
X0002868D01*
X0003119Y0085565D02*
X0002868D01*
X0003047Y0085493D02*
X0002868D01*
X0001068Y0085421D02*
X0000961D01*
X0002897Y0085349D02*
X0001040D01*
X0002782Y0085277D02*
X0001155D01*
X0002640Y0085205D02*
X0001296D01*
X0002449Y0085133D02*
X0001488D01*
X0001068Y0085709D02*
X0000673D01*
X0001068Y0085637D02*
X0000745D01*
X0001068Y0085565D02*
X0000817D01*
X0001068Y0085493D02*
X0000889D01*
X0002706Y0087992D02*
Y0087814D01*
X0002634Y0088026D02*
Y0087814D01*
X0002562Y0088056D02*
Y0087814D01*
X0002490Y0088082D02*
Y0087814D01*
X0002418Y0088104D02*
Y0087814D01*
X0002346Y0088123D02*
Y0087814D01*
X0002274Y0088138D02*
Y0087814D01*
X0002202Y0088150D02*
Y0087814D01*
X0002130Y0088159D02*
Y0087814D01*
X0002058Y0088165D02*
Y0087814D01*
X0001986Y0088167D02*
Y0087814D01*
X0001914Y0088166D02*
Y0087814D01*
X0001842Y0088162D02*
Y0087814D01*
X0001770Y0088155D02*
Y0087814D01*
X0001698Y0088145D02*
Y0087814D01*
X0001626Y0088131D02*
Y0087814D01*
X0001554Y0088114D02*
Y0087814D01*
X0001482Y0088093D02*
Y0087814D01*
X0001410Y0088069D02*
Y0087814D01*
X0001338Y0088041D02*
Y0087814D01*
X0001266Y0088009D02*
Y0087814D01*
X0002778Y0087953D02*
Y0087814D01*
X0003318Y0087365D02*
X0002868D01*
X0003318Y0087293D02*
X0002868D01*
X0003318Y0087221D02*
X0002868D01*
X0003318Y0087077D02*
X0002868D01*
X0002922Y0087860D02*
Y0085368D01*
X0003318Y0086933D02*
X0002868D01*
X0003318Y0086861D02*
X0002868D01*
X0003318Y0086789D02*
X0002868D01*
X0003318Y0086717D02*
X0002868D01*
X0003318Y0087437D02*
X0002868D01*
X0003318Y0086573D02*
X0002868D01*
X0003318Y0086501D02*
X0002868D01*
X0003318Y0086429D02*
X0002868D01*
X0003318Y0086357D02*
X0002868D01*
X0003318Y0086285D02*
X0002868D01*
X0003318Y0086213D02*
X0002868D01*
X0003318Y0086141D02*
X0002868D01*
X0003318Y0086069D02*
X0002868D01*
X0003318Y0085997D02*
X0002868D01*
X0003318Y0085925D02*
X0002868D01*
X0003318Y0087149D02*
X0002868D01*
X0000690Y0087536D02*
Y0085692D01*
X0002868Y0087814D02*
X0001068D01*
Y0085414D01*
X0002868D02*
X0001068D01*
X0002868Y0087814D02*
Y0085414D01*
X0001194Y0087973D02*
Y0087814D01*
X0003318Y0087464D02*
Y0085764D01*
X0002918Y0085364D01*
X0000618Y0085764D02*
X0001018Y0085364D01*
X0000618Y0087464D02*
Y0085764D01*
X0001018Y0087864D02*
X0000618Y0087464D01*
X0002918Y0087864D02*
X0003318Y0087464D01*
Y0087005D02*
X0002868D01*
X0003282Y0087500D02*
Y0085728D01*
X0003210Y0087572D02*
Y0085656D01*
X0003138Y0087644D02*
Y0085584D01*
X0003066Y0087716D02*
Y0085512D01*
X0002994Y0087788D02*
Y0085440D01*
X0001194Y0085414D02*
Y0085255D01*
X0002850Y0085414D02*
Y0085318D01*
X0001068Y0086645D02*
X0000618D01*
X0001122Y0085414D02*
Y0085296D01*
X0001068Y0087797D02*
X0000951D01*
X0001068Y0087725D02*
X0000879D01*
X0001068Y0087653D02*
X0000807D01*
X0001068Y0087581D02*
X0000735D01*
X0001068Y0087509D02*
X0000663D01*
X0001068Y0085853D02*
X0000618D01*
X0001068Y0085781D02*
X0000618D01*
X0002850Y0098146D02*
Y0098050D01*
X0002975Y0095657D02*
X0002868D01*
X0002706Y0095650D02*
Y0095473D01*
X0002634Y0095650D02*
Y0095439D01*
X0002562Y0095650D02*
Y0095409D01*
X0002490Y0095650D02*
Y0095383D01*
X0002418Y0095650D02*
Y0095360D01*
X0002346Y0095650D02*
Y0095341D01*
X0002274Y0095650D02*
Y0095326D01*
X0002202Y0095650D02*
Y0095314D01*
X0002130Y0095650D02*
Y0095305D01*
X0002058Y0095650D02*
Y0095300D01*
X0001986Y0095650D02*
Y0095297D01*
X0001914Y0095650D02*
Y0095298D01*
X0001842Y0095650D02*
Y0095302D01*
X0001770Y0095650D02*
Y0095309D01*
X0001698Y0095650D02*
Y0095320D01*
X0001626Y0095650D02*
Y0095333D01*
X0001554Y0095650D02*
Y0095350D01*
X0001482Y0095650D02*
Y0095371D01*
X0001410Y0095650D02*
Y0095395D01*
X0001338Y0095650D02*
Y0095423D01*
X0003318Y0096881D02*
X0002868D01*
X0001068Y0097673D02*
X0000618D01*
X0001050Y0098122D02*
Y0095578D01*
X0000978Y0098060D02*
Y0095640D01*
X0000906Y0097988D02*
Y0095712D01*
X0000834Y0097916D02*
Y0095784D01*
X0000762Y0097844D02*
Y0095856D01*
X0001068Y0096161D02*
X0000618D01*
X0002150Y0098393D02*
X0001787D01*
X0002481Y0098321D02*
X0001456D01*
X0002662Y0098249D02*
X0001274D01*
X0002799Y0098177D02*
X0001137D01*
X0001122Y0098168D02*
Y0098050D01*
X0002985Y0098033D02*
X0002868D01*
X0003057Y0097961D02*
X0002868D01*
X0003129Y0097889D02*
X0002868D01*
X0003201Y0097817D02*
X0002868D01*
X0003273Y0097745D02*
X0002868D01*
X0001266Y0095650D02*
Y0095455D01*
X0002778Y0095650D02*
Y0095511D01*
X0001068Y0097601D02*
X0000618D01*
X0001068Y0097529D02*
X0000618D01*
X0001068Y0097457D02*
X0000618D01*
X0001068Y0097385D02*
X0000618D01*
X0001068Y0097313D02*
X0000618D01*
X0001068Y0097241D02*
X0000618D01*
X0001068Y0097169D02*
X0000618D01*
X0001068Y0097097D02*
X0000618D01*
X0001068Y0097025D02*
X0000618D01*
X0001068Y0096953D02*
X0000618D01*
X0002911Y0098105D02*
X0001025D01*
X0001068Y0096809D02*
X0000618D01*
X0001068Y0096737D02*
X0000618D01*
X0001068Y0096665D02*
X0000618D01*
X0001068Y0096593D02*
X0000618D01*
X0001068Y0096521D02*
X0000618D01*
X0001068Y0096449D02*
X0000618D01*
X0001068Y0096377D02*
X0000618D01*
X0001068Y0096305D02*
X0000618D01*
X0001068Y0096233D02*
X0000618D01*
X0003318Y0096089D02*
X0002868D01*
X0003318Y0096017D02*
X0002868D01*
X0003263Y0095945D02*
X0002868D01*
X0003191Y0095873D02*
X0002868D01*
X0003119Y0095801D02*
X0002868D01*
X0003047Y0095729D02*
X0002868D01*
X0001068Y0095657D02*
X0000961D01*
X0002897Y0095585D02*
X0001040D01*
X0002782Y0095513D02*
X0001155D01*
X0002640Y0095441D02*
X0001296D01*
X0002449Y0095369D02*
X0001488D01*
X0001068Y0095945D02*
X0000673D01*
X0001068Y0095873D02*
X0000745D01*
X0001068Y0095801D02*
X0000817D01*
X0001068Y0095729D02*
X0000889D01*
X0002706Y0098228D02*
Y0098050D01*
X0002634Y0098262D02*
Y0098050D01*
X0002562Y0098292D02*
Y0098050D01*
X0002490Y0098318D02*
Y0098050D01*
X0002418Y0098340D02*
Y0098050D01*
X0002346Y0098359D02*
Y0098050D01*
X0002274Y0098375D02*
Y0098050D01*
X0002202Y0098387D02*
Y0098050D01*
X0002130Y0098395D02*
Y0098050D01*
X0002058Y0098401D02*
Y0098050D01*
X0001986Y0098403D02*
Y0098050D01*
X0001914Y0098402D02*
Y0098050D01*
X0001842Y0098398D02*
Y0098050D01*
X0001770Y0098391D02*
Y0098050D01*
X0001698Y0098381D02*
Y0098050D01*
X0001626Y0098367D02*
Y0098050D01*
X0001554Y0098350D02*
Y0098050D01*
X0001482Y0098330D02*
Y0098050D01*
X0001410Y0098306D02*
Y0098050D01*
X0001338Y0098278D02*
Y0098050D01*
X0001266Y0098246D02*
Y0098050D01*
X0002778Y0098189D02*
Y0098050D01*
X0003318Y0097601D02*
X0002868D01*
X0003318Y0097529D02*
X0002868D01*
X0003318Y0097457D02*
X0002868D01*
X0003318Y0097313D02*
X0002868D01*
X0002922Y0098096D02*
Y0095604D01*
X0003318Y0097169D02*
X0002868D01*
X0003318Y0097097D02*
X0002868D01*
X0003318Y0097025D02*
X0002868D01*
X0003318Y0096953D02*
X0002868D01*
X0003318Y0097673D02*
X0002868D01*
X0003318Y0096809D02*
X0002868D01*
X0003318Y0096737D02*
X0002868D01*
X0003318Y0096665D02*
X0002868D01*
X0003318Y0096593D02*
X0002868D01*
X0003318Y0096521D02*
X0002868D01*
X0003318Y0096449D02*
X0002868D01*
X0003318Y0096377D02*
X0002868D01*
X0003318Y0096305D02*
X0002868D01*
X0003318Y0096233D02*
X0002868D01*
X0003318Y0096161D02*
X0002868D01*
X0003318Y0097385D02*
X0002868D01*
X0000690Y0097772D02*
Y0095928D01*
X0002868Y0098050D02*
X0001068D01*
Y0095650D01*
X0002868D02*
X0001068D01*
X0002868Y0098050D02*
Y0095650D01*
X0001194Y0098209D02*
Y0098050D01*
X0003318Y0097700D02*
Y0096000D01*
X0002918Y0095600D01*
X0000618Y0096000D02*
X0001018Y0095600D01*
X0000618Y0097700D02*
Y0096000D01*
X0001018Y0098100D02*
X0000618Y0097700D01*
X0002918Y0098100D02*
X0003318Y0097700D01*
Y0097241D02*
X0002868D01*
X0003282Y0097736D02*
Y0095964D01*
X0003210Y0097808D02*
Y0095892D01*
X0003138Y0097880D02*
Y0095820D01*
X0003066Y0097952D02*
Y0095748D01*
X0002994Y0098024D02*
Y0095676D01*
X0001194Y0095650D02*
Y0095491D01*
X0002850Y0095650D02*
Y0095555D01*
X0001068Y0096881D02*
X0000618D01*
X0001122Y0095650D02*
Y0095532D01*
X0001068Y0098033D02*
X0000951D01*
X0001068Y0097961D02*
X0000879D01*
X0001068Y0097889D02*
X0000807D01*
X0001068Y0097817D02*
X0000735D01*
X0001068Y0097745D02*
X0000663D01*
X0001068Y0096089D02*
X0000618D01*
X0001068Y0096017D02*
X0000618D01*
X0004819Y0024524D02*
Y0024429D01*
X0004944Y0022036D02*
X0004837D01*
X0004675Y0022029D02*
Y0021851D01*
X0004603Y0022029D02*
Y0021817D01*
X0004531Y0022029D02*
Y0021787D01*
X0004459Y0022029D02*
Y0021761D01*
X0004387Y0022029D02*
Y0021739D01*
X0004315Y0022029D02*
Y0021720D01*
X0004243Y0022029D02*
Y0021704D01*
X0004171Y0022029D02*
Y0021692D01*
X0004099Y0022029D02*
Y0021684D01*
X0004027Y0022029D02*
Y0021678D01*
X0003955Y0022029D02*
Y0021676D01*
X0003883Y0022029D02*
Y0021677D01*
X0003811Y0022029D02*
Y0021680D01*
X0003739Y0022029D02*
Y0021688D01*
X0003667Y0022029D02*
Y0021698D01*
X0003595Y0022029D02*
Y0021712D01*
X0003523Y0022029D02*
Y0021729D01*
X0003451Y0022029D02*
Y0021749D01*
X0003379Y0022029D02*
Y0021773D01*
X0003307Y0022029D02*
Y0021801D01*
X0005287Y0023260D02*
X0004837D01*
X0003037Y0024052D02*
X0002587D01*
X0003019Y0024501D02*
Y0021957D01*
X0002947Y0024439D02*
Y0022019D01*
X0002875Y0024367D02*
Y0022091D01*
X0002803Y0024295D02*
Y0022163D01*
X0002731Y0024223D02*
Y0022235D01*
X0003037Y0022540D02*
X0002587D01*
X0004118Y0024772D02*
X0003756D01*
X0004449Y0024700D02*
X0003425D01*
X0004631Y0024628D02*
X0003243D01*
X0004768Y0024556D02*
X0003106D01*
X0003091Y0024547D02*
Y0024429D01*
X0004954Y0024412D02*
X0004837D01*
X0005026Y0024340D02*
X0004837D01*
X0005098Y0024268D02*
X0004837D01*
X0005170Y0024196D02*
X0004837D01*
X0005242Y0024124D02*
X0004837D01*
X0003235Y0022029D02*
Y0021833D01*
X0004747Y0022029D02*
Y0021890D01*
X0003037Y0023980D02*
X0002587D01*
X0003037Y0023908D02*
X0002587D01*
X0003037Y0023836D02*
X0002587D01*
X0003037Y0023764D02*
X0002587D01*
X0003037Y0023692D02*
X0002587D01*
X0003037Y0023620D02*
X0002587D01*
X0003037Y0023548D02*
X0002587D01*
X0003037Y0023476D02*
X0002587D01*
X0003037Y0023404D02*
X0002587D01*
X0003037Y0023332D02*
X0002587D01*
X0004880Y0024484D02*
X0002994D01*
X0003037Y0023188D02*
X0002587D01*
X0003037Y0023116D02*
X0002587D01*
X0003037Y0023044D02*
X0002587D01*
X0003037Y0022972D02*
X0002587D01*
X0003037Y0022900D02*
X0002587D01*
X0003037Y0022828D02*
X0002587D01*
X0003037Y0022756D02*
X0002587D01*
X0003037Y0022684D02*
X0002587D01*
X0003037Y0022612D02*
X0002587D01*
X0005287Y0022468D02*
X0004837D01*
X0005287Y0022396D02*
X0004837D01*
X0005232Y0022324D02*
X0004837D01*
X0005160Y0022252D02*
X0004837D01*
X0005088Y0022180D02*
X0004837D01*
X0005016Y0022108D02*
X0004837D01*
X0003037Y0022036D02*
X0002930D01*
X0004865Y0021964D02*
X0003008D01*
X0004751Y0021892D02*
X0003123D01*
X0004609Y0021820D02*
X0003265D01*
X0004418Y0021748D02*
X0003456D01*
X0003037Y0022324D02*
X0002642D01*
X0003037Y0022252D02*
X0002714D01*
X0003037Y0022180D02*
X0002786D01*
X0003037Y0022108D02*
X0002858D01*
X0004675Y0024606D02*
Y0024429D01*
X0004603Y0024640D02*
Y0024429D01*
X0004531Y0024670D02*
Y0024429D01*
X0004459Y0024696D02*
Y0024429D01*
X0004387Y0024719D02*
Y0024429D01*
X0004315Y0024738D02*
Y0024429D01*
X0004243Y0024753D02*
Y0024429D01*
X0004171Y0024765D02*
Y0024429D01*
X0004099Y0024774D02*
Y0024429D01*
X0004027Y0024779D02*
Y0024429D01*
X0003955Y0024782D02*
Y0024429D01*
X0003883Y0024781D02*
Y0024429D01*
X0003811Y0024777D02*
Y0024429D01*
X0003739Y0024770D02*
Y0024429D01*
X0003667Y0024759D02*
Y0024429D01*
X0003595Y0024746D02*
Y0024429D01*
X0003523Y0024729D02*
Y0024429D01*
X0003451Y0024708D02*
Y0024429D01*
X0003379Y0024684D02*
Y0024429D01*
X0003307Y0024656D02*
Y0024429D01*
X0003235Y0024624D02*
Y0024429D01*
X0004747Y0024568D02*
Y0024429D01*
X0005287Y0023980D02*
X0004837D01*
X0005287Y0023908D02*
X0004837D01*
X0005287Y0023836D02*
X0004837D01*
X0005287Y0023692D02*
X0004837D01*
X0004891Y0024475D02*
Y0021983D01*
X0005287Y0023548D02*
X0004837D01*
X0005287Y0023476D02*
X0004837D01*
X0005287Y0023404D02*
X0004837D01*
X0005287Y0023332D02*
X0004837D01*
X0005287Y0024052D02*
X0004837D01*
X0005287Y0023188D02*
X0004837D01*
X0005287Y0023116D02*
X0004837D01*
X0005287Y0023044D02*
X0004837D01*
X0005287Y0022972D02*
X0004837D01*
X0005287Y0022900D02*
X0004837D01*
X0005287Y0022828D02*
X0004837D01*
X0005287Y0022756D02*
X0004837D01*
X0005287Y0022684D02*
X0004837D01*
X0005287Y0022612D02*
X0004837D01*
X0005287Y0022540D02*
X0004837D01*
X0005287Y0023764D02*
X0004837D01*
X0002659Y0024151D02*
Y0022307D01*
X0004837Y0024429D02*
X0003037D01*
Y0022029D01*
X0004837D02*
X0003037D01*
X0004837Y0024429D02*
Y0022029D01*
X0003163Y0024588D02*
Y0024429D01*
X0005287Y0024079D02*
Y0022379D01*
X0004887Y0021979D01*
X0002587Y0022379D02*
X0002987Y0021979D01*
X0002587Y0024079D02*
Y0022379D01*
X0002987Y0024479D02*
X0002587Y0024079D01*
X0004887Y0024479D02*
X0005287Y0024079D01*
Y0023620D02*
X0004837D01*
X0005251Y0024115D02*
Y0022343D01*
X0005179Y0024187D02*
Y0022271D01*
X0005107Y0024259D02*
Y0022199D01*
X0005035Y0024331D02*
Y0022127D01*
X0004963Y0024403D02*
Y0022055D01*
X0003163Y0022029D02*
Y0021870D01*
X0004819Y0022029D02*
Y0021933D01*
X0003037Y0023260D02*
X0002587D01*
X0003091Y0022029D02*
Y0021911D01*
X0003037Y0024412D02*
X0002920D01*
X0003037Y0024340D02*
X0002848D01*
X0003037Y0024268D02*
X0002776D01*
X0003037Y0024196D02*
X0002704D01*
X0003037Y0024124D02*
X0002632D01*
X0003037Y0022468D02*
X0002587D01*
X0003037Y0022396D02*
X0002587D01*
X0140646Y0024524D02*
Y0024429D01*
X0140771Y0022036D02*
X0140664D01*
X0140502Y0022029D02*
Y0021851D01*
X0140430Y0022029D02*
Y0021817D01*
X0140358Y0022029D02*
Y0021787D01*
X0140286Y0022029D02*
Y0021761D01*
X0140214Y0022029D02*
Y0021739D01*
X0140142Y0022029D02*
Y0021720D01*
X0140070Y0022029D02*
Y0021704D01*
X0139998Y0022029D02*
Y0021692D01*
X0139926Y0022029D02*
Y0021684D01*
X0139854Y0022029D02*
Y0021678D01*
X0139782Y0022029D02*
Y0021676D01*
X0139710Y0022029D02*
Y0021677D01*
X0139638Y0022029D02*
Y0021680D01*
X0139566Y0022029D02*
Y0021688D01*
X0139494Y0022029D02*
Y0021698D01*
X0139422Y0022029D02*
Y0021712D01*
X0139350Y0022029D02*
Y0021729D01*
X0139278Y0022029D02*
Y0021749D01*
X0139206Y0022029D02*
Y0021773D01*
X0139134Y0022029D02*
Y0021801D01*
X0141114Y0023260D02*
X0140664D01*
X0138864Y0024052D02*
X0138414D01*
X0138846Y0024501D02*
Y0021957D01*
X0138774Y0024439D02*
Y0022019D01*
X0138702Y0024367D02*
Y0022091D01*
X0138630Y0024295D02*
Y0022163D01*
X0138558Y0024223D02*
Y0022235D01*
X0138864Y0022540D02*
X0138414D01*
X0139945Y0024772D02*
X0139583D01*
X0140276Y0024700D02*
X0139252D01*
X0140458Y0024628D02*
X0139070D01*
X0140595Y0024556D02*
X0138933D01*
X0138918Y0024547D02*
Y0024429D01*
X0140781Y0024412D02*
X0140664D01*
X0140853Y0024340D02*
X0140664D01*
X0140925Y0024268D02*
X0140664D01*
X0140997Y0024196D02*
X0140664D01*
X0141069Y0024124D02*
X0140664D01*
X0139062Y0022029D02*
Y0021833D01*
X0140574Y0022029D02*
Y0021890D01*
X0138864Y0023980D02*
X0138414D01*
X0138864Y0023908D02*
X0138414D01*
X0138864Y0023836D02*
X0138414D01*
X0138864Y0023764D02*
X0138414D01*
X0138864Y0023692D02*
X0138414D01*
X0138864Y0023620D02*
X0138414D01*
X0138864Y0023548D02*
X0138414D01*
X0138864Y0023476D02*
X0138414D01*
X0138864Y0023404D02*
X0138414D01*
X0138864Y0023332D02*
X0138414D01*
X0140707Y0024484D02*
X0138821D01*
X0138864Y0023188D02*
X0138414D01*
X0138864Y0023116D02*
X0138414D01*
X0138864Y0023044D02*
X0138414D01*
X0138864Y0022972D02*
X0138414D01*
X0138864Y0022900D02*
X0138414D01*
X0138864Y0022828D02*
X0138414D01*
X0138864Y0022756D02*
X0138414D01*
X0138864Y0022684D02*
X0138414D01*
X0138864Y0022612D02*
X0138414D01*
X0141114Y0022468D02*
X0140664D01*
X0141114Y0022396D02*
X0140664D01*
X0141059Y0022324D02*
X0140664D01*
X0140987Y0022252D02*
X0140664D01*
X0140915Y0022180D02*
X0140664D01*
X0140843Y0022108D02*
X0140664D01*
X0138864Y0022036D02*
X0138757D01*
X0140692Y0021964D02*
X0138835D01*
X0140578Y0021892D02*
X0138950D01*
X0140436Y0021820D02*
X0139092D01*
X0140245Y0021748D02*
X0139283D01*
X0138864Y0022324D02*
X0138469D01*
X0138864Y0022252D02*
X0138541D01*
X0138864Y0022180D02*
X0138613D01*
X0138864Y0022108D02*
X0138685D01*
X0140502Y0024606D02*
Y0024429D01*
X0140430Y0024640D02*
Y0024429D01*
X0140358Y0024670D02*
Y0024429D01*
X0140286Y0024696D02*
Y0024429D01*
X0140214Y0024719D02*
Y0024429D01*
X0140142Y0024738D02*
Y0024429D01*
X0140070Y0024753D02*
Y0024429D01*
X0139998Y0024765D02*
Y0024429D01*
X0139926Y0024774D02*
Y0024429D01*
X0139854Y0024779D02*
Y0024429D01*
X0139782Y0024782D02*
Y0024429D01*
X0139710Y0024781D02*
Y0024429D01*
X0139638Y0024777D02*
Y0024429D01*
X0139566Y0024770D02*
Y0024429D01*
X0139494Y0024759D02*
Y0024429D01*
X0139422Y0024746D02*
Y0024429D01*
X0139350Y0024729D02*
Y0024429D01*
X0139278Y0024708D02*
Y0024429D01*
X0139206Y0024684D02*
Y0024429D01*
X0139134Y0024656D02*
Y0024429D01*
X0139062Y0024624D02*
Y0024429D01*
X0140574Y0024568D02*
Y0024429D01*
X0141114Y0023980D02*
X0140664D01*
X0141114Y0023908D02*
X0140664D01*
X0141114Y0023836D02*
X0140664D01*
X0141114Y0023692D02*
X0140664D01*
X0140718Y0024475D02*
Y0021983D01*
X0141114Y0023548D02*
X0140664D01*
X0141114Y0023476D02*
X0140664D01*
X0141114Y0023404D02*
X0140664D01*
X0141114Y0023332D02*
X0140664D01*
X0141114Y0024052D02*
X0140664D01*
X0141114Y0023188D02*
X0140664D01*
X0141114Y0023116D02*
X0140664D01*
X0141114Y0023044D02*
X0140664D01*
X0141114Y0022972D02*
X0140664D01*
X0141114Y0022900D02*
X0140664D01*
X0141114Y0022828D02*
X0140664D01*
X0141114Y0022756D02*
X0140664D01*
X0141114Y0022684D02*
X0140664D01*
X0141114Y0022612D02*
X0140664D01*
X0141114Y0022540D02*
X0140664D01*
X0141114Y0023764D02*
X0140664D01*
X0138486Y0024151D02*
Y0022307D01*
X0140664Y0024429D02*
X0138864D01*
Y0022029D01*
X0140664D02*
X0138864D01*
X0140664Y0024429D02*
Y0022029D01*
X0138990Y0024588D02*
Y0024429D01*
X0141114Y0024079D02*
Y0022379D01*
X0140714Y0021979D01*
X0138414Y0022379D02*
X0138814Y0021979D01*
X0138414Y0024079D02*
Y0022379D01*
X0138814Y0024479D02*
X0138414Y0024079D01*
X0140714Y0024479D02*
X0141114Y0024079D01*
Y0023620D02*
X0140664D01*
X0141078Y0024115D02*
Y0022343D01*
X0141006Y0024187D02*
Y0022271D01*
X0140934Y0024259D02*
Y0022199D01*
X0140862Y0024331D02*
Y0022127D01*
X0140790Y0024403D02*
Y0022055D01*
X0138990Y0022029D02*
Y0021870D01*
X0140646Y0022029D02*
Y0021933D01*
X0138864Y0023260D02*
X0138414D01*
X0138918Y0022029D02*
Y0021911D01*
X0138864Y0024412D02*
X0138747D01*
X0138864Y0024340D02*
X0138675D01*
X0138864Y0024268D02*
X0138603D01*
X0138864Y0024196D02*
X0138531D01*
X0138864Y0024124D02*
X0138459D01*
X0138864Y0022468D02*
X0138414D01*
X0138864Y0022396D02*
X0138414D01*
X0061906Y0034366D02*
Y0034271D01*
X0062031Y0031878D02*
X0061924D01*
X0061762Y0031871D02*
Y0031693D01*
X0061690Y0031871D02*
Y0031659D01*
X0061618Y0031871D02*
Y0031629D01*
X0061546Y0031871D02*
Y0031603D01*
X0061474Y0031871D02*
Y0031581D01*
X0061402Y0031871D02*
Y0031562D01*
X0061330Y0031871D02*
Y0031546D01*
X0061258Y0031871D02*
Y0031534D01*
X0061186Y0031871D02*
Y0031526D01*
X0061114Y0031871D02*
Y0031520D01*
X0061042Y0031871D02*
Y0031518D01*
X0060970Y0031871D02*
Y0031519D01*
X0060898Y0031871D02*
Y0031522D01*
X0060826Y0031871D02*
Y0031530D01*
X0060754Y0031871D02*
Y0031540D01*
X0060682Y0031871D02*
Y0031554D01*
X0060610Y0031871D02*
Y0031571D01*
X0060538Y0031871D02*
Y0031591D01*
X0060466Y0031871D02*
Y0031615D01*
X0060394Y0031871D02*
Y0031643D01*
X0062374Y0033102D02*
X0061924D01*
X0060124Y0033894D02*
X0059674D01*
X0060106Y0034343D02*
Y0031799D01*
X0060034Y0034281D02*
Y0031861D01*
X0059962Y0034209D02*
Y0031933D01*
X0059890Y0034137D02*
Y0032005D01*
X0059818Y0034065D02*
Y0032077D01*
X0060124Y0032382D02*
X0059674D01*
X0061205Y0034614D02*
X0060843D01*
X0061536Y0034542D02*
X0060512D01*
X0061718Y0034470D02*
X0060330D01*
X0061855Y0034398D02*
X0060193D01*
X0060178Y0034389D02*
Y0034271D01*
X0062041Y0034254D02*
X0061924D01*
X0062113Y0034182D02*
X0061924D01*
X0062185Y0034110D02*
X0061924D01*
X0062257Y0034038D02*
X0061924D01*
X0062329Y0033966D02*
X0061924D01*
X0060322Y0031871D02*
Y0031675D01*
X0061834Y0031871D02*
Y0031732D01*
X0060124Y0033822D02*
X0059674D01*
X0060124Y0033750D02*
X0059674D01*
X0060124Y0033678D02*
X0059674D01*
X0060124Y0033606D02*
X0059674D01*
X0060124Y0033534D02*
X0059674D01*
X0060124Y0033462D02*
X0059674D01*
X0060124Y0033390D02*
X0059674D01*
X0060124Y0033318D02*
X0059674D01*
X0060124Y0033246D02*
X0059674D01*
X0060124Y0033174D02*
X0059674D01*
X0061967Y0034326D02*
X0060081D01*
X0060124Y0033030D02*
X0059674D01*
X0060124Y0032958D02*
X0059674D01*
X0060124Y0032886D02*
X0059674D01*
X0060124Y0032814D02*
X0059674D01*
X0060124Y0032742D02*
X0059674D01*
X0060124Y0032670D02*
X0059674D01*
X0060124Y0032598D02*
X0059674D01*
X0060124Y0032526D02*
X0059674D01*
X0060124Y0032454D02*
X0059674D01*
X0062374Y0032310D02*
X0061924D01*
X0062374Y0032238D02*
X0061924D01*
X0062319Y0032166D02*
X0061924D01*
X0062247Y0032094D02*
X0061924D01*
X0062175Y0032022D02*
X0061924D01*
X0062103Y0031950D02*
X0061924D01*
X0060124Y0031878D02*
X0060017D01*
X0061952Y0031806D02*
X0060095D01*
X0061838Y0031734D02*
X0060210D01*
X0061696Y0031662D02*
X0060352D01*
X0061505Y0031590D02*
X0060543D01*
X0060124Y0032166D02*
X0059729D01*
X0060124Y0032094D02*
X0059801D01*
X0060124Y0032022D02*
X0059873D01*
X0060124Y0031950D02*
X0059945D01*
X0061762Y0034448D02*
Y0034271D01*
X0061690Y0034482D02*
Y0034271D01*
X0061618Y0034512D02*
Y0034271D01*
X0061546Y0034538D02*
Y0034271D01*
X0061474Y0034561D02*
Y0034271D01*
X0061402Y0034580D02*
Y0034271D01*
X0061330Y0034595D02*
Y0034271D01*
X0061258Y0034607D02*
Y0034271D01*
X0061186Y0034616D02*
Y0034271D01*
X0061114Y0034621D02*
Y0034271D01*
X0061042Y0034624D02*
Y0034271D01*
X0060970Y0034623D02*
Y0034271D01*
X0060898Y0034619D02*
Y0034271D01*
X0060826Y0034612D02*
Y0034271D01*
X0060754Y0034601D02*
Y0034271D01*
X0060682Y0034588D02*
Y0034271D01*
X0060610Y0034571D02*
Y0034271D01*
X0060538Y0034550D02*
Y0034271D01*
X0060466Y0034526D02*
Y0034271D01*
X0060394Y0034498D02*
Y0034271D01*
X0060322Y0034466D02*
Y0034271D01*
X0061834Y0034410D02*
Y0034271D01*
X0062374Y0033822D02*
X0061924D01*
X0062374Y0033750D02*
X0061924D01*
X0062374Y0033678D02*
X0061924D01*
X0062374Y0033534D02*
X0061924D01*
X0061978Y0034317D02*
Y0031825D01*
X0062374Y0033390D02*
X0061924D01*
X0062374Y0033318D02*
X0061924D01*
X0062374Y0033246D02*
X0061924D01*
X0062374Y0033174D02*
X0061924D01*
X0062374Y0033894D02*
X0061924D01*
X0062374Y0033030D02*
X0061924D01*
X0062374Y0032958D02*
X0061924D01*
X0062374Y0032886D02*
X0061924D01*
X0062374Y0032814D02*
X0061924D01*
X0062374Y0032742D02*
X0061924D01*
X0062374Y0032670D02*
X0061924D01*
X0062374Y0032598D02*
X0061924D01*
X0062374Y0032526D02*
X0061924D01*
X0062374Y0032454D02*
X0061924D01*
X0062374Y0032382D02*
X0061924D01*
X0062374Y0033606D02*
X0061924D01*
X0059746Y0033993D02*
Y0032149D01*
X0061924Y0034271D02*
X0060124D01*
Y0031871D01*
X0061924D02*
X0060124D01*
X0061924Y0034271D02*
Y0031871D01*
X0060250Y0034430D02*
Y0034271D01*
X0062374Y0033921D02*
Y0032221D01*
X0061974Y0031821D01*
X0059674Y0032221D02*
X0060074Y0031821D01*
X0059674Y0033921D02*
Y0032221D01*
X0060074Y0034321D02*
X0059674Y0033921D01*
X0061974Y0034321D02*
X0062374Y0033921D01*
Y0033462D02*
X0061924D01*
X0062338Y0033957D02*
Y0032185D01*
X0062266Y0034029D02*
Y0032113D01*
X0062194Y0034101D02*
Y0032041D01*
X0062122Y0034173D02*
Y0031969D01*
X0062050Y0034245D02*
Y0031897D01*
X0060250Y0031871D02*
Y0031712D01*
X0061906Y0031871D02*
Y0031775D01*
X0060124Y0033102D02*
X0059674D01*
X0060178Y0031871D02*
Y0031753D01*
X0060124Y0034254D02*
X0060007D01*
X0060124Y0034182D02*
X0059935D01*
X0060124Y0034110D02*
X0059863D01*
X0060124Y0034038D02*
X0059791D01*
X0060124Y0033966D02*
X0059719D01*
X0060124Y0032310D02*
X0059674D01*
X0060124Y0032238D02*
X0059674D01*
X0097339Y0034366D02*
Y0034271D01*
X0097464Y0031878D02*
X0097357D01*
X0097195Y0031871D02*
Y0031693D01*
X0097123Y0031871D02*
Y0031659D01*
X0097051Y0031871D02*
Y0031629D01*
X0096979Y0031871D02*
Y0031603D01*
X0096907Y0031871D02*
Y0031581D01*
X0096835Y0031871D02*
Y0031562D01*
X0096763Y0031871D02*
Y0031546D01*
X0096691Y0031871D02*
Y0031534D01*
X0096619Y0031871D02*
Y0031526D01*
X0096547Y0031871D02*
Y0031520D01*
X0096475Y0031871D02*
Y0031518D01*
X0096403Y0031871D02*
Y0031519D01*
X0096331Y0031871D02*
Y0031522D01*
X0096259Y0031871D02*
Y0031530D01*
X0096187Y0031871D02*
Y0031540D01*
X0096115Y0031871D02*
Y0031554D01*
X0096043Y0031871D02*
Y0031571D01*
X0095971Y0031871D02*
Y0031591D01*
X0095899Y0031871D02*
Y0031615D01*
X0095827Y0031871D02*
Y0031643D01*
X0097807Y0033102D02*
X0097357D01*
X0095557Y0033894D02*
X0095107D01*
X0095539Y0034343D02*
Y0031799D01*
X0095467Y0034281D02*
Y0031861D01*
X0095395Y0034209D02*
Y0031933D01*
X0095323Y0034137D02*
Y0032005D01*
X0095251Y0034065D02*
Y0032077D01*
X0095557Y0032382D02*
X0095107D01*
X0096638Y0034614D02*
X0096276D01*
X0096969Y0034542D02*
X0095945D01*
X0097151Y0034470D02*
X0095763D01*
X0097288Y0034398D02*
X0095626D01*
X0095611Y0034389D02*
Y0034271D01*
X0097474Y0034254D02*
X0097357D01*
X0097546Y0034182D02*
X0097357D01*
X0097618Y0034110D02*
X0097357D01*
X0097690Y0034038D02*
X0097357D01*
X0097762Y0033966D02*
X0097357D01*
X0095755Y0031871D02*
Y0031675D01*
X0097267Y0031871D02*
Y0031732D01*
X0095557Y0033822D02*
X0095107D01*
X0095557Y0033750D02*
X0095107D01*
X0095557Y0033678D02*
X0095107D01*
X0095557Y0033606D02*
X0095107D01*
X0095557Y0033534D02*
X0095107D01*
X0095557Y0033462D02*
X0095107D01*
X0095557Y0033390D02*
X0095107D01*
X0095557Y0033318D02*
X0095107D01*
X0095557Y0033246D02*
X0095107D01*
X0095557Y0033174D02*
X0095107D01*
X0097400Y0034326D02*
X0095514D01*
X0095557Y0033030D02*
X0095107D01*
X0095557Y0032958D02*
X0095107D01*
X0095557Y0032886D02*
X0095107D01*
X0095557Y0032814D02*
X0095107D01*
X0095557Y0032742D02*
X0095107D01*
X0095557Y0032670D02*
X0095107D01*
X0095557Y0032598D02*
X0095107D01*
X0095557Y0032526D02*
X0095107D01*
X0095557Y0032454D02*
X0095107D01*
X0097807Y0032310D02*
X0097357D01*
X0097807Y0032238D02*
X0097357D01*
X0097752Y0032166D02*
X0097357D01*
X0097680Y0032094D02*
X0097357D01*
X0097608Y0032022D02*
X0097357D01*
X0097536Y0031950D02*
X0097357D01*
X0095557Y0031878D02*
X0095450D01*
X0097385Y0031806D02*
X0095528D01*
X0097271Y0031734D02*
X0095643D01*
X0097129Y0031662D02*
X0095785D01*
X0096938Y0031590D02*
X0095976D01*
X0095557Y0032166D02*
X0095162D01*
X0095557Y0032094D02*
X0095234D01*
X0095557Y0032022D02*
X0095306D01*
X0095557Y0031950D02*
X0095378D01*
X0097195Y0034448D02*
Y0034271D01*
X0097123Y0034482D02*
Y0034271D01*
X0097051Y0034512D02*
Y0034271D01*
X0096979Y0034538D02*
Y0034271D01*
X0096907Y0034561D02*
Y0034271D01*
X0096835Y0034580D02*
Y0034271D01*
X0096763Y0034595D02*
Y0034271D01*
X0096691Y0034607D02*
Y0034271D01*
X0096619Y0034616D02*
Y0034271D01*
X0096547Y0034621D02*
Y0034271D01*
X0096475Y0034624D02*
Y0034271D01*
X0096403Y0034623D02*
Y0034271D01*
X0096331Y0034619D02*
Y0034271D01*
X0096259Y0034612D02*
Y0034271D01*
X0096187Y0034601D02*
Y0034271D01*
X0096115Y0034588D02*
Y0034271D01*
X0096043Y0034571D02*
Y0034271D01*
X0095971Y0034550D02*
Y0034271D01*
X0095899Y0034526D02*
Y0034271D01*
X0095827Y0034498D02*
Y0034271D01*
X0095755Y0034466D02*
Y0034271D01*
X0097267Y0034410D02*
Y0034271D01*
X0097807Y0033822D02*
X0097357D01*
X0097807Y0033750D02*
X0097357D01*
X0097807Y0033678D02*
X0097357D01*
X0097807Y0033534D02*
X0097357D01*
X0097411Y0034317D02*
Y0031825D01*
X0097807Y0033390D02*
X0097357D01*
X0097807Y0033318D02*
X0097357D01*
X0097807Y0033246D02*
X0097357D01*
X0097807Y0033174D02*
X0097357D01*
X0097807Y0033894D02*
X0097357D01*
X0097807Y0033030D02*
X0097357D01*
X0097807Y0032958D02*
X0097357D01*
X0097807Y0032886D02*
X0097357D01*
X0097807Y0032814D02*
X0097357D01*
X0097807Y0032742D02*
X0097357D01*
X0097807Y0032670D02*
X0097357D01*
X0097807Y0032598D02*
X0097357D01*
X0097807Y0032526D02*
X0097357D01*
X0097807Y0032454D02*
X0097357D01*
X0097807Y0032382D02*
X0097357D01*
X0097807Y0033606D02*
X0097357D01*
X0095179Y0033993D02*
Y0032149D01*
X0097357Y0034271D02*
X0095557D01*
Y0031871D01*
X0097357D02*
X0095557D01*
X0097357Y0034271D02*
Y0031871D01*
X0095683Y0034430D02*
Y0034271D01*
X0097807Y0033921D02*
Y0032221D01*
X0097407Y0031821D01*
X0095107Y0032221D02*
X0095507Y0031821D01*
X0095107Y0033921D02*
Y0032221D01*
X0095507Y0034321D02*
X0095107Y0033921D01*
X0097407Y0034321D02*
X0097807Y0033921D01*
Y0033462D02*
X0097357D01*
X0097771Y0033957D02*
Y0032185D01*
X0097699Y0034029D02*
Y0032113D01*
X0097627Y0034101D02*
Y0032041D01*
X0097555Y0034173D02*
Y0031969D01*
X0097483Y0034245D02*
Y0031897D01*
X0095683Y0031871D02*
Y0031712D01*
X0097339Y0031871D02*
Y0031775D01*
X0095557Y0033102D02*
X0095107D01*
X0095611Y0031871D02*
Y0031753D01*
X0095557Y0034254D02*
X0095440D01*
X0095557Y0034182D02*
X0095368D01*
X0095557Y0034110D02*
X0095296D01*
X0095557Y0034038D02*
X0095224D01*
X0095557Y0033966D02*
X0095152D01*
X0095557Y0032310D02*
X0095107D01*
X0095557Y0032238D02*
X0095107D01*
X0004819Y0071768D02*
Y0071673D01*
X0004944Y0069280D02*
X0004837D01*
X0004675Y0069273D02*
Y0069095D01*
X0004603Y0069273D02*
Y0069061D01*
X0004531Y0069273D02*
Y0069031D01*
X0004459Y0069273D02*
Y0069005D01*
X0004387Y0069273D02*
Y0068983D01*
X0004315Y0069273D02*
Y0068964D01*
X0004243Y0069273D02*
Y0068948D01*
X0004171Y0069273D02*
Y0068936D01*
X0004099Y0069273D02*
Y0068928D01*
X0004027Y0069273D02*
Y0068922D01*
X0003955Y0069273D02*
Y0068920D01*
X0003883Y0069273D02*
Y0068921D01*
X0003811Y0069273D02*
Y0068924D01*
X0003739Y0069273D02*
Y0068932D01*
X0003667Y0069273D02*
Y0068942D01*
X0003595Y0069273D02*
Y0068956D01*
X0003523Y0069273D02*
Y0068973D01*
X0003451Y0069273D02*
Y0068993D01*
X0003379Y0069273D02*
Y0069017D01*
X0003307Y0069273D02*
Y0069045D01*
X0005287Y0070504D02*
X0004837D01*
X0003037Y0071296D02*
X0002587D01*
X0003019Y0071745D02*
Y0069201D01*
X0002947Y0071683D02*
Y0069263D01*
X0002875Y0071611D02*
Y0069335D01*
X0002803Y0071539D02*
Y0069407D01*
X0002731Y0071467D02*
Y0069479D01*
X0003037Y0069784D02*
X0002587D01*
X0004118Y0072016D02*
X0003756D01*
X0004449Y0071944D02*
X0003425D01*
X0004631Y0071872D02*
X0003243D01*
X0004768Y0071800D02*
X0003106D01*
X0003091Y0071791D02*
Y0071673D01*
X0004954Y0071656D02*
X0004837D01*
X0005026Y0071584D02*
X0004837D01*
X0005098Y0071512D02*
X0004837D01*
X0005170Y0071440D02*
X0004837D01*
X0005242Y0071368D02*
X0004837D01*
X0003235Y0069273D02*
Y0069077D01*
X0004747Y0069273D02*
Y0069134D01*
X0003037Y0071224D02*
X0002587D01*
X0003037Y0071152D02*
X0002587D01*
X0003037Y0071080D02*
X0002587D01*
X0003037Y0071008D02*
X0002587D01*
X0003037Y0070936D02*
X0002587D01*
X0003037Y0070864D02*
X0002587D01*
X0003037Y0070792D02*
X0002587D01*
X0003037Y0070720D02*
X0002587D01*
X0003037Y0070648D02*
X0002587D01*
X0003037Y0070576D02*
X0002587D01*
X0004880Y0071728D02*
X0002994D01*
X0003037Y0070432D02*
X0002587D01*
X0003037Y0070360D02*
X0002587D01*
X0003037Y0070288D02*
X0002587D01*
X0003037Y0070216D02*
X0002587D01*
X0003037Y0070144D02*
X0002587D01*
X0003037Y0070072D02*
X0002587D01*
X0003037Y0070000D02*
X0002587D01*
X0003037Y0069928D02*
X0002587D01*
X0003037Y0069856D02*
X0002587D01*
X0005287Y0069712D02*
X0004837D01*
X0005287Y0069640D02*
X0004837D01*
X0005232Y0069568D02*
X0004837D01*
X0005160Y0069496D02*
X0004837D01*
X0005088Y0069424D02*
X0004837D01*
X0005016Y0069352D02*
X0004837D01*
X0003037Y0069280D02*
X0002930D01*
X0004865Y0069208D02*
X0003008D01*
X0004751Y0069136D02*
X0003123D01*
X0004609Y0069064D02*
X0003265D01*
X0004418Y0068992D02*
X0003456D01*
X0003037Y0069568D02*
X0002642D01*
X0003037Y0069496D02*
X0002714D01*
X0003037Y0069424D02*
X0002786D01*
X0003037Y0069352D02*
X0002858D01*
X0004675Y0071850D02*
Y0071673D01*
X0004603Y0071884D02*
Y0071673D01*
X0004531Y0071914D02*
Y0071673D01*
X0004459Y0071940D02*
Y0071673D01*
X0004387Y0071963D02*
Y0071673D01*
X0004315Y0071982D02*
Y0071673D01*
X0004243Y0071997D02*
Y0071673D01*
X0004171Y0072009D02*
Y0071673D01*
X0004099Y0072018D02*
Y0071673D01*
X0004027Y0072023D02*
Y0071673D01*
X0003955Y0072026D02*
Y0071673D01*
X0003883Y0072025D02*
Y0071673D01*
X0003811Y0072021D02*
Y0071673D01*
X0003739Y0072014D02*
Y0071673D01*
X0003667Y0072003D02*
Y0071673D01*
X0003595Y0071990D02*
Y0071673D01*
X0003523Y0071973D02*
Y0071673D01*
X0003451Y0071952D02*
Y0071673D01*
X0003379Y0071928D02*
Y0071673D01*
X0003307Y0071900D02*
Y0071673D01*
X0003235Y0071868D02*
Y0071673D01*
X0004747Y0071812D02*
Y0071673D01*
X0005287Y0071224D02*
X0004837D01*
X0005287Y0071152D02*
X0004837D01*
X0005287Y0071080D02*
X0004837D01*
X0005287Y0070936D02*
X0004837D01*
X0004891Y0071719D02*
Y0069227D01*
X0005287Y0070792D02*
X0004837D01*
X0005287Y0070720D02*
X0004837D01*
X0005287Y0070648D02*
X0004837D01*
X0005287Y0070576D02*
X0004837D01*
X0005287Y0071296D02*
X0004837D01*
X0005287Y0070432D02*
X0004837D01*
X0005287Y0070360D02*
X0004837D01*
X0005287Y0070288D02*
X0004837D01*
X0005287Y0070216D02*
X0004837D01*
X0005287Y0070144D02*
X0004837D01*
X0005287Y0070072D02*
X0004837D01*
X0005287Y0070000D02*
X0004837D01*
X0005287Y0069928D02*
X0004837D01*
X0005287Y0069856D02*
X0004837D01*
X0005287Y0069784D02*
X0004837D01*
X0005287Y0071008D02*
X0004837D01*
X0002659Y0071395D02*
Y0069551D01*
X0004837Y0071673D02*
X0003037D01*
Y0069273D01*
X0004837D02*
X0003037D01*
X0004837Y0071673D02*
Y0069273D01*
X0003163Y0071832D02*
Y0071673D01*
X0005287Y0071323D02*
Y0069623D01*
X0004887Y0069223D01*
X0002587Y0069623D02*
X0002987Y0069223D01*
X0002587Y0071323D02*
Y0069623D01*
X0002987Y0071723D02*
X0002587Y0071323D01*
X0004887Y0071723D02*
X0005287Y0071323D01*
Y0070864D02*
X0004837D01*
X0005251Y0071359D02*
Y0069587D01*
X0005179Y0071431D02*
Y0069515D01*
X0005107Y0071503D02*
Y0069443D01*
X0005035Y0071575D02*
Y0069371D01*
X0004963Y0071647D02*
Y0069299D01*
X0003163Y0069273D02*
Y0069114D01*
X0004819Y0069273D02*
Y0069177D01*
X0003037Y0070504D02*
X0002587D01*
X0003091Y0069273D02*
Y0069155D01*
X0003037Y0071656D02*
X0002920D01*
X0003037Y0071584D02*
X0002848D01*
X0003037Y0071512D02*
X0002776D01*
X0003037Y0071440D02*
X0002704D01*
X0003037Y0071368D02*
X0002632D01*
X0003037Y0069712D02*
X0002587D01*
X0003037Y0069640D02*
X0002587D01*
X0034576Y0097939D02*
Y0097750D01*
X0034504Y0098011D02*
Y0097750D01*
X0034432Y0098083D02*
Y0097750D01*
X0034360Y0098155D02*
Y0097750D01*
X0034783Y0096004D02*
X0034665D01*
X0034216Y0095950D02*
Y0095500D01*
X0034144Y0095950D02*
Y0095500D01*
X0034072Y0095950D02*
Y0095500D01*
X0034000Y0095950D02*
Y0095500D01*
X0033928Y0095950D02*
Y0095500D01*
X0033856Y0095950D02*
Y0095500D01*
X0033784Y0095950D02*
Y0095500D01*
X0033712Y0095950D02*
Y0095500D01*
X0033640Y0095950D02*
Y0095500D01*
X0033568Y0095950D02*
Y0095500D01*
X0033496Y0095950D02*
Y0095500D01*
X0033424Y0095950D02*
Y0095500D01*
X0033352Y0095950D02*
Y0095500D01*
X0033280Y0095950D02*
Y0095500D01*
X0033208Y0095950D02*
Y0095500D01*
X0033136Y0095950D02*
Y0095500D01*
X0033064Y0095950D02*
Y0095500D01*
X0032992Y0095950D02*
Y0095500D01*
X0032920Y0095950D02*
Y0095500D01*
X0032848Y0095950D02*
Y0095500D01*
X0035018Y0096868D02*
X0034665D01*
X0032632Y0098200D02*
Y0097750D01*
X0032560Y0098145D02*
Y0097750D01*
X0032488Y0098073D02*
Y0097750D01*
X0032416Y0098001D02*
Y0097750D01*
X0032344Y0097929D02*
Y0097750D01*
X0034804Y0097660D02*
X0034665D01*
X0032200Y0097779D02*
Y0095922D01*
X0032128Y0097664D02*
Y0096037D01*
X0032056Y0097522D02*
Y0096178D01*
X0031984Y0097331D02*
Y0096370D01*
X0034351Y0098164D02*
X0032579D01*
X0034423Y0098092D02*
X0032507D01*
X0034495Y0098020D02*
X0032435D01*
X0034567Y0097948D02*
X0032363D01*
X0034639Y0097876D02*
X0032291D01*
X0032272Y0097857D02*
Y0097750D01*
X0034761Y0097732D02*
X0034665D01*
X0032776Y0095950D02*
Y0095500D01*
X0034288Y0095950D02*
Y0095500D01*
X0032265Y0097588D02*
X0032087D01*
X0032265Y0097516D02*
X0032053D01*
X0032265Y0097444D02*
X0032023D01*
X0032265Y0097372D02*
X0031997D01*
X0032265Y0097300D02*
X0031975D01*
X0032265Y0097228D02*
X0031956D01*
X0032265Y0097156D02*
X0031941D01*
X0032265Y0097084D02*
X0031929D01*
X0032265Y0097012D02*
X0031920D01*
X0032265Y0096940D02*
X0031914D01*
X0032265Y0097660D02*
X0032126D01*
X0032265Y0096796D02*
X0031913D01*
X0032265Y0096724D02*
X0031917D01*
X0032265Y0096652D02*
X0031924D01*
X0032265Y0096580D02*
X0031934D01*
X0032265Y0096508D02*
X0031948D01*
X0032265Y0096436D02*
X0031965D01*
X0032265Y0096364D02*
X0031986D01*
X0032265Y0096292D02*
X0032010D01*
X0032265Y0096220D02*
X0032038D01*
X0034824Y0096076D02*
X0034665D01*
X0032265Y0096004D02*
X0032147D01*
X0034737Y0095932D02*
X0032193D01*
X0034675Y0095860D02*
X0032255D01*
X0034603Y0095788D02*
X0032327D01*
X0034531Y0095716D02*
X0032399D01*
X0034459Y0095644D02*
X0032471D01*
X0032265Y0096148D02*
X0032070D01*
X0032344Y0095950D02*
Y0095771D01*
X0032272Y0095950D02*
Y0095843D01*
X0032265Y0097732D02*
X0032169D01*
X0032265Y0096076D02*
X0032106D01*
X0034216Y0098200D02*
Y0097750D01*
X0034144Y0098200D02*
Y0097750D01*
X0034072Y0098200D02*
Y0097750D01*
X0034000Y0098200D02*
Y0097750D01*
X0033928Y0098200D02*
Y0097750D01*
X0033856Y0098200D02*
Y0097750D01*
X0033784Y0098200D02*
Y0097750D01*
X0033712Y0098200D02*
Y0097750D01*
X0033640Y0098200D02*
Y0097750D01*
X0033568Y0098200D02*
Y0097750D01*
X0033496Y0098200D02*
Y0097750D01*
X0033424Y0098200D02*
Y0097750D01*
X0033352Y0098200D02*
Y0097750D01*
X0033280Y0098200D02*
Y0097750D01*
X0033208Y0098200D02*
Y0097750D01*
X0033136Y0098200D02*
Y0097750D01*
X0033064Y0098200D02*
Y0097750D01*
X0032992Y0098200D02*
Y0097750D01*
X0032920Y0098200D02*
Y0097750D01*
X0032848Y0098200D02*
Y0097750D01*
X0032776Y0098200D02*
Y0097750D01*
X0034843Y0097588D02*
X0034665D01*
X0034720Y0097793D02*
Y0095907D01*
X0034907Y0097444D02*
X0034665D01*
X0034933Y0097372D02*
X0034665D01*
X0034955Y0097300D02*
X0034665D01*
X0034974Y0097228D02*
X0034665D01*
X0034989Y0097156D02*
X0034665D01*
X0035001Y0097084D02*
X0034665D01*
X0035010Y0097012D02*
X0034665D01*
X0035016Y0096940D02*
X0034665D01*
X0034711Y0097804D02*
X0032219D01*
X0035017Y0096796D02*
X0034665D01*
X0035013Y0096724D02*
X0034665D01*
X0035006Y0096652D02*
X0034665D01*
X0034996Y0096580D02*
X0034665D01*
X0034982Y0096508D02*
X0034665D01*
X0034965Y0096436D02*
X0034665D01*
X0034944Y0096364D02*
X0034665D01*
X0034920Y0096292D02*
X0034665D01*
X0034892Y0096220D02*
X0034665D01*
X0034860Y0096148D02*
X0034665D01*
X0034288Y0098200D02*
Y0097750D01*
X0034387Y0095572D02*
X0032543D01*
X0032265Y0097750D02*
Y0095950D01*
X0034665D02*
X0032265D01*
X0034665Y0097750D02*
Y0095950D01*
Y0097750D02*
X0032265D01*
X0032704Y0098200D02*
Y0097750D01*
X0034315Y0098200D02*
X0032615D01*
X0034315D02*
X0034715Y0097800D01*
Y0095900D02*
X0034315Y0095500D01*
X0032615D01*
X0032215Y0095900D02*
X0032615Y0095500D01*
Y0098200D02*
X0032215Y0097800D01*
X0034877Y0097516D02*
X0034665D01*
X0035008Y0097032D02*
Y0096669D01*
X0034936Y0097363D02*
Y0096338D01*
X0034864Y0097544D02*
Y0096156D01*
X0034792Y0097681D02*
Y0096019D01*
X0034648Y0097867D02*
Y0097750D01*
X0032704Y0095950D02*
Y0095500D01*
X0034648Y0095950D02*
Y0095833D01*
X0034576Y0095950D02*
Y0095761D01*
X0034504Y0095950D02*
Y0095689D01*
X0034432Y0095950D02*
Y0095617D01*
X0034360Y0095950D02*
Y0095545D01*
X0032265Y0096868D02*
X0031912D01*
X0032632Y0095950D02*
Y0095500D01*
X0032560Y0095950D02*
Y0095555D01*
X0032488Y0095950D02*
Y0095627D01*
X0032416Y0095950D02*
Y0095699D01*
X0034576Y0075499D02*
Y0075310D01*
X0034504Y0075571D02*
Y0075310D01*
X0034432Y0075643D02*
Y0075310D01*
X0034360Y0075715D02*
Y0075310D01*
X0034783Y0073564D02*
X0034665D01*
X0034216Y0073510D02*
Y0073060D01*
X0034144Y0073510D02*
Y0073060D01*
X0034072Y0073510D02*
Y0073060D01*
X0034000Y0073510D02*
Y0073060D01*
X0033928Y0073510D02*
Y0073060D01*
X0033856Y0073510D02*
Y0073060D01*
X0033784Y0073510D02*
Y0073060D01*
X0033712Y0073510D02*
Y0073060D01*
X0033640Y0073510D02*
Y0073060D01*
X0033568Y0073510D02*
Y0073060D01*
X0033496Y0073510D02*
Y0073060D01*
X0033424Y0073510D02*
Y0073060D01*
X0033352Y0073510D02*
Y0073060D01*
X0033280Y0073510D02*
Y0073060D01*
X0033208Y0073510D02*
Y0073060D01*
X0033136Y0073510D02*
Y0073060D01*
X0033064Y0073510D02*
Y0073060D01*
X0032992Y0073510D02*
Y0073060D01*
X0032920Y0073510D02*
Y0073060D01*
X0032848Y0073510D02*
Y0073060D01*
X0035018Y0074428D02*
X0034665D01*
X0032632Y0075760D02*
Y0075310D01*
X0032560Y0075705D02*
Y0075310D01*
X0032488Y0075633D02*
Y0075310D01*
X0032416Y0075561D02*
Y0075310D01*
X0032344Y0075489D02*
Y0075310D01*
X0034804Y0075220D02*
X0034665D01*
X0032200Y0075338D02*
Y0073481D01*
X0032128Y0075223D02*
Y0073596D01*
X0032056Y0075082D02*
Y0073738D01*
X0031984Y0074890D02*
Y0073929D01*
X0034351Y0075724D02*
X0032579D01*
X0034423Y0075652D02*
X0032507D01*
X0034495Y0075580D02*
X0032435D01*
X0034567Y0075508D02*
X0032363D01*
X0034639Y0075436D02*
X0032291D01*
X0032272Y0075417D02*
Y0075310D01*
X0034761Y0075292D02*
X0034665D01*
X0032776Y0073510D02*
Y0073060D01*
X0034288Y0073510D02*
Y0073060D01*
X0032265Y0075148D02*
X0032087D01*
X0032265Y0075076D02*
X0032053D01*
X0032265Y0075004D02*
X0032023D01*
X0032265Y0074932D02*
X0031997D01*
X0032265Y0074860D02*
X0031975D01*
X0032265Y0074788D02*
X0031956D01*
X0032265Y0074716D02*
X0031941D01*
X0032265Y0074644D02*
X0031929D01*
X0032265Y0074572D02*
X0031920D01*
X0032265Y0074500D02*
X0031914D01*
X0032265Y0075220D02*
X0032126D01*
X0032265Y0074356D02*
X0031913D01*
X0032265Y0074284D02*
X0031917D01*
X0032265Y0074212D02*
X0031924D01*
X0032265Y0074140D02*
X0031934D01*
X0032265Y0074068D02*
X0031948D01*
X0032265Y0073996D02*
X0031965D01*
X0032265Y0073924D02*
X0031986D01*
X0032265Y0073852D02*
X0032010D01*
X0032265Y0073780D02*
X0032038D01*
X0034824Y0073636D02*
X0034665D01*
X0032265Y0073564D02*
X0032147D01*
X0034737Y0073492D02*
X0032193D01*
X0034675Y0073420D02*
X0032255D01*
X0034603Y0073348D02*
X0032327D01*
X0034531Y0073276D02*
X0032399D01*
X0034459Y0073204D02*
X0032471D01*
X0032265Y0073708D02*
X0032070D01*
X0032344Y0073510D02*
Y0073331D01*
X0032272Y0073510D02*
Y0073403D01*
X0032265Y0075292D02*
X0032169D01*
X0032265Y0073636D02*
X0032106D01*
X0034216Y0075760D02*
Y0075310D01*
X0034144Y0075760D02*
Y0075310D01*
X0034072Y0075760D02*
Y0075310D01*
X0034000Y0075760D02*
Y0075310D01*
X0033928Y0075760D02*
Y0075310D01*
X0033856Y0075760D02*
Y0075310D01*
X0033784Y0075760D02*
Y0075310D01*
X0033712Y0075760D02*
Y0075310D01*
X0033640Y0075760D02*
Y0075310D01*
X0033568Y0075760D02*
Y0075310D01*
X0033496Y0075760D02*
Y0075310D01*
X0033424Y0075760D02*
Y0075310D01*
X0033352Y0075760D02*
Y0075310D01*
X0033280Y0075760D02*
Y0075310D01*
X0033208Y0075760D02*
Y0075310D01*
X0033136Y0075760D02*
Y0075310D01*
X0033064Y0075760D02*
Y0075310D01*
X0032992Y0075760D02*
Y0075310D01*
X0032920Y0075760D02*
Y0075310D01*
X0032848Y0075760D02*
Y0075310D01*
X0032776Y0075760D02*
Y0075310D01*
X0034843Y0075148D02*
X0034665D01*
X0034720Y0075353D02*
Y0073467D01*
X0034907Y0075004D02*
X0034665D01*
X0034933Y0074932D02*
X0034665D01*
X0034955Y0074860D02*
X0034665D01*
X0034974Y0074788D02*
X0034665D01*
X0034989Y0074716D02*
X0034665D01*
X0035001Y0074644D02*
X0034665D01*
X0035010Y0074572D02*
X0034665D01*
X0035016Y0074500D02*
X0034665D01*
X0034711Y0075364D02*
X0032219D01*
X0035017Y0074356D02*
X0034665D01*
X0035013Y0074284D02*
X0034665D01*
X0035006Y0074212D02*
X0034665D01*
X0034996Y0074140D02*
X0034665D01*
X0034982Y0074068D02*
X0034665D01*
X0034965Y0073996D02*
X0034665D01*
X0034944Y0073924D02*
X0034665D01*
X0034920Y0073852D02*
X0034665D01*
X0034892Y0073780D02*
X0034665D01*
X0034860Y0073708D02*
X0034665D01*
X0034288Y0075760D02*
Y0075310D01*
X0034387Y0073132D02*
X0032543D01*
X0032265Y0075310D02*
Y0073510D01*
X0034665D02*
X0032265D01*
X0034665Y0075310D02*
Y0073510D01*
Y0075310D02*
X0032265D01*
X0032704Y0075760D02*
Y0075310D01*
X0034315Y0075760D02*
X0032615D01*
X0034315D02*
X0034715Y0075360D01*
Y0073460D02*
X0034315Y0073060D01*
X0032615D01*
X0032215Y0073460D02*
X0032615Y0073060D01*
Y0075760D02*
X0032215Y0075360D01*
X0034877Y0075076D02*
X0034665D01*
X0035008Y0074591D02*
Y0074228D01*
X0034936Y0074922D02*
Y0073897D01*
X0034864Y0075104D02*
Y0073716D01*
X0034792Y0075241D02*
Y0073579D01*
X0034648Y0075427D02*
Y0075310D01*
X0032704Y0073510D02*
Y0073060D01*
X0034648Y0073510D02*
Y0073393D01*
X0034576Y0073510D02*
Y0073321D01*
X0034504Y0073510D02*
Y0073249D01*
X0034432Y0073510D02*
Y0073177D01*
X0034360Y0073510D02*
Y0073105D01*
X0032265Y0074428D02*
X0031912D01*
X0032632Y0073510D02*
Y0073060D01*
X0032560Y0073510D02*
Y0073115D01*
X0032488Y0073510D02*
Y0073187D01*
X0032416Y0073510D02*
Y0073259D01*
X0140875Y0075499D02*
Y0075310D01*
X0140803Y0075571D02*
Y0075310D01*
X0140731Y0075643D02*
Y0075310D01*
X0140659Y0075715D02*
Y0075310D01*
X0141082Y0073564D02*
X0140964D01*
X0140515Y0073510D02*
Y0073060D01*
X0140443Y0073510D02*
Y0073060D01*
X0140371Y0073510D02*
Y0073060D01*
X0140299Y0073510D02*
Y0073060D01*
X0140227Y0073510D02*
Y0073060D01*
X0140155Y0073510D02*
Y0073060D01*
X0140083Y0073510D02*
Y0073060D01*
X0140011Y0073510D02*
Y0073060D01*
X0139939Y0073510D02*
Y0073060D01*
X0139867Y0073510D02*
Y0073060D01*
X0139795Y0073510D02*
Y0073060D01*
X0139723Y0073510D02*
Y0073060D01*
X0139651Y0073510D02*
Y0073060D01*
X0139579Y0073510D02*
Y0073060D01*
X0139507Y0073510D02*
Y0073060D01*
X0139435Y0073510D02*
Y0073060D01*
X0139363Y0073510D02*
Y0073060D01*
X0139291Y0073510D02*
Y0073060D01*
X0139219Y0073510D02*
Y0073060D01*
X0139147Y0073510D02*
Y0073060D01*
X0141317Y0074428D02*
X0140964D01*
X0138931Y0075760D02*
Y0075310D01*
X0138859Y0075705D02*
Y0075310D01*
X0138787Y0075633D02*
Y0075310D01*
X0138715Y0075561D02*
Y0075310D01*
X0138643Y0075489D02*
Y0075310D01*
X0141103Y0075220D02*
X0140964D01*
X0138499Y0075338D02*
Y0073481D01*
X0138427Y0075223D02*
Y0073596D01*
X0138355Y0075082D02*
Y0073738D01*
X0138283Y0074890D02*
Y0073929D01*
X0140650Y0075724D02*
X0138878D01*
X0140722Y0075652D02*
X0138806D01*
X0140794Y0075580D02*
X0138734D01*
X0140866Y0075508D02*
X0138662D01*
X0140938Y0075436D02*
X0138590D01*
X0138571Y0075417D02*
Y0075310D01*
X0141060Y0075292D02*
X0140964D01*
X0139075Y0073510D02*
Y0073060D01*
X0140587Y0073510D02*
Y0073060D01*
X0138564Y0075148D02*
X0138386D01*
X0138564Y0075076D02*
X0138352D01*
X0138564Y0075004D02*
X0138322D01*
X0138564Y0074932D02*
X0138296D01*
X0138564Y0074860D02*
X0138274D01*
X0138564Y0074788D02*
X0138255D01*
X0138564Y0074716D02*
X0138240D01*
X0138564Y0074644D02*
X0138228D01*
X0138564Y0074572D02*
X0138219D01*
X0138564Y0074500D02*
X0138213D01*
X0138564Y0075220D02*
X0138425D01*
X0138564Y0074356D02*
X0138212D01*
X0138564Y0074284D02*
X0138216D01*
X0138564Y0074212D02*
X0138223D01*
X0138564Y0074140D02*
X0138233D01*
X0138564Y0074068D02*
X0138247D01*
X0138564Y0073996D02*
X0138264D01*
X0138564Y0073924D02*
X0138285D01*
X0138564Y0073852D02*
X0138309D01*
X0138564Y0073780D02*
X0138337D01*
X0141123Y0073636D02*
X0140964D01*
X0138564Y0073564D02*
X0138446D01*
X0141036Y0073492D02*
X0138492D01*
X0140974Y0073420D02*
X0138554D01*
X0140902Y0073348D02*
X0138626D01*
X0140830Y0073276D02*
X0138698D01*
X0140758Y0073204D02*
X0138770D01*
X0138564Y0073708D02*
X0138369D01*
X0138643Y0073510D02*
Y0073331D01*
X0138571Y0073510D02*
Y0073403D01*
X0138564Y0075292D02*
X0138468D01*
X0138564Y0073636D02*
X0138405D01*
X0140515Y0075760D02*
Y0075310D01*
X0140443Y0075760D02*
Y0075310D01*
X0140371Y0075760D02*
Y0075310D01*
X0140299Y0075760D02*
Y0075310D01*
X0140227Y0075760D02*
Y0075310D01*
X0140155Y0075760D02*
Y0075310D01*
X0140083Y0075760D02*
Y0075310D01*
X0140011Y0075760D02*
Y0075310D01*
X0139939Y0075760D02*
Y0075310D01*
X0139867Y0075760D02*
Y0075310D01*
X0139795Y0075760D02*
Y0075310D01*
X0139723Y0075760D02*
Y0075310D01*
X0139651Y0075760D02*
Y0075310D01*
X0139579Y0075760D02*
Y0075310D01*
X0139507Y0075760D02*
Y0075310D01*
X0139435Y0075760D02*
Y0075310D01*
X0139363Y0075760D02*
Y0075310D01*
X0139291Y0075760D02*
Y0075310D01*
X0139219Y0075760D02*
Y0075310D01*
X0139147Y0075760D02*
Y0075310D01*
X0139075Y0075760D02*
Y0075310D01*
X0141142Y0075148D02*
X0140964D01*
X0141019Y0075353D02*
Y0073467D01*
X0141206Y0075004D02*
X0140964D01*
X0141232Y0074932D02*
X0140964D01*
X0141254Y0074860D02*
X0140964D01*
X0141273Y0074788D02*
X0140964D01*
X0141288Y0074716D02*
X0140964D01*
X0141300Y0074644D02*
X0140964D01*
X0141309Y0074572D02*
X0140964D01*
X0141315Y0074500D02*
X0140964D01*
X0141010Y0075364D02*
X0138518D01*
X0141316Y0074356D02*
X0140964D01*
X0141312Y0074284D02*
X0140964D01*
X0141305Y0074212D02*
X0140964D01*
X0141295Y0074140D02*
X0140964D01*
X0141281Y0074068D02*
X0140964D01*
X0141264Y0073996D02*
X0140964D01*
X0141243Y0073924D02*
X0140964D01*
X0141219Y0073852D02*
X0140964D01*
X0141191Y0073780D02*
X0140964D01*
X0141159Y0073708D02*
X0140964D01*
X0140587Y0075760D02*
Y0075310D01*
X0140686Y0073132D02*
X0138842D01*
X0138564Y0075310D02*
Y0073510D01*
X0140964D02*
X0138564D01*
X0140964Y0075310D02*
Y0073510D01*
Y0075310D02*
X0138564D01*
X0139003Y0075760D02*
Y0075310D01*
X0140614Y0075760D02*
X0138914D01*
X0140614D02*
X0141014Y0075360D01*
Y0073460D02*
X0140614Y0073060D01*
X0138914D01*
X0138514Y0073460D02*
X0138914Y0073060D01*
Y0075760D02*
X0138514Y0075360D01*
X0141176Y0075076D02*
X0140964D01*
X0141307Y0074591D02*
Y0074228D01*
X0141235Y0074922D02*
Y0073897D01*
X0141163Y0075104D02*
Y0073716D01*
X0141091Y0075241D02*
Y0073579D01*
X0140947Y0075427D02*
Y0075310D01*
X0139003Y0073510D02*
Y0073060D01*
X0140947Y0073510D02*
Y0073393D01*
X0140875Y0073510D02*
Y0073321D01*
X0140803Y0073510D02*
Y0073249D01*
X0140731Y0073510D02*
Y0073177D01*
X0140659Y0073510D02*
Y0073105D01*
X0138564Y0074428D02*
X0138211D01*
X0138931Y0073510D02*
Y0073060D01*
X0138859Y0073510D02*
Y0073115D01*
X0138787Y0073510D02*
Y0073187D01*
X0138715Y0073510D02*
Y0073259D01*
X0140875Y0097939D02*
Y0097750D01*
X0140803Y0098011D02*
Y0097750D01*
X0140731Y0098083D02*
Y0097750D01*
X0140659Y0098155D02*
Y0097750D01*
X0141082Y0096004D02*
X0140964D01*
X0140515Y0095950D02*
Y0095500D01*
X0140443Y0095950D02*
Y0095500D01*
X0140371Y0095950D02*
Y0095500D01*
X0140299Y0095950D02*
Y0095500D01*
X0140227Y0095950D02*
Y0095500D01*
X0140155Y0095950D02*
Y0095500D01*
X0140083Y0095950D02*
Y0095500D01*
X0140011Y0095950D02*
Y0095500D01*
X0139939Y0095950D02*
Y0095500D01*
X0139867Y0095950D02*
Y0095500D01*
X0139795Y0095950D02*
Y0095500D01*
X0139723Y0095950D02*
Y0095500D01*
X0139651Y0095950D02*
Y0095500D01*
X0139579Y0095950D02*
Y0095500D01*
X0139507Y0095950D02*
Y0095500D01*
X0139435Y0095950D02*
Y0095500D01*
X0139363Y0095950D02*
Y0095500D01*
X0139291Y0095950D02*
Y0095500D01*
X0139219Y0095950D02*
Y0095500D01*
X0139147Y0095950D02*
Y0095500D01*
X0141317Y0096868D02*
X0140964D01*
X0138931Y0098200D02*
Y0097750D01*
X0138859Y0098145D02*
Y0097750D01*
X0138787Y0098073D02*
Y0097750D01*
X0138715Y0098001D02*
Y0097750D01*
X0138643Y0097929D02*
Y0097750D01*
X0141103Y0097660D02*
X0140964D01*
X0138499Y0097779D02*
Y0095922D01*
X0138427Y0097664D02*
Y0096037D01*
X0138355Y0097522D02*
Y0096178D01*
X0138283Y0097331D02*
Y0096370D01*
X0140650Y0098164D02*
X0138878D01*
X0140722Y0098092D02*
X0138806D01*
X0140794Y0098020D02*
X0138734D01*
X0140866Y0097948D02*
X0138662D01*
X0140938Y0097876D02*
X0138590D01*
X0138571Y0097857D02*
Y0097750D01*
X0141060Y0097732D02*
X0140964D01*
X0139075Y0095950D02*
Y0095500D01*
X0140587Y0095950D02*
Y0095500D01*
X0138564Y0097588D02*
X0138386D01*
X0138564Y0097516D02*
X0138352D01*
X0138564Y0097444D02*
X0138322D01*
X0138564Y0097372D02*
X0138296D01*
X0138564Y0097300D02*
X0138274D01*
X0138564Y0097228D02*
X0138255D01*
X0138564Y0097156D02*
X0138240D01*
X0138564Y0097084D02*
X0138228D01*
X0138564Y0097012D02*
X0138219D01*
X0138564Y0096940D02*
X0138213D01*
X0138564Y0097660D02*
X0138425D01*
X0138564Y0096796D02*
X0138212D01*
X0138564Y0096724D02*
X0138216D01*
X0138564Y0096652D02*
X0138223D01*
X0138564Y0096580D02*
X0138233D01*
X0138564Y0096508D02*
X0138247D01*
X0138564Y0096436D02*
X0138264D01*
X0138564Y0096364D02*
X0138285D01*
X0138564Y0096292D02*
X0138309D01*
X0138564Y0096220D02*
X0138337D01*
X0141123Y0096076D02*
X0140964D01*
X0138564Y0096004D02*
X0138446D01*
X0141036Y0095932D02*
X0138492D01*
X0140974Y0095860D02*
X0138554D01*
X0140902Y0095788D02*
X0138626D01*
X0140830Y0095716D02*
X0138698D01*
X0140758Y0095644D02*
X0138770D01*
X0138564Y0096148D02*
X0138369D01*
X0138643Y0095950D02*
Y0095771D01*
X0138571Y0095950D02*
Y0095843D01*
X0138564Y0097732D02*
X0138468D01*
X0138564Y0096076D02*
X0138405D01*
X0140515Y0098200D02*
Y0097750D01*
X0140443Y0098200D02*
Y0097750D01*
X0140371Y0098200D02*
Y0097750D01*
X0140299Y0098200D02*
Y0097750D01*
X0140227Y0098200D02*
Y0097750D01*
X0140155Y0098200D02*
Y0097750D01*
X0140083Y0098200D02*
Y0097750D01*
X0140011Y0098200D02*
Y0097750D01*
X0139939Y0098200D02*
Y0097750D01*
X0139867Y0098200D02*
Y0097750D01*
X0139795Y0098200D02*
Y0097750D01*
X0139723Y0098200D02*
Y0097750D01*
X0139651Y0098200D02*
Y0097750D01*
X0139579Y0098200D02*
Y0097750D01*
X0139507Y0098200D02*
Y0097750D01*
X0139435Y0098200D02*
Y0097750D01*
X0139363Y0098200D02*
Y0097750D01*
X0139291Y0098200D02*
Y0097750D01*
X0139219Y0098200D02*
Y0097750D01*
X0139147Y0098200D02*
Y0097750D01*
X0139075Y0098200D02*
Y0097750D01*
X0141142Y0097588D02*
X0140964D01*
X0141019Y0097793D02*
Y0095907D01*
X0141206Y0097444D02*
X0140964D01*
X0141232Y0097372D02*
X0140964D01*
X0141254Y0097300D02*
X0140964D01*
X0141273Y0097228D02*
X0140964D01*
X0141288Y0097156D02*
X0140964D01*
X0141300Y0097084D02*
X0140964D01*
X0141309Y0097012D02*
X0140964D01*
X0141315Y0096940D02*
X0140964D01*
X0141010Y0097804D02*
X0138518D01*
X0141316Y0096796D02*
X0140964D01*
X0141312Y0096724D02*
X0140964D01*
X0141305Y0096652D02*
X0140964D01*
X0141295Y0096580D02*
X0140964D01*
X0141281Y0096508D02*
X0140964D01*
X0141264Y0096436D02*
X0140964D01*
X0141243Y0096364D02*
X0140964D01*
X0141219Y0096292D02*
X0140964D01*
X0141191Y0096220D02*
X0140964D01*
X0141159Y0096148D02*
X0140964D01*
X0140587Y0098200D02*
Y0097750D01*
X0140686Y0095572D02*
X0138842D01*
X0138564Y0097750D02*
Y0095950D01*
X0140964D02*
X0138564D01*
X0140964Y0097750D02*
Y0095950D01*
Y0097750D02*
X0138564D01*
X0139003Y0098200D02*
Y0097750D01*
X0140614Y0098200D02*
X0138914D01*
X0140614D02*
X0141014Y0097800D01*
Y0095900D02*
X0140614Y0095500D01*
X0138914D01*
X0138514Y0095900D02*
X0138914Y0095500D01*
Y0098200D02*
X0138514Y0097800D01*
X0141176Y0097516D02*
X0140964D01*
X0141307Y0097032D02*
Y0096669D01*
X0141235Y0097363D02*
Y0096338D01*
X0141163Y0097544D02*
Y0096156D01*
X0141091Y0097681D02*
Y0096019D01*
X0140947Y0097867D02*
Y0097750D01*
X0139003Y0095950D02*
Y0095500D01*
X0140947Y0095950D02*
Y0095833D01*
X0140875Y0095950D02*
Y0095761D01*
X0140803Y0095950D02*
Y0095689D01*
X0140731Y0095950D02*
Y0095617D01*
X0140659Y0095950D02*
Y0095545D01*
X0138564Y0096868D02*
X0138211D01*
X0138931Y0095950D02*
Y0095500D01*
X0138859Y0095950D02*
Y0095555D01*
X0138787Y0095950D02*
Y0095627D01*
X0138715Y0095950D02*
Y0095699D01*
X0140875Y0071562D02*
Y0071373D01*
X0140803Y0071634D02*
Y0071373D01*
X0140731Y0071706D02*
Y0071373D01*
X0140659Y0071778D02*
Y0071373D01*
X0141082Y0069627D02*
X0140964D01*
X0140515Y0069573D02*
Y0069123D01*
X0140443Y0069573D02*
Y0069123D01*
X0140371Y0069573D02*
Y0069123D01*
X0140299Y0069573D02*
Y0069123D01*
X0140227Y0069573D02*
Y0069123D01*
X0140155Y0069573D02*
Y0069123D01*
X0140083Y0069573D02*
Y0069123D01*
X0140011Y0069573D02*
Y0069123D01*
X0139939Y0069573D02*
Y0069123D01*
X0139867Y0069573D02*
Y0069123D01*
X0139795Y0069573D02*
Y0069123D01*
X0139723Y0069573D02*
Y0069123D01*
X0139651Y0069573D02*
Y0069123D01*
X0139579Y0069573D02*
Y0069123D01*
X0139507Y0069573D02*
Y0069123D01*
X0139435Y0069573D02*
Y0069123D01*
X0139363Y0069573D02*
Y0069123D01*
X0139291Y0069573D02*
Y0069123D01*
X0139219Y0069573D02*
Y0069123D01*
X0139147Y0069573D02*
Y0069123D01*
X0141317Y0070491D02*
X0140964D01*
X0138931Y0071823D02*
Y0071373D01*
X0138859Y0071768D02*
Y0071373D01*
X0138787Y0071696D02*
Y0071373D01*
X0138715Y0071624D02*
Y0071373D01*
X0138643Y0071552D02*
Y0071373D01*
X0141103Y0071283D02*
X0140964D01*
X0138499Y0071401D02*
Y0069544D01*
X0138427Y0071286D02*
Y0069659D01*
X0138355Y0071145D02*
Y0069801D01*
X0138283Y0070953D02*
Y0069992D01*
X0140650Y0071787D02*
X0138878D01*
X0140722Y0071715D02*
X0138806D01*
X0140794Y0071643D02*
X0138734D01*
X0140866Y0071571D02*
X0138662D01*
X0140938Y0071499D02*
X0138590D01*
X0138571Y0071480D02*
Y0071373D01*
X0141060Y0071355D02*
X0140964D01*
X0139075Y0069573D02*
Y0069123D01*
X0140587Y0069573D02*
Y0069123D01*
X0138564Y0071211D02*
X0138386D01*
X0138564Y0071139D02*
X0138352D01*
X0138564Y0071067D02*
X0138322D01*
X0138564Y0070995D02*
X0138296D01*
X0138564Y0070923D02*
X0138274D01*
X0138564Y0070851D02*
X0138255D01*
X0138564Y0070779D02*
X0138240D01*
X0138564Y0070707D02*
X0138228D01*
X0138564Y0070635D02*
X0138219D01*
X0138564Y0070563D02*
X0138213D01*
X0138564Y0071283D02*
X0138425D01*
X0138564Y0070419D02*
X0138212D01*
X0138564Y0070347D02*
X0138216D01*
X0138564Y0070275D02*
X0138223D01*
X0138564Y0070203D02*
X0138233D01*
X0138564Y0070131D02*
X0138247D01*
X0138564Y0070059D02*
X0138264D01*
X0138564Y0069987D02*
X0138285D01*
X0138564Y0069915D02*
X0138309D01*
X0138564Y0069843D02*
X0138337D01*
X0141123Y0069699D02*
X0140964D01*
X0138564Y0069627D02*
X0138446D01*
X0141036Y0069555D02*
X0138492D01*
X0140974Y0069483D02*
X0138554D01*
X0140902Y0069411D02*
X0138626D01*
X0140830Y0069339D02*
X0138698D01*
X0140758Y0069267D02*
X0138770D01*
X0138564Y0069771D02*
X0138369D01*
X0138643Y0069573D02*
Y0069394D01*
X0138571Y0069573D02*
Y0069466D01*
X0138564Y0071355D02*
X0138468D01*
X0138564Y0069699D02*
X0138405D01*
X0140515Y0071823D02*
Y0071373D01*
X0140443Y0071823D02*
Y0071373D01*
X0140371Y0071823D02*
Y0071373D01*
X0140299Y0071823D02*
Y0071373D01*
X0140227Y0071823D02*
Y0071373D01*
X0140155Y0071823D02*
Y0071373D01*
X0140083Y0071823D02*
Y0071373D01*
X0140011Y0071823D02*
Y0071373D01*
X0139939Y0071823D02*
Y0071373D01*
X0139867Y0071823D02*
Y0071373D01*
X0139795Y0071823D02*
Y0071373D01*
X0139723Y0071823D02*
Y0071373D01*
X0139651Y0071823D02*
Y0071373D01*
X0139579Y0071823D02*
Y0071373D01*
X0139507Y0071823D02*
Y0071373D01*
X0139435Y0071823D02*
Y0071373D01*
X0139363Y0071823D02*
Y0071373D01*
X0139291Y0071823D02*
Y0071373D01*
X0139219Y0071823D02*
Y0071373D01*
X0139147Y0071823D02*
Y0071373D01*
X0139075Y0071823D02*
Y0071373D01*
X0141142Y0071211D02*
X0140964D01*
X0141019Y0071416D02*
Y0069530D01*
X0141206Y0071067D02*
X0140964D01*
X0141232Y0070995D02*
X0140964D01*
X0141254Y0070923D02*
X0140964D01*
X0141273Y0070851D02*
X0140964D01*
X0141288Y0070779D02*
X0140964D01*
X0141300Y0070707D02*
X0140964D01*
X0141309Y0070635D02*
X0140964D01*
X0141315Y0070563D02*
X0140964D01*
X0141010Y0071427D02*
X0138518D01*
X0141316Y0070419D02*
X0140964D01*
X0141312Y0070347D02*
X0140964D01*
X0141305Y0070275D02*
X0140964D01*
X0141295Y0070203D02*
X0140964D01*
X0141281Y0070131D02*
X0140964D01*
X0141264Y0070059D02*
X0140964D01*
X0141243Y0069987D02*
X0140964D01*
X0141219Y0069915D02*
X0140964D01*
X0141191Y0069843D02*
X0140964D01*
X0141159Y0069771D02*
X0140964D01*
X0140587Y0071823D02*
Y0071373D01*
X0140686Y0069195D02*
X0138842D01*
X0138564Y0071373D02*
Y0069573D01*
X0140964D02*
X0138564D01*
X0140964Y0071373D02*
Y0069573D01*
Y0071373D02*
X0138564D01*
X0139003Y0071823D02*
Y0071373D01*
X0140614Y0071823D02*
X0138914D01*
X0140614D02*
X0141014Y0071423D01*
Y0069523D02*
X0140614Y0069123D01*
X0138914D01*
X0138514Y0069523D02*
X0138914Y0069123D01*
Y0071823D02*
X0138514Y0071423D01*
X0141176Y0071139D02*
X0140964D01*
X0141307Y0070654D02*
Y0070291D01*
X0141235Y0070985D02*
Y0069960D01*
X0141163Y0071167D02*
Y0069779D01*
X0141091Y0071304D02*
Y0069642D01*
X0140947Y0071490D02*
Y0071373D01*
X0139003Y0069573D02*
Y0069123D01*
X0140947Y0069573D02*
Y0069456D01*
X0140875Y0069573D02*
Y0069384D01*
X0140803Y0069573D02*
Y0069312D01*
X0140731Y0069573D02*
Y0069240D01*
X0140659Y0069573D02*
Y0069168D01*
X0138564Y0070491D02*
X0138211D01*
X0138931Y0069573D02*
Y0069123D01*
X0138859Y0069573D02*
Y0069178D01*
X0138787Y0069573D02*
Y0069250D01*
X0138715Y0069573D02*
Y0069322D01*
X0127095Y0075499D02*
Y0075310D01*
X0127023Y0075571D02*
Y0075310D01*
X0126951Y0075643D02*
Y0075310D01*
X0126879Y0075715D02*
Y0075310D01*
X0127302Y0073564D02*
X0127184D01*
X0126735Y0073510D02*
Y0073060D01*
X0126663Y0073510D02*
Y0073060D01*
X0126591Y0073510D02*
Y0073060D01*
X0126519Y0073510D02*
Y0073060D01*
X0126447Y0073510D02*
Y0073060D01*
X0126375Y0073510D02*
Y0073060D01*
X0126303Y0073510D02*
Y0073060D01*
X0126231Y0073510D02*
Y0073060D01*
X0126159Y0073510D02*
Y0073060D01*
X0126087Y0073510D02*
Y0073060D01*
X0126015Y0073510D02*
Y0073060D01*
X0125943Y0073510D02*
Y0073060D01*
X0125871Y0073510D02*
Y0073060D01*
X0125799Y0073510D02*
Y0073060D01*
X0125727Y0073510D02*
Y0073060D01*
X0125655Y0073510D02*
Y0073060D01*
X0125583Y0073510D02*
Y0073060D01*
X0125511Y0073510D02*
Y0073060D01*
X0125439Y0073510D02*
Y0073060D01*
X0125367Y0073510D02*
Y0073060D01*
X0127537Y0074428D02*
X0127184D01*
X0125151Y0075760D02*
Y0075310D01*
X0125079Y0075705D02*
Y0075310D01*
X0125007Y0075633D02*
Y0075310D01*
X0124935Y0075561D02*
Y0075310D01*
X0124863Y0075489D02*
Y0075310D01*
X0127323Y0075220D02*
X0127184D01*
X0124719Y0075338D02*
Y0073481D01*
X0124647Y0075223D02*
Y0073596D01*
X0124575Y0075082D02*
Y0073738D01*
X0124503Y0074890D02*
Y0073929D01*
X0126870Y0075724D02*
X0125098D01*
X0126942Y0075652D02*
X0125026D01*
X0127014Y0075580D02*
X0124954D01*
X0127086Y0075508D02*
X0124882D01*
X0127158Y0075436D02*
X0124810D01*
X0124791Y0075417D02*
Y0075310D01*
X0127280Y0075292D02*
X0127184D01*
X0125295Y0073510D02*
Y0073060D01*
X0126807Y0073510D02*
Y0073060D01*
X0124784Y0075148D02*
X0124606D01*
X0124784Y0075076D02*
X0124572D01*
X0124784Y0075004D02*
X0124542D01*
X0124784Y0074932D02*
X0124516D01*
X0124784Y0074860D02*
X0124494D01*
X0124784Y0074788D02*
X0124475D01*
X0124784Y0074716D02*
X0124460D01*
X0124784Y0074644D02*
X0124448D01*
X0124784Y0074572D02*
X0124439D01*
X0124784Y0074500D02*
X0124433D01*
X0124784Y0075220D02*
X0124645D01*
X0124784Y0074356D02*
X0124432D01*
X0124784Y0074284D02*
X0124436D01*
X0124784Y0074212D02*
X0124443D01*
X0124784Y0074140D02*
X0124453D01*
X0124784Y0074068D02*
X0124467D01*
X0124784Y0073996D02*
X0124484D01*
X0124784Y0073924D02*
X0124505D01*
X0124784Y0073852D02*
X0124529D01*
X0124784Y0073780D02*
X0124557D01*
X0127343Y0073636D02*
X0127184D01*
X0124784Y0073564D02*
X0124666D01*
X0127256Y0073492D02*
X0124712D01*
X0127194Y0073420D02*
X0124774D01*
X0127122Y0073348D02*
X0124846D01*
X0127050Y0073276D02*
X0124918D01*
X0126978Y0073204D02*
X0124990D01*
X0124784Y0073708D02*
X0124589D01*
X0124863Y0073510D02*
Y0073331D01*
X0124791Y0073510D02*
Y0073403D01*
X0124784Y0075292D02*
X0124688D01*
X0124784Y0073636D02*
X0124625D01*
X0126735Y0075760D02*
Y0075310D01*
X0126663Y0075760D02*
Y0075310D01*
X0126591Y0075760D02*
Y0075310D01*
X0126519Y0075760D02*
Y0075310D01*
X0126447Y0075760D02*
Y0075310D01*
X0126375Y0075760D02*
Y0075310D01*
X0126303Y0075760D02*
Y0075310D01*
X0126231Y0075760D02*
Y0075310D01*
X0126159Y0075760D02*
Y0075310D01*
X0126087Y0075760D02*
Y0075310D01*
X0126015Y0075760D02*
Y0075310D01*
X0125943Y0075760D02*
Y0075310D01*
X0125871Y0075760D02*
Y0075310D01*
X0125799Y0075760D02*
Y0075310D01*
X0125727Y0075760D02*
Y0075310D01*
X0125655Y0075760D02*
Y0075310D01*
X0125583Y0075760D02*
Y0075310D01*
X0125511Y0075760D02*
Y0075310D01*
X0125439Y0075760D02*
Y0075310D01*
X0125367Y0075760D02*
Y0075310D01*
X0125295Y0075760D02*
Y0075310D01*
X0127362Y0075148D02*
X0127184D01*
X0127239Y0075353D02*
Y0073467D01*
X0127426Y0075004D02*
X0127184D01*
X0127452Y0074932D02*
X0127184D01*
X0127474Y0074860D02*
X0127184D01*
X0127493Y0074788D02*
X0127184D01*
X0127508Y0074716D02*
X0127184D01*
X0127520Y0074644D02*
X0127184D01*
X0127529Y0074572D02*
X0127184D01*
X0127535Y0074500D02*
X0127184D01*
X0127230Y0075364D02*
X0124738D01*
X0127536Y0074356D02*
X0127184D01*
X0127532Y0074284D02*
X0127184D01*
X0127525Y0074212D02*
X0127184D01*
X0127515Y0074140D02*
X0127184D01*
X0127501Y0074068D02*
X0127184D01*
X0127484Y0073996D02*
X0127184D01*
X0127463Y0073924D02*
X0127184D01*
X0127439Y0073852D02*
X0127184D01*
X0127411Y0073780D02*
X0127184D01*
X0127379Y0073708D02*
X0127184D01*
X0126807Y0075760D02*
Y0075310D01*
X0126906Y0073132D02*
X0125062D01*
X0124784Y0075310D02*
Y0073510D01*
X0127184D02*
X0124784D01*
X0127184Y0075310D02*
Y0073510D01*
Y0075310D02*
X0124784D01*
X0125223Y0075760D02*
Y0075310D01*
X0126834Y0075760D02*
X0125134D01*
X0126834D02*
X0127234Y0075360D01*
Y0073460D02*
X0126834Y0073060D01*
X0125134D01*
X0124734Y0073460D02*
X0125134Y0073060D01*
Y0075760D02*
X0124734Y0075360D01*
X0127396Y0075076D02*
X0127184D01*
X0127527Y0074591D02*
Y0074228D01*
X0127455Y0074922D02*
Y0073897D01*
X0127383Y0075104D02*
Y0073716D01*
X0127311Y0075241D02*
Y0073579D01*
X0127167Y0075427D02*
Y0075310D01*
X0125223Y0073510D02*
Y0073060D01*
X0127167Y0073510D02*
Y0073393D01*
X0127095Y0073510D02*
Y0073321D01*
X0127023Y0073510D02*
Y0073249D01*
X0126951Y0073510D02*
Y0073177D01*
X0126879Y0073510D02*
Y0073105D01*
X0124784Y0074428D02*
X0124431D01*
X0125151Y0073510D02*
Y0073060D01*
X0125079Y0073510D02*
Y0073115D01*
X0125007Y0073510D02*
Y0073187D01*
X0124935Y0073510D02*
Y0073259D01*
X0127095Y0097939D02*
Y0097750D01*
X0127023Y0098011D02*
Y0097750D01*
X0126951Y0098083D02*
Y0097750D01*
X0126879Y0098155D02*
Y0097750D01*
X0127302Y0096004D02*
X0127184D01*
X0126735Y0095950D02*
Y0095500D01*
X0126663Y0095950D02*
Y0095500D01*
X0126591Y0095950D02*
Y0095500D01*
X0126519Y0095950D02*
Y0095500D01*
X0126447Y0095950D02*
Y0095500D01*
X0126375Y0095950D02*
Y0095500D01*
X0126303Y0095950D02*
Y0095500D01*
X0126231Y0095950D02*
Y0095500D01*
X0126159Y0095950D02*
Y0095500D01*
X0126087Y0095950D02*
Y0095500D01*
X0126015Y0095950D02*
Y0095500D01*
X0125943Y0095950D02*
Y0095500D01*
X0125871Y0095950D02*
Y0095500D01*
X0125799Y0095950D02*
Y0095500D01*
X0125727Y0095950D02*
Y0095500D01*
X0125655Y0095950D02*
Y0095500D01*
X0125583Y0095950D02*
Y0095500D01*
X0125511Y0095950D02*
Y0095500D01*
X0125439Y0095950D02*
Y0095500D01*
X0125367Y0095950D02*
Y0095500D01*
X0127537Y0096868D02*
X0127184D01*
X0125151Y0098200D02*
Y0097750D01*
X0125079Y0098145D02*
Y0097750D01*
X0125007Y0098073D02*
Y0097750D01*
X0124935Y0098001D02*
Y0097750D01*
X0124863Y0097929D02*
Y0097750D01*
X0127323Y0097660D02*
X0127184D01*
X0124719Y0097779D02*
Y0095922D01*
X0124647Y0097664D02*
Y0096037D01*
X0124575Y0097522D02*
Y0096178D01*
X0124503Y0097331D02*
Y0096370D01*
X0126870Y0098164D02*
X0125098D01*
X0126942Y0098092D02*
X0125026D01*
X0127014Y0098020D02*
X0124954D01*
X0127086Y0097948D02*
X0124882D01*
X0127158Y0097876D02*
X0124810D01*
X0124791Y0097857D02*
Y0097750D01*
X0127280Y0097732D02*
X0127184D01*
X0125295Y0095950D02*
Y0095500D01*
X0126807Y0095950D02*
Y0095500D01*
X0124784Y0097588D02*
X0124606D01*
X0124784Y0097516D02*
X0124572D01*
X0124784Y0097444D02*
X0124542D01*
X0124784Y0097372D02*
X0124516D01*
X0124784Y0097300D02*
X0124494D01*
X0124784Y0097228D02*
X0124475D01*
X0124784Y0097156D02*
X0124460D01*
X0124784Y0097084D02*
X0124448D01*
X0124784Y0097012D02*
X0124439D01*
X0124784Y0096940D02*
X0124433D01*
X0124784Y0097660D02*
X0124645D01*
X0124784Y0096796D02*
X0124432D01*
X0124784Y0096724D02*
X0124436D01*
X0124784Y0096652D02*
X0124443D01*
X0124784Y0096580D02*
X0124453D01*
X0124784Y0096508D02*
X0124467D01*
X0124784Y0096436D02*
X0124484D01*
X0124784Y0096364D02*
X0124505D01*
X0124784Y0096292D02*
X0124529D01*
X0124784Y0096220D02*
X0124557D01*
X0127343Y0096076D02*
X0127184D01*
X0124784Y0096004D02*
X0124666D01*
X0127256Y0095932D02*
X0124712D01*
X0127194Y0095860D02*
X0124774D01*
X0127122Y0095788D02*
X0124846D01*
X0127050Y0095716D02*
X0124918D01*
X0126978Y0095644D02*
X0124990D01*
X0124784Y0096148D02*
X0124589D01*
X0124863Y0095950D02*
Y0095771D01*
X0124791Y0095950D02*
Y0095843D01*
X0124784Y0097732D02*
X0124688D01*
X0124784Y0096076D02*
X0124625D01*
X0126735Y0098200D02*
Y0097750D01*
X0126663Y0098200D02*
Y0097750D01*
X0126591Y0098200D02*
Y0097750D01*
X0126519Y0098200D02*
Y0097750D01*
X0126447Y0098200D02*
Y0097750D01*
X0126375Y0098200D02*
Y0097750D01*
X0126303Y0098200D02*
Y0097750D01*
X0126231Y0098200D02*
Y0097750D01*
X0126159Y0098200D02*
Y0097750D01*
X0126087Y0098200D02*
Y0097750D01*
X0126015Y0098200D02*
Y0097750D01*
X0125943Y0098200D02*
Y0097750D01*
X0125871Y0098200D02*
Y0097750D01*
X0125799Y0098200D02*
Y0097750D01*
X0125727Y0098200D02*
Y0097750D01*
X0125655Y0098200D02*
Y0097750D01*
X0125583Y0098200D02*
Y0097750D01*
X0125511Y0098200D02*
Y0097750D01*
X0125439Y0098200D02*
Y0097750D01*
X0125367Y0098200D02*
Y0097750D01*
X0125295Y0098200D02*
Y0097750D01*
X0127362Y0097588D02*
X0127184D01*
X0127239Y0097793D02*
Y0095907D01*
X0127426Y0097444D02*
X0127184D01*
X0127452Y0097372D02*
X0127184D01*
X0127474Y0097300D02*
X0127184D01*
X0127493Y0097228D02*
X0127184D01*
X0127508Y0097156D02*
X0127184D01*
X0127520Y0097084D02*
X0127184D01*
X0127529Y0097012D02*
X0127184D01*
X0127535Y0096940D02*
X0127184D01*
X0127230Y0097804D02*
X0124738D01*
X0127536Y0096796D02*
X0127184D01*
X0127532Y0096724D02*
X0127184D01*
X0127525Y0096652D02*
X0127184D01*
X0127515Y0096580D02*
X0127184D01*
X0127501Y0096508D02*
X0127184D01*
X0127484Y0096436D02*
X0127184D01*
X0127463Y0096364D02*
X0127184D01*
X0127439Y0096292D02*
X0127184D01*
X0127411Y0096220D02*
X0127184D01*
X0127379Y0096148D02*
X0127184D01*
X0126807Y0098200D02*
Y0097750D01*
X0126906Y0095572D02*
X0125062D01*
X0124784Y0097750D02*
Y0095950D01*
X0127184D02*
X0124784D01*
X0127184Y0097750D02*
Y0095950D01*
Y0097750D02*
X0124784D01*
X0125223Y0098200D02*
Y0097750D01*
X0126834Y0098200D02*
X0125134D01*
X0126834D02*
X0127234Y0097800D01*
Y0095900D02*
X0126834Y0095500D01*
X0125134D01*
X0124734Y0095900D02*
X0125134Y0095500D01*
Y0098200D02*
X0124734Y0097800D01*
X0127396Y0097516D02*
X0127184D01*
X0127527Y0097032D02*
Y0096669D01*
X0127455Y0097363D02*
Y0096338D01*
X0127383Y0097544D02*
Y0096156D01*
X0127311Y0097681D02*
Y0096019D01*
X0127167Y0097867D02*
Y0097750D01*
X0125223Y0095950D02*
Y0095500D01*
X0127167Y0095950D02*
Y0095833D01*
X0127095Y0095950D02*
Y0095761D01*
X0127023Y0095950D02*
Y0095689D01*
X0126951Y0095950D02*
Y0095617D01*
X0126879Y0095950D02*
Y0095545D01*
X0124784Y0096868D02*
X0124431D01*
X0125151Y0095950D02*
Y0095500D01*
X0125079Y0095950D02*
Y0095555D01*
X0125007Y0095950D02*
Y0095627D01*
X0124935Y0095950D02*
Y0095699D01*
X0028670Y0097939D02*
Y0097750D01*
X0028598Y0098011D02*
Y0097750D01*
X0028526Y0098083D02*
Y0097750D01*
X0028454Y0098155D02*
Y0097750D01*
X0028877Y0096004D02*
X0028759D01*
X0028310Y0095950D02*
Y0095500D01*
X0028238Y0095950D02*
Y0095500D01*
X0028166Y0095950D02*
Y0095500D01*
X0028094Y0095950D02*
Y0095500D01*
X0028022Y0095950D02*
Y0095500D01*
X0027950Y0095950D02*
Y0095500D01*
X0027878Y0095950D02*
Y0095500D01*
X0027806Y0095950D02*
Y0095500D01*
X0027734Y0095950D02*
Y0095500D01*
X0027662Y0095950D02*
Y0095500D01*
X0027590Y0095950D02*
Y0095500D01*
X0027518Y0095950D02*
Y0095500D01*
X0027446Y0095950D02*
Y0095500D01*
X0027374Y0095950D02*
Y0095500D01*
X0027302Y0095950D02*
Y0095500D01*
X0027230Y0095950D02*
Y0095500D01*
X0027158Y0095950D02*
Y0095500D01*
X0027086Y0095950D02*
Y0095500D01*
X0027014Y0095950D02*
Y0095500D01*
X0026942Y0095950D02*
Y0095500D01*
X0029112Y0096868D02*
X0028759D01*
X0026726Y0098200D02*
Y0097750D01*
X0026654Y0098145D02*
Y0097750D01*
X0026582Y0098073D02*
Y0097750D01*
X0026510Y0098001D02*
Y0097750D01*
X0026438Y0097929D02*
Y0097750D01*
X0028898Y0097660D02*
X0028759D01*
X0026294Y0097779D02*
Y0095922D01*
X0026222Y0097664D02*
Y0096037D01*
X0026150Y0097522D02*
Y0096178D01*
X0026078Y0097331D02*
Y0096370D01*
X0028445Y0098164D02*
X0026673D01*
X0028517Y0098092D02*
X0026601D01*
X0028589Y0098020D02*
X0026529D01*
X0028661Y0097948D02*
X0026457D01*
X0028733Y0097876D02*
X0026385D01*
X0026366Y0097857D02*
Y0097750D01*
X0028855Y0097732D02*
X0028759D01*
X0026870Y0095950D02*
Y0095500D01*
X0028382Y0095950D02*
Y0095500D01*
X0026359Y0097588D02*
X0026181D01*
X0026359Y0097516D02*
X0026147D01*
X0026359Y0097444D02*
X0026117D01*
X0026359Y0097372D02*
X0026091D01*
X0026359Y0097300D02*
X0026069D01*
X0026359Y0097228D02*
X0026050D01*
X0026359Y0097156D02*
X0026035D01*
X0026359Y0097084D02*
X0026023D01*
X0026359Y0097012D02*
X0026014D01*
X0026359Y0096940D02*
X0026008D01*
X0026359Y0097660D02*
X0026220D01*
X0026359Y0096796D02*
X0026007D01*
X0026359Y0096724D02*
X0026011D01*
X0026359Y0096652D02*
X0026018D01*
X0026359Y0096580D02*
X0026028D01*
X0026359Y0096508D02*
X0026042D01*
X0026359Y0096436D02*
X0026059D01*
X0026359Y0096364D02*
X0026080D01*
X0026359Y0096292D02*
X0026104D01*
X0026359Y0096220D02*
X0026132D01*
X0028918Y0096076D02*
X0028759D01*
X0026359Y0096004D02*
X0026241D01*
X0028831Y0095932D02*
X0026287D01*
X0028769Y0095860D02*
X0026349D01*
X0028697Y0095788D02*
X0026421D01*
X0028625Y0095716D02*
X0026493D01*
X0028553Y0095644D02*
X0026565D01*
X0026359Y0096148D02*
X0026164D01*
X0026438Y0095950D02*
Y0095771D01*
X0026366Y0095950D02*
Y0095843D01*
X0026359Y0097732D02*
X0026263D01*
X0026359Y0096076D02*
X0026200D01*
X0028310Y0098200D02*
Y0097750D01*
X0028238Y0098200D02*
Y0097750D01*
X0028166Y0098200D02*
Y0097750D01*
X0028094Y0098200D02*
Y0097750D01*
X0028022Y0098200D02*
Y0097750D01*
X0027950Y0098200D02*
Y0097750D01*
X0027878Y0098200D02*
Y0097750D01*
X0027806Y0098200D02*
Y0097750D01*
X0027734Y0098200D02*
Y0097750D01*
X0027662Y0098200D02*
Y0097750D01*
X0027590Y0098200D02*
Y0097750D01*
X0027518Y0098200D02*
Y0097750D01*
X0027446Y0098200D02*
Y0097750D01*
X0027374Y0098200D02*
Y0097750D01*
X0027302Y0098200D02*
Y0097750D01*
X0027230Y0098200D02*
Y0097750D01*
X0027158Y0098200D02*
Y0097750D01*
X0027086Y0098200D02*
Y0097750D01*
X0027014Y0098200D02*
Y0097750D01*
X0026942Y0098200D02*
Y0097750D01*
X0026870Y0098200D02*
Y0097750D01*
X0028937Y0097588D02*
X0028759D01*
X0028814Y0097793D02*
Y0095907D01*
X0029001Y0097444D02*
X0028759D01*
X0029027Y0097372D02*
X0028759D01*
X0029049Y0097300D02*
X0028759D01*
X0029068Y0097228D02*
X0028759D01*
X0029083Y0097156D02*
X0028759D01*
X0029095Y0097084D02*
X0028759D01*
X0029104Y0097012D02*
X0028759D01*
X0029110Y0096940D02*
X0028759D01*
X0028805Y0097804D02*
X0026313D01*
X0029111Y0096796D02*
X0028759D01*
X0029107Y0096724D02*
X0028759D01*
X0029100Y0096652D02*
X0028759D01*
X0029090Y0096580D02*
X0028759D01*
X0029076Y0096508D02*
X0028759D01*
X0029059Y0096436D02*
X0028759D01*
X0029038Y0096364D02*
X0028759D01*
X0029014Y0096292D02*
X0028759D01*
X0028986Y0096220D02*
X0028759D01*
X0028954Y0096148D02*
X0028759D01*
X0028382Y0098200D02*
Y0097750D01*
X0028481Y0095572D02*
X0026637D01*
X0028759Y0097750D02*
Y0095950D01*
Y0097750D02*
X0026359D01*
Y0095950D01*
X0028759D02*
X0026359D01*
X0026798Y0098200D02*
Y0097750D01*
X0028409Y0095500D02*
X0026709D01*
X0026309Y0095900D02*
X0026709Y0095500D01*
Y0098200D02*
X0026309Y0097800D01*
X0028409Y0098200D02*
X0026709D01*
X0028409D02*
X0028809Y0097800D01*
Y0095900D02*
X0028409Y0095500D01*
X0028971Y0097516D02*
X0028759D01*
X0029102Y0097032D02*
Y0096669D01*
X0029030Y0097363D02*
Y0096338D01*
X0028958Y0097544D02*
Y0096156D01*
X0028886Y0097681D02*
Y0096019D01*
X0028742Y0097867D02*
Y0097750D01*
X0026798Y0095950D02*
Y0095500D01*
X0028742Y0095950D02*
Y0095833D01*
X0028670Y0095950D02*
Y0095761D01*
X0028598Y0095950D02*
Y0095689D01*
X0028526Y0095950D02*
Y0095617D01*
X0028454Y0095950D02*
Y0095545D01*
X0026359Y0096868D02*
X0026006D01*
X0026726Y0095950D02*
Y0095500D01*
X0026654Y0095950D02*
Y0095555D01*
X0026582Y0095950D02*
Y0095627D01*
X0026510Y0095950D02*
Y0095699D01*
G01X0026006Y0086614D02*
G03X0026309Y0085664I0001640J0000000D01*
Y0087564D02*
G03X0026006Y0086614I0001337J0000950D01*
G01X0029112D02*
G03X0028809Y0087564I0001641J0000000D01*
Y0085664D02*
G03X0029112Y0086614I0001338J0000950D01*
G01X0001968Y0085061D02*
G03X0002918Y0085364I0000000J0001641D01*
G01X0001018D02*
G03X0001968Y0085061I0000950J0001338D01*
Y0088167D02*
G03X0001018Y0087864I0000000J0001640D01*
G01X0002918D02*
G03X0001968Y0088167I0000950J0001337D01*
Y0095297D02*
G03X0002918Y0095600I0000000J0001641D01*
G01X0001018D02*
G03X0001968Y0095297I0000950J0001338D01*
Y0098403D02*
G03X0001018Y0098100I0000000J0001640D01*
G01X0002918D02*
G03X0001968Y0098403I0000950J0001337D01*
G01X0003937Y0021676D02*
G03X0004887Y0021979I0000000J0001640D01*
G01X0002987D02*
G03X0003937Y0021676I0000950J0001337D01*
Y0024782D02*
G03X0002987Y0024479I0000000J0001641D01*
G01X0004887D02*
G03X0003937Y0024782I0000950J0001338D01*
G01X0139764Y0021676D02*
G03X0140714Y0021979I0000000J0001640D01*
G01X0138814D02*
G03X0139764Y0021676I0000950J0001337D01*
Y0024782D02*
G03X0138814Y0024479I0000000J0001641D01*
G01X0140714D02*
G03X0139764Y0024782I0000950J0001338D01*
G01X0061024Y0031518D02*
G03X0061974Y0031821I0000000J0001640D01*
G01X0060074D02*
G03X0061024Y0031518I0000950J0001337D01*
Y0034624D02*
G03X0060074Y0034321I0000000J0001641D01*
G01X0061974D02*
G03X0061024Y0034624I0000950J0001338D01*
G01X0096457Y0031518D02*
G03X0097407Y0031821I0000000J0001640D01*
G01X0095507D02*
G03X0096457Y0031518I0000950J0001337D01*
Y0034624D02*
G03X0095507Y0034321I0000000J0001641D01*
G01X0097407D02*
G03X0096457Y0034624I0000950J0001338D01*
G01X0003937Y0068920D02*
G03X0004887Y0069223I0000000J0001640D01*
G01X0002987D02*
G03X0003937Y0068920I0000950J0001337D01*
Y0072026D02*
G03X0002987Y0071723I0000000J0001641D01*
G01X0004887D02*
G03X0003937Y0072026I0000950J0001338D01*
G01X0035018Y0096850D02*
G03X0034715Y0097800I0001641J0000000D01*
Y0095900D02*
G03X0035018Y0096850I0001338J0000950D01*
G01X0031912D02*
G03X0032215Y0095900I0001640J0000000D01*
Y0097800D02*
G03X0031912Y0096850I0001337J0000950D01*
G01X0035018Y0074410D02*
G03X0034715Y0075360I0001641J0000000D01*
Y0073460D02*
G03X0035018Y0074410I0001338J0000950D01*
G01X0031912D02*
G03X0032215Y0073460I0001640J0000000D01*
Y0075360D02*
G03X0031912Y0074410I0001337J0000950D01*
G01X0141317D02*
G03X0141014Y0075360I0001641J0000000D01*
Y0073460D02*
G03X0141317Y0074410I0001338J0000950D01*
G01X0138211D02*
G03X0138514Y0073460I0001640J0000000D01*
Y0075360D02*
G03X0138211Y0074410I0001337J0000950D01*
G01X0141317Y0096850D02*
G03X0141014Y0097800I0001641J0000000D01*
Y0095900D02*
G03X0141317Y0096850I0001338J0000950D01*
G01X0138211D02*
G03X0138514Y0095900I0001640J0000000D01*
Y0097800D02*
G03X0138211Y0096850I0001337J0000950D01*
G01X0141317Y0070473D02*
G03X0141014Y0071423I0001641J0000000D01*
Y0069523D02*
G03X0141317Y0070473I0001338J0000950D01*
G01X0138211D02*
G03X0138514Y0069523I0001640J0000000D01*
Y0071423D02*
G03X0138211Y0070473I0001337J0000950D01*
G01X0127537Y0074410D02*
G03X0127234Y0075360I0001641J0000000D01*
Y0073460D02*
G03X0127537Y0074410I0001338J0000950D01*
G01X0124431D02*
G03X0124734Y0073460I0001640J0000000D01*
Y0075360D02*
G03X0124431Y0074410I0001337J0000950D01*
G01X0127537Y0096850D02*
G03X0127234Y0097800I0001641J0000000D01*
Y0095900D02*
G03X0127537Y0096850I0001338J0000950D01*
G01X0124431D02*
G03X0124734Y0095900I0001640J0000000D01*
Y0097800D02*
G03X0124431Y0096850I0001337J0000950D01*
G01X0026006D02*
G03X0026309Y0095900I0001640J0000000D01*
Y0097800D02*
G03X0026006Y0096850I0001337J0000950D01*
G01X0029112D02*
G03X0028809Y0097800I0001641J0000000D01*
Y0095900D02*
G03X0029112Y0096850I0001338J0000950D01*
G54D131*
X0100720Y0041660D03*
X0101034Y0042368D03*
X0100680Y0043037D03*
Y0054640D03*
X0100995Y0055348D03*
X0100641Y0056017D03*
X0099461D03*
X0099107Y0055309D03*
X0099461Y0054640D03*
X0099500Y0042998D03*
X0099146Y0042290D03*
X0099500Y0041621D03*
X0127779Y0055978D03*
X0127464Y0055270D03*
X0127818Y0054601D03*
Y0042998D03*
X0127503Y0042290D03*
X0127857Y0041621D03*
X0129037D03*
X0129391Y0042329D03*
X0129037Y0042998D03*
X0128998Y0054640D03*
X0129352Y0055348D03*
X0128998Y0056017D03*
X0070699Y0022468D03*
X0071014Y0023176D03*
X0070660Y0023844D03*
Y0035448D03*
X0070975Y0036156D03*
X0070621Y0036824D03*
X0069441D03*
X0069087Y0036116D03*
X0069441Y0035448D03*
X0069480Y0023805D03*
X0069126Y0023097D03*
X0069480Y0022428D03*
G54D132*
X0055369Y0007915D03*
X0054569D03*
X0083374Y0007972D03*
X0082574D03*
X0073464Y0016622D03*
X0072464D03*
X0074464D03*
X0063228D03*
X0062228D03*
X0064228D03*
X0052992D03*
X0051992D03*
X0053992D03*
X0042756D03*
X0041756D03*
X0043756D03*
X0110834Y0030118D03*
X0098974D03*
X0104879D03*
X0128501D03*
X0116690D03*
X0122596D03*
G54D133*
X0109834D03*
X0097974D03*
X0103879D03*
X0127501D03*
X0115690D03*
X0121596D03*
G54D134*
X0052860Y0070386D03*
X0049740D03*
X0051300D03*
X0081118D03*
X0078000D03*
X0079559D03*
X0076441D03*
X0074882D03*
G54D135*
X0018500Y0076946D03*
Y0073826D03*
X0007550Y0076946D03*
Y0073826D03*
G54D136*
X0059008Y0005513D03*
Y0007873D03*
X0086963Y0005513D03*
Y0007873D03*
G54D137*
X0096150Y0082717D03*
X0097150D03*
X0057165Y0002259D03*
X0059685Y0004039D03*
Y0002259D03*
X0052992Y0007583D03*
X0050472Y0005803D03*
Y0007583D03*
X0049449Y0004040D03*
X0046929Y0002260D03*
Y0004040D03*
Y0005803D03*
X0049449Y0007583D03*
Y0005803D03*
X0043386D03*
X0045906Y0007583D03*
Y0005803D03*
X0057165Y0009346D03*
X0059685Y0011126D03*
Y0009346D03*
X0046929D03*
X0049449Y0011126D03*
Y0009346D03*
X0085118Y0002260D03*
X0087638Y0004040D03*
Y0002260D03*
X0080945Y0007583D03*
X0078425Y0005803D03*
Y0007583D03*
X0077402Y0004040D03*
X0074882Y0002260D03*
Y0004040D03*
Y0005803D03*
X0077402Y0007583D03*
Y0005803D03*
X0074882Y0009346D03*
X0077402Y0011126D03*
Y0009346D03*
X0085118D03*
X0087638Y0011126D03*
Y0009346D03*
X0071338Y0005803D03*
X0073858Y0007583D03*
Y0005803D03*
X0133870Y0087402D03*
X0132090Y0089922D03*
X0133870D03*
X0135634Y0077717D03*
X0137414Y0075197D03*
X0135634D03*
X0128559Y0077717D03*
X0130339Y0075197D03*
X0128559D03*
X0129929Y0087402D03*
X0128149Y0089922D03*
X0129929D03*
X0137807Y0087402D03*
X0136027Y0089922D03*
X0137807D03*
X0133870Y0083465D03*
X0132090Y0085985D03*
X0133870D03*
Y0091339D03*
X0132090Y0093859D03*
X0133870D03*
X0011024Y0095179D03*
Y0094195D03*
Y0093210D03*
Y0092226D03*
Y0091242D03*
Y0090258D03*
Y0089273D03*
Y0088289D03*
Y0087305D03*
X0127758Y0068554D03*
X0128743D03*
X0129727D03*
X0130711D03*
X0131695D03*
X0132680D03*
X0133664D03*
X0134648D03*
X0135632D03*
X0105808Y0090700D03*
X0104824D03*
X0103840D03*
X0102856D03*
X0101872D03*
X0100888D03*
X0099904D03*
X0106892Y0087108D03*
Y0086124D03*
Y0085140D03*
X0104776Y0087108D03*
Y0086124D03*
Y0085140D03*
Y0084156D03*
X0102659Y0087107D03*
Y0086123D03*
Y0085139D03*
Y0084155D03*
Y0083171D03*
X0013705Y0049927D03*
Y0048943D03*
Y0047959D03*
X0015895Y0049951D03*
Y0048967D03*
Y0047983D03*
Y0046999D03*
X0018085Y0049976D03*
Y0048992D03*
Y0048008D03*
Y0047024D03*
Y0046040D03*
X0019330Y0018886D03*
X0018346D03*
X0009094D03*
X0008110D03*
X0110669D03*
X0109685D03*
X0131929D03*
X0130945D03*
X0037417Y0002595D03*
X0036433D03*
X0035449D03*
X0034465D03*
X0033481D03*
X0065369Y0002600D03*
X0064385D03*
X0063401D03*
X0062417D03*
X0061433D03*
G54D138*
X0095150Y0082717D03*
X0057165Y0004039D03*
X0052992Y0005803D03*
X0049449Y0002260D03*
X0046929Y0007583D03*
X0043386D03*
X0057165Y0011126D03*
X0046929D03*
X0085118Y0004040D03*
X0080945Y0005803D03*
X0077402Y0002260D03*
X0074882Y0007583D03*
Y0011126D03*
X0085118D03*
X0071338Y0007583D03*
X0132090Y0087402D03*
X0137414Y0077717D03*
X0130339D03*
X0128149Y0087402D03*
X0136027D03*
X0132090Y0083465D03*
Y0091339D03*
X0011024Y0096163D03*
X0126774Y0068554D03*
X0106792Y0090700D03*
X0106892Y0088092D03*
X0104776D03*
X0102659Y0088091D03*
X0013705Y0050911D03*
X0015895Y0050935D03*
X0018085Y0050960D03*
X0038401Y0002595D03*
X0066353Y0002600D03*
G54D139*
X0033736Y0007192D03*
Y0006192D03*
X0061693Y0007200D03*
Y0006200D03*
G54D140*
X0132433Y0030414D03*
X0132236Y0030670D03*
Y0030158D03*
X0132630D03*
Y0030670D03*
X0137551Y0030414D03*
X0137354Y0030670D03*
Y0030158D03*
X0137748D03*
Y0030670D03*
X0130760Y0034844D03*
X0130957Y0034588D03*
Y0035099D03*
X0130563D03*
Y0034588D03*
X0135878Y0034844D03*
X0136075Y0034588D03*
Y0035099D03*
X0135681D03*
Y0034588D03*
X0043357Y0036270D03*
X0043869D03*
X0042845D03*
X0055168Y0032924D03*
X0055680D03*
X0054656D03*
X0055168Y0036270D03*
X0054656D03*
X0055680D03*
X0083860Y0023179D03*
X0084372D03*
X0083348D03*
X0040700Y0018602D03*
X0041211D03*
X0040188D03*
X0071409D03*
X0071921D03*
X0070897D03*
X0089450Y0074636D03*
X0089962D03*
X0088938D03*
X0099400Y0078036D03*
Y0078548D03*
Y0077524D03*
X0109303Y0088879D03*
X0109815D03*
X0108791D03*
X0061172Y0018602D03*
X0061684D03*
X0060660D03*
X0050936D03*
X0051448D03*
X0050424D03*
X0047850Y0070386D03*
Y0070898D03*
Y0069874D03*
X0069750Y0070386D03*
Y0070898D03*
Y0069874D03*
X0083300Y0070386D03*
Y0069874D03*
Y0070898D03*
X0076600Y0068086D03*
Y0068598D03*
Y0067574D03*
G54D141*
X0088092Y0027756D03*
X0056153Y0030266D03*
X0016683Y0093801D03*
X0060975Y0025984D03*
G54D142*
X0027323Y0094252D03*
X0025039Y0092677D03*
X0030079Y0091496D03*
X0028504Y0089213D03*
X0025720Y0089894D03*
G54D143*
X0014604Y0091755D03*
X0014801Y0092051D03*
Y0091460D03*
X0014407Y0092051D03*
Y0091460D03*
G54D144*
X0015445Y0090602D03*
X0014945D03*
X0014445D03*
Y0092902D03*
X0014945D03*
X0015445D03*
X0015945D03*
G54D145*
Y0090602D03*
G54D146*
X0028976Y0020020D03*
X0032224Y0016016D03*
X0099055Y0020268D03*
Y0018268D03*
X0120315Y0020268D03*
Y0018268D03*
G54D147*
X0027476Y0018518D03*
X0030476Y0018268D03*
X0100555Y0020268D03*
X0097555D03*
X0121815D03*
X0118815D03*
G54D148*
X0016377Y0016878D03*
X0020314D03*
X0006141D03*
X0010078D03*
X0107716D03*
X0111653D03*
X0128976D03*
X0132913D03*
G54D149*
X0081330Y0016248D03*
X0086070D03*
G54D150*
X0084192Y0018102D03*
X0083208D03*
Y0017315D03*
X0084192D03*
G54D151*
X0041200Y0050436D03*
Y0049436D03*
X0040200Y0050436D03*
Y0049436D03*
X0039200Y0050436D03*
Y0049436D03*
X0038200Y0050436D03*
Y0049436D03*
X0037200Y0050436D03*
Y0049436D03*
X0036200Y0050436D03*
Y0049436D03*
X0035200Y0050436D03*
Y0049436D03*
X0034200Y0050436D03*
Y0049436D03*
X0033200Y0050436D03*
Y0049436D03*
X0032200Y0050436D03*
Y0049436D03*
X0031200Y0050436D03*
Y0049436D03*
X0030200Y0050436D03*
Y0049436D03*
X0029200Y0050436D03*
Y0049436D03*
X0028200Y0050436D03*
Y0049436D03*
X0027200Y0050436D03*
Y0049436D03*
X0122100Y0081092D03*
Y0080092D03*
X0121100Y0081092D03*
Y0080092D03*
X0120100Y0081092D03*
Y0080092D03*
X0119100Y0081092D03*
Y0080092D03*
X0118100Y0081092D03*
Y0080092D03*
X0117100Y0081092D03*
Y0080092D03*
X0116100Y0081092D03*
Y0080092D03*
X0115100Y0081092D03*
Y0080092D03*
X0114100Y0081092D03*
Y0080092D03*
X0113100Y0081092D03*
Y0080092D03*
X0112100Y0081092D03*
Y0080092D03*
X0111100Y0081092D03*
Y0080092D03*
X0110100Y0081092D03*
Y0080092D03*
X0109100Y0081092D03*
Y0080092D03*
X0108100Y0081092D03*
Y0080092D03*
G54D152*
X0027850Y0022536D03*
X0026850D03*
Y0026536D03*
X0027850D03*
X0028850D03*
G54D153*
Y0022536D03*
G54D154*
X0020454Y0092355D03*
X0019588D03*
X0018722D03*
Y0091095D03*
X0019588D03*
X0020454D03*
X0021714D03*
X0110903Y0026148D03*
Y0027014D03*
Y0027881D03*
X0109643D03*
Y0027014D03*
Y0026148D03*
Y0024888D03*
X0099087Y0026148D03*
Y0027014D03*
Y0027881D03*
X0097827D03*
Y0027014D03*
Y0026148D03*
Y0024888D03*
X0104995Y0026148D03*
Y0027014D03*
Y0027881D03*
X0103735D03*
Y0027014D03*
Y0026148D03*
Y0024888D03*
X0128627Y0026148D03*
Y0027014D03*
Y0027881D03*
X0127367D03*
Y0027014D03*
Y0026148D03*
Y0024888D03*
X0116811Y0026148D03*
Y0027014D03*
Y0027881D03*
X0115551D03*
Y0027014D03*
Y0026148D03*
Y0024888D03*
X0122719Y0026148D03*
Y0027014D03*
Y0027881D03*
X0121459D03*
Y0027014D03*
Y0026148D03*
Y0024888D03*
G54D155*
X0021714Y0092355D03*
X0110903Y0024888D03*
X0099087D03*
X0104995D03*
X0128627D03*
X0116811D03*
X0122719D03*
G54D156*
X0012402Y0080063D03*
Y0076913D03*
G54D157*
X0090618Y0019449D03*
Y0020945D03*
Y0022441D03*
X0091602Y0014449D03*
X0089634D03*
G54D158*
X0027559Y0085514D03*
X0028659Y0086614D03*
X0026459D03*
X0027559Y0087714D03*
X0028359Y0085814D03*
X0026759D03*
X0028359Y0087414D03*
X0026759D03*
X0027559Y0095750D03*
X0028659Y0096850D03*
X0026459D03*
X0027559Y0097950D03*
X0028359Y0096050D03*
X0026759D03*
X0028359Y0097650D03*
X0026759D03*
X0003068Y0096850D03*
X0001968Y0097950D03*
Y0095750D03*
X0000868Y0096850D03*
X0002768Y0097650D03*
Y0096050D03*
X0001168Y0097650D03*
Y0096050D03*
X0003068Y0086614D03*
X0001968Y0087714D03*
Y0085514D03*
X0000868Y0086614D03*
X0002768Y0087414D03*
Y0085814D03*
X0001168Y0087414D03*
Y0085814D03*
X0125984Y0097950D03*
X0124884Y0096850D03*
X0127084D03*
X0125984Y0095750D03*
X0125184Y0097650D03*
X0126784D03*
X0125184Y0096050D03*
X0126784D03*
X0125984Y0075510D03*
X0124884Y0074410D03*
X0127084D03*
X0125984Y0073310D03*
X0125184Y0075210D03*
X0126784D03*
X0125184Y0073610D03*
X0126784D03*
X0139764Y0071573D03*
X0138664Y0070473D03*
X0140864D03*
X0139764Y0069373D03*
X0138964Y0071273D03*
X0140564D03*
X0138964Y0069673D03*
X0140564D03*
X0139764Y0097950D03*
X0138664Y0096850D03*
X0140864D03*
X0139764Y0095750D03*
X0138964Y0097650D03*
X0140564D03*
X0138964Y0096050D03*
X0140564D03*
X0139764Y0075510D03*
X0138664Y0074410D03*
X0140864D03*
X0139764Y0073310D03*
X0138964Y0075210D03*
X0140564D03*
X0138964Y0073610D03*
X0140564D03*
X0033465Y0075510D03*
X0032365Y0074410D03*
X0034565D03*
X0033465Y0073310D03*
X0032665Y0075210D03*
X0034265D03*
X0032665Y0073610D03*
X0034265D03*
X0033465Y0097950D03*
X0032365Y0096850D03*
X0034565D03*
X0033465Y0095750D03*
X0032665Y0097650D03*
X0034265D03*
X0032665Y0096050D03*
X0034265D03*
X0005037Y0070473D03*
X0003937Y0071573D03*
Y0069373D03*
X0002837Y0070473D03*
X0004737Y0071273D03*
Y0069673D03*
X0003137Y0071273D03*
Y0069673D03*
X0097557Y0033071D03*
X0096457Y0034171D03*
Y0031971D03*
X0095357Y0033071D03*
X0097257Y0033871D03*
Y0032271D03*
X0095657Y0033871D03*
Y0032271D03*
X0062124Y0033071D03*
X0061024Y0034171D03*
Y0031971D03*
X0059924Y0033071D03*
X0061824Y0033871D03*
Y0032271D03*
X0060224Y0033871D03*
Y0032271D03*
X0140864Y0023229D03*
X0139764Y0024329D03*
Y0022129D03*
X0138664Y0023229D03*
X0140564Y0024029D03*
Y0022429D03*
X0138964Y0024029D03*
Y0022429D03*
X0005037Y0023229D03*
X0003937Y0024329D03*
Y0022129D03*
X0002837Y0023229D03*
X0004737Y0024029D03*
Y0022429D03*
X0003137Y0024029D03*
Y0022429D03*
G54D159*
X0109319Y0052363D03*
X0108531D03*
X0110106D03*
X0119161D03*
X0118374D03*
X0119949D03*
G54D160*
X0072362Y0082630D03*
X0073362D03*
X0074362D03*
X0075362D03*
X0076362D03*
X0077362D03*
X0078362D03*
X0079362D03*
X0080362D03*
X0081362D03*
X0082362D03*
X0083362D03*
X0084362D03*
X0085362D03*
Y0088630D03*
X0084362D03*
X0083362D03*
X0082362D03*
X0081362D03*
X0080362D03*
X0079362D03*
X0078362D03*
X0077362D03*
X0076362D03*
X0075362D03*
X0074362D03*
X0073362D03*
X0072362D03*
X0044382Y0082630D03*
X0045382D03*
X0046382D03*
X0047382D03*
X0048382D03*
X0049382D03*
X0050382D03*
X0051382D03*
X0052382D03*
X0053382D03*
X0054382D03*
X0055382D03*
X0056382D03*
X0057382D03*
Y0088630D03*
X0056382D03*
X0055382D03*
X0054382D03*
X0053382D03*
X0052382D03*
X0051382D03*
X0050382D03*
X0049382D03*
X0048382D03*
X0047382D03*
X0046382D03*
X0045382D03*
X0044382D03*
G54D161*
X0050296Y0039863D03*
X0048296D03*
X0122150Y0089986D03*
Y0091986D03*
G54D254*
X0107145Y0044671D03*
Y0044239D03*
Y0045102D03*
X0106790Y0044474D03*
Y0044867D03*
X0107499Y0044474D03*
Y0044867D03*
X0120394Y0044671D03*
Y0044239D03*
Y0045102D03*
X0120040Y0044474D03*
Y0044867D03*
X0120748Y0044474D03*
Y0044867D03*
M02*
