*
G04 Mass Parameters ***
*
G04 Image ***
*
%INE:\CALYX_FEMTO_2017-06-01\FINAL\CALYX_FEMTO_2017-06-01.SPT*%
%ICAS*%
%MOIN*%
%IPPOS*%
%ASAXBY*%
G74*%FSLAN2X34Y34*%
*
G04 Aperture Definitions ***
*
%ADD10R,0.0661X0.0299*%
%ADD11R,0.0299X0.0661*%
%ADD12R,0.0500X0.0500*%
%ADD13R,0.0600X0.0600*%
%ADD14C,0.0401*%
%ADD15R,0.0787X0.2913*%
%ADD16C,0.0500*%
%ADD17O,0.1400X0.0300*%
%ADD18O,0.0300X0.1400*%
%ADD19O,0.0500X0.2000*%
%ADD20C,0.1200*%
%ADD21R,0.0200X0.0200*%
%ADD22O,0.1500X0.1100*%
%ADD23C,0.0630*%
%ADD24R,0.0630X0.0630*%
%ADD25C,0.0600*%
%ADD26R,0.0315X0.0315*%
%ADD27R,0.0236X0.0197*%
%ADD28R,0.0197X0.0236*%
%ADD29O,0.1000X0.0500*%
%ADD30C,0.0236*%
%ADD31R,0.0240X0.0320*%
%ADD32R,0.0320X0.0240*%
%ADD33C,0.0394*%
%ADD34R,0.0276X0.0276*%
%ADD35C,0.1024*%
%ADD36R,0.0106X0.0197*%
%ADD37R,0.0551X0.0787*%
%ADD38R,0.0400X0.0500*%
%ADD39O,0.0740X0.0260*%
%ADD40R,0.0740X0.0260*%
%ADD41O,0.0260X0.0740*%
%ADD42R,0.0260X0.0740*%
%ADD43O,0.0472X0.0157*%
%ADD44R,0.0472X0.0157*%
%ADD45R,0.0630X0.0551*%
%ADD46O,0.0118X0.0315*%
%ADD47R,0.0118X0.0315*%
%ADD48R,0.0900X0.0550*%
%ADD49R,0.0550X0.0900*%
%ADD50O,0.0860X0.0250*%
%ADD51R,0.0860X0.0250*%
%ADD52O,0.0250X0.0860*%
%ADD53R,0.0250X0.0860*%
%ADD54O,0.0230X0.0610*%
%ADD55R,0.0230X0.0610*%
%ADD56O,0.0315X0.0079*%
%ADD57O,0.0079X0.0315*%
%ADD58R,0.0079X0.0315*%
%ADD59O,0.0230X0.0512*%
%ADD60R,0.0230X0.0512*%
%ADD61O,0.0787X0.0110*%
%ADD62R,0.0787X0.0110*%
%ADD63O,0.0110X0.0787*%
%ADD64R,0.0110X0.0787*%
%ADD65C,0.0181*%
%ADD66O,0.0394X0.0091*%
%ADD67R,0.0394X0.0091*%
%ADD68R,0.0551X0.0472*%
%ADD69R,0.0472X0.0551*%
%ADD70O,0.0260X0.0866*%
%ADD71R,0.0260X0.0866*%
%ADD72C,0.0787*%
%ADD73C,0.0945*%
%ADD74C,0.1417*%
%ADD75C,0.1300*%
%ADD76R,0.0905X0.0275*%
%ADD77C,0.0700*%
%ADD78R,0.0700X0.0700*%
%ADD79R,0.0275X0.0905*%
%ADD80R,0.0394X0.0590*%
%ADD81R,0.1181X0.0394*%
%ADD82R,0.0394X0.1181*%
%ADD83C,0.0335*%
%ADD84R,0.0335X0.0335*%
%ADD85R,0.0500X0.0400*%
%ADD86O,0.2200X0.1000*%
%ADD87C,0.1279*%
%ADD88C,0.0400*%
%ADD89O,0.0590X0.0157*%
%ADD90R,0.0590X0.0157*%
%ADD91C,0.0551*%
%ADD92O,0.0700X0.0200*%
%ADD93O,0.0200X0.0700*%
%ADD94R,0.0200X0.0700*%
%ADD95O,0.0236X0.0787*%
%ADD96R,0.0236X0.0787*%
%ADD97R,0.0400X0.0120*%
%ADD98R,0.0551X0.0630*%
%ADD99C,0.0520*%
%ADD100C,0.0354*%
%ADD101C,0.0039*%
%ADD102C,0.0040*%
%ADD103C,0.0100*%
%ADD104C,0.0400*%
%ADD105C,0.0080*%
%ADD106C,0.0060*%
%ADD107C,0.0059*%
%ADD108C,0.0118*%
%ADD109C,0.0394*%
%ADD110C,0.0590*%
%ADD111C,0.0138*%
%ADD112C,0.0197*%
%ADD113C,0.0236*%
%ADD114C,0.0140*%
%ADD115C,0.0315*%
%ADD116C,0.1000*%
%ADD117C,0.0200*%
%ADD118C,0.0079*%
%ADD119C,0.0800*%
%ADD120C,0.0600*%
%ADD121C,0.0472*%
%ADD122C,0.0300*%
%ADD123C,0.0098*%
%ADD124C,0.0276*%
%ADD125C,0.0110*%
%ADD126C,0.1181*%
%ADD127C,0.0500*%
%ADD128C,0.0787*%
%ADD129C,0.0591*%
%ADD130C,0.0256*%
%ADD131C,0.0401*%
%ADD132C,0.0600*%
%ADD133R,0.0600X0.0600*%
%ADD134O,0.1300X0.1700*%
%ADD135O,0.1700X0.1300*%
%ADD136O,0.1500X0.1100*%
%ADD137C,0.0630*%
%ADD138R,0.0630X0.0630*%
%ADD139O,0.1000X0.0500*%
%ADD140C,0.0236*%
%ADD141C,0.0394*%
%ADD142C,0.1260*%
%ADD143C,0.0181*%
%ADD144O,0.0260X0.0740*%
%ADD145R,0.0260X0.0740*%
%ADD146C,0.0945*%
%ADD147C,0.1102*%
%ADD148C,0.1417*%
%ADD149C,0.1700*%
%ADD150C,0.0640*%
%ADD151C,0.0709*%
%ADD152C,0.0700*%
%ADD153R,0.0700X0.0700*%
%ADD154C,0.0591*%
%ADD155R,0.0591X0.0591*%
%ADD156O,0.2200X0.1000*%
%ADD157C,0.1279*%
%ADD158C,0.0400*%
%ADD159C,0.0551*%
%ADD160O,0.0394X0.0630*%
%ADD161C,0.0820*%
%ADD162C,0.0354*%
%ADD163C,0.0236*%
%ADD164C,0.0780*%
%ADD165R,0.0780X0.0780*%
%ADD166O,0.1299X0.1701*%
%ADD167O,0.1900X0.1500*%
%ADD168O,0.1680X0.1300*%
%ADD169C,0.0830*%
%ADD170R,0.0830X0.0830*%
%ADD171C,0.0787*%
%ADD172O,0.1200X0.0700*%
%ADD173C,0.0275*%
%ADD174C,0.1024*%
%ADD175C,0.0940*%
%ADD176C,0.1100*%
%ADD177C,0.0810*%
%ADD178C,0.1600*%
%ADD179C,0.1880*%
%ADD180C,0.0710*%
%ADD181R,0.0787X0.0787*%
%ADD182O,0.2400X0.1200*%
%ADD183C,0.1000*%
%ADD184C,0.0244*%
%ADD185C,0.0256*%
%ADD186C,0.0010*%
%ADD187C,0.0256*%
%ADD188C,0.0256*%
%ADD189C,0.1496*%
%ADD190C,0.0256*%
%ADD191R,0.0661X0.0299*%
%ADD192R,0.0299X0.0661*%
%ADD193R,0.0500X0.0500*%
%ADD194R,0.0787X0.2913*%
%ADD195C,0.0500*%
%ADD196O,0.1400X0.0300*%
%ADD197O,0.0300X0.1400*%
%ADD198O,0.0500X0.2000*%
%ADD199R,0.0315X0.0315*%
%ADD200R,0.0236X0.0197*%
%ADD201R,0.0197X0.0236*%
%ADD202R,0.0240X0.0320*%
%ADD203R,0.0320X0.0240*%
%ADD204R,0.0276X0.0276*%
%ADD205R,0.0106X0.0197*%
%ADD206R,0.0551X0.0787*%
%ADD207R,0.0400X0.0500*%
%ADD208O,0.0740X0.0260*%
%ADD209R,0.0740X0.0260*%
%ADD210O,0.0472X0.0157*%
%ADD211R,0.0472X0.0157*%
%ADD212R,0.0630X0.0551*%
%ADD213O,0.0118X0.0315*%
%ADD214R,0.0118X0.0315*%
%ADD215R,0.0900X0.0550*%
%ADD216R,0.0550X0.0900*%
%ADD217O,0.0860X0.0250*%
%ADD218R,0.0860X0.0250*%
%ADD219O,0.0250X0.0860*%
%ADD220R,0.0250X0.0860*%
%ADD221O,0.0230X0.0610*%
%ADD222R,0.0230X0.0610*%
%ADD223O,0.0315X0.0079*%
%ADD224O,0.0079X0.0315*%
%ADD225R,0.0079X0.0315*%
%ADD226O,0.0230X0.0512*%
%ADD227R,0.0230X0.0512*%
%ADD228O,0.0787X0.0110*%
%ADD229R,0.0787X0.0110*%
%ADD230O,0.0110X0.0787*%
%ADD231R,0.0110X0.0787*%
%ADD232O,0.0394X0.0091*%
%ADD233R,0.0394X0.0091*%
%ADD234R,0.0551X0.0472*%
%ADD235R,0.0472X0.0551*%
%ADD236O,0.0260X0.0866*%
%ADD237R,0.0260X0.0866*%
%ADD238C,0.1300*%
%ADD239R,0.0905X0.0275*%
%ADD240R,0.0275X0.0905*%
%ADD241R,0.0394X0.0590*%
%ADD242R,0.1181X0.0394*%
%ADD243R,0.0394X0.1181*%
%ADD244C,0.0335*%
%ADD245R,0.0335X0.0335*%
%ADD246R,0.0500X0.0400*%
%ADD247O,0.0590X0.0157*%
%ADD248R,0.0590X0.0157*%
%ADD249O,0.0700X0.0200*%
%ADD250O,0.0200X0.0700*%
%ADD251R,0.0200X0.0700*%
%ADD252O,0.0236X0.0787*%
%ADD253R,0.0236X0.0787*%
%ADD254C,0.0320*%
%ADD255R,0.0400X0.0120*%
%ADD256R,0.0551X0.0630*%
%ADD257C,0.0520*%
%ADD258R,0.0106X0.0157*%
*
G04 Plot Data ***
*
G54D101*
G01X0084844Y0021916D02*
X0084450D01*
X0084844Y0021881D02*
X0084450D01*
X0084844Y0021845D02*
X0084450D01*
X0084844Y0021810D02*
X0084450D01*
X0084844Y0021775D02*
X0084450D01*
X0084844Y0021739D02*
X0084450D01*
X0084844Y0021704D02*
X0084450D01*
X0084844Y0021669D02*
X0084450D01*
X0084844Y0021633D02*
X0084450D01*
X0084844Y0021598D02*
X0084450D01*
X0084844Y0021562D02*
X0084450D01*
X0084587Y0022165D02*
Y0021496D01*
X0084552Y0022165D02*
Y0021496D01*
X0084517Y0022165D02*
Y0021496D01*
X0084481Y0022165D02*
Y0021496D01*
X0084844Y0022129D02*
X0084450D01*
X0084844Y0022093D02*
X0084450D01*
X0084844Y0022058D02*
X0084450D01*
X0084844Y0022022D02*
X0084450D01*
X0084844Y0021987D02*
X0084450D01*
X0084844Y0021952D02*
X0084450D01*
Y0022165D02*
Y0021496D01*
X0084844D02*
X0084450D01*
X0084835Y0022165D02*
Y0021496D01*
X0084800Y0022165D02*
Y0021496D01*
X0084764Y0022165D02*
Y0021496D01*
X0084729Y0022165D02*
Y0021496D01*
X0084694Y0022165D02*
Y0021496D01*
X0084658Y0022165D02*
Y0021496D01*
X0084623Y0022165D02*
Y0021496D01*
X0084844Y0021527D02*
X0084450D01*
X0084844Y0022165D02*
Y0021496D01*
Y0022165D02*
X0084450D01*
X0084057Y0020776D02*
X0083664D01*
X0084057Y0020740D02*
X0083664D01*
X0084057Y0020705D02*
X0083664D01*
X0084057Y0020669D02*
X0083664D01*
X0084057Y0020634D02*
X0083664D01*
X0084057Y0020599D02*
X0083664D01*
X0084057Y0020563D02*
X0083664D01*
X0084057Y0020528D02*
X0083664D01*
X0084057Y0020492D02*
X0083664D01*
X0084057Y0020457D02*
X0083664D01*
X0084057Y0020422D02*
X0083664D01*
X0083801Y0021024D02*
Y0020355D01*
X0083765Y0021024D02*
Y0020355D01*
X0083730Y0021024D02*
Y0020355D01*
X0083695Y0021024D02*
Y0020355D01*
X0084057Y0020988D02*
X0083664D01*
X0084057Y0020953D02*
X0083664D01*
X0084057Y0020917D02*
X0083664D01*
X0084057Y0020882D02*
X0083664D01*
X0084057Y0020846D02*
X0083664D01*
X0084057Y0020811D02*
X0083664D01*
Y0021024D02*
Y0020355D01*
X0084057D02*
X0083664D01*
X0084049Y0021024D02*
Y0020355D01*
X0084013Y0021024D02*
Y0020355D01*
X0083978Y0021024D02*
Y0020355D01*
X0083942Y0021024D02*
Y0020355D01*
X0083907Y0021024D02*
Y0020355D01*
X0083872Y0021024D02*
Y0020355D01*
X0083836Y0021024D02*
Y0020355D01*
X0084057Y0020386D02*
X0083664D01*
X0084057Y0021024D02*
Y0020355D01*
Y0021024D02*
X0083664D01*
X0084057Y0021916D02*
X0083664D01*
X0084057Y0021881D02*
X0083664D01*
X0084057Y0021845D02*
X0083664D01*
X0084057Y0021810D02*
X0083664D01*
X0084057Y0021775D02*
X0083664D01*
X0084057Y0021739D02*
X0083664D01*
X0084057Y0021704D02*
X0083664D01*
X0084057Y0021669D02*
X0083664D01*
X0084057Y0021633D02*
X0083664D01*
X0084057Y0021598D02*
X0083664D01*
X0084057Y0021562D02*
X0083664D01*
X0083801Y0022165D02*
Y0021496D01*
X0083765Y0022165D02*
Y0021496D01*
X0083730Y0022165D02*
Y0021496D01*
X0083695Y0022165D02*
Y0021496D01*
X0084057Y0022129D02*
X0083664D01*
X0084057Y0022093D02*
X0083664D01*
X0084057Y0022058D02*
X0083664D01*
X0084057Y0022022D02*
X0083664D01*
X0084057Y0021987D02*
X0083664D01*
X0084057Y0021952D02*
X0083664D01*
Y0022165D02*
Y0021496D01*
X0084057D02*
X0083664D01*
X0084049Y0022165D02*
Y0021496D01*
X0084013Y0022165D02*
Y0021496D01*
X0083978Y0022165D02*
Y0021496D01*
X0083942Y0022165D02*
Y0021496D01*
X0083907Y0022165D02*
Y0021496D01*
X0083872Y0022165D02*
Y0021496D01*
X0083836Y0022165D02*
Y0021496D01*
X0084057Y0021527D02*
X0083664D01*
X0084057Y0022165D02*
Y0021496D01*
Y0022165D02*
X0083664D01*
X0084844Y0020776D02*
X0084450D01*
X0084844Y0020740D02*
X0084450D01*
X0084844Y0020705D02*
X0084450D01*
X0084844Y0020669D02*
X0084450D01*
X0084844Y0020634D02*
X0084450D01*
X0084844Y0020599D02*
X0084450D01*
X0084844Y0020563D02*
X0084450D01*
X0084844Y0020528D02*
X0084450D01*
X0084844Y0020492D02*
X0084450D01*
X0084844Y0020457D02*
X0084450D01*
X0084844Y0020422D02*
X0084450D01*
X0084587Y0021024D02*
Y0020355D01*
X0084552Y0021024D02*
Y0020355D01*
X0084517Y0021024D02*
Y0020355D01*
X0084481Y0021024D02*
Y0020355D01*
X0084844Y0020988D02*
X0084450D01*
X0084844Y0020953D02*
X0084450D01*
X0084844Y0020917D02*
X0084450D01*
X0084844Y0020882D02*
X0084450D01*
X0084844Y0020846D02*
X0084450D01*
X0084844Y0020811D02*
X0084450D01*
Y0021024D02*
Y0020355D01*
X0084844D02*
X0084450D01*
X0084835Y0021024D02*
Y0020355D01*
X0084800Y0021024D02*
Y0020355D01*
X0084764Y0021024D02*
Y0020355D01*
X0084729Y0021024D02*
Y0020355D01*
X0084694Y0021024D02*
Y0020355D01*
X0084658Y0021024D02*
Y0020355D01*
X0084623Y0021024D02*
Y0020355D01*
X0084844Y0020386D02*
X0084450D01*
X0084844Y0021024D02*
Y0020355D01*
Y0021024D02*
X0084450D01*
X0084803Y0067951D02*
X0084410D01*
X0084803Y0067916D02*
X0084410D01*
X0084803Y0067880D02*
X0084410D01*
X0084803Y0067845D02*
X0084410D01*
X0084803Y0067810D02*
X0084410D01*
X0084803Y0067774D02*
X0084410D01*
X0084803Y0067739D02*
X0084410D01*
X0084803Y0067704D02*
X0084410D01*
X0084803Y0067668D02*
X0084410D01*
X0084803Y0067633D02*
X0084410D01*
X0084803Y0067597D02*
X0084410D01*
X0084547Y0068200D02*
Y0067531D01*
X0084512Y0068200D02*
Y0067531D01*
X0084476Y0068200D02*
Y0067531D01*
X0084441Y0068200D02*
Y0067531D01*
X0084803Y0068164D02*
X0084410D01*
X0084803Y0068128D02*
X0084410D01*
X0084803Y0068093D02*
X0084410D01*
X0084803Y0068057D02*
X0084410D01*
X0084803Y0068022D02*
X0084410D01*
X0084803Y0067987D02*
X0084410D01*
Y0068200D02*
Y0067531D01*
X0084803D02*
X0084410D01*
X0084795Y0068200D02*
Y0067531D01*
X0084759Y0068200D02*
Y0067531D01*
X0084724Y0068200D02*
Y0067531D01*
X0084689Y0068200D02*
Y0067531D01*
X0084653Y0068200D02*
Y0067531D01*
X0084618Y0068200D02*
Y0067531D01*
X0084583Y0068200D02*
Y0067531D01*
X0084803Y0067562D02*
X0084410D01*
X0084803Y0068200D02*
Y0067531D01*
Y0068200D02*
X0084410D01*
X0084803Y0069092D02*
X0084410D01*
X0084803Y0069057D02*
X0084410D01*
X0084803Y0069021D02*
X0084410D01*
X0084803Y0068986D02*
X0084410D01*
X0084803Y0068950D02*
X0084410D01*
X0084803Y0068915D02*
X0084410D01*
X0084803Y0068880D02*
X0084410D01*
X0084803Y0068844D02*
X0084410D01*
X0084803Y0068809D02*
X0084410D01*
X0084803Y0068773D02*
X0084410D01*
X0084803Y0068738D02*
X0084410D01*
X0084547Y0069340D02*
Y0068672D01*
X0084512Y0069340D02*
Y0068672D01*
X0084476Y0069340D02*
Y0068672D01*
X0084441Y0069340D02*
Y0068672D01*
X0084803Y0069304D02*
X0084410D01*
X0084803Y0069269D02*
X0084410D01*
X0084803Y0069234D02*
X0084410D01*
X0084803Y0069198D02*
X0084410D01*
X0084803Y0069163D02*
X0084410D01*
X0084803Y0069127D02*
X0084410D01*
Y0069340D02*
Y0068672D01*
X0084803D02*
X0084410D01*
X0084795Y0069340D02*
Y0068672D01*
X0084759Y0069340D02*
Y0068672D01*
X0084724Y0069340D02*
Y0068672D01*
X0084689Y0069340D02*
Y0068672D01*
X0084653Y0069340D02*
Y0068672D01*
X0084618Y0069340D02*
Y0068672D01*
X0084583Y0069340D02*
Y0068672D01*
X0084803Y0068703D02*
X0084410D01*
X0084803Y0069340D02*
Y0068672D01*
Y0069340D02*
X0084410D01*
X0085590Y0067951D02*
X0085197D01*
X0085590Y0067916D02*
X0085197D01*
X0085590Y0067880D02*
X0085197D01*
X0085590Y0067845D02*
X0085197D01*
X0085590Y0067810D02*
X0085197D01*
X0085590Y0067774D02*
X0085197D01*
X0085590Y0067739D02*
X0085197D01*
X0085590Y0067704D02*
X0085197D01*
X0085590Y0067668D02*
X0085197D01*
X0085590Y0067633D02*
X0085197D01*
X0085590Y0067597D02*
X0085197D01*
X0085334Y0068200D02*
Y0067531D01*
X0085298Y0068200D02*
Y0067531D01*
X0085263Y0068200D02*
Y0067531D01*
X0085228Y0068200D02*
Y0067531D01*
X0085590Y0068164D02*
X0085197D01*
X0085590Y0068128D02*
X0085197D01*
X0085590Y0068093D02*
X0085197D01*
X0085590Y0068057D02*
X0085197D01*
X0085590Y0068022D02*
X0085197D01*
X0085590Y0067987D02*
X0085197D01*
Y0068200D02*
Y0067531D01*
X0085590D02*
X0085197D01*
X0085582Y0068200D02*
Y0067531D01*
X0085546Y0068200D02*
Y0067531D01*
X0085511Y0068200D02*
Y0067531D01*
X0085475Y0068200D02*
Y0067531D01*
X0085440Y0068200D02*
Y0067531D01*
X0085405Y0068200D02*
Y0067531D01*
X0085369Y0068200D02*
Y0067531D01*
X0085590Y0067562D02*
X0085197D01*
X0085590Y0068200D02*
Y0067531D01*
Y0068200D02*
X0085197D01*
X0085590Y0069092D02*
X0085197D01*
X0085590Y0069057D02*
X0085197D01*
X0085590Y0069021D02*
X0085197D01*
X0085590Y0068986D02*
X0085197D01*
X0085590Y0068950D02*
X0085197D01*
X0085590Y0068915D02*
X0085197D01*
X0085590Y0068880D02*
X0085197D01*
X0085590Y0068844D02*
X0085197D01*
X0085590Y0068809D02*
X0085197D01*
X0085590Y0068773D02*
X0085197D01*
X0085590Y0068738D02*
X0085197D01*
X0085334Y0069340D02*
Y0068672D01*
X0085298Y0069340D02*
Y0068672D01*
X0085263Y0069340D02*
Y0068672D01*
X0085228Y0069340D02*
Y0068672D01*
X0085590Y0069304D02*
X0085197D01*
X0085590Y0069269D02*
X0085197D01*
X0085590Y0069234D02*
X0085197D01*
X0085590Y0069198D02*
X0085197D01*
X0085590Y0069163D02*
X0085197D01*
X0085590Y0069127D02*
X0085197D01*
Y0069340D02*
Y0068672D01*
X0085590D02*
X0085197D01*
X0085582Y0069340D02*
Y0068672D01*
X0085546Y0069340D02*
Y0068672D01*
X0085511Y0069340D02*
Y0068672D01*
X0085475Y0069340D02*
Y0068672D01*
X0085440Y0069340D02*
Y0068672D01*
X0085405Y0069340D02*
Y0068672D01*
X0085369Y0069340D02*
Y0068672D01*
X0085590Y0068703D02*
X0085197D01*
X0085590Y0069340D02*
Y0068672D01*
Y0069340D02*
X0085197D01*
X0072303Y0067951D02*
X0071910D01*
X0072303Y0067916D02*
X0071910D01*
X0072303Y0067880D02*
X0071910D01*
X0072303Y0067845D02*
X0071910D01*
X0072303Y0067810D02*
X0071910D01*
X0072303Y0067774D02*
X0071910D01*
X0072303Y0067739D02*
X0071910D01*
X0072303Y0067704D02*
X0071910D01*
X0072303Y0067668D02*
X0071910D01*
X0072303Y0067633D02*
X0071910D01*
X0072303Y0067597D02*
X0071910D01*
X0072047Y0068200D02*
Y0067531D01*
X0072012Y0068200D02*
Y0067531D01*
X0071976Y0068200D02*
Y0067531D01*
X0071941Y0068200D02*
Y0067531D01*
X0072303Y0068164D02*
X0071910D01*
X0072303Y0068128D02*
X0071910D01*
X0072303Y0068093D02*
X0071910D01*
X0072303Y0068057D02*
X0071910D01*
X0072303Y0068022D02*
X0071910D01*
X0072303Y0067987D02*
X0071910D01*
Y0068200D02*
Y0067531D01*
X0072303D02*
X0071910D01*
X0072295Y0068200D02*
Y0067531D01*
X0072259Y0068200D02*
Y0067531D01*
X0072224Y0068200D02*
Y0067531D01*
X0072189Y0068200D02*
Y0067531D01*
X0072153Y0068200D02*
Y0067531D01*
X0072118Y0068200D02*
Y0067531D01*
X0072083Y0068200D02*
Y0067531D01*
X0072303Y0067562D02*
X0071910D01*
X0072303Y0068200D02*
Y0067531D01*
Y0068200D02*
X0071910D01*
X0072303Y0069092D02*
X0071910D01*
X0072303Y0069057D02*
X0071910D01*
X0072303Y0069021D02*
X0071910D01*
X0072303Y0068986D02*
X0071910D01*
X0072303Y0068950D02*
X0071910D01*
X0072303Y0068915D02*
X0071910D01*
X0072303Y0068880D02*
X0071910D01*
X0072303Y0068844D02*
X0071910D01*
X0072303Y0068809D02*
X0071910D01*
X0072303Y0068773D02*
X0071910D01*
X0072303Y0068738D02*
X0071910D01*
X0072047Y0069340D02*
Y0068672D01*
X0072012Y0069340D02*
Y0068672D01*
X0071976Y0069340D02*
Y0068672D01*
X0071941Y0069340D02*
Y0068672D01*
X0072303Y0069304D02*
X0071910D01*
X0072303Y0069269D02*
X0071910D01*
X0072303Y0069234D02*
X0071910D01*
X0072303Y0069198D02*
X0071910D01*
X0072303Y0069163D02*
X0071910D01*
X0072303Y0069127D02*
X0071910D01*
Y0069340D02*
Y0068672D01*
X0072303D02*
X0071910D01*
X0072295Y0069340D02*
Y0068672D01*
X0072259Y0069340D02*
Y0068672D01*
X0072224Y0069340D02*
Y0068672D01*
X0072189Y0069340D02*
Y0068672D01*
X0072153Y0069340D02*
Y0068672D01*
X0072118Y0069340D02*
Y0068672D01*
X0072083Y0069340D02*
Y0068672D01*
X0072303Y0068703D02*
X0071910D01*
X0072303Y0069340D02*
Y0068672D01*
Y0069340D02*
X0071910D01*
X0073090Y0067951D02*
X0072697D01*
X0073090Y0067916D02*
X0072697D01*
X0073090Y0067880D02*
X0072697D01*
X0073090Y0067845D02*
X0072697D01*
X0073090Y0067810D02*
X0072697D01*
X0073090Y0067774D02*
X0072697D01*
X0073090Y0067739D02*
X0072697D01*
X0073090Y0067704D02*
X0072697D01*
X0073090Y0067668D02*
X0072697D01*
X0073090Y0067633D02*
X0072697D01*
X0073090Y0067597D02*
X0072697D01*
X0072834Y0068200D02*
Y0067531D01*
X0072798Y0068200D02*
Y0067531D01*
X0072763Y0068200D02*
Y0067531D01*
X0072728Y0068200D02*
Y0067531D01*
X0073090Y0068164D02*
X0072697D01*
X0073090Y0068128D02*
X0072697D01*
X0073090Y0068093D02*
X0072697D01*
X0073090Y0068057D02*
X0072697D01*
X0073090Y0068022D02*
X0072697D01*
X0073090Y0067987D02*
X0072697D01*
Y0068200D02*
Y0067531D01*
X0073090D02*
X0072697D01*
X0073082Y0068200D02*
Y0067531D01*
X0073046Y0068200D02*
Y0067531D01*
X0073011Y0068200D02*
Y0067531D01*
X0072975Y0068200D02*
Y0067531D01*
X0072940Y0068200D02*
Y0067531D01*
X0072905Y0068200D02*
Y0067531D01*
X0072869Y0068200D02*
Y0067531D01*
X0073090Y0067562D02*
X0072697D01*
X0073090Y0068200D02*
Y0067531D01*
Y0068200D02*
X0072697D01*
X0073090Y0069092D02*
X0072697D01*
X0073090Y0069057D02*
X0072697D01*
X0073090Y0069021D02*
X0072697D01*
X0073090Y0068986D02*
X0072697D01*
X0073090Y0068950D02*
X0072697D01*
X0073090Y0068915D02*
X0072697D01*
X0073090Y0068880D02*
X0072697D01*
X0073090Y0068844D02*
X0072697D01*
X0073090Y0068809D02*
X0072697D01*
X0073090Y0068773D02*
X0072697D01*
X0073090Y0068738D02*
X0072697D01*
X0072834Y0069340D02*
Y0068672D01*
X0072798Y0069340D02*
Y0068672D01*
X0072763Y0069340D02*
Y0068672D01*
X0072728Y0069340D02*
Y0068672D01*
X0073090Y0069304D02*
X0072697D01*
X0073090Y0069269D02*
X0072697D01*
X0073090Y0069234D02*
X0072697D01*
X0073090Y0069198D02*
X0072697D01*
X0073090Y0069163D02*
X0072697D01*
X0073090Y0069127D02*
X0072697D01*
Y0069340D02*
Y0068672D01*
X0073090D02*
X0072697D01*
X0073082Y0069340D02*
Y0068672D01*
X0073046Y0069340D02*
Y0068672D01*
X0073011Y0069340D02*
Y0068672D01*
X0072975Y0069340D02*
Y0068672D01*
X0072940Y0069340D02*
Y0068672D01*
X0072905Y0069340D02*
Y0068672D01*
X0072869Y0069340D02*
Y0068672D01*
X0073090Y0068703D02*
X0072697D01*
X0073090Y0069340D02*
Y0068672D01*
Y0069340D02*
X0072697D01*
X0067203Y0067531D02*
Y0068200D01*
X0066810D01*
Y0067531D01*
X0067203D01*
Y0069092D02*
X0066810D01*
X0067203Y0069057D02*
X0066810D01*
X0067203Y0069021D02*
X0066810D01*
X0067203Y0068986D02*
X0066810D01*
X0067203Y0068950D02*
X0066810D01*
X0067203Y0068915D02*
X0066810D01*
X0067203Y0068880D02*
X0066810D01*
X0067203Y0068844D02*
X0066810D01*
X0067203Y0068809D02*
X0066810D01*
X0067203Y0068773D02*
X0066810D01*
X0067203Y0068738D02*
X0066810D01*
X0066947Y0069340D02*
Y0068672D01*
X0066912Y0069340D02*
Y0068672D01*
X0066876Y0069340D02*
Y0068672D01*
X0066841Y0069340D02*
Y0068672D01*
X0067203Y0069304D02*
X0066810D01*
X0067203Y0069269D02*
X0066810D01*
X0067203Y0069234D02*
X0066810D01*
X0067203Y0069198D02*
X0066810D01*
X0067203Y0069163D02*
X0066810D01*
X0067203Y0069127D02*
X0066810D01*
Y0069340D02*
Y0068672D01*
X0067203D02*
X0066810D01*
X0067195Y0069340D02*
Y0068672D01*
X0067159Y0069340D02*
Y0068672D01*
X0067124Y0069340D02*
Y0068672D01*
X0067089Y0069340D02*
Y0068672D01*
X0067053Y0069340D02*
Y0068672D01*
X0067018Y0069340D02*
Y0068672D01*
X0066983Y0069340D02*
Y0068672D01*
X0067203Y0068703D02*
X0066810D01*
X0067203Y0069340D02*
Y0068672D01*
Y0069340D02*
X0066810D01*
X0067990Y0067951D02*
X0067597D01*
X0067990Y0067916D02*
X0067597D01*
X0067990Y0067880D02*
X0067597D01*
X0067990Y0067845D02*
X0067597D01*
X0067990Y0067810D02*
X0067597D01*
X0067990Y0067774D02*
X0067597D01*
X0067990Y0067739D02*
X0067597D01*
X0067990Y0067704D02*
X0067597D01*
X0067990Y0067668D02*
X0067597D01*
X0067990Y0067633D02*
X0067597D01*
X0067990Y0067597D02*
X0067597D01*
X0067734Y0068200D02*
Y0067531D01*
X0067698Y0068200D02*
Y0067531D01*
X0067663Y0068200D02*
Y0067531D01*
X0067628Y0068200D02*
Y0067531D01*
X0067990Y0068164D02*
X0067597D01*
X0067990Y0068128D02*
X0067597D01*
X0067990Y0068093D02*
X0067597D01*
X0067990Y0068057D02*
X0067597D01*
X0067990Y0068022D02*
X0067597D01*
X0067990Y0067987D02*
X0067597D01*
Y0068200D02*
Y0067531D01*
X0067990D02*
X0067597D01*
X0067982Y0068200D02*
Y0067531D01*
X0067946Y0068200D02*
Y0067531D01*
X0067911Y0068200D02*
Y0067531D01*
X0067875Y0068200D02*
Y0067531D01*
X0067840Y0068200D02*
Y0067531D01*
X0067805Y0068200D02*
Y0067531D01*
X0067769Y0068200D02*
Y0067531D01*
X0067990Y0067562D02*
X0067597D01*
X0067990Y0068200D02*
Y0067531D01*
Y0068200D02*
X0067597D01*
X0067990Y0069092D02*
X0067597D01*
X0067990Y0069057D02*
X0067597D01*
X0067990Y0069021D02*
X0067597D01*
X0067990Y0068986D02*
X0067597D01*
X0067990Y0068950D02*
X0067597D01*
X0067990Y0068915D02*
X0067597D01*
X0067990Y0068880D02*
X0067597D01*
X0067990Y0068844D02*
X0067597D01*
X0067990Y0068809D02*
X0067597D01*
X0067990Y0068773D02*
X0067597D01*
X0067990Y0068738D02*
X0067597D01*
X0067734Y0069340D02*
Y0068672D01*
X0067698Y0069340D02*
Y0068672D01*
X0067663Y0069340D02*
Y0068672D01*
X0067628Y0069340D02*
Y0068672D01*
X0067990Y0069304D02*
X0067597D01*
X0067990Y0069269D02*
X0067597D01*
X0067990Y0069234D02*
X0067597D01*
X0067990Y0069198D02*
X0067597D01*
X0067990Y0069163D02*
X0067597D01*
X0067990Y0069127D02*
X0067597D01*
Y0069340D02*
Y0068672D01*
X0067990D02*
X0067597D01*
X0067982Y0069340D02*
Y0068672D01*
X0067946Y0069340D02*
Y0068672D01*
X0067911Y0069340D02*
Y0068672D01*
X0067875Y0069340D02*
Y0068672D01*
X0067840Y0069340D02*
Y0068672D01*
X0067805Y0069340D02*
Y0068672D01*
X0067769Y0069340D02*
Y0068672D01*
X0067990Y0068703D02*
X0067597D01*
X0067990Y0069340D02*
Y0068672D01*
Y0069340D02*
X0067597D01*
X0045403Y0067531D02*
Y0068200D01*
X0045010D01*
Y0067531D01*
X0045403D01*
Y0069092D02*
X0045010D01*
X0045403Y0069057D02*
X0045010D01*
X0045403Y0069021D02*
X0045010D01*
X0045403Y0068986D02*
X0045010D01*
X0045403Y0068950D02*
X0045010D01*
X0045403Y0068915D02*
X0045010D01*
X0045403Y0068880D02*
X0045010D01*
X0045403Y0068844D02*
X0045010D01*
X0045403Y0068809D02*
X0045010D01*
X0045403Y0068773D02*
X0045010D01*
X0045403Y0068738D02*
X0045010D01*
X0045147Y0069340D02*
Y0068672D01*
X0045112Y0069340D02*
Y0068672D01*
X0045076Y0069340D02*
Y0068672D01*
X0045041Y0069340D02*
Y0068672D01*
X0045403Y0069304D02*
X0045010D01*
X0045403Y0069269D02*
X0045010D01*
X0045403Y0069234D02*
X0045010D01*
X0045403Y0069198D02*
X0045010D01*
X0045403Y0069163D02*
X0045010D01*
X0045403Y0069127D02*
X0045010D01*
Y0069340D02*
Y0068672D01*
X0045403D02*
X0045010D01*
X0045395Y0069340D02*
Y0068672D01*
X0045359Y0069340D02*
Y0068672D01*
X0045324Y0069340D02*
Y0068672D01*
X0045289Y0069340D02*
Y0068672D01*
X0045253Y0069340D02*
Y0068672D01*
X0045218Y0069340D02*
Y0068672D01*
X0045183Y0069340D02*
Y0068672D01*
X0045403Y0068703D02*
X0045010D01*
X0045403Y0069340D02*
Y0068672D01*
Y0069340D02*
X0045010D01*
X0046190Y0067951D02*
X0045797D01*
X0046190Y0067916D02*
X0045797D01*
X0046190Y0067880D02*
X0045797D01*
X0046190Y0067845D02*
X0045797D01*
X0046190Y0067810D02*
X0045797D01*
X0046190Y0067774D02*
X0045797D01*
X0046190Y0067739D02*
X0045797D01*
X0046190Y0067704D02*
X0045797D01*
X0046190Y0067668D02*
X0045797D01*
X0046190Y0067633D02*
X0045797D01*
X0046190Y0067597D02*
X0045797D01*
X0045934Y0068200D02*
Y0067531D01*
X0045898Y0068200D02*
Y0067531D01*
X0045863Y0068200D02*
Y0067531D01*
X0045828Y0068200D02*
Y0067531D01*
X0046190Y0068164D02*
X0045797D01*
X0046190Y0068128D02*
X0045797D01*
X0046190Y0068093D02*
X0045797D01*
X0046190Y0068057D02*
X0045797D01*
X0046190Y0068022D02*
X0045797D01*
X0046190Y0067987D02*
X0045797D01*
Y0068200D02*
Y0067531D01*
X0046190D02*
X0045797D01*
X0046182Y0068200D02*
Y0067531D01*
X0046146Y0068200D02*
Y0067531D01*
X0046111Y0068200D02*
Y0067531D01*
X0046075Y0068200D02*
Y0067531D01*
X0046040Y0068200D02*
Y0067531D01*
X0046005Y0068200D02*
Y0067531D01*
X0045969Y0068200D02*
Y0067531D01*
X0046190Y0067562D02*
X0045797D01*
X0046190Y0068200D02*
Y0067531D01*
Y0068200D02*
X0045797D01*
X0046190Y0069092D02*
X0045797D01*
X0046190Y0069057D02*
X0045797D01*
X0046190Y0069021D02*
X0045797D01*
X0046190Y0068986D02*
X0045797D01*
X0046190Y0068950D02*
X0045797D01*
X0046190Y0068915D02*
X0045797D01*
X0046190Y0068880D02*
X0045797D01*
X0046190Y0068844D02*
X0045797D01*
X0046190Y0068809D02*
X0045797D01*
X0046190Y0068773D02*
X0045797D01*
X0046190Y0068738D02*
X0045797D01*
X0045934Y0069340D02*
Y0068672D01*
X0045898Y0069340D02*
Y0068672D01*
X0045863Y0069340D02*
Y0068672D01*
X0045828Y0069340D02*
Y0068672D01*
X0046190Y0069304D02*
X0045797D01*
X0046190Y0069269D02*
X0045797D01*
X0046190Y0069234D02*
X0045797D01*
X0046190Y0069198D02*
X0045797D01*
X0046190Y0069163D02*
X0045797D01*
X0046190Y0069127D02*
X0045797D01*
Y0069340D02*
Y0068672D01*
X0046190D02*
X0045797D01*
X0046182Y0069340D02*
Y0068672D01*
X0046146Y0069340D02*
Y0068672D01*
X0046111Y0069340D02*
Y0068672D01*
X0046075Y0069340D02*
Y0068672D01*
X0046040Y0069340D02*
Y0068672D01*
X0046005Y0069340D02*
Y0068672D01*
X0045969Y0069340D02*
Y0068672D01*
X0046190Y0068703D02*
X0045797D01*
X0046190Y0069340D02*
Y0068672D01*
Y0069340D02*
X0045797D01*
X0014560Y0092348D02*
X0014450D01*
X0014560Y0092313D02*
X0014450D01*
X0014560Y0092277D02*
X0014450D01*
X0014560Y0092242D02*
X0014450D01*
X0014928Y0092206D02*
X0014279D01*
X0014928Y0092171D02*
X0014279D01*
X0014928Y0092136D02*
X0014279D01*
X0014928Y0092100D02*
X0014279D01*
X0014928Y0092065D02*
X0014279D01*
X0014928Y0092029D02*
X0014279D01*
X0014928Y0091994D02*
X0014279D01*
X0014928Y0091959D02*
X0014279D01*
X0014928Y0091923D02*
X0014279D01*
X0014928Y0091888D02*
X0014279D01*
X0014928Y0091852D02*
X0014279D01*
X0014928Y0091817D02*
X0014279D01*
X0014928Y0091782D02*
X0014279D01*
X0014928Y0091746D02*
X0014279D01*
X0014928Y0091711D02*
X0014279D01*
X0014928Y0091675D02*
X0014279D01*
X0014928Y0091640D02*
X0014279D01*
X0014928Y0091605D02*
X0014279D01*
X0014928Y0091569D02*
X0014279D01*
X0014928Y0091534D02*
X0014279D01*
X0014928Y0091498D02*
X0014279D01*
X0014928Y0091463D02*
X0014279D01*
X0014928Y0091428D02*
X0014279D01*
X0014928Y0091392D02*
X0014279D01*
X0014928Y0091357D02*
X0014279D01*
X0014928Y0091321D02*
X0014279D01*
X0014928Y0091286D02*
X0014279D01*
X0014560Y0091251D02*
X0014450D01*
X0014560Y0091215D02*
X0014450D01*
X0014560Y0091180D02*
X0014450D01*
X0014560Y0091144D02*
X0014450D01*
X0014560Y0091109D02*
X0014450D01*
X0014560Y0091074D02*
X0014450D01*
X0014928Y0092228D02*
X0014757D01*
X0014928D02*
Y0091283D01*
X0014757D01*
Y0091007D01*
X0014647D01*
Y0091283D02*
Y0091007D01*
Y0091283D02*
X0014560D01*
Y0091007D01*
X0014450D01*
Y0091283D02*
Y0091007D01*
Y0091283D02*
X0014279D01*
Y0092228D02*
Y0091283D01*
X0014912Y0092228D02*
Y0091283D01*
X0014876Y0092228D02*
Y0091283D01*
X0014841Y0092228D02*
Y0091283D01*
X0014805Y0092228D02*
Y0091283D01*
X0014770Y0092228D02*
Y0091283D01*
X0014735Y0092503D02*
Y0091007D01*
X0014699Y0092503D02*
Y0091007D01*
X0014664Y0092503D02*
Y0091007D01*
X0014628Y0092228D02*
Y0091283D01*
X0014593Y0092228D02*
Y0091283D01*
X0014558Y0092503D02*
Y0091007D01*
X0014522Y0092503D02*
Y0091007D01*
X0014487Y0092503D02*
Y0091007D01*
X0014452Y0092503D02*
Y0091007D01*
X0014416Y0092228D02*
Y0091283D01*
X0014381Y0092228D02*
Y0091283D01*
X0014345Y0092228D02*
Y0091283D01*
X0014310Y0092228D02*
Y0091283D01*
X0014560Y0092489D02*
X0014450D01*
X0014560Y0092454D02*
X0014450D01*
X0014560Y0092419D02*
X0014450D01*
X0014560Y0092383D02*
X0014450D01*
X0014757Y0092489D02*
X0014647D01*
X0014757Y0092454D02*
X0014647D01*
X0014757Y0092419D02*
X0014647D01*
X0014757Y0092383D02*
X0014647D01*
X0014757Y0092348D02*
X0014647D01*
X0014757Y0092313D02*
X0014647D01*
X0014757Y0092277D02*
X0014647D01*
X0014757Y0092242D02*
X0014647D01*
X0014757Y0091251D02*
X0014647D01*
X0014757Y0091215D02*
X0014647D01*
X0014757Y0091180D02*
X0014647D01*
X0014757Y0091144D02*
X0014647D01*
X0014757Y0091109D02*
X0014647D01*
X0014757Y0091074D02*
X0014647D01*
X0014757Y0091038D02*
X0014647D01*
X0014560D02*
X0014450D01*
Y0092228D02*
X0014279D01*
X0014450Y0092503D02*
Y0092228D01*
X0014560Y0092503D02*
X0014450D01*
X0014560D02*
Y0092228D01*
X0014647D02*
X0014560D01*
X0014647Y0092503D02*
Y0092228D01*
X0014757Y0092503D02*
X0014647D01*
X0014757D02*
Y0092228D01*
X0096664Y0078031D02*
X0095995D01*
X0096664Y0077995D02*
X0095995D01*
X0096664Y0077960D02*
X0095995D01*
X0096664Y0077924D02*
X0095995D01*
X0096664Y0077889D02*
X0095995D01*
X0096664Y0077854D02*
X0095995D01*
X0096664Y0077818D02*
X0095995D01*
X0096664Y0077783D02*
X0095995D01*
X0096664Y0077747D02*
X0095995D01*
X0096664Y0077712D02*
X0095995D01*
X0096380Y0078039D02*
Y0077646D01*
X0096345Y0078039D02*
Y0077646D01*
X0096309Y0078039D02*
Y0077646D01*
X0096274Y0078039D02*
Y0077646D01*
X0096239Y0078039D02*
Y0077646D01*
X0096203Y0078039D02*
Y0077646D01*
X0096168Y0078039D02*
Y0077646D01*
X0096132Y0078039D02*
Y0077646D01*
X0096097Y0078039D02*
Y0077646D01*
X0096062Y0078039D02*
Y0077646D01*
X0096026Y0078039D02*
Y0077646D01*
X0096664Y0078039D02*
X0095995D01*
Y0077646D01*
X0096628Y0078039D02*
Y0077646D01*
X0096593Y0078039D02*
Y0077646D01*
X0096557Y0078039D02*
Y0077646D01*
X0096522Y0078039D02*
Y0077646D01*
X0096486Y0078039D02*
Y0077646D01*
X0096451Y0078039D02*
Y0077646D01*
X0096416Y0078039D02*
Y0077646D01*
X0096664Y0077677D02*
X0095995D01*
X0096664Y0077646D02*
X0095995D01*
X0096664Y0078039D02*
Y0077646D01*
X0088405Y0077381D02*
X0087736D01*
X0088405Y0077345D02*
X0087736D01*
X0088405Y0077310D02*
X0087736D01*
X0088405Y0077274D02*
X0087736D01*
X0088405Y0077239D02*
X0087736D01*
X0088405Y0077204D02*
X0087736D01*
X0088405Y0077168D02*
X0087736D01*
X0088405Y0077133D02*
X0087736D01*
X0088405Y0077097D02*
X0087736D01*
X0088405Y0077062D02*
X0087736D01*
X0088121Y0077389D02*
Y0076996D01*
X0088085Y0077389D02*
Y0076996D01*
X0088050Y0077389D02*
Y0076996D01*
X0088015Y0077389D02*
Y0076996D01*
X0087979Y0077389D02*
Y0076996D01*
X0087944Y0077389D02*
Y0076996D01*
X0087909Y0077389D02*
Y0076996D01*
X0087873Y0077389D02*
Y0076996D01*
X0087838Y0077389D02*
Y0076996D01*
X0087802Y0077389D02*
Y0076996D01*
X0087767Y0077389D02*
Y0076996D01*
X0088405Y0077389D02*
X0087736D01*
Y0076996D01*
X0088369Y0077389D02*
Y0076996D01*
X0088333Y0077389D02*
Y0076996D01*
X0088298Y0077389D02*
Y0076996D01*
X0088262Y0077389D02*
Y0076996D01*
X0088227Y0077389D02*
Y0076996D01*
X0088192Y0077389D02*
Y0076996D01*
X0088156Y0077389D02*
Y0076996D01*
X0088405Y0077027D02*
X0087736D01*
X0088405Y0076996D02*
X0087736D01*
X0088405Y0077389D02*
Y0076996D01*
X0087264Y0078167D02*
X0086595D01*
X0087264Y0078132D02*
X0086595D01*
X0087264Y0078096D02*
X0086595D01*
X0087264Y0078061D02*
X0086595D01*
X0087264Y0078026D02*
X0086595D01*
X0087264Y0077990D02*
X0086595D01*
X0087264Y0077955D02*
X0086595D01*
X0087264Y0077919D02*
X0086595D01*
X0087264Y0077884D02*
X0086595D01*
X0087264Y0077849D02*
X0086595D01*
X0086980Y0078176D02*
Y0077782D01*
X0086945Y0078176D02*
Y0077782D01*
X0086909Y0078176D02*
Y0077782D01*
X0086874Y0078176D02*
Y0077782D01*
X0086839Y0078176D02*
Y0077782D01*
X0086803Y0078176D02*
Y0077782D01*
X0086768Y0078176D02*
Y0077782D01*
X0086732Y0078176D02*
Y0077782D01*
X0086697Y0078176D02*
Y0077782D01*
X0086662Y0078176D02*
Y0077782D01*
X0086626Y0078176D02*
Y0077782D01*
X0087264Y0078176D02*
X0086595D01*
Y0077782D01*
X0087228Y0078176D02*
Y0077782D01*
X0087193Y0078176D02*
Y0077782D01*
X0087157Y0078176D02*
Y0077782D01*
X0087122Y0078176D02*
Y0077782D01*
X0087086Y0078176D02*
Y0077782D01*
X0087051Y0078176D02*
Y0077782D01*
X0087016Y0078176D02*
Y0077782D01*
X0087264Y0077813D02*
X0086595D01*
X0087264Y0077782D02*
X0086595D01*
X0087264Y0078176D02*
Y0077782D01*
X0097805Y0078817D02*
X0097136D01*
X0097805Y0078782D02*
X0097136D01*
X0097805Y0078746D02*
X0097136D01*
X0097805Y0078711D02*
X0097136D01*
X0097805Y0078676D02*
X0097136D01*
X0097805Y0078640D02*
X0097136D01*
X0097805Y0078605D02*
X0097136D01*
X0097805Y0078569D02*
X0097136D01*
X0097805Y0078534D02*
X0097136D01*
X0097805Y0078499D02*
X0097136D01*
X0097521Y0078826D02*
Y0078432D01*
X0097485Y0078826D02*
Y0078432D01*
X0097450Y0078826D02*
Y0078432D01*
X0097415Y0078826D02*
Y0078432D01*
X0097379Y0078826D02*
Y0078432D01*
X0097344Y0078826D02*
Y0078432D01*
X0097309Y0078826D02*
Y0078432D01*
X0097273Y0078826D02*
Y0078432D01*
X0097238Y0078826D02*
Y0078432D01*
X0097202Y0078826D02*
Y0078432D01*
X0097167Y0078826D02*
Y0078432D01*
X0097805Y0078826D02*
X0097136D01*
Y0078432D01*
X0097769Y0078826D02*
Y0078432D01*
X0097733Y0078826D02*
Y0078432D01*
X0097698Y0078826D02*
Y0078432D01*
X0097662Y0078826D02*
Y0078432D01*
X0097627Y0078826D02*
Y0078432D01*
X0097592Y0078826D02*
Y0078432D01*
X0097556Y0078826D02*
Y0078432D01*
X0097805Y0078463D02*
X0097136D01*
X0097805Y0078432D02*
X0097136D01*
X0097805Y0078826D02*
Y0078432D01*
X0088405Y0078167D02*
X0087736D01*
X0088405Y0078132D02*
X0087736D01*
X0088405Y0078096D02*
X0087736D01*
X0088405Y0078061D02*
X0087736D01*
X0088405Y0078026D02*
X0087736D01*
X0088405Y0077990D02*
X0087736D01*
X0088405Y0077955D02*
X0087736D01*
X0088405Y0077919D02*
X0087736D01*
X0088405Y0077884D02*
X0087736D01*
X0088405Y0077849D02*
X0087736D01*
X0088121Y0078176D02*
Y0077782D01*
X0088085Y0078176D02*
Y0077782D01*
X0088050Y0078176D02*
Y0077782D01*
X0088015Y0078176D02*
Y0077782D01*
X0087979Y0078176D02*
Y0077782D01*
X0087944Y0078176D02*
Y0077782D01*
X0087909Y0078176D02*
Y0077782D01*
X0087873Y0078176D02*
Y0077782D01*
X0087838Y0078176D02*
Y0077782D01*
X0087802Y0078176D02*
Y0077782D01*
X0087767Y0078176D02*
Y0077782D01*
X0088405Y0078176D02*
X0087736D01*
Y0077782D01*
X0088369Y0078176D02*
Y0077782D01*
X0088333Y0078176D02*
Y0077782D01*
X0088298Y0078176D02*
Y0077782D01*
X0088262Y0078176D02*
Y0077782D01*
X0088227Y0078176D02*
Y0077782D01*
X0088192Y0078176D02*
Y0077782D01*
X0088156Y0078176D02*
Y0077782D01*
X0088405Y0077813D02*
X0087736D01*
X0088405Y0077782D02*
X0087736D01*
X0088405Y0078176D02*
Y0077782D01*
X0097805Y0078031D02*
X0097136D01*
X0097805Y0077995D02*
X0097136D01*
X0097805Y0077960D02*
X0097136D01*
X0097805Y0077924D02*
X0097136D01*
X0097805Y0077889D02*
X0097136D01*
X0097805Y0077854D02*
X0097136D01*
X0097805Y0077818D02*
X0097136D01*
X0097805Y0077783D02*
X0097136D01*
X0097805Y0077747D02*
X0097136D01*
X0097805Y0077712D02*
X0097136D01*
X0097521Y0078039D02*
Y0077646D01*
X0097485Y0078039D02*
Y0077646D01*
X0097450Y0078039D02*
Y0077646D01*
X0097415Y0078039D02*
Y0077646D01*
X0097379Y0078039D02*
Y0077646D01*
X0097344Y0078039D02*
Y0077646D01*
X0097309Y0078039D02*
Y0077646D01*
X0097273Y0078039D02*
Y0077646D01*
X0097238Y0078039D02*
Y0077646D01*
X0097202Y0078039D02*
Y0077646D01*
X0097167Y0078039D02*
Y0077646D01*
X0097805Y0078039D02*
X0097136D01*
Y0077646D01*
X0097769Y0078039D02*
Y0077646D01*
X0097733Y0078039D02*
Y0077646D01*
X0097698Y0078039D02*
Y0077646D01*
X0097662Y0078039D02*
Y0077646D01*
X0097627Y0078039D02*
Y0077646D01*
X0097592Y0078039D02*
Y0077646D01*
X0097556Y0078039D02*
Y0077646D01*
X0097805Y0077677D02*
X0097136D01*
X0097805Y0077646D02*
X0097136D01*
X0097805Y0078039D02*
Y0077646D01*
X0087264Y0077381D02*
X0086595D01*
X0087264Y0077345D02*
X0086595D01*
X0087264Y0077310D02*
X0086595D01*
X0087264Y0077274D02*
X0086595D01*
X0087264Y0077239D02*
X0086595D01*
X0087264Y0077204D02*
X0086595D01*
X0087264Y0077168D02*
X0086595D01*
X0087264Y0077133D02*
X0086595D01*
X0087264Y0077097D02*
X0086595D01*
X0087264Y0077062D02*
X0086595D01*
X0086980Y0077389D02*
Y0076996D01*
X0086945Y0077389D02*
Y0076996D01*
X0086909Y0077389D02*
Y0076996D01*
X0086874Y0077389D02*
Y0076996D01*
X0086839Y0077389D02*
Y0076996D01*
X0086803Y0077389D02*
Y0076996D01*
X0086768Y0077389D02*
Y0076996D01*
X0086732Y0077389D02*
Y0076996D01*
X0086697Y0077389D02*
Y0076996D01*
X0086662Y0077389D02*
Y0076996D01*
X0086626Y0077389D02*
Y0076996D01*
X0087264Y0077389D02*
X0086595D01*
Y0076996D01*
X0087228Y0077389D02*
Y0076996D01*
X0087193Y0077389D02*
Y0076996D01*
X0087157Y0077389D02*
Y0076996D01*
X0087122Y0077389D02*
Y0076996D01*
X0087086Y0077389D02*
Y0076996D01*
X0087051Y0077389D02*
Y0076996D01*
X0087016Y0077389D02*
Y0076996D01*
X0087264Y0077027D02*
X0086595D01*
X0087264Y0076996D02*
X0086595D01*
X0087264Y0077389D02*
Y0076996D01*
X0096664Y0078817D02*
X0095995D01*
X0096664Y0078782D02*
X0095995D01*
X0096664Y0078746D02*
X0095995D01*
X0096664Y0078711D02*
X0095995D01*
X0096664Y0078676D02*
X0095995D01*
X0096664Y0078640D02*
X0095995D01*
X0096664Y0078605D02*
X0095995D01*
X0096664Y0078569D02*
X0095995D01*
X0096664Y0078534D02*
X0095995D01*
X0096664Y0078499D02*
X0095995D01*
X0096380Y0078826D02*
Y0078432D01*
X0096345Y0078826D02*
Y0078432D01*
X0096309Y0078826D02*
Y0078432D01*
X0096274Y0078826D02*
Y0078432D01*
X0096239Y0078826D02*
Y0078432D01*
X0096203Y0078826D02*
Y0078432D01*
X0096168Y0078826D02*
Y0078432D01*
X0096132Y0078826D02*
Y0078432D01*
X0096097Y0078826D02*
Y0078432D01*
X0096062Y0078826D02*
Y0078432D01*
X0096026Y0078826D02*
Y0078432D01*
X0096664Y0078826D02*
X0095995D01*
Y0078432D01*
X0096628Y0078826D02*
Y0078432D01*
X0096593Y0078826D02*
Y0078432D01*
X0096557Y0078826D02*
Y0078432D01*
X0096522Y0078826D02*
Y0078432D01*
X0096486Y0078826D02*
Y0078432D01*
X0096451Y0078826D02*
Y0078432D01*
X0096416Y0078826D02*
Y0078432D01*
X0096664Y0078463D02*
X0095995D01*
X0096664Y0078432D02*
X0095995D01*
X0096664Y0078826D02*
Y0078432D01*
G54D102*
G01X0040494Y0018720D02*
Y0018484D01*
X0040458Y0018720D02*
Y0018484D01*
X0040422Y0018720D02*
Y0018484D01*
X0040386Y0018720D02*
Y0018484D01*
X0040582Y0018704D02*
X0040346D01*
X0040582Y0018668D02*
X0040346D01*
X0041054Y0018632D02*
X0040346D01*
X0041054Y0018596D02*
X0040346D01*
X0041054Y0018560D02*
X0040346D01*
X0040582Y0018524D02*
X0040346D01*
X0040890Y0018720D02*
Y0018484D01*
X0040782Y0018642D02*
Y0018563D01*
X0040746Y0018642D02*
Y0018563D01*
X0040710Y0018642D02*
Y0018563D01*
X0040674Y0018642D02*
Y0018563D01*
X0040638Y0018642D02*
Y0018563D01*
X0040602Y0018642D02*
Y0018563D01*
X0040566Y0018720D02*
Y0018484D01*
X0040530Y0018720D02*
Y0018484D01*
X0040582Y0018720D02*
X0040346D01*
X0040582D02*
Y0018642D01*
X0040818D02*
X0040582D01*
X0040818Y0018720D02*
Y0018642D01*
X0041054Y0018720D02*
X0040818D01*
X0041054D02*
Y0018484D01*
X0040818Y0018642D02*
Y0018563D01*
X0041034Y0018720D02*
Y0018484D01*
X0040998Y0018720D02*
Y0018484D01*
X0040962Y0018720D02*
Y0018484D01*
X0040926Y0018720D02*
Y0018484D01*
X0041054Y0018704D02*
X0040818D01*
X0041054Y0018668D02*
X0040818D01*
X0040854Y0018720D02*
Y0018484D01*
X0041054Y0018524D02*
X0040818D01*
X0041054Y0018484D02*
X0040818D01*
Y0018563D02*
Y0018484D01*
Y0018563D02*
X0040582D01*
Y0018484D01*
X0040346D01*
Y0018720D02*
Y0018484D01*
X0071203Y0018720D02*
Y0018484D01*
X0071167Y0018720D02*
Y0018484D01*
X0071131Y0018720D02*
Y0018484D01*
X0071095Y0018720D02*
Y0018484D01*
X0071291Y0018704D02*
X0071055D01*
X0071291Y0018668D02*
X0071055D01*
X0071763Y0018632D02*
X0071055D01*
X0071763Y0018596D02*
X0071055D01*
X0071763Y0018560D02*
X0071055D01*
X0071291Y0018524D02*
X0071055D01*
X0071599Y0018720D02*
Y0018484D01*
X0071491Y0018642D02*
Y0018563D01*
X0071455Y0018642D02*
Y0018563D01*
X0071419Y0018642D02*
Y0018563D01*
X0071383Y0018642D02*
Y0018563D01*
X0071347Y0018642D02*
Y0018563D01*
X0071311Y0018642D02*
Y0018563D01*
X0071275Y0018720D02*
Y0018484D01*
X0071239Y0018720D02*
Y0018484D01*
X0071291Y0018720D02*
X0071055D01*
X0071291D02*
Y0018642D01*
X0071527D02*
X0071291D01*
X0071527Y0018720D02*
Y0018642D01*
X0071763Y0018720D02*
X0071527D01*
X0071763D02*
Y0018484D01*
X0071527Y0018642D02*
Y0018563D01*
X0071743Y0018720D02*
Y0018484D01*
X0071707Y0018720D02*
Y0018484D01*
X0071671Y0018720D02*
Y0018484D01*
X0071635Y0018720D02*
Y0018484D01*
X0071763Y0018704D02*
X0071527D01*
X0071763Y0018668D02*
X0071527D01*
X0071563Y0018720D02*
Y0018484D01*
X0071763Y0018524D02*
X0071527D01*
X0071763Y0018484D02*
X0071527D01*
Y0018563D02*
Y0018484D01*
Y0018563D02*
X0071291D01*
Y0018484D01*
X0071055D01*
Y0018720D02*
Y0018484D01*
X0054962Y0033042D02*
Y0032806D01*
X0054926Y0033042D02*
Y0032806D01*
X0054890Y0033042D02*
Y0032806D01*
X0054854Y0033042D02*
Y0032806D01*
X0055050Y0033026D02*
X0054814D01*
X0055050Y0032990D02*
X0054814D01*
X0055522Y0032954D02*
X0054814D01*
X0055522Y0032918D02*
X0054814D01*
X0055522Y0032882D02*
X0054814D01*
X0055050Y0032846D02*
X0054814D01*
X0055358Y0033042D02*
Y0032806D01*
X0055250Y0032963D02*
Y0032884D01*
X0055214Y0032963D02*
Y0032884D01*
X0055178Y0032963D02*
Y0032884D01*
X0055142Y0032963D02*
Y0032884D01*
X0055106Y0032963D02*
Y0032884D01*
X0055070Y0032963D02*
Y0032884D01*
X0055034Y0033042D02*
Y0032806D01*
X0054998Y0033042D02*
Y0032806D01*
X0055050Y0033042D02*
X0054814D01*
X0055050D02*
Y0032963D01*
X0055286D02*
X0055050D01*
X0055286Y0033042D02*
Y0032963D01*
X0055522Y0033042D02*
X0055286D01*
X0055522D02*
Y0032806D01*
X0055286Y0032963D02*
Y0032884D01*
X0055502Y0033042D02*
Y0032806D01*
X0055466Y0033042D02*
Y0032806D01*
X0055430Y0033042D02*
Y0032806D01*
X0055394Y0033042D02*
Y0032806D01*
X0055522Y0033026D02*
X0055286D01*
X0055522Y0032990D02*
X0055286D01*
X0055322Y0033042D02*
Y0032806D01*
X0055522Y0032846D02*
X0055286D01*
X0055522Y0032806D02*
X0055286D01*
Y0032884D02*
Y0032806D01*
Y0032884D02*
X0055050D01*
Y0032806D01*
X0054814D01*
Y0033042D02*
Y0032806D01*
X0043151Y0036388D02*
Y0036152D01*
X0043115Y0036388D02*
Y0036152D01*
X0043079Y0036388D02*
Y0036152D01*
X0043043Y0036388D02*
Y0036152D01*
X0043239Y0036372D02*
X0043003D01*
X0043239Y0036336D02*
X0043003D01*
X0043711Y0036300D02*
X0043003D01*
X0043711Y0036264D02*
X0043003D01*
X0043711Y0036228D02*
X0043003D01*
X0043239Y0036192D02*
X0043003D01*
X0043547Y0036388D02*
Y0036152D01*
X0043439Y0036309D02*
Y0036231D01*
X0043403Y0036309D02*
Y0036231D01*
X0043367Y0036309D02*
Y0036231D01*
X0043331Y0036309D02*
Y0036231D01*
X0043295Y0036309D02*
Y0036231D01*
X0043259Y0036309D02*
Y0036231D01*
X0043223Y0036388D02*
Y0036152D01*
X0043187Y0036388D02*
Y0036152D01*
X0043239Y0036388D02*
X0043003D01*
X0043239D02*
Y0036309D01*
X0043475D02*
X0043239D01*
X0043475Y0036388D02*
Y0036309D01*
X0043711Y0036388D02*
X0043475D01*
X0043711D02*
Y0036152D01*
X0043475Y0036309D02*
Y0036231D01*
X0043691Y0036388D02*
Y0036152D01*
X0043655Y0036388D02*
Y0036152D01*
X0043619Y0036388D02*
Y0036152D01*
X0043583Y0036388D02*
Y0036152D01*
X0043711Y0036372D02*
X0043475D01*
X0043711Y0036336D02*
X0043475D01*
X0043511Y0036388D02*
Y0036152D01*
X0043711Y0036192D02*
X0043475D01*
X0043711Y0036152D02*
X0043475D01*
Y0036231D02*
Y0036152D01*
Y0036231D02*
X0043239D01*
Y0036152D01*
X0043003D01*
Y0036388D02*
Y0036152D01*
X0054962Y0036388D02*
Y0036152D01*
X0054926Y0036388D02*
Y0036152D01*
X0054890Y0036388D02*
Y0036152D01*
X0054854Y0036388D02*
Y0036152D01*
X0055050Y0036372D02*
X0054814D01*
X0055050Y0036336D02*
X0054814D01*
X0055522Y0036300D02*
X0054814D01*
X0055522Y0036264D02*
X0054814D01*
X0055522Y0036228D02*
X0054814D01*
X0055050Y0036192D02*
X0054814D01*
X0055358Y0036388D02*
Y0036152D01*
X0055322Y0036388D02*
Y0036152D01*
X0055286Y0036309D02*
Y0036231D01*
X0055250Y0036309D02*
Y0036231D01*
X0055214Y0036309D02*
Y0036231D01*
X0055178Y0036309D02*
Y0036231D01*
X0055142Y0036309D02*
Y0036231D01*
X0055106Y0036309D02*
Y0036231D01*
X0055070Y0036309D02*
Y0036231D01*
X0055034Y0036388D02*
Y0036152D01*
X0054998Y0036388D02*
Y0036152D01*
X0055522D02*
X0055286D01*
Y0036231D02*
Y0036152D01*
Y0036231D02*
X0055050D01*
Y0036152D01*
X0054814D01*
Y0036388D02*
Y0036152D01*
X0055502Y0036388D02*
Y0036152D01*
X0055466Y0036388D02*
Y0036152D01*
X0055430Y0036388D02*
Y0036152D01*
X0055394Y0036388D02*
Y0036152D01*
X0055522Y0036372D02*
X0055286D01*
X0055522Y0036336D02*
X0055286D01*
X0055522Y0036192D02*
X0055286D01*
X0055050Y0036388D02*
X0054814D01*
X0055050D02*
Y0036309D01*
X0055286D02*
X0055050D01*
X0055286Y0036388D02*
Y0036309D01*
X0055522Y0036388D02*
X0055286D01*
X0055522D02*
Y0036152D01*
X0083654Y0023297D02*
Y0023061D01*
X0083618Y0023297D02*
Y0023061D01*
X0083582Y0023297D02*
Y0023061D01*
X0083546Y0023297D02*
Y0023061D01*
X0083742Y0023281D02*
X0083506D01*
X0083742Y0023245D02*
X0083506D01*
X0084214Y0023209D02*
X0083506D01*
X0084214Y0023173D02*
X0083506D01*
X0084214Y0023137D02*
X0083506D01*
X0083742Y0023101D02*
X0083506D01*
X0084050Y0023297D02*
Y0023061D01*
X0083942Y0023219D02*
Y0023140D01*
X0083906Y0023219D02*
Y0023140D01*
X0083870Y0023219D02*
Y0023140D01*
X0083834Y0023219D02*
Y0023140D01*
X0083798Y0023219D02*
Y0023140D01*
X0083762Y0023219D02*
Y0023140D01*
X0083726Y0023297D02*
Y0023061D01*
X0083690Y0023297D02*
Y0023061D01*
X0083742Y0023297D02*
X0083506D01*
X0083742D02*
Y0023219D01*
X0083978D02*
X0083742D01*
X0083978Y0023297D02*
Y0023219D01*
X0084214Y0023297D02*
X0083978D01*
X0084214D02*
Y0023061D01*
X0083978Y0023219D02*
Y0023140D01*
X0084194Y0023297D02*
Y0023061D01*
X0084158Y0023297D02*
Y0023061D01*
X0084122Y0023297D02*
Y0023061D01*
X0084086Y0023297D02*
Y0023061D01*
X0084214Y0023281D02*
X0083978D01*
X0084214Y0023245D02*
X0083978D01*
X0084014Y0023297D02*
Y0023061D01*
X0084214Y0023101D02*
X0083978D01*
X0084214Y0023061D02*
X0083978D01*
Y0023140D02*
Y0023061D01*
Y0023140D02*
X0083742D01*
Y0023061D01*
X0083506D01*
Y0023297D02*
Y0023061D01*
X0060966Y0018720D02*
Y0018484D01*
X0060930Y0018720D02*
Y0018484D01*
X0060894Y0018720D02*
Y0018484D01*
X0060858Y0018720D02*
Y0018484D01*
X0061054Y0018704D02*
X0060818D01*
X0061054Y0018668D02*
X0060818D01*
X0061526Y0018632D02*
X0060818D01*
X0061526Y0018596D02*
X0060818D01*
X0061526Y0018560D02*
X0060818D01*
X0061054Y0018524D02*
X0060818D01*
X0061362Y0018720D02*
Y0018484D01*
X0061254Y0018642D02*
Y0018563D01*
X0061218Y0018642D02*
Y0018563D01*
X0061182Y0018642D02*
Y0018563D01*
X0061146Y0018642D02*
Y0018563D01*
X0061110Y0018642D02*
Y0018563D01*
X0061074Y0018642D02*
Y0018563D01*
X0061038Y0018720D02*
Y0018484D01*
X0061002Y0018720D02*
Y0018484D01*
X0061054Y0018720D02*
X0060818D01*
X0061054D02*
Y0018642D01*
X0061290D02*
X0061054D01*
X0061290Y0018720D02*
Y0018642D01*
X0061526Y0018720D02*
X0061290D01*
X0061526D02*
Y0018484D01*
X0061290Y0018642D02*
Y0018563D01*
X0061506Y0018720D02*
Y0018484D01*
X0061470Y0018720D02*
Y0018484D01*
X0061434Y0018720D02*
Y0018484D01*
X0061398Y0018720D02*
Y0018484D01*
X0061526Y0018704D02*
X0061290D01*
X0061526Y0018668D02*
X0061290D01*
X0061326Y0018720D02*
Y0018484D01*
X0061526Y0018524D02*
X0061290D01*
X0061526Y0018484D02*
X0061290D01*
Y0018563D02*
Y0018484D01*
Y0018563D02*
X0061054D01*
Y0018484D01*
X0060818D01*
Y0018720D02*
Y0018484D01*
X0047889Y0070432D02*
X0047811D01*
X0047889Y0070396D02*
X0047811D01*
X0047889Y0070360D02*
X0047811D01*
X0047889Y0070324D02*
X0047811D01*
X0047889Y0070288D02*
X0047811D01*
X0047968Y0070252D02*
X0047732D01*
X0047968Y0070216D02*
X0047732D01*
X0047968Y0070180D02*
X0047732D01*
X0047968Y0070144D02*
X0047732D01*
X0047968Y0070108D02*
X0047732D01*
X0047968Y0070072D02*
X0047732D01*
X0047808Y0070740D02*
Y0070032D01*
X0047772Y0070268D02*
Y0070032D01*
Y0070740D02*
Y0070504D01*
X0047968Y0070720D02*
X0047732D01*
X0047968Y0070684D02*
X0047732D01*
X0047968Y0070648D02*
X0047732D01*
X0047968Y0070612D02*
X0047732D01*
X0047968Y0070576D02*
X0047732D01*
X0047968Y0070540D02*
X0047732D01*
X0047889Y0070504D02*
X0047811D01*
X0047889Y0070468D02*
X0047811D01*
X0047732Y0070268D02*
Y0070032D01*
X0047811Y0070268D02*
X0047732D01*
X0047811Y0070504D02*
Y0070268D01*
Y0070504D02*
X0047732D01*
Y0070740D02*
Y0070504D01*
X0047968Y0070740D02*
X0047732D01*
X0047952Y0070268D02*
Y0070032D01*
X0047916Y0070268D02*
Y0070032D01*
X0047880Y0070740D02*
Y0070032D01*
X0047844Y0070740D02*
Y0070032D01*
X0047952Y0070740D02*
Y0070504D01*
X0047916Y0070740D02*
Y0070504D01*
X0047968Y0070740D02*
Y0070504D01*
X0047889D01*
Y0070268D01*
X0047968D02*
X0047889D01*
X0047968D02*
Y0070032D01*
X0047732D01*
X0050730Y0018720D02*
Y0018484D01*
X0050694Y0018720D02*
Y0018484D01*
X0050658Y0018720D02*
Y0018484D01*
X0050622Y0018720D02*
Y0018484D01*
X0050818Y0018704D02*
X0050582D01*
X0050818Y0018668D02*
X0050582D01*
X0051290Y0018632D02*
X0050582D01*
X0051290Y0018596D02*
X0050582D01*
X0051290Y0018560D02*
X0050582D01*
X0050818Y0018524D02*
X0050582D01*
X0051126Y0018720D02*
Y0018484D01*
X0051018Y0018642D02*
Y0018563D01*
X0050982Y0018642D02*
Y0018563D01*
X0050946Y0018642D02*
Y0018563D01*
X0050910Y0018642D02*
Y0018563D01*
X0050874Y0018642D02*
Y0018563D01*
X0050838Y0018642D02*
Y0018563D01*
X0050802Y0018720D02*
Y0018484D01*
X0050766Y0018720D02*
Y0018484D01*
X0050818Y0018720D02*
X0050582D01*
X0050818D02*
Y0018642D01*
X0051054D02*
X0050818D01*
X0051054Y0018720D02*
Y0018642D01*
X0051290Y0018720D02*
X0051054D01*
X0051290D02*
Y0018484D01*
X0051054Y0018642D02*
Y0018563D01*
X0051270Y0018720D02*
Y0018484D01*
X0051234Y0018720D02*
Y0018484D01*
X0051198Y0018720D02*
Y0018484D01*
X0051162Y0018720D02*
Y0018484D01*
X0051290Y0018704D02*
X0051054D01*
X0051290Y0018668D02*
X0051054D01*
X0051090Y0018720D02*
Y0018484D01*
X0051290Y0018524D02*
X0051054D01*
X0051290Y0018484D02*
X0051054D01*
Y0018563D02*
Y0018484D01*
Y0018563D02*
X0050818D01*
Y0018484D01*
X0050582D01*
Y0018720D02*
Y0018484D01*
X0069789Y0070432D02*
X0069711D01*
X0069789Y0070396D02*
X0069711D01*
X0069789Y0070360D02*
X0069711D01*
X0069789Y0070324D02*
X0069711D01*
X0069789Y0070288D02*
X0069711D01*
X0069868Y0070252D02*
X0069632D01*
X0069868Y0070216D02*
X0069632D01*
X0069868Y0070180D02*
X0069632D01*
X0069868Y0070144D02*
X0069632D01*
X0069868Y0070108D02*
X0069632D01*
X0069868Y0070072D02*
X0069632D01*
X0069708Y0070740D02*
Y0070032D01*
X0069672Y0070268D02*
Y0070032D01*
Y0070740D02*
Y0070504D01*
X0069868Y0070720D02*
X0069632D01*
X0069868Y0070684D02*
X0069632D01*
X0069868Y0070648D02*
X0069632D01*
X0069868Y0070612D02*
X0069632D01*
X0069868Y0070576D02*
X0069632D01*
X0069868Y0070540D02*
X0069632D01*
X0069789Y0070504D02*
X0069711D01*
X0069789Y0070468D02*
X0069711D01*
X0069632Y0070268D02*
Y0070032D01*
X0069711Y0070268D02*
X0069632D01*
X0069711Y0070504D02*
Y0070268D01*
Y0070504D02*
X0069632D01*
Y0070740D02*
Y0070504D01*
X0069868Y0070740D02*
X0069632D01*
X0069852Y0070268D02*
Y0070032D01*
X0069816Y0070268D02*
Y0070032D01*
X0069780Y0070740D02*
Y0070032D01*
X0069744Y0070740D02*
Y0070032D01*
X0069852Y0070740D02*
Y0070504D01*
X0069816Y0070740D02*
Y0070504D01*
X0069868Y0070740D02*
Y0070504D01*
X0069789D01*
Y0070268D01*
X0069868D02*
X0069789D01*
X0069868D02*
Y0070032D01*
X0069632D01*
X0076639Y0068132D02*
X0076561D01*
X0076639Y0068096D02*
X0076561D01*
X0076639Y0068060D02*
X0076561D01*
X0076639Y0068024D02*
X0076561D01*
X0076639Y0067988D02*
X0076561D01*
X0076718Y0067952D02*
X0076482D01*
X0076718Y0067916D02*
X0076482D01*
X0076718Y0067880D02*
X0076482D01*
X0076718Y0067844D02*
X0076482D01*
X0076718Y0067808D02*
X0076482D01*
X0076718Y0067772D02*
X0076482D01*
X0076558Y0068440D02*
Y0067732D01*
X0076522Y0067968D02*
Y0067732D01*
Y0068440D02*
Y0068204D01*
X0076718Y0068420D02*
X0076482D01*
X0076718Y0068384D02*
X0076482D01*
X0076718Y0068348D02*
X0076482D01*
X0076718Y0068312D02*
X0076482D01*
X0076718Y0068276D02*
X0076482D01*
X0076718Y0068240D02*
X0076482D01*
X0076639Y0068204D02*
X0076561D01*
X0076639Y0068168D02*
X0076561D01*
X0076482Y0067968D02*
Y0067732D01*
X0076561Y0067968D02*
X0076482D01*
X0076561Y0068204D02*
Y0067968D01*
Y0068204D02*
X0076482D01*
Y0068440D02*
Y0068204D01*
X0076718Y0068440D02*
X0076482D01*
X0076702Y0067968D02*
Y0067732D01*
X0076666Y0067968D02*
Y0067732D01*
X0076630Y0068440D02*
Y0067732D01*
X0076594Y0068440D02*
Y0067732D01*
X0076702Y0068440D02*
Y0068204D01*
X0076666Y0068440D02*
Y0068204D01*
X0076718Y0068440D02*
Y0068204D01*
X0076639D01*
Y0067968D01*
X0076718D02*
X0076639D01*
X0076718D02*
Y0067732D01*
X0076482D01*
X0083339Y0070432D02*
X0083261D01*
X0083339Y0070396D02*
X0083261D01*
X0083339Y0070360D02*
X0083261D01*
X0083339Y0070324D02*
X0083261D01*
X0083339Y0070288D02*
X0083261D01*
X0083418Y0070252D02*
X0083182D01*
X0083418Y0070216D02*
X0083182D01*
X0083418Y0070180D02*
X0083182D01*
X0083418Y0070144D02*
X0083182D01*
X0083418Y0070108D02*
X0083182D01*
X0083418Y0070072D02*
X0083182D01*
X0083258Y0070740D02*
Y0070032D01*
X0083222Y0070268D02*
Y0070032D01*
Y0070740D02*
Y0070504D01*
X0083418Y0070720D02*
X0083182D01*
X0083418Y0070684D02*
X0083182D01*
X0083418Y0070648D02*
X0083182D01*
X0083418Y0070612D02*
X0083182D01*
X0083418Y0070576D02*
X0083182D01*
X0083366Y0070740D02*
Y0070504D01*
X0083339Y0070468D02*
X0083261D01*
X0083418Y0070740D02*
Y0070504D01*
X0083339D01*
Y0070268D01*
X0083418D02*
X0083339D01*
X0083418D02*
Y0070032D01*
X0083182D01*
X0083339Y0070504D02*
X0083261D01*
X0083402Y0070268D02*
Y0070032D01*
X0083366Y0070268D02*
Y0070032D01*
X0083330Y0070740D02*
Y0070032D01*
X0083294Y0070740D02*
Y0070032D01*
X0083418Y0070540D02*
X0083182D01*
X0083402Y0070740D02*
Y0070504D01*
X0083182Y0070268D02*
Y0070032D01*
X0083261Y0070268D02*
X0083182D01*
X0083261Y0070504D02*
Y0070268D01*
Y0070504D02*
X0083182D01*
Y0070740D02*
Y0070504D01*
X0083418Y0070740D02*
X0083182D01*
X0099439Y0078082D02*
X0099361D01*
X0099439Y0078046D02*
X0099361D01*
X0099439Y0078010D02*
X0099361D01*
X0099439Y0077974D02*
X0099361D01*
X0099439Y0077938D02*
X0099361D01*
X0099518Y0077902D02*
X0099282D01*
X0099518Y0077866D02*
X0099282D01*
X0099518Y0077830D02*
X0099282D01*
X0099518Y0077794D02*
X0099282D01*
X0099518Y0077758D02*
X0099282D01*
X0099518Y0077722D02*
X0099282D01*
X0099358Y0078390D02*
Y0077682D01*
X0099322Y0077918D02*
Y0077682D01*
Y0078390D02*
Y0078154D01*
X0099518Y0078370D02*
X0099282D01*
X0099518Y0078334D02*
X0099282D01*
X0099518Y0078298D02*
X0099282D01*
X0099518Y0078262D02*
X0099282D01*
X0099518Y0078226D02*
X0099282D01*
X0099518Y0078190D02*
X0099282D01*
X0099439Y0078154D02*
X0099361D01*
X0099439Y0078118D02*
X0099361D01*
X0099282Y0077918D02*
Y0077682D01*
X0099361Y0077918D02*
X0099282D01*
X0099361Y0078154D02*
Y0077918D01*
Y0078154D02*
X0099282D01*
Y0078390D02*
Y0078154D01*
X0099518Y0078390D02*
X0099282D01*
X0099502Y0077918D02*
Y0077682D01*
X0099466Y0077918D02*
Y0077682D01*
X0099430Y0078390D02*
Y0077682D01*
X0099394Y0078390D02*
Y0077682D01*
X0099502Y0078390D02*
Y0078154D01*
X0099466Y0078390D02*
Y0078154D01*
X0099518Y0078390D02*
Y0078154D01*
X0099439D01*
Y0077918D01*
X0099518D02*
X0099439D01*
X0099518D02*
Y0077682D01*
X0099282D01*
X0089244Y0074754D02*
Y0074518D01*
X0089208Y0074754D02*
Y0074518D01*
X0089172Y0074754D02*
Y0074518D01*
X0089136Y0074754D02*
Y0074518D01*
X0089332Y0074738D02*
X0089096D01*
X0089332Y0074702D02*
X0089096D01*
X0089804Y0074666D02*
X0089096D01*
X0089804Y0074630D02*
X0089096D01*
X0089804Y0074594D02*
X0089096D01*
X0089332Y0074558D02*
X0089096D01*
X0089640Y0074754D02*
Y0074518D01*
X0089532Y0074675D02*
Y0074596D01*
X0089496Y0074675D02*
Y0074596D01*
X0089460Y0074675D02*
Y0074596D01*
X0089424Y0074675D02*
Y0074596D01*
X0089388Y0074675D02*
Y0074596D01*
X0089352Y0074675D02*
Y0074596D01*
X0089316Y0074754D02*
Y0074518D01*
X0089280Y0074754D02*
Y0074518D01*
X0089332Y0074754D02*
X0089096D01*
X0089332D02*
Y0074675D01*
X0089568D02*
X0089332D01*
X0089568Y0074754D02*
Y0074675D01*
X0089804Y0074754D02*
X0089568D01*
X0089804D02*
Y0074518D01*
X0089568Y0074675D02*
Y0074596D01*
X0089784Y0074754D02*
Y0074518D01*
X0089748Y0074754D02*
Y0074518D01*
X0089712Y0074754D02*
Y0074518D01*
X0089676Y0074754D02*
Y0074518D01*
X0089804Y0074738D02*
X0089568D01*
X0089804Y0074702D02*
X0089568D01*
X0089604Y0074754D02*
Y0074518D01*
X0089804Y0074558D02*
X0089568D01*
X0089804Y0074518D02*
X0089568D01*
Y0074596D02*
Y0074518D01*
Y0074596D02*
X0089332D01*
Y0074518D01*
X0089096D01*
Y0074754D02*
Y0074518D01*
X0109097Y0088997D02*
Y0088761D01*
X0109061Y0088997D02*
Y0088761D01*
X0109025Y0088997D02*
Y0088761D01*
X0108989Y0088997D02*
Y0088761D01*
X0109185Y0088981D02*
X0108949D01*
X0109185Y0088945D02*
X0108949D01*
X0109657Y0088909D02*
X0108949D01*
X0109657Y0088873D02*
X0108949D01*
X0109657Y0088837D02*
X0108949D01*
X0109185Y0088801D02*
X0108949D01*
X0109493Y0088997D02*
Y0088761D01*
X0109385Y0088919D02*
Y0088840D01*
X0109349Y0088919D02*
Y0088840D01*
X0109313Y0088919D02*
Y0088840D01*
X0109277Y0088919D02*
Y0088840D01*
X0109241Y0088919D02*
Y0088840D01*
X0109205Y0088919D02*
Y0088840D01*
X0109169Y0088997D02*
Y0088761D01*
X0109133Y0088997D02*
Y0088761D01*
X0109185Y0088997D02*
X0108949D01*
X0109185D02*
Y0088919D01*
X0109421D02*
X0109185D01*
X0109421Y0088997D02*
Y0088919D01*
X0109657Y0088997D02*
X0109421D01*
X0109657D02*
Y0088761D01*
X0109421Y0088919D02*
Y0088840D01*
X0109637Y0088997D02*
Y0088761D01*
X0109601Y0088997D02*
Y0088761D01*
X0109565Y0088997D02*
Y0088761D01*
X0109529Y0088997D02*
Y0088761D01*
X0109657Y0088981D02*
X0109421D01*
X0109657Y0088945D02*
X0109421D01*
X0109457Y0088997D02*
Y0088761D01*
X0109657Y0088801D02*
X0109421D01*
X0109657Y0088761D02*
X0109421D01*
Y0088840D02*
Y0088761D01*
Y0088840D02*
X0109185D01*
Y0088761D01*
X0108949D01*
Y0088997D02*
Y0088761D01*
G54D107*
G01X0077981Y0025903D02*
Y0024230D01*
X0077928Y0025903D02*
Y0024230D01*
X0077875Y0025903D02*
Y0024230D01*
X0077822Y0025903D02*
Y0024230D01*
X0077768Y0025903D02*
Y0024230D01*
X0077715Y0025903D02*
Y0024230D01*
X0077662Y0025903D02*
Y0024230D01*
X0077609Y0025903D02*
Y0024230D01*
X0077556Y0025903D02*
Y0024230D01*
X0077503Y0025903D02*
Y0024230D01*
X0077450Y0025903D02*
Y0024230D01*
X0077397Y0025903D02*
Y0024230D01*
X0077344Y0025903D02*
Y0024230D01*
X0078911Y0025876D02*
X0077238D01*
X0078911Y0025822D02*
X0077238D01*
X0078911Y0025769D02*
X0077238D01*
X0078911Y0025716D02*
X0077238D01*
X0078911Y0025663D02*
X0077238D01*
X0078911Y0025610D02*
X0077238D01*
X0078911Y0025557D02*
X0077238D01*
X0078911Y0025504D02*
X0077238D01*
X0078911Y0025451D02*
X0077238D01*
X0078911Y0025398D02*
X0077238D01*
X0078911Y0025345D02*
X0077238D01*
X0078911Y0025292D02*
X0077238D01*
X0078911Y0025239D02*
X0077238D01*
X0078911Y0025185D02*
X0077238D01*
X0078911Y0025132D02*
X0077238D01*
X0078911Y0025079D02*
X0077238D01*
X0078911Y0025026D02*
X0077238D01*
X0078911Y0024973D02*
X0077238D01*
X0078911Y0024920D02*
X0077238D01*
X0078911Y0024867D02*
X0077238D01*
X0078911Y0024814D02*
X0077238D01*
X0078911Y0024761D02*
X0077238D01*
X0078911Y0024708D02*
X0077238D01*
X0078911Y0024655D02*
X0077238D01*
X0078911Y0024602D02*
X0077238D01*
X0078911Y0024548D02*
X0077238D01*
X0078911Y0024495D02*
X0077238D01*
X0078911Y0024442D02*
X0077238D01*
X0078911Y0024389D02*
X0077238D01*
X0078911Y0024336D02*
X0077238D01*
X0077291Y0025903D02*
Y0024230D01*
X0078911Y0024283D02*
X0077238D01*
X0078911Y0025903D02*
X0077238D01*
X0078911D02*
Y0024230D01*
X0077238D01*
Y0025903D02*
Y0024230D01*
X0078883Y0025903D02*
Y0024230D01*
X0078830Y0025903D02*
Y0024230D01*
X0078777Y0025903D02*
Y0024230D01*
X0078724Y0025903D02*
Y0024230D01*
X0078671Y0025903D02*
Y0024230D01*
X0078618Y0025903D02*
Y0024230D01*
X0078565Y0025903D02*
Y0024230D01*
X0078512Y0025903D02*
Y0024230D01*
X0078459Y0025903D02*
Y0024230D01*
X0078405Y0025903D02*
Y0024230D01*
X0078352Y0025903D02*
Y0024230D01*
X0078299Y0025903D02*
Y0024230D01*
X0078246Y0025903D02*
Y0024230D01*
X0078193Y0025903D02*
Y0024230D01*
X0078140Y0025903D02*
Y0024230D01*
X0078087Y0025903D02*
Y0024230D01*
X0078034Y0025903D02*
Y0024230D01*
G54D133*
X0014577Y0090369D03*
Y0089069D03*
Y0093104D03*
Y0094404D03*
X0030463Y0025798D03*
Y0024498D03*
X0133526Y0032628D03*
X0132226D03*
X0129618Y0032629D03*
X0130918D03*
X0134539Y0032628D03*
X0135839D03*
X0138398Y0032629D03*
X0137098D03*
X0031750Y0021436D03*
X0030450D03*
X0018760Y0020374D03*
X0017460D03*
X0008967Y0020423D03*
X0007667D03*
G54D143*
X0014604Y0091755D03*
X0014801Y0092051D03*
Y0091460D03*
X0014407Y0092051D03*
Y0091460D03*
G54D144*
X0108201Y0034250D03*
X0107701D03*
X0107201D03*
Y0031950D03*
X0107701D03*
X0108201D03*
X0108701D03*
X0125473Y0034250D03*
X0124973D03*
X0124473D03*
Y0031950D03*
X0124973D03*
X0125473D03*
X0125973D03*
G54D145*
X0108701Y0034250D03*
X0125973D03*
G54D191*
X0122528Y0044444D03*
Y0044035D03*
X0109341Y0044444D03*
Y0044035D03*
X0134353Y0030308D03*
Y0030717D03*
X0139471Y0030308D03*
Y0030717D03*
X0128841Y0034950D03*
Y0034541D03*
X0133959Y0034950D03*
Y0034541D03*
G54D192*
X0131900Y0031497D03*
X0131490D03*
X0137018D03*
X0136608D03*
X0131294Y0033761D03*
X0131703D03*
X0136412D03*
X0136821D03*
G54D193*
X0040896Y0005013D03*
Y0005813D03*
X0039912Y0005013D03*
Y0005813D03*
X0038928Y0005013D03*
Y0005813D03*
X0043898Y0003438D03*
Y0004238D03*
X0052855Y0009947D03*
Y0009147D03*
X0055316Y0004238D03*
Y0003438D03*
X0045867Y0009147D03*
Y0009947D03*
X0055316D03*
Y0009147D03*
X0045079Y0003438D03*
Y0004238D03*
X0051280Y0009947D03*
Y0009147D03*
Y0003438D03*
Y0004238D03*
X0035575Y0010630D03*
X0036375D03*
X0035575Y0007086D03*
X0036375D03*
X0035575Y0009596D03*
X0036375D03*
X0037550Y0008766D03*
Y0007966D03*
X0034554Y0008366D03*
X0033754D03*
X0037944Y0005013D03*
Y0005813D03*
X0063479Y0010630D03*
X0064279D03*
X0063479Y0009596D03*
X0064279D03*
X0063479Y0007136D03*
X0064279D03*
X0065503Y0008766D03*
Y0007966D03*
X0065700Y0005013D03*
Y0005813D03*
X0068653Y0005013D03*
Y0005813D03*
X0067668Y0005013D03*
Y0005813D03*
X0066684Y0005013D03*
Y0005813D03*
X0081645Y0009947D03*
Y0009147D03*
X0071802Y0003438D03*
Y0004238D03*
X0083318Y0009947D03*
Y0009147D03*
X0073771D03*
Y0009947D03*
X0073033Y0003438D03*
Y0004238D03*
X0079234Y0003438D03*
Y0004238D03*
Y0009947D03*
Y0009147D03*
X0083269Y0004238D03*
Y0003438D03*
X0062507Y0008366D03*
X0061707D03*
X0026772Y0044594D03*
Y0043794D03*
X0058269Y0067429D03*
Y0066629D03*
X0034298Y0026838D03*
Y0027638D03*
X0018455Y0023382D03*
Y0022582D03*
X0020085Y0022540D03*
X0019285D03*
X0011270Y0023382D03*
Y0022582D03*
X0012900Y0022540D03*
X0012100D03*
X0022392Y0023825D03*
Y0023025D03*
X0024065Y0023087D03*
Y0022287D03*
X0024902Y0023825D03*
Y0023025D03*
X0023278Y0023087D03*
Y0022287D03*
X0025302Y0021309D03*
X0024502D03*
X0084992Y0024403D03*
Y0025203D03*
X0113825Y0045916D03*
X0114625D03*
X0019433Y0089175D03*
X0020233D03*
X0019433Y0094293D03*
X0020233D03*
X0017809Y0089175D03*
X0018609D03*
Y0094293D03*
X0017809D03*
X0112748Y0040558D03*
Y0039758D03*
X0122345Y0040558D03*
Y0039758D03*
X0092128Y0018941D03*
Y0019741D03*
X0089076Y0018941D03*
Y0019741D03*
X0081901Y0023547D03*
X0082701D03*
X0054768Y0031644D03*
X0055568D03*
X0042127Y0036670D03*
Y0035870D03*
X0112502Y0085920D03*
Y0086720D03*
X0113388Y0085920D03*
Y0086720D03*
X0120278Y0085920D03*
Y0086720D03*
X0071359Y0032635D03*
Y0031835D03*
X0101330Y0051779D03*
Y0050979D03*
X0075444Y0028882D03*
Y0029682D03*
X0076133Y0028882D03*
Y0029682D03*
X0076822Y0028882D03*
Y0029682D03*
X0082679Y0021992D03*
Y0022792D03*
X0081990Y0021992D03*
Y0022792D03*
X0045824Y0038878D03*
X0045024D03*
X0053501Y0040995D03*
X0052701D03*
X0118506Y0085920D03*
Y0086720D03*
X0114717Y0085920D03*
Y0086720D03*
X0119392Y0085920D03*
Y0086720D03*
X0117620Y0085920D03*
Y0086720D03*
X0074463Y0019005D03*
Y0018205D03*
X0064226Y0019005D03*
Y0018205D03*
X0053987Y0019002D03*
Y0018202D03*
X0043751Y0019002D03*
Y0018202D03*
X0050345Y0030026D03*
Y0029226D03*
X0051133Y0031601D03*
Y0030801D03*
Y0029226D03*
Y0030026D03*
X0050345Y0031601D03*
Y0030801D03*
X0051822Y0031601D03*
Y0030801D03*
X0056589Y0032382D03*
X0057389D03*
X0056589Y0033071D03*
X0057389D03*
X0056589Y0033760D03*
X0057389D03*
X0056589Y0034449D03*
X0057389D03*
X0056589Y0035138D03*
X0057389D03*
X0049656Y0030801D03*
Y0031601D03*
X0043449Y0035040D03*
X0044249D03*
X0055568Y0030906D03*
X0054768D03*
X0055568Y0037500D03*
X0054768D03*
X0056589Y0035827D03*
X0057389D03*
X0053501Y0037500D03*
X0052701D03*
X0056589Y0036516D03*
X0057389D03*
X0053501Y0038190D03*
X0052701D03*
X0053495Y0039565D03*
X0052695D03*
X0053495Y0038876D03*
X0052695D03*
X0045024Y0037501D03*
X0045824D03*
X0045024Y0038190D03*
X0045824D03*
Y0040256D03*
X0045024D03*
X0053501D03*
X0052701D03*
X0105760Y0048826D03*
Y0048026D03*
X0105022Y0048826D03*
Y0048026D03*
X0123477Y0048826D03*
Y0048026D03*
X0122738Y0048826D03*
Y0048026D03*
X0112453Y0043056D03*
Y0043856D03*
X0110386Y0043056D03*
Y0043856D03*
X0118014Y0043056D03*
Y0043856D03*
X0115947Y0043056D03*
Y0043856D03*
X0111764Y0043056D03*
Y0043856D03*
X0111075Y0043056D03*
Y0043856D03*
X0117325Y0043056D03*
Y0043856D03*
X0116636Y0043056D03*
Y0043856D03*
X0120012Y0046208D03*
X0120812D03*
X0118401Y0046211D03*
X0119201D03*
X0106677Y0046208D03*
X0107477D03*
X0105103D03*
X0105903D03*
X0031595Y0040459D03*
Y0039659D03*
X0119829Y0036516D03*
X0120629D03*
X0118955D03*
X0118155D03*
X0102653D03*
X0103453D03*
X0101720Y0036514D03*
X0100920D03*
X0104272Y0035683D03*
Y0034883D03*
X0100090Y0036471D03*
Y0035671D03*
X0117263Y0036471D03*
Y0035671D03*
X0121495Y0035683D03*
Y0034883D03*
X0112889Y0049853D03*
X0113689D03*
X0114809D03*
X0115609D03*
X0101823Y0027910D03*
Y0027110D03*
X0106892Y0027910D03*
Y0027110D03*
X0119540Y0027910D03*
Y0027110D03*
X0124609Y0027910D03*
Y0027110D03*
X0110238Y0032671D03*
Y0033471D03*
X0099307Y0032678D03*
X0100107D03*
X0104277Y0031792D03*
X0105077D03*
X0116531Y0032678D03*
X0117331D03*
X0121551Y0031890D03*
X0122351D03*
X0107728Y0027910D03*
Y0027110D03*
X0127561Y0032671D03*
Y0033471D03*
X0125445Y0027910D03*
Y0027110D03*
X0079061Y0047411D03*
Y0048211D03*
X0080734Y0047411D03*
Y0048211D03*
X0081571Y0047411D03*
Y0048211D03*
X0078224Y0047411D03*
Y0048211D03*
X0079898Y0047411D03*
Y0048211D03*
X0082407Y0047411D03*
Y0048211D03*
X0079061Y0049786D03*
Y0048986D03*
X0080734Y0049786D03*
Y0048986D03*
X0081571Y0049786D03*
Y0048986D03*
X0078224Y0049786D03*
Y0048986D03*
X0079898Y0049786D03*
Y0048986D03*
X0082407Y0049786D03*
Y0048986D03*
X0124363Y0085920D03*
Y0086720D03*
X0104966Y0054430D03*
X0105766D03*
X0114809D03*
X0115609D03*
X0028544Y0041382D03*
Y0042182D03*
X0125101Y0085920D03*
Y0086720D03*
X0116734Y0085920D03*
Y0086720D03*
X0115603Y0085920D03*
Y0086720D03*
X0101222Y0079405D03*
Y0078605D03*
X0119000Y0095886D03*
Y0095086D03*
X0093293Y0081589D03*
X0094093D03*
X0097249Y0081586D03*
X0096449D03*
X0051550Y0068386D03*
X0050750D03*
X0128738Y0086336D03*
Y0085536D03*
X0134900Y0087136D03*
Y0087936D03*
X0137550Y0078686D03*
X0136750D03*
X0130650Y0078786D03*
X0129850D03*
X0130950Y0087136D03*
Y0087936D03*
X0138850Y0087136D03*
Y0087936D03*
X0134900Y0083186D03*
Y0083986D03*
Y0091136D03*
Y0091936D03*
X0079250Y0068386D03*
X0078450D03*
X0070150Y0068786D03*
X0069350D03*
X0080250Y0068386D03*
X0081050D03*
X0111376Y0087403D03*
X0110576D03*
X0086247Y0020430D03*
Y0019630D03*
X0121410Y0085145D03*
Y0084345D03*
X0030448Y0027637D03*
Y0026837D03*
X0111272Y0040558D03*
Y0039758D03*
X0120018Y0040555D03*
Y0039755D03*
X0057884Y0068487D03*
X0058684D03*
X0105502Y0040556D03*
Y0039756D03*
X0131049Y0029282D03*
X0131849D03*
X0133424D03*
X0132624D03*
X0136167D03*
X0136967D03*
X0115836Y0040555D03*
Y0039755D03*
X0138542Y0029282D03*
X0137742D03*
X0032045Y0026837D03*
Y0027637D03*
X0032745D03*
Y0026837D03*
X0035009Y0027637D03*
Y0026837D03*
X0031345Y0024787D03*
Y0025587D03*
X0032095Y0024787D03*
Y0025587D03*
X0015742Y0020276D03*
X0016542D03*
X0015796Y0025583D03*
Y0026383D03*
X0016583D03*
Y0025583D03*
X0018256Y0026383D03*
Y0025583D03*
X0005948Y0020325D03*
X0006748D03*
X0015796Y0024316D03*
Y0023516D03*
X0015009D03*
Y0024316D03*
X0008611Y0025583D03*
Y0026383D03*
X0009398D03*
Y0025583D03*
X0011072Y0026383D03*
Y0025583D03*
X0007824Y0023516D03*
Y0024316D03*
X0008611D03*
Y0023516D03*
X0129727Y0051779D03*
Y0050979D03*
X0061184Y0067887D03*
X0060384D03*
X0112053Y0039026D03*
X0112853D03*
X0121600D03*
X0122400D03*
X0113437Y0039758D03*
Y0040558D03*
X0123034Y0039758D03*
Y0040558D03*
X0105988Y0035825D03*
X0106788D03*
X0107728Y0029534D03*
Y0028734D03*
X0105988Y0036514D03*
X0106788D03*
X0109938D03*
X0109138D03*
Y0035825D03*
X0109938D03*
X0101823Y0029534D03*
Y0028734D03*
X0099351Y0034207D03*
Y0033407D03*
Y0036471D03*
Y0035671D03*
X0106892Y0028734D03*
Y0029534D03*
X0105010Y0033420D03*
Y0032620D03*
X0105022Y0035686D03*
Y0034886D03*
X0123224Y0035827D03*
X0124024D03*
X0125445Y0029534D03*
Y0028734D03*
X0123224Y0036516D03*
X0124024D03*
X0127174D03*
X0126374D03*
Y0035827D03*
X0127174D03*
X0129770Y0035976D03*
X0130570D03*
X0132145D03*
X0131345D03*
X0119540Y0029534D03*
Y0028734D03*
X0116538Y0034210D03*
Y0033410D03*
X0116525Y0036471D03*
Y0035671D03*
X0124609Y0028734D03*
Y0029534D03*
X0122283Y0033420D03*
Y0032620D03*
X0122233Y0035683D03*
Y0034883D03*
X0134888Y0035976D03*
X0135688D03*
X0137263D03*
X0136463D03*
X0019679Y0027018D03*
X0020479D03*
X0012494D03*
X0013294D03*
X0022927Y0028150D03*
X0023727D03*
X0068751Y0027320D03*
Y0026520D03*
Y0030112D03*
Y0030912D03*
X0098821Y0046365D03*
Y0045565D03*
Y0049207D03*
Y0050007D03*
X0127217Y0046414D03*
Y0045614D03*
Y0049256D03*
Y0050056D03*
X0082623Y0027904D03*
X0083423D03*
X0086363D03*
X0087163D03*
X0032107Y0023055D03*
Y0023855D03*
X0015816Y0021824D03*
Y0022624D03*
X0008631Y0021824D03*
Y0022624D03*
X0111278Y0039026D03*
X0110478D03*
X0106307D03*
X0105507D03*
X0120825D03*
X0120025D03*
X0115855D03*
X0115055D03*
X0081005Y0028058D03*
Y0027258D03*
X0081110Y0024361D03*
X0080310D03*
X0080316Y0028058D03*
Y0027258D03*
X0080310Y0030242D03*
X0081110D03*
X0080310Y0029553D03*
X0081110D03*
X0080310Y0028864D03*
X0081110D03*
X0077044Y0034259D03*
Y0033459D03*
X0076281Y0034259D03*
Y0033459D03*
X0077849Y0030217D03*
X0078649D03*
X0012984Y0093065D03*
X0012184D03*
X0013716Y0093858D03*
Y0093058D03*
X0012184Y0089669D03*
X0012984D03*
X0013716Y0089614D03*
Y0090414D03*
X0016966Y0092113D03*
Y0092913D03*
X0015438Y0093058D03*
Y0093858D03*
X0016963Y0091342D03*
Y0090542D03*
X0015438Y0090414D03*
Y0089614D03*
X0079227Y0021113D03*
X0080027D03*
X0085052Y0029333D03*
X0084252D03*
X0085052Y0030071D03*
X0084252D03*
X0083374Y0032874D03*
X0082574D03*
X0088774Y0029324D03*
X0087974D03*
X0088774Y0030062D03*
X0087974D03*
X0087065Y0032874D03*
X0086265D03*
X0084752Y0019833D03*
X0083952D03*
X0082623Y0028642D03*
X0083423D03*
X0084252Y0030810D03*
X0085052D03*
X0084250Y0031605D03*
X0085050D03*
X0087974Y0032326D03*
X0088774D03*
X0087974Y0031588D03*
X0088774D03*
X0086363Y0028642D03*
X0087163D03*
X0087974Y0030801D03*
X0088774D03*
X0016225Y0090542D03*
Y0091342D03*
X0012984Y0090407D03*
X0012184D03*
X0016228Y0092913D03*
Y0092113D03*
X0012984Y0093803D03*
X0012184D03*
X0075893Y0023671D03*
X0075093D03*
X0080310Y0025739D03*
X0081110D03*
X0080046Y0022792D03*
Y0021992D03*
X0080310Y0025050D03*
X0081110D03*
X0075893Y0024361D03*
X0075093D03*
X0079781Y0033367D03*
X0078981D03*
X0076724Y0022792D03*
Y0021992D03*
X0012984Y0091342D03*
X0012184D03*
X0012986Y0092144D03*
X0012186D03*
X0078649Y0029528D03*
X0077849D03*
X0076822Y0027258D03*
Y0028058D03*
X0080310Y0026427D03*
X0081110D03*
X0078102Y0022792D03*
Y0021992D03*
X0079357Y0022792D03*
Y0021992D03*
X0075893Y0025739D03*
X0075093D03*
X0075893Y0025050D03*
X0075093D03*
X0076133Y0027258D03*
Y0028058D03*
X0084250Y0032343D03*
X0085050D03*
X0085687Y0023579D03*
Y0022779D03*
X0078200Y0027258D03*
Y0028058D03*
X0079627Y0027258D03*
Y0028058D03*
X0077413Y0022792D03*
Y0021992D03*
X0084998Y0023579D03*
Y0022779D03*
X0043160Y0003438D03*
Y0004238D03*
X0056054Y0009947D03*
Y0009147D03*
X0045129D03*
Y0009947D03*
X0045818Y0003438D03*
Y0004238D03*
X0050542Y0003438D03*
Y0004238D03*
Y0009947D03*
Y0009147D03*
X0056054Y0004238D03*
Y0003438D03*
X0056989Y0007044D03*
Y0006244D03*
X0057777Y0007044D03*
Y0006244D03*
X0039968Y0010630D03*
X0039168D03*
X0036959Y0005013D03*
Y0005813D03*
X0053593Y0009947D03*
Y0009147D03*
X0080907Y0009947D03*
Y0009147D03*
X0064716Y0005013D03*
Y0005813D03*
X0067921Y0010630D03*
X0067121D03*
X0071064Y0003438D03*
Y0004238D03*
X0084057Y0009947D03*
Y0009147D03*
X0073033D03*
Y0009947D03*
X0073771Y0003438D03*
Y0004238D03*
X0078495Y0003438D03*
Y0004238D03*
Y0009947D03*
Y0009147D03*
X0084007Y0004238D03*
Y0003438D03*
X0084993Y0007050D03*
Y0006250D03*
X0085743Y0007050D03*
Y0006250D03*
X0010193Y0021801D03*
X0009393D03*
X0033767Y0023032D03*
X0032967D03*
X0017379Y0021801D03*
X0016579D03*
X0024705Y0028058D03*
Y0027258D03*
X0020479Y0026280D03*
X0019679D03*
X0013294D03*
X0012494D03*
X0020479Y0025542D03*
X0019679D03*
Y0020276D03*
X0020479D03*
X0013294Y0025542D03*
X0012494D03*
X0009886Y0020325D03*
X0010686D03*
X0024705Y0025634D03*
Y0026434D03*
X0024072Y0023868D03*
X0023272D03*
X0104480Y0092564D03*
Y0093364D03*
X0086763Y0034640D03*
Y0035440D03*
X0068751Y0029091D03*
Y0028291D03*
X0071360Y0030912D03*
Y0030112D03*
X0069588Y0028291D03*
Y0029091D03*
X0071360Y0026520D03*
Y0027320D03*
X0099608Y0048187D03*
Y0047387D03*
X0101330Y0050007D03*
Y0049207D03*
X0098821Y0047387D03*
Y0048187D03*
X0101330Y0045565D03*
Y0046365D03*
X0086376Y0023579D03*
Y0022779D03*
X0084303Y0025203D03*
Y0024403D03*
X0083614Y0025203D03*
Y0024403D03*
X0084106Y0034640D03*
Y0035440D03*
X0048875Y0038337D03*
X0048075D03*
X0049650D03*
X0050450D03*
X0053938Y0035870D03*
Y0036670D03*
Y0033373D03*
Y0032573D03*
X0045024Y0035040D03*
X0045824D03*
X0052560Y0033373D03*
Y0032573D03*
X0053249Y0033373D03*
Y0032573D03*
X0045965Y0035870D03*
Y0036670D03*
X0045276Y0035870D03*
Y0036670D03*
X0052560Y0035870D03*
Y0036670D03*
X0053249Y0035870D03*
Y0036670D03*
X0048912Y0043554D03*
X0049712D03*
X0044587Y0035870D03*
Y0036670D03*
X0108460Y0087403D03*
X0109260D03*
X0100746Y0092570D03*
X0099946D03*
X0100888Y0087163D03*
Y0086363D03*
X0041973Y0018110D03*
X0042773D03*
X0101595Y0062501D03*
X0102395D03*
X0102438Y0061474D03*
Y0060674D03*
X0101552Y0061474D03*
Y0060674D03*
X0109715Y0062501D03*
X0110515D03*
X0110558Y0061474D03*
Y0060674D03*
X0109672Y0061474D03*
Y0060674D03*
X0125955Y0062501D03*
X0126755D03*
X0126798Y0061474D03*
Y0060674D03*
X0125913Y0061474D03*
Y0060674D03*
X0117835Y0062501D03*
X0118635D03*
X0117792Y0061474D03*
Y0060674D03*
X0118678Y0061474D03*
Y0060674D03*
X0122443Y0045122D03*
Y0045922D03*
X0118388Y0045427D03*
Y0044627D03*
X0119274Y0043157D03*
X0120074D03*
X0123132Y0045122D03*
Y0045922D03*
X0121747Y0043157D03*
X0120947D03*
X0098682Y0021754D03*
X0097882D03*
X0116519Y0034939D03*
X0117319D03*
X0120629Y0035827D03*
X0119829D03*
X0118155D03*
X0118955D03*
X0103453D03*
X0102653D03*
X0100920Y0035825D03*
X0101720D03*
X0099345Y0034939D03*
X0100145D03*
X0072685Y0018113D03*
X0073485D03*
X0109254Y0045122D03*
Y0045922D03*
X0106037Y0043157D03*
X0106837D03*
X0105071Y0045430D03*
Y0044630D03*
X0109943Y0045122D03*
Y0045922D03*
X0108511Y0043157D03*
X0107711D03*
X0110493Y0020573D03*
X0109693D03*
X0099457Y0021754D03*
X0100257D03*
X0131754Y0020573D03*
X0130954D03*
X0119942Y0021754D03*
X0119142D03*
X0120717D03*
X0121517D03*
X0111715Y0056749D03*
Y0055949D03*
X0104966Y0050591D03*
X0105766D03*
X0098841Y0081589D03*
X0098041D03*
X0107482Y0048026D03*
Y0048826D03*
X0113689Y0050591D03*
X0112889D03*
X0113689Y0054430D03*
X0112889D03*
X0106301Y0056749D03*
Y0055949D03*
X0107624Y0057481D03*
X0108424D03*
X0117417D03*
X0118217D03*
X0121542Y0056747D03*
Y0055947D03*
X0116178Y0056747D03*
Y0055947D03*
X0104966Y0053052D03*
X0105766D03*
X0113689D03*
X0112889D03*
X0114809D03*
X0115609D03*
X0123532D03*
X0122732D03*
X0095679Y0080850D03*
X0096479D03*
X0134900Y0089486D03*
Y0088686D03*
X0085750Y0080136D03*
X0084950D03*
X0072737Y0048764D03*
Y0049564D03*
X0105766Y0055119D03*
X0104966D03*
X0115609D03*
X0114809D03*
X0031595Y0042182D03*
Y0041382D03*
X0028544Y0039659D03*
Y0040459D03*
X0059334Y0065287D03*
X0058534D03*
X0056934D03*
X0057734D03*
X0133424Y0031497D03*
X0132624D03*
X0130612Y0030113D03*
Y0030913D03*
X0138542Y0031497D03*
X0137742D03*
X0135730Y0030014D03*
Y0030814D03*
X0085750Y0080836D03*
X0084950D03*
X0114625Y0046605D03*
X0113825D03*
X0132581Y0035146D03*
Y0034346D03*
X0129770Y0033761D03*
X0130570D03*
X0137699Y0035145D03*
Y0034345D03*
X0134888Y0033761D03*
X0135688D03*
X0033767Y0023770D03*
X0032967D03*
X0017377Y0022539D03*
X0016577D03*
X0094867Y0081589D03*
X0095667D03*
X0114809Y0051280D03*
X0115609D03*
X0130138Y0081136D03*
X0129338D03*
X0130138Y0081836D03*
X0129338D03*
X0014169Y0052465D03*
X0014969D03*
X0120868Y0048026D03*
Y0048826D03*
X0010193Y0022539D03*
X0009393D03*
X0057800Y0080136D03*
X0057000D03*
X0057800Y0080836D03*
X0057000D03*
X0092025Y0077061D03*
X0092825D03*
X0092025Y0077911D03*
X0092825D03*
X0091125Y0077061D03*
Y0077861D03*
X0121410Y0086720D03*
Y0085920D03*
X0123532Y0050591D03*
X0122732D03*
X0123532Y0054430D03*
X0122732D03*
X0083952Y0019144D03*
X0084752D03*
X0085500Y0077936D03*
Y0077136D03*
X0070867Y0044249D03*
Y0043449D03*
X0070074Y0045325D03*
X0070874D03*
X0135150Y0078686D03*
X0135950D03*
X0128250Y0078786D03*
X0129050D03*
X0130950Y0089486D03*
Y0088686D03*
X0138850Y0089486D03*
Y0088686D03*
X0134900Y0085536D03*
Y0084736D03*
Y0093486D03*
Y0092686D03*
X0119650Y0091686D03*
X0120450D03*
X0119650Y0090786D03*
X0120450D03*
X0119650Y0089836D03*
X0120450D03*
X0070031Y0044249D03*
Y0043449D03*
X0021894Y0035729D03*
X0022694D03*
X0111251Y0092836D03*
X0110451D03*
X0022687Y0034652D03*
Y0033852D03*
X0021851Y0034652D03*
Y0033852D03*
X0111222Y0088529D03*
Y0089329D03*
X0110484D03*
Y0088529D03*
X0114625Y0047294D03*
X0113825D03*
X0109352Y0048026D03*
Y0048826D03*
X0119195Y0048026D03*
Y0048826D03*
X0111025Y0048026D03*
Y0048826D03*
X0110336Y0048026D03*
Y0048826D03*
X0121557Y0048026D03*
Y0048826D03*
X0120179Y0048026D03*
Y0048826D03*
X0108160Y0048023D03*
Y0048823D03*
X0118001Y0048022D03*
Y0048822D03*
X0106793Y0048026D03*
Y0048826D03*
X0078200Y0043904D03*
Y0043104D03*
X0117312Y0048022D03*
Y0048822D03*
X0113689Y0051280D03*
X0112889D03*
X0104966D03*
X0105766D03*
X0123532D03*
X0122732D03*
X0114809Y0050591D03*
X0115609D03*
X0113689Y0051969D03*
X0112889D03*
X0104966D03*
X0105766D03*
X0123532D03*
X0122732D03*
X0114809D03*
X0115609D03*
X0113689Y0053741D03*
X0112889D03*
X0108363Y0035136D03*
X0107563D03*
X0125599Y0035138D03*
X0124799D03*
X0123532Y0053741D03*
X0122732D03*
X0104966D03*
X0105766D03*
X0120853Y0056747D03*
Y0055947D03*
X0118245Y0056747D03*
Y0055947D03*
X0114809Y0053741D03*
X0115609D03*
X0106990Y0056749D03*
Y0055949D03*
X0116867Y0056747D03*
Y0055947D03*
X0107679Y0056749D03*
Y0055949D03*
X0111026Y0056749D03*
Y0055949D03*
X0117556Y0056747D03*
Y0055947D03*
X0108368Y0056749D03*
Y0055949D03*
X0110484Y0040558D03*
Y0039758D03*
X0120806Y0040555D03*
Y0039755D03*
X0107963Y0038753D03*
X0108763D03*
X0117512Y0038746D03*
X0118312D03*
X0107968Y0041782D03*
X0108768D03*
X0118312Y0041797D03*
X0117512D03*
X0106301Y0040558D03*
Y0039758D03*
X0115048Y0040555D03*
Y0039755D03*
X0033595Y0027637D03*
Y0026837D03*
X0031345Y0027637D03*
Y0026837D03*
X0017469Y0026383D03*
Y0025583D03*
X0056251Y0044249D03*
Y0043449D03*
X0055414Y0044249D03*
Y0043449D03*
X0015009Y0026383D03*
Y0025583D03*
X0055457Y0045325D03*
X0056257D03*
X0037304Y0034652D03*
Y0033852D03*
X0010284Y0026383D03*
Y0025583D03*
X0036467Y0034652D03*
Y0033852D03*
X0036510Y0035729D03*
X0037310D03*
X0007824Y0026383D03*
Y0025583D03*
X0062448Y0018113D03*
X0063248D03*
X0052209Y0018110D03*
X0053009D03*
X0128004Y0047436D03*
Y0048236D03*
X0129727Y0050056D03*
Y0049256D03*
Y0045615D03*
Y0046415D03*
X0127217Y0048235D03*
Y0047435D03*
X0112059Y0040558D03*
Y0039758D03*
X0121656Y0040558D03*
Y0039758D03*
X0112853Y0041339D03*
X0112053D03*
X0122400D03*
X0121600D03*
X0106788Y0035136D03*
X0105988D03*
X0106339Y0033469D03*
Y0032669D03*
X0113825Y0044981D03*
X0114625D03*
X0113824Y0042373D03*
X0114624D03*
X0109488Y0032669D03*
Y0033469D03*
X0109938Y0035136D03*
X0109138D03*
X0102616Y0035138D03*
X0101816D03*
X0100090Y0033407D03*
Y0034207D03*
X0104266Y0034152D03*
X0105066D03*
X0104272Y0032620D03*
Y0033420D03*
X0101816Y0032038D03*
X0102616D03*
X0124024Y0035138D03*
X0123224D03*
X0123611Y0033469D03*
Y0032669D03*
X0126760D03*
Y0033469D03*
X0127174Y0035138D03*
X0126374D03*
X0119841D03*
X0119041D03*
X0121489Y0034152D03*
X0122289D03*
X0117325Y0033410D03*
Y0034210D03*
X0121544Y0032620D03*
Y0033420D03*
X0119034Y0032101D03*
X0119834D03*
G54D194*
X0103004Y0045473D03*
Y0052165D03*
X0097098D03*
Y0045473D03*
X0125495Y0052165D03*
Y0045473D03*
X0131400D03*
Y0052165D03*
X0072983Y0026280D03*
Y0032973D03*
X0067078D03*
Y0026280D03*
G54D196*
X0130890Y0027461D03*
X0133090D03*
X0136501D03*
X0138701D03*
X0107551Y0093486D03*
X0109751D03*
X0130103Y0037796D03*
X0132303D03*
X0135713D03*
X0137913D03*
G54D197*
X0069539Y0017537D03*
Y0015337D03*
X0059302Y0017537D03*
Y0015337D03*
X0049066Y0017537D03*
Y0015337D03*
X0038829Y0017537D03*
Y0015337D03*
X0104247Y0062661D03*
Y0060461D03*
X0112368Y0062661D03*
Y0060461D03*
X0128606Y0062710D03*
Y0060510D03*
X0120485Y0062710D03*
Y0060510D03*
X0072737Y0045490D03*
Y0043290D03*
X0024557Y0035894D03*
Y0033694D03*
X0033465Y0041996D03*
Y0039796D03*
X0026723Y0041996D03*
Y0039796D03*
X0058234Y0063537D03*
Y0061337D03*
X0058121Y0045490D03*
Y0043290D03*
X0039174Y0035894D03*
Y0033694D03*
X0099362Y0076298D03*
Y0074098D03*
X0055350Y0076486D03*
Y0074286D03*
X0083368Y0076298D03*
Y0074098D03*
X0094834Y0076298D03*
Y0074098D03*
X0097000Y0093036D03*
Y0090836D03*
G54D198*
X0088846Y0027293D03*
Y0023493D03*
X0022900Y0045286D03*
Y0041486D03*
X0022950Y0051636D03*
Y0047836D03*
X0047500Y0066186D03*
Y0062386D03*
X0051700Y0066186D03*
Y0062386D03*
X0062334Y0066087D03*
Y0062287D03*
X0066684Y0066087D03*
Y0062287D03*
X0083834Y0066087D03*
Y0062287D03*
X0088134Y0066087D03*
Y0062287D03*
X0092484Y0066087D03*
Y0062287D03*
X0079634Y0066087D03*
Y0062287D03*
X0070984Y0066087D03*
Y0062287D03*
X0075384Y0066087D03*
Y0062287D03*
G54D199*
X0037186Y0009596D03*
X0037816D03*
X0037186Y0007086D03*
X0037816D03*
X0037186Y0010630D03*
X0037816D03*
X0065090Y0007136D03*
X0065720D03*
X0065090Y0009596D03*
X0065720D03*
X0065090Y0010630D03*
X0065720D03*
G54D200*
X0108614Y0020571D03*
X0109008D03*
X0096852Y0021752D03*
X0097246D03*
X0101281D03*
X0100888D03*
X0129924Y0020571D03*
X0130317D03*
X0118112Y0021752D03*
X0118506D03*
X0122542D03*
X0122148D03*
G54D201*
X0023967Y0090061D03*
Y0090454D03*
Y0092964D03*
Y0093358D03*
G54D202*
X0099800Y0078036D03*
X0099000D03*
X0048250Y0070386D03*
X0047450D03*
X0070150D03*
X0069350D03*
X0082900D03*
X0083700D03*
X0077000Y0068086D03*
X0076200D03*
G54D203*
X0043357Y0035870D03*
Y0036670D03*
X0055168Y0032524D03*
Y0033324D03*
Y0036670D03*
Y0035870D03*
X0083860Y0022779D03*
Y0023579D03*
X0040700Y0018202D03*
Y0019002D03*
X0071409Y0018202D03*
Y0019002D03*
X0089450Y0074236D03*
Y0075036D03*
X0109303Y0088479D03*
Y0089279D03*
X0061172Y0018202D03*
Y0019002D03*
X0050936Y0018202D03*
Y0019002D03*
G54D204*
X0023967Y0091319D03*
Y0092149D03*
X0109869Y0022638D03*
X0110700D03*
X0098012D03*
X0098842D03*
X0103964D03*
X0104794D03*
X0127638D03*
X0128469D03*
X0115827D03*
X0116658D03*
X0121733D03*
X0122563D03*
X0078714Y0030906D03*
X0077883D03*
G54D205*
X0080464Y0019980D03*
G54D206*
X0082482Y0031693D03*
X0083505D03*
X0086222D03*
X0087246D03*
G54D207*
X0048924Y0041531D03*
X0048124D03*
X0048524Y0042431D03*
X0050450Y0041531D03*
X0049650D03*
X0050050Y0042431D03*
X0053649Y0003489D03*
X0052849D03*
X0053249Y0004389D03*
X0081602Y0003489D03*
X0080802D03*
X0081202Y0004389D03*
X0017034Y0088776D03*
X0016234D03*
X0016634Y0089676D03*
X0095224Y0022730D03*
X0094424D03*
X0094824Y0023630D03*
X0095224Y0024600D03*
X0094424D03*
X0094824Y0025500D03*
G54D208*
X0108295Y0044421D03*
Y0044921D03*
Y0045421D03*
X0105995D03*
Y0044921D03*
Y0044421D03*
Y0043921D03*
X0121544Y0044421D03*
Y0044921D03*
Y0045421D03*
X0119244D03*
Y0044921D03*
Y0044421D03*
Y0043921D03*
X0081546Y0043513D03*
Y0044013D03*
Y0044513D03*
Y0045013D03*
Y0045513D03*
Y0046013D03*
Y0046513D03*
X0079246D03*
Y0046013D03*
Y0045513D03*
Y0045013D03*
Y0044513D03*
Y0044013D03*
Y0043513D03*
X0079228Y0043013D03*
X0039223Y0009244D03*
Y0008744D03*
Y0008244D03*
Y0007744D03*
Y0007244D03*
Y0006744D03*
X0041523D03*
Y0007244D03*
Y0007744D03*
Y0008244D03*
Y0008744D03*
Y0009244D03*
Y0009744D03*
X0067181Y0009228D03*
Y0008728D03*
Y0008228D03*
Y0007728D03*
Y0007228D03*
Y0006728D03*
X0069481D03*
Y0007228D03*
Y0007728D03*
Y0008228D03*
Y0008728D03*
Y0009228D03*
Y0009728D03*
X0109513Y0040003D03*
Y0040503D03*
Y0041003D03*
X0107213D03*
Y0040503D03*
Y0040003D03*
Y0039503D03*
X0119061Y0039997D03*
Y0040497D03*
Y0040997D03*
X0116761D03*
Y0040497D03*
Y0039997D03*
Y0039497D03*
X0103337Y0033372D03*
Y0033872D03*
Y0034372D03*
X0101037D03*
Y0033872D03*
Y0033372D03*
Y0032872D03*
X0120609Y0033372D03*
Y0033872D03*
Y0034372D03*
X0118309D03*
Y0033872D03*
Y0033372D03*
Y0032872D03*
G54D209*
X0108295Y0043921D03*
X0121544D03*
X0081546Y0043013D03*
X0039223Y0009744D03*
X0067181Y0009728D03*
X0109513Y0039503D03*
X0119061Y0039497D03*
X0103337Y0032872D03*
X0120609D03*
G54D210*
X0071261Y0028701D03*
Y0028957D03*
X0070316D03*
Y0028701D03*
Y0028445D03*
X0101281Y0047796D03*
Y0048052D03*
X0100336D03*
Y0047796D03*
Y0047540D03*
X0129678Y0047845D03*
Y0048101D03*
X0128733D03*
Y0047845D03*
Y0047589D03*
G54D211*
X0071261Y0028445D03*
X0101281Y0047540D03*
X0129678Y0047589D03*
G54D212*
X0077974Y0033908D03*
G54D213*
X0078072Y0034518D03*
X0077875D03*
X0077678D03*
Y0033298D03*
X0077875D03*
X0078072D03*
X0078269D03*
G54D214*
Y0034518D03*
G54D215*
X0100518Y0060729D03*
Y0061629D03*
Y0062529D03*
X0108639Y0060729D03*
Y0061629D03*
Y0062529D03*
X0124879Y0060729D03*
Y0061629D03*
Y0062529D03*
X0116759Y0060729D03*
Y0061629D03*
Y0062529D03*
X0068997Y0043505D03*
Y0044405D03*
Y0045305D03*
X0020817Y0033908D03*
Y0034808D03*
Y0035708D03*
X0054381Y0043505D03*
Y0044405D03*
Y0045305D03*
X0035434Y0033908D03*
Y0034808D03*
Y0035708D03*
G54D216*
X0092925Y0075911D03*
X0092025D03*
X0091125D03*
G54D217*
X0081251Y0034784D03*
Y0035284D03*
Y0035784D03*
X0079131D03*
Y0035284D03*
Y0034784D03*
Y0034284D03*
X0059294Y0066787D03*
Y0067287D03*
Y0067787D03*
X0057174D03*
Y0067287D03*
Y0066787D03*
Y0066287D03*
G54D218*
X0081251Y0034284D03*
X0059294Y0066287D03*
G54D219*
X0122675Y0084374D03*
X0123175D03*
X0123675D03*
Y0086494D03*
X0123175D03*
X0122675D03*
X0122175D03*
X0030300Y0041686D03*
X0029800D03*
X0029300D03*
Y0039566D03*
X0029800D03*
X0030300D03*
X0030800D03*
G54D220*
X0122175Y0084374D03*
X0030800Y0041686D03*
G54D221*
X0033319Y0024737D03*
X0033693D03*
Y0025897D03*
X0032945D03*
X0017057Y0023524D03*
X0017431D03*
Y0024684D03*
X0016683D03*
X0009872Y0023524D03*
X0010246D03*
Y0024684D03*
X0009498D03*
X0085602Y0035630D03*
X0085228D03*
Y0034470D03*
X0085976D03*
X0082945Y0035630D03*
X0082571D03*
Y0034470D03*
X0083319D03*
X0071517Y0049686D03*
X0071143D03*
Y0048526D03*
X0071891D03*
G54D222*
X0032945Y0024737D03*
X0016683Y0023524D03*
X0009498D03*
X0085976Y0035630D03*
X0083319D03*
X0071891Y0049686D03*
G54D223*
X0079255Y0024201D03*
Y0024358D03*
Y0024673D03*
Y0024516D03*
Y0024830D03*
Y0024988D03*
Y0025146D03*
Y0025303D03*
Y0025460D03*
Y0025618D03*
Y0025776D03*
Y0025933D03*
X0076893D03*
Y0025776D03*
Y0025618D03*
Y0025460D03*
Y0025303D03*
Y0025146D03*
Y0024988D03*
Y0024830D03*
Y0024673D03*
Y0024516D03*
Y0024358D03*
Y0024201D03*
G54D224*
X0077366Y0023886D03*
X0077523D03*
X0077681D03*
X0077838D03*
X0077996D03*
X0078153D03*
X0078311D03*
X0078468D03*
X0078626D03*
X0078783D03*
X0078941D03*
Y0026248D03*
X0078783D03*
X0078626D03*
X0078468D03*
X0078311D03*
X0078153D03*
X0077996D03*
X0077838D03*
X0077681D03*
X0077523D03*
X0077366D03*
X0077208D03*
G54D225*
Y0023886D03*
G54D226*
X0012480Y0023465D03*
X0012854D03*
Y0024606D03*
X0012480D03*
X0012106D03*
X0019665Y0023475D03*
X0020039D03*
Y0024616D03*
X0019665D03*
X0019291D03*
X0082954Y0029429D03*
X0083328D03*
Y0030571D03*
X0082580D03*
X0086744Y0029429D03*
X0087118D03*
Y0030571D03*
X0086370D03*
X0114205Y0043111D03*
X0114579D03*
Y0044253D03*
X0113831D03*
G54D227*
X0012106Y0023465D03*
X0019291Y0023475D03*
X0082580Y0029429D03*
X0086370D03*
X0113831Y0043111D03*
G54D228*
X0106941Y0053643D03*
Y0053446D03*
Y0053249D03*
Y0053052D03*
Y0052855D03*
Y0052658D03*
Y0052462D03*
Y0052265D03*
Y0051871D03*
Y0051674D03*
Y0051477D03*
Y0051280D03*
Y0051084D03*
Y0050887D03*
X0111697D03*
Y0051084D03*
Y0051280D03*
Y0051477D03*
Y0051674D03*
Y0051871D03*
Y0052068D03*
Y0052462D03*
Y0052658D03*
Y0052855D03*
Y0053052D03*
Y0053249D03*
Y0053446D03*
Y0053643D03*
Y0053839D03*
X0116784Y0053643D03*
Y0053446D03*
Y0053249D03*
Y0053052D03*
Y0052855D03*
Y0052658D03*
Y0052462D03*
Y0052265D03*
Y0051871D03*
Y0051674D03*
Y0051477D03*
Y0051280D03*
Y0051084D03*
Y0050887D03*
X0121539D03*
Y0051084D03*
Y0051280D03*
Y0051477D03*
Y0051674D03*
Y0051871D03*
Y0052068D03*
Y0052462D03*
Y0052658D03*
Y0052855D03*
Y0053052D03*
Y0053249D03*
Y0053446D03*
Y0053643D03*
Y0053839D03*
X0051048Y0033677D03*
Y0033874D03*
Y0034071D03*
Y0034268D03*
Y0034465D03*
Y0034662D03*
Y0034859D03*
Y0035253D03*
Y0035450D03*
Y0035647D03*
Y0035844D03*
X0047623D03*
Y0035647D03*
Y0035450D03*
Y0035056D03*
Y0034859D03*
Y0034662D03*
Y0034465D03*
Y0034268D03*
Y0034071D03*
Y0033874D03*
Y0033677D03*
G54D229*
X0106941Y0053839D03*
Y0052068D03*
X0111697Y0052265D03*
X0116784Y0053839D03*
Y0052068D03*
X0121539Y0052265D03*
X0051048Y0035056D03*
X0047623Y0035253D03*
G54D230*
X0107842Y0049985D03*
X0108039D03*
X0108236D03*
X0108630D03*
X0108827D03*
X0109023D03*
X0109220D03*
X0109417D03*
X0109614D03*
X0109811D03*
X0110008D03*
X0110204D03*
X0110598D03*
X0110795D03*
Y0054741D03*
X0110401D03*
X0110204D03*
X0110008D03*
X0109811D03*
X0109614D03*
X0109417D03*
X0109220D03*
X0109023D03*
X0108827D03*
X0108433D03*
X0108236D03*
X0108039D03*
X0107842D03*
X0117685Y0049985D03*
X0117882D03*
X0118079D03*
X0118472D03*
X0118669D03*
X0118866D03*
X0119063D03*
X0119260D03*
X0119457D03*
X0119654D03*
X0119850D03*
X0120047D03*
X0120441D03*
X0120638D03*
Y0054741D03*
X0120244D03*
X0120047D03*
X0119850D03*
X0119654D03*
X0119457D03*
X0119260D03*
X0119063D03*
X0118866D03*
X0118669D03*
X0118276D03*
X0118079D03*
X0117882D03*
X0117685D03*
X0048449Y0033047D03*
X0048646D03*
X0048843D03*
X0049040D03*
X0049237D03*
X0049434D03*
X0049631D03*
X0049828D03*
X0050222D03*
X0050419D03*
Y0036473D03*
X0050222D03*
X0050025D03*
X0049828D03*
X0049631D03*
X0049237D03*
X0049040D03*
X0048843D03*
X0048646D03*
X0048449D03*
X0048252D03*
G54D231*
X0108433Y0049985D03*
X0110401D03*
X0110598Y0054741D03*
X0108630D03*
X0118276Y0049985D03*
X0120244D03*
X0120441Y0054741D03*
X0118472D03*
X0048252Y0033047D03*
X0050025D03*
X0049434Y0036473D03*
G54D232*
X0013984Y0091952D03*
Y0091755D03*
Y0091559D03*
Y0091362D03*
X0015224D03*
Y0091559D03*
Y0091755D03*
Y0091952D03*
Y0092149D03*
G54D233*
X0013984D03*
G54D234*
X0081947Y0024320D03*
X0082813Y0024989D03*
Y0024320D03*
X0081947Y0024989D03*
G54D235*
X0113939Y0048987D03*
X0114608Y0048121D03*
X0113939D03*
X0114608Y0048987D03*
G54D236*
X0023426Y0027059D03*
X0022926D03*
X0022426D03*
Y0025011D03*
X0022926D03*
X0023426D03*
X0023926D03*
G54D237*
Y0027059D03*
G54D239*
X0083624Y0020473D03*
X0084883D03*
X0083624Y0022047D03*
X0084883D03*
X0044970Y0067648D03*
X0046230D03*
X0044970Y0069223D03*
X0046230D03*
X0066770Y0067648D03*
X0068030D03*
X0066770Y0069223D03*
X0068030D03*
X0084370Y0067648D03*
X0085630D03*
X0084370Y0069223D03*
X0085630D03*
X0071870Y0067648D03*
X0073130D03*
X0071870Y0069223D03*
X0073130D03*
G54D240*
X0086713Y0078216D03*
Y0076956D03*
X0088287Y0078216D03*
Y0076956D03*
X0096113Y0078866D03*
Y0077606D03*
X0097687Y0078866D03*
Y0077606D03*
G54D241*
X0070228Y0018996D03*
X0069243D03*
X0059991D03*
X0059007D03*
X0049755D03*
X0048770D03*
X0039518D03*
X0038534D03*
X0039518Y0019931D03*
X0038534D03*
X0070228D03*
X0069243D03*
X0059991D03*
X0059007D03*
X0049755D03*
X0048770D03*
G54D246*
X0106257Y0093413D03*
Y0092613D03*
X0105357Y0093013D03*
X0102704Y0092613D03*
Y0093413D03*
X0103604Y0093013D03*
X0036423Y0008766D03*
Y0007966D03*
X0035523Y0008366D03*
X0064376Y0008766D03*
Y0007966D03*
X0063476Y0008366D03*
X0068791Y0031835D03*
Y0032635D03*
X0069691Y0032235D03*
X0098865Y0050979D03*
Y0051779D03*
X0099765Y0051379D03*
X0127261Y0050979D03*
Y0051779D03*
X0128161Y0051379D03*
G54D247*
X0131437Y0030544D03*
Y0030284D03*
Y0030028D03*
X0133429D03*
Y0030284D03*
Y0030544D03*
Y0030800D03*
X0136555Y0030544D03*
Y0030284D03*
Y0030028D03*
X0138547D03*
Y0030284D03*
Y0030544D03*
Y0030800D03*
X0131756Y0034714D03*
Y0034974D03*
Y0035229D03*
X0129764D03*
Y0034974D03*
Y0034714D03*
Y0034458D03*
X0136874Y0034714D03*
Y0034974D03*
Y0035229D03*
X0134882D03*
Y0034974D03*
Y0034714D03*
Y0034458D03*
G54D248*
X0131437Y0030800D03*
X0136555D03*
X0131756Y0034458D03*
X0136874D03*
G54D249*
X0118264Y0089030D03*
Y0089345D03*
Y0089660D03*
Y0089975D03*
Y0090290D03*
Y0090605D03*
Y0090920D03*
Y0091235D03*
Y0091550D03*
Y0091865D03*
Y0092180D03*
Y0092495D03*
Y0092810D03*
Y0093125D03*
Y0093440D03*
Y0093755D03*
X0112212D03*
Y0093440D03*
Y0093125D03*
Y0092810D03*
Y0092495D03*
Y0092180D03*
Y0091865D03*
Y0091550D03*
Y0091235D03*
Y0090920D03*
Y0090605D03*
Y0090290D03*
Y0089975D03*
Y0089660D03*
Y0089345D03*
Y0089030D03*
G54D250*
X0113190Y0088366D03*
X0113505D03*
X0113820D03*
X0114135D03*
X0114450D03*
X0114765D03*
X0115080D03*
X0115395D03*
X0115710D03*
X0116340D03*
X0116655D03*
X0116970D03*
X0117285D03*
X0117600D03*
Y0094418D03*
X0117285D03*
X0116970D03*
X0116655D03*
X0116340D03*
X0116025D03*
X0115710D03*
X0115395D03*
X0115080D03*
X0114765D03*
X0114450D03*
X0114135D03*
X0113820D03*
X0113505D03*
X0113190D03*
X0112875D03*
G54D251*
Y0088366D03*
X0116025D03*
G54D252*
X0129661Y0084673D03*
X0129161D03*
X0128661D03*
X0128161D03*
X0127661D03*
X0127161D03*
X0126661D03*
Y0082783D03*
X0127161D03*
X0127661D03*
X0128161D03*
X0128661D03*
X0129161D03*
X0129661D03*
X0130161D03*
G54D253*
Y0084673D03*
G54D255*
X0082902Y0018894D03*
Y0019094D03*
Y0019294D03*
X0082142D03*
Y0018894D03*
G54D256*
X0070434Y0026418D03*
X0069686Y0027362D03*
X0070434D03*
X0069686Y0026418D03*
X0070434Y0030010D03*
X0069686Y0030955D03*
X0070434D03*
X0069686Y0030010D03*
X0100445Y0045473D03*
X0099697Y0046418D03*
X0100445D03*
X0099697Y0045473D03*
X0100445Y0049115D03*
X0099697Y0050060D03*
X0100445D03*
X0099697Y0049115D03*
X0128841Y0049164D03*
X0128093Y0050109D03*
X0128841D03*
X0128093Y0049164D03*
X0128851Y0045513D03*
X0128103Y0046458D03*
X0128851D03*
X0128103Y0045513D03*
G54D258*
X0080669Y0019980D03*
Y0020276D03*
X0080464D03*
M02*
