%
T1C0.0118F200S100
X000541Y018209
X002510Y014272
X002510Y022146
X000541Y026083
X002510Y030020
X000541Y033957
X002510Y037894
X000541Y041831
X002510Y045768
X000541Y049705
X002510Y053642
X000541Y057579
X002510Y061516
X000541Y065453
X002510Y069390
X004478Y018209
X005413Y020325
X004478Y026083
X004478Y033957
X004478Y041831
X004478Y049705
X004478Y057579
X004478Y065453
X006447Y014272
X008169Y021604
X006447Y022146
X006447Y030020
X006447Y037894
X006447Y045768
X006447Y053642
X006447Y061516
X006447Y069390
X008218Y027067
X008415Y018209
X008415Y033957
X008415Y041831
X008415Y049705
X008415Y057579
X008415Y065453
X009793Y022982
X010384Y014272
X010384Y030020
X010384Y037894
X010384Y045768
X010384Y053642
X010384Y061516
X010384Y069390
X010433Y027018
X011270Y023967
X012352Y018209
X012480Y023002
X012352Y033957
X012352Y057579
X012352Y065453
X013238Y027461
X013516Y091731
X013614Y092420
X013878Y025935
X014075Y091094
X014272Y089864
X014075Y092423
X014321Y014272
X014321Y022146
X014321Y030020
X014321Y037894
X014321Y045768
X014321Y053642
X014321Y061516
X014321Y069390
X014407Y091460
X014407Y092051
X014604Y091755
X014616Y093850
X014666Y089618
X014801Y091460
X014801Y092051
X014961Y093604
X015158Y020276
X015207Y092423
X015207Y091094
X015355Y021604
X015404Y027067
X015699Y091143
X015699Y092374
X015748Y088781
X015770Y091755
X016289Y033957
X016289Y041831
X016289Y057579
X016289Y065453
X016979Y022982
X017569Y026969
X018258Y014272
X018455Y024016
X018258Y030020
X018258Y037894
X018258Y061516
X018258Y069390
X019665Y023002
X020128Y093210
X020177Y090258
X020226Y041831
X020226Y049705
X020226Y057579
X020374Y027461
X020503Y091715
X021112Y025935
X022195Y014272
X022195Y022146
X022195Y030020
X022638Y022540
X022884Y028593
X023967Y090848
X023967Y092570
X024163Y026083
X024163Y033957
X024163Y041831
X024163Y049705
X024163Y057579
X024656Y022540
X024705Y025000
X026132Y014272
X026132Y022146
X028100Y033957
X028100Y041831
X028100Y057579
X029085Y043751
X030069Y014272
X030069Y030020
X030906Y028297
X031546Y023327
X031693Y028297
X032037Y018209
X032037Y026083
X032037Y033957
X032037Y057579
X032432Y077363
X032432Y085237
X032432Y093111
X032875Y005905
X033170Y028297
X033416Y024213
X034006Y014272
X034006Y030020
X034006Y045768
X034203Y051822
X034006Y053642
X034400Y081300
X034400Y089174
X034695Y050837
X034695Y052117
X035040Y009596
X035040Y010630
X035135Y028296
X035575Y007572
X035974Y018209
X035974Y026083
X035974Y057579
X036221Y052117
X036369Y077363
X036369Y085237
X036369Y093111
X036959Y004478
X037943Y014272
X037943Y022146
X037943Y030020
X037943Y037894
X037943Y053642
X037943Y061516
X037943Y069390
X037944Y004478
X038239Y008612
X038337Y073426
X038337Y081300
X038337Y089174
X038337Y097048
X038485Y006840
X038485Y008120
X038534Y010630
X039125Y004084
X039911Y018209
X039911Y026083
X039912Y004429
X039911Y057579
X039911Y065453
X040207Y046507
X040306Y077363
X040306Y085237
X040306Y093111
X040503Y010876
X040700Y017717
X040847Y004084
X041241Y004429
X041536Y046900
X041880Y014272
X041880Y022146
X041880Y053642
X041880Y061516
X041880Y069390
X041881Y047245
X042176Y008760
X042176Y009744
X042225Y046900
X042274Y073426
X042274Y081300
X042274Y089174
X042274Y097048
X042717Y002067
X042865Y008760
X043160Y002854
X043160Y004773
X043357Y019587
X043449Y034541
X043848Y049705
X043848Y057579
X043848Y065453
X043898Y002854
X044243Y077363
X044243Y085237
X044243Y093111
X044489Y038878
X044489Y040256
X045024Y034541
X045079Y002854
X045129Y008612
X045400Y087736
X045817Y014272
X045817Y022146
X045817Y045768
X045817Y053642
X045817Y061516
X045818Y002854
X045867Y008612
X046211Y073426
X046211Y081300
X046350Y083486
X046211Y089174
X046211Y097048
X046400Y087486
X046507Y036467
X047350Y083736
X047450Y087236
X047540Y038632
X047639Y041536
X047785Y018209
X047785Y026083
X047835Y033317
X047785Y049705
X047785Y057579
X048180Y077363
X048180Y085237
X048180Y093111
X048328Y033760
X048328Y034646
X048328Y043554
X048350Y083986
X048450Y086986
X049066Y033760
X049350Y084236
X049400Y086736
X049410Y030315
X049754Y014272
X049853Y030266
X049853Y033760
X049754Y045768
X049754Y053642
X049754Y061516
X050148Y073426
X050148Y081300
X050148Y089174
X050148Y097048
X050542Y002903
X050542Y010482
X050591Y002067
X050936Y017717
X050936Y041536
X050985Y038583
X051280Y002903
X051280Y010482
X051625Y029233
X051625Y030266
X051722Y041831
X051722Y057579
X052068Y036664
X052117Y077363
X052117Y085237
X052117Y093111
X052308Y030801
X052400Y086486
X052560Y032038
X052855Y010482
X053350Y084486
X053400Y086236
X053593Y010482
X053691Y014272
X053691Y045768
X053691Y053642
X053691Y061516
X053938Y032038
X054085Y073426
X054085Y081300
X054085Y089174
X054085Y097048
X054135Y037205
X054135Y040995
X054528Y002067
X054578Y051526
X054578Y052707
X054676Y019587
X055316Y004823
X055316Y010482
X055659Y018209
X055659Y041831
X055659Y049705
X055659Y057579
X055900Y074286
X056054Y077363
X056054Y085237
X056054Y093111
X056054Y004823
X056054Y010482
X056350Y084736
X057628Y014272
X057628Y022146
X057628Y030020
X057924Y033071
X057924Y034449
X057924Y035827
X057628Y053642
X057628Y061516
X058022Y073426
X058350Y080486
X058022Y081300
X058022Y089174
X058465Y002067
X058465Y009842
X059596Y026083
X059596Y033957
X059596Y057579
X059991Y077363
X059991Y085237
X059991Y093111
X061172Y017766
X061565Y014272
X061565Y022146
X061565Y030020
X061565Y037894
X061565Y053642
X061565Y061516
X061565Y069390
X061959Y073426
X061959Y081300
X061959Y089174
X062846Y009596
X062993Y009990
X062846Y010630
X063479Y007671
X063533Y026083
X063533Y033957
X063533Y057579
X063928Y077363
X063928Y085237
X063928Y093111
X064716Y004478
X065011Y019587
X065502Y014272
X065502Y022146
X065502Y030020
X065502Y037894
X065502Y053642
X065502Y061516
X065700Y004478
X065896Y073426
X065896Y081300
X065896Y089174
X066137Y008766
X066340Y006890
X066340Y008071
X066586Y010630
X066832Y004085
X067470Y018209
X067570Y004380
X067470Y041831
X067470Y049705
X067470Y057579
X067865Y077363
X067865Y085237
X067865Y093111
X068259Y031841
X068357Y004085
X068407Y010876
X068653Y004380
X068751Y025984
X069194Y027805
X069293Y031546
X069439Y014272
X069686Y025837
X069439Y037894
X069439Y053642
X069833Y073426
X069833Y081300
X069833Y089174
X070129Y029380
X070178Y008711
X070277Y031546
X070720Y027953
X070818Y029036
X070867Y002116
X070923Y031392
X071015Y008711
X071064Y002903
X071064Y004823
X071163Y050247
X071261Y029479
X071360Y025984
X071407Y033957
X071407Y041831
X071409Y017766
X071704Y028691
X071802Y077363
X071802Y085237
X071802Y093111
X071802Y002903
X072737Y050247
X072836Y089175
X072934Y093112
X073033Y002903
X073033Y008612
X073376Y014272
X073376Y022146
X073376Y030020
X073376Y037894
X073376Y061516
X073770Y073426
X073770Y081300
X073770Y089174
X073771Y002903
X073771Y008612
X073869Y093112
X074509Y038534
X074509Y040699
X074854Y093112
X074903Y040306
X074903Y089175
X074903Y038534
X075100Y023179
X075100Y026231
X075297Y040109
X075297Y038534
X075344Y018209
X075641Y027707
X075344Y041831
X075344Y049705
X075739Y077363
X075739Y085237
X075838Y093112
X075887Y089175
X076133Y026772
X076379Y023253
X076379Y024459
X076379Y025049
X076379Y025738
X076551Y034873
X076715Y032897
X076724Y021506
X076822Y093112
X076872Y089175
X076970Y026772
X077313Y014272
X077313Y045768
X077313Y061516
X077314Y034873
X077331Y032897
X077413Y021506
X077511Y023253
X077511Y024410
X077511Y024754
X077707Y073426
X077707Y081300
X077707Y089174
X077856Y031250
X077954Y023278
X078102Y021506
X077954Y028593
X078200Y044440
X078249Y050296
X078299Y028839
X078495Y002903
X078495Y010482
X078545Y034991
X078594Y032924
X078594Y033908
X078742Y024754
X079086Y050296
X079184Y039863
X079234Y002903
X079234Y010482
X079281Y018209
X079431Y040207
X079431Y040552
X079431Y040896
X079431Y041241
X079431Y041585
X079480Y023278
X079529Y028544
X079627Y021506
X079644Y026770
X079676Y077363
X079676Y085237
X079676Y093111
X079677Y042176
X079824Y033908
X079824Y024951
X079824Y025837
X079824Y026427
X079824Y045768
X079890Y044141
X079923Y050296
X080070Y023278
X080316Y054824
X080702Y044141
X080710Y026821
X080759Y045325
X080759Y044686
X080759Y050296
X080907Y010482
X080907Y089175
X080956Y093112
X081055Y041585
X081055Y042176
X081153Y054331
X081153Y054824
X081250Y014272
X081250Y022146
X081250Y061516
X081250Y084316
X081250Y085036
X081301Y041241
X081547Y040552
X081547Y040896
X081547Y046900
X081596Y029183
X081596Y029971
X081596Y050296
X081644Y073426
X081644Y081300
X081645Y010482
X081645Y025738
X081645Y026427
X081645Y027559
X081645Y039863
X081645Y040207
X081793Y018406
X081793Y019636
X081891Y034597
X081891Y035532
X081989Y089174
X081990Y025492
X081990Y054331
X082088Y027559
X082334Y093112
X082433Y050296
X082580Y036270
X083218Y041831
X083218Y049705
X083218Y065453
X083269Y004773
X083318Y010482
X083614Y025788
X084007Y004773
X084057Y010482
X084106Y034105
X084106Y036024
X084303Y025788
X084350Y083936
X084450Y093112
X084650Y084236
X084795Y033662
X084942Y037500
X084942Y038189
X084950Y077136
X085000Y084586
X085187Y014272
X085238Y036221
X085187Y045768
X085187Y053642
X085350Y084936
X085581Y073426
X085581Y081300
X085581Y089174
X085582Y031989
X085631Y029331
X085632Y033859
X086300Y080486
X086321Y034105
X086615Y002116
X086615Y009990
X086714Y089175
X086763Y036024
X086800Y093636
X086950Y096336
X087155Y018209
X087155Y041831
X087155Y049705
X087155Y057579
X087155Y065453
X087250Y096736
X087350Y093686
X087700Y096186
X087750Y093686
X089124Y037894
X089124Y045768
X089124Y053642
X089124Y069390
X089150Y073636
X089372Y029331
X089421Y031989
X089518Y081300
X089700Y073636
X089864Y033908
X090475Y076561
X090475Y077061
X091092Y018209
X091092Y041831
X091092Y049705
X091092Y057579
X091092Y065453
X091487Y093111
X093061Y014272
X093061Y022146
X093061Y030020
X093061Y037894
X093061Y045768
X093061Y053642
X093250Y081072
X093455Y073426
X094399Y074086
X095029Y018209
X095029Y026083
X095029Y033957
X095029Y041831
X095029Y049705
X095029Y057579
X095130Y080808
X095228Y022195
X095228Y024114
X095424Y085237
X095424Y093111
X095660Y023538
X095671Y023107
X096557Y023107
X096852Y021408
X096998Y014272
X096998Y022146
X096998Y030020
X096998Y037894
X097640Y023538
X098329Y050985
X098821Y045079
X098821Y046851
X098835Y081072
X098966Y041831
X099313Y050591
X098966Y057579
X099361Y085237
X099361Y093111
X099707Y044932
X100100Y048524
X100149Y050591
X100543Y023085
X100558Y023538
X100691Y046949
X100789Y048131
X100935Y014272
X100935Y037894
X100937Y050493
X100935Y053642
X101232Y081251
X101232Y023085
X101233Y023538
X101281Y021408
X101281Y048623
X101329Y073426
X101331Y045079
X101724Y088584
X101773Y047786
X102020Y025984
X102167Y036172
X102329Y029526
X102904Y018209
X102904Y041831
X102904Y049705
X102904Y057579
X103298Y077363
X103299Y092374
X103791Y093505
X104365Y026148
X104431Y052954
X104495Y050585
X104495Y051309
X104579Y042619
X104825Y042323
X104872Y014272
X104874Y036812
X104872Y037894
X104872Y061516
X104881Y052490
X105071Y042028
X105071Y044095
X105266Y073426
X105315Y052466
X105317Y041733
X105318Y055619
X105465Y036812
X105465Y037500
X105514Y035483
X105612Y092374
X105809Y050099
X105957Y052461
X106241Y052236
X106252Y042323
X106301Y048574
X106301Y050591
X106301Y051182
X106252Y051625
X106252Y053052
X106252Y054578
X106301Y057284
X106350Y029528
X106547Y054282
X106695Y025984
X106695Y042323
X106790Y044474
X106790Y044867
X106793Y047491
X106990Y057284
X107145Y044239
X107145Y044671
X107145Y045102
X107235Y077363
X107335Y093063
X107433Y032579
X107482Y047491
X107499Y044474
X107499Y044867
X107531Y055464
X107630Y051723
X107630Y053003
X107630Y053790
X107630Y051034
X107679Y049312
X107679Y093063
X107876Y055365
X107876Y091389
X108122Y049312
X108122Y086911
X108171Y047491
X108270Y029528
X108417Y025591
X108565Y021506
X108565Y021850
X108603Y020275
X108809Y014272
X108809Y037894
X108809Y045768
X108860Y056005
X108909Y056940
X108941Y033469
X109057Y056448
X109303Y043603
X109303Y089716
X109303Y093063
X109451Y047491
X109598Y046408
X109648Y021506
X109648Y021850
X109697Y093063
X109845Y087403
X109894Y042963
X109943Y037205
X109943Y037943
X109992Y040749
X110189Y086911
X110271Y026148
X110386Y045129
X110435Y049312
X110435Y055414
X110583Y092275
X110778Y018209
X110778Y057579
X110780Y093653
X110829Y049312
X110976Y045670
X110976Y046261
X110976Y057235
X111026Y020571
X111075Y042569
X111026Y051034
X111026Y051723
X111026Y053003
X111026Y053741
X111124Y083023
X111172Y077363
X111172Y085237
X111321Y045670
X111321Y046704
X111469Y041979
X111469Y042569
X111518Y048032
X111518Y048574
X111616Y040995
X111665Y040158
X111665Y045670
X111665Y046704
X111764Y057235
X111665Y092423
X111911Y094342
X112256Y041880
X112256Y055956
X112404Y050591
X112404Y051773
X112404Y053249
X112404Y054479
X112502Y085385
X112551Y052609
X112600Y045867
X112613Y042025
X112650Y026034
X112724Y083786
X112746Y014272
X112746Y022146
X112746Y061516
X112800Y089436
X112994Y045867
X112994Y043406
X113093Y052511
X113388Y085385
X113486Y084598
X113486Y052560
X113782Y054922
X113831Y052560
X114126Y058269
X114126Y059450
X114175Y052412
X114274Y050591
X114274Y051280
X114274Y051969
X114348Y083786
X114520Y052412
X114667Y084598
X114715Y018209
X114715Y033957
X114715Y057579
X114717Y085385
X114864Y052560
X115109Y077363
X115110Y048967
X115160Y044932
X115209Y042373
X115209Y052560
X115222Y055607
X115258Y046605
X115258Y047294
X115307Y045867
X115602Y085385
X115701Y045867
X115947Y052560
X116083Y052211
X116095Y050591
X116095Y051625
X116095Y053150
X116095Y054184
X116095Y054775
X116095Y095671
X116193Y057284
X116291Y038239
X116683Y014272
X116683Y022146
X116734Y085385
X116833Y048574
X116843Y048022
X116882Y057284
X117077Y089174
X117150Y096286
X117150Y097166
X117227Y055464
X117276Y036959
X117473Y050985
X117473Y051772
X117473Y052954
X117473Y053741
X117620Y085385
X117620Y055464
X117669Y049312
X118014Y049312
X118124Y021407
X118500Y043499
X118506Y085385
X118579Y024557
X118604Y044095
X118652Y018209
X118752Y056054
X118752Y056940
X118900Y090686
X119046Y077363
X119047Y056497
X119195Y047442
X119392Y036172
X119392Y085385
X119539Y040749
X119638Y089273
X119705Y026016
X119710Y024557
X119800Y095686
X120040Y044474
X120040Y044867
X120081Y091242
X120087Y029534
X120179Y047442
X120278Y085385
X120327Y049312
X120339Y021333
X120376Y055464
X120394Y044239
X120394Y044671
X120394Y045102
X120425Y038534
X120475Y089273
X120620Y014272
X120620Y030020
X120620Y045768
X120721Y049312
X120620Y061516
X120748Y044474
X120748Y044867
X120868Y047442
X120868Y050936
X120868Y051772
X120868Y052954
X120868Y053741
X120868Y057284
X121014Y089174
X121014Y097048
X121164Y040995
X121213Y040158
X121311Y036664
X121311Y037304
X121410Y083860
X121557Y047442
X121607Y041831
X121557Y057284
X121902Y087157
X121951Y036664
X122049Y048574
X122050Y085730
X122082Y026148
X122148Y055956
X122197Y050591
X122197Y051182
X122197Y051723
X122246Y053200
X122246Y054430
X122394Y043652
X122394Y052609
X122443Y050099
X122553Y042222
X122589Y018209
X122738Y035532
X122788Y046457
X122788Y052560
X122935Y021752
X123132Y044440
X123181Y083614
X123280Y052560
X123636Y054906
X123673Y052560
X123969Y088387
X124026Y085384
X124067Y052855
X124117Y029528
X124375Y087292
X124479Y026016
X124557Y014272
X124557Y022146
X124557Y030020
X124557Y045768
X124557Y053642
X124726Y085384
X124756Y032579
X125101Y088387
X125125Y087279
X125150Y083663
X125150Y089864
X125673Y026016
X125937Y029528
X126526Y018209
X126526Y041831
X126526Y049705
X126526Y057579
X126676Y085385
X126725Y050985
X126823Y081940
X126920Y077363
X127217Y045079
X127611Y046900
X127611Y048721
X127758Y050690
X127971Y026148
X128004Y081940
X128100Y079286
X128152Y085385
X128494Y014272
X128494Y022146
X128494Y053642
X128494Y061516
X128644Y050690
X128792Y067422
X128841Y034154
X128888Y073426
X128888Y081300
X128888Y089174
X128888Y097048
X129136Y046999
X129235Y048081
X129238Y086336
X129284Y034154
X129284Y035335
X129333Y050542
X129338Y080636
X129727Y045129
X129727Y048573
X129935Y020226
X130138Y080636
X130170Y047835
X130367Y025935
X130463Y018209
X130463Y041831
X130463Y057579
X130514Y029626
X130563Y034588
X130563Y035099
X130612Y031496
X130650Y079286
X130760Y034844
X130857Y093111
X130950Y086636
X130950Y089986
X130957Y034588
X130957Y035099
X131449Y029725
X131744Y035533
X131755Y020078
X132236Y030158
X132236Y030670
X132431Y014272
X132431Y022146
X132433Y030414
X132431Y045768
X132431Y053642
X132431Y061516
X132431Y069390
X132630Y030158
X132630Y030670
X132680Y035630
X132680Y059400
X132825Y073426
X132825Y081300
X132825Y097048
X133713Y059400
X133910Y034154
X133959Y029922
X133959Y031103
X133959Y029282
X134303Y034154
X134303Y035335
X134353Y031103
X134400Y018209
X134400Y026083
X134400Y041831
X134794Y077363
X134900Y079186
X134900Y086636
X134900Y090036
X134900Y093986
X135400Y083186
X135400Y085536
X135400Y091136
X135632Y029528
X135681Y034588
X135878Y034844
X135681Y035099
X136075Y034588
X136075Y035099
X136368Y014272
X136368Y022146
X136368Y045768
X136368Y053642
X136368Y061516
X136567Y029725
X136762Y073426
X136762Y081300
X136762Y089174
X136762Y097048
X136862Y035533
X137354Y030158
X137354Y030670
X137550Y079186
X137551Y030414
X137748Y030158
X137748Y030670
X137798Y035630
X138337Y018209
X138337Y026083
X138337Y033957
X138337Y041831
X138337Y049705
X138337Y057579
X138337Y065453
X138731Y077363
X138731Y093111
X138850Y086636
X138850Y089986
X139077Y029922
X139077Y031103
X139077Y029282
X139471Y031103
X140305Y030020
X140305Y037894
X140305Y045768
X140305Y053642
X140305Y061516
X140699Y081300
X140699Y089174
T5C0.0236F200S100
X011713Y091734
X015601Y052461
X017225Y089372
X017471Y089864
X018012Y093702
X018084Y089880
X021408Y093653
X021506Y089815
X021851Y033268
X021900Y036861
X022687Y033268
X023229Y035729
X023475Y041241
X023475Y041733
X023573Y047540
X023573Y048081
X025050Y033465
X025050Y033957
X025050Y035630
X025050Y036172
X026280Y039567
X026280Y040059
X026280Y041634
X026280Y042127
X028002Y040896
X031004Y040896
X034006Y039518
X034006Y040010
X036516Y036910
X037451Y004380
X037894Y035729
X037993Y020079
X037993Y019095
X039666Y033465
X039666Y033957
X048229Y019095
X048229Y020079
X052363Y061960
X052363Y062796
X052363Y065798
X052363Y066586
X052855Y002903
X053643Y002903
X054824Y076231
X054824Y076773
X055414Y042816
X055457Y046156
X056153Y030906
X056153Y031644
X056153Y037500
X056251Y042816
X056842Y045325
X056989Y007628
X057777Y007628
X058023Y065848
X058465Y020079
X058466Y019095
X058564Y065848
X058613Y043062
X058613Y043554
X058613Y045178
X058613Y045719
X058712Y061074
X058712Y061566
X058740Y063288
X058740Y063780
X061664Y065700
X061664Y066487
X065208Y004478
X065848Y067619
X065848Y069194
X067373Y061910
X067373Y062698
X068702Y019095
X068702Y020079
X070031Y042914
X070080Y046162
X070277Y009744
X070867Y042914
X070966Y067619
X070966Y069194
X071458Y045325
X073230Y043062
X073230Y043554
X080316Y061910
X080316Y062698
X080316Y065700
X080316Y066487
X080802Y002848
X081005Y020866
X081596Y002854
X081891Y032333
X082777Y076084
X082777Y076625
X083950Y074136
X084007Y027904
X084007Y028642
X084401Y022540
X084992Y007628
X084992Y025837
X085725Y020522
X085730Y007628
X085730Y033022
X085828Y018947
X086517Y067619
X086517Y069243
X086960Y022736
X087846Y028642
X088141Y022835
X088141Y023376
X088150Y076036
X089076Y018356
X091150Y078436
X091750Y078486
X092128Y018356
X092249Y078486
X093161Y061861
X093161Y062698
X093161Y065700
X093161Y066487
X093350Y077486
X095523Y079135
X095550Y077186
X097098Y080759
X097480Y090836
X098400Y078986
X098674Y073658
X098674Y074308
X098771Y075985
X098771Y076527
X099263Y022638
X100340Y086363
X100353Y087163
X101222Y080235
X101577Y063387
X101675Y031398
X101872Y034548
X102020Y060040
X102413Y063387
X102610Y032579
X103299Y035138
X103780Y060011
X103780Y060503
X104751Y062157
X104751Y062649
X105217Y022638
X105514Y043209
X106339Y034044
X106990Y032776
X107039Y038977
X107236Y043652
X107384Y041782
X108319Y045965
X109352Y041782
X109352Y031989
X109352Y038731
X109697Y063387
X110140Y060040
X110484Y063387
X111123Y022638
X111900Y060011
X111900Y060503
X112896Y062156
X112896Y062649
X113289Y043012
X116980Y038731
X117079Y022638
X117522Y041192
X117817Y063387
X118260Y060040
X118309Y039321
X118451Y032099
X118654Y063387
X118703Y043111
X119047Y034548
X119146Y041438
X119835Y032678
X120019Y060060
X120019Y060552
X120425Y035138
X120475Y043701
X121016Y062156
X121016Y062698
X121557Y045916
X122984Y022638
X123611Y034472
X124166Y032678
X125937Y063387
X126233Y033465
X126380Y060040
X126774Y032087
X126774Y063387
X128121Y062199
X128121Y062704
X128138Y060060
X128138Y060552
X128889Y022638
X129727Y031890
X130121Y037254
X130121Y038239
X130859Y026969
X130859Y027953
X131302Y038288
X131597Y032530
X131794Y038288
X133088Y028168
X133221Y033613
X133571Y028168
X134550Y031989
X134747Y037304
X135239Y037304
X136026Y026969
X136469Y032628
X136518Y026969
X137896Y037254
X137896Y038239
X138684Y026969
X138684Y027953
X138979Y031989
T24C0.0827F200S100
X006141Y016878
X010078Y016878
X016377Y016878
X020314Y016878
X107716Y016878
X111653Y016878
X128976Y016878
X132913Y016878
T17C0.0433F200S100
X008110Y018886
X009094Y018886
X018346Y018886
X019330Y018886
X109685Y018886
X110669Y018886
X130945Y018886
X131929Y018886
T9C0.0320F200S100
X012402Y076913
X012402Y080063
X026850Y022536
X026850Y026536
X027850Y022536
X028850Y022536
X028850Y026536
X027850Y026536
X041756Y016622
X042756Y016622
X043756Y016622
X051992Y016622
X052992Y016622
X053992Y016622
X054569Y007915
X055369Y007915
X062228Y016622
X063228Y016622
X064228Y016622
X072464Y016622
X073464Y016622
X074464Y016622
X082574Y007972
X083374Y007972
T8C0.0300F200S100
X033736Y006192
X033736Y007192
X061693Y006200
X061693Y007200
T2C0.0157F200S100
X040188Y018602
X040700Y018602
X041211Y018602
X042845Y036270
X043357Y036270
X043869Y036270
X047850Y069874
X047850Y070386
X047850Y070898
X050424Y018602
X050936Y018602
X051448Y018602
X054656Y032924
X055168Y032924
X055168Y036270
X054656Y036270
X055680Y032924
X055680Y036270
X060660Y018602
X061172Y018602
X061684Y018602
X069750Y069874
X069750Y070386
X069750Y070898
X070897Y018602
X071409Y018602
X071921Y018602
X076600Y067574
X076600Y068086
X076600Y068598
X083300Y069874
X083300Y070386
X083300Y070898
X083348Y023179
X083860Y023179
X084372Y023179
X088938Y074636
X089450Y074636
X089962Y074636
X099400Y077524
X099400Y078036
X099400Y078548
X108791Y088879
X109303Y088879
X109815Y088879
T14C0.0410F200S100
X043386Y005803
X043386Y007583
X045906Y005803
X045906Y007583
X046929Y002260
X046929Y004040
X046929Y005803
X046929Y007583
X046929Y009346
X046929Y011126
X049449Y002260
X049449Y004040
X049449Y005803
X049449Y007583
X049449Y009346
X049449Y011126
X050472Y005803
X050472Y007583
X052992Y005803
X052992Y007583
X057165Y002259
X057165Y004039
X059685Y002259
X059685Y004039
X059685Y009346
X059685Y011126
X057165Y009346
X057165Y011126
X071338Y005803
X071338Y007583
X073858Y005803
X073858Y007583
X074882Y002260
X074882Y004040
X074882Y005803
X074882Y007583
X074882Y009346
X074882Y011126
X077402Y002260
X077402Y004040
X077402Y005803
X077402Y007583
X077402Y009346
X077402Y011126
X078425Y005803
X078425Y007583
X080945Y005803
X080945Y007583
X085118Y002260
X085118Y004040
X087638Y002260
X087638Y004040
X087638Y009346
X087638Y011126
X085118Y009346
X085118Y011126
X128149Y087402
X128149Y089922
X128559Y075197
X128559Y077717
X129929Y087402
X129929Y089922
X130339Y075197
X130339Y077717
X132090Y083465
X133870Y083465
X133870Y085985
X133870Y087402
X132090Y085985
X132090Y087402
X132090Y089922
X132090Y091339
X133870Y089922
X133870Y091339
X133870Y093859
X132090Y093859
X135634Y075197
X135634Y077717
X136027Y087402
X136027Y089922
X137414Y075197
X137414Y077717
X137807Y087402
X137807Y089922
T6C0.0260F200S100
X000868Y086614
X001168Y085814
X001168Y087414
X001168Y096050
X000868Y096850
X001168Y097650
X001968Y085514
X002768Y085814
X002768Y087414
X001968Y087714
X001968Y095750
X002768Y096050
X002768Y097650
X001968Y097950
X002837Y023229
X002837Y070473
X003068Y086614
X003068Y096850
X003137Y022429
X003937Y022129
X003137Y024029
X003937Y024329
X003937Y069373
X003137Y069673
X003137Y071273
X003937Y071573
X004737Y022429
X005037Y023229
X004737Y024029
X004737Y069673
X005037Y070473
X004737Y071273
X026459Y086614
X026759Y085814
X026759Y087414
X026759Y096050
X026459Y096850
X026759Y097650
X027559Y085514
X028359Y085814
X028359Y087414
X027559Y087714
X027559Y095750
X028359Y096050
X028359Y097650
X027559Y097950
X028659Y086614
X028659Y096850
X032365Y074410
X032365Y096850
X032665Y073610
X033465Y073310
X032665Y075210
X033465Y075510
X033465Y095750
X032665Y096050
X032665Y097650
X033465Y097950
X034265Y073610
X034565Y074410
X034265Y075210
X034265Y096050
X034565Y096850
X034265Y097650
X059924Y033071
X060224Y032271
X060224Y033871
X061024Y031971
X061824Y032271
X061824Y033871
X061024Y034171
X062124Y033071
X069087Y036116
X069126Y023097
X069441Y035448
X069441Y036824
X069480Y022428
X069480Y023805
X070621Y036824
X070660Y023844
X070699Y022468
X070660Y035448
X070975Y036156
X071014Y023176
X083208Y017315
X083208Y018102
X084192Y017315
X084192Y018102
X095357Y033071
X095657Y032271
X095657Y033871
X096457Y031971
X097257Y032271
X097257Y033871
X096457Y034171
X097557Y033071
X099107Y055309
X099146Y042290
X099461Y054640
X099461Y056017
X099500Y041621
X099500Y042998
X100641Y056017
X100680Y043037
X100720Y041660
X100680Y054640
X100995Y055348
X101034Y042368
X124884Y074410
X125184Y073610
X125184Y075210
X125184Y096050
X124884Y096850
X125184Y097650
X125984Y073310
X126784Y073610
X126784Y075210
X125984Y075510
X125984Y095750
X126784Y096050
X126784Y097650
X125984Y097950
X127084Y074410
X127464Y055270
X127084Y096850
X127503Y042290
X127779Y055978
X127818Y042998
X127857Y041621
X127818Y054601
X128998Y054640
X128998Y056017
X129037Y041621
X129037Y042998
X129352Y055348
X129391Y042329
X138664Y023229
X138964Y022429
X138964Y024029
X138964Y069673
X138664Y070473
X138964Y071273
X138964Y073610
X138664Y074410
X138964Y075210
X138964Y096050
X138664Y096850
X138964Y097650
X139764Y022129
X140564Y022429
X140564Y024029
X139764Y024329
X139764Y069373
X140564Y069673
X140564Y071273
X139764Y071573
X139764Y073310
X140564Y073610
X140564Y075210
X139764Y075510
X139764Y095750
X140564Y096050
X140564Y097650
X139764Y097950
X140864Y023229
X140864Y070473
X140864Y074410
X140864Y096850
T25C0.0909F200S100
X081330Y016248
X086070Y016248
T12C0.0360F200S100
X011024Y087305
X011024Y088289
X011024Y089273
X011024Y090258
X011024Y091242
X011024Y092226
X011024Y093210
X011024Y094195
X011024Y095179
X011024Y096163
X013705Y047959
X013705Y048943
X013705Y049927
X013705Y050911
X015895Y046999
X015895Y047983
X015895Y048967
X015895Y049951
X015895Y050935
X018085Y046040
X018085Y047024
X018085Y048008
X018085Y048992
X018085Y049976
X018085Y050960
X033481Y002595
X034465Y002595
X035449Y002595
X036433Y002595
X037417Y002595
X038401Y002595
X061433Y002600
X062417Y002600
X063401Y002600
X064385Y002600
X065369Y002600
X066353Y002600
X099904Y090700
X100888Y090700
X101872Y090700
X102659Y083171
X102659Y084155
X102659Y085139
X102659Y086123
X102659Y087107
X102659Y088091
X102856Y090700
X103840Y090700
X104776Y084156
X104776Y085140
X104776Y086124
X104776Y087108
X104776Y088092
X104824Y090700
X105808Y090700
X106792Y090700
X106892Y085140
X106892Y086124
X106892Y087108
X106892Y088092
X126774Y068554
X127758Y068554
X128743Y068554
X129727Y068554
X130711Y068554
X131695Y068554
X132680Y068554
X133664Y068554
X134648Y068554
X135632Y068554
T20C0.0630F200S100
X027476Y018518
X030476Y018268
X097555Y020268
X100555Y020268
X118815Y020268
X121815Y020268
T18C0.0472F200S100
X099055Y018268
X099055Y020268
X120315Y018268
X120315Y020268
T16C0.0421F200S100
X027200Y049436
X027200Y050436
X028200Y049436
X028200Y050436
X029200Y049436
X029200Y050436
X030200Y049436
X030200Y050436
X031200Y049436
X031200Y050436
X032200Y049436
X032200Y050436
X033200Y049436
X033200Y050436
X034200Y049436
X034200Y050436
X035200Y049436
X035200Y050436
X036200Y049436
X036200Y050436
X037200Y049436
X037200Y050436
X038200Y049436
X038200Y050436
X039200Y049436
X039200Y050436
X040200Y049436
X040200Y050436
X041200Y049436
X041200Y050436
X108100Y080092
X108100Y081092
X109100Y080092
X109100Y081092
X110100Y080092
X110100Y081092
X111100Y080092
X111100Y081092
X112100Y080092
X112100Y081092
X113100Y080092
X113100Y081092
X114100Y080092
X114100Y081092
X115100Y080092
X115100Y081092
X116100Y080092
X116100Y081092
X117100Y080092
X117100Y081092
X118100Y080092
X118100Y081092
X119100Y080092
X119100Y081092
X120100Y080092
X120100Y081092
X121100Y080092
X121100Y081092
X122100Y080092
X122100Y081092
T15C0.0420F200S100
X095150Y082717
X096150Y082717
X097150Y082717
T3C0.0216F200S100
X048296Y039863
X050296Y039863
X122150Y089986
X122150Y091986
T13C0.0394F200S100
X028976Y020020
X032224Y016016
X108531Y052363
X109319Y052363
X110106Y052363
X118374Y052363
X119161Y052363
X119949Y052363
T7C0.0275F200S100
X044382Y082630
X045382Y082630
X045382Y088630
X044382Y088630
X046382Y082630
X047382Y082630
X047382Y088630
X046382Y088630
X048382Y082630
X049382Y082630
X049382Y088630
X048382Y088630
X050382Y082630
X051382Y082630
X051382Y088630
X050382Y088630
X052382Y082630
X053382Y082630
X053382Y088630
X052382Y088630
X054382Y082630
X055382Y082630
X055382Y088630
X054382Y088630
X056382Y082630
X057382Y082630
X057382Y088630
X056382Y088630
X072362Y082630
X073362Y082630
X073362Y088630
X072362Y088630
X074362Y082630
X075362Y082630
X075362Y088630
X074362Y088630
X076362Y082630
X077362Y082630
X077362Y088630
X076362Y088630
X078362Y082630
X079362Y082630
X079362Y088630
X078362Y088630
X080362Y082630
X081362Y082630
X081362Y088630
X080362Y088630
X082362Y082630
X083362Y082630
X083362Y088630
X082362Y088630
X084362Y082630
X085362Y082630
X085362Y088630
X084362Y088630
T27C0.1181F200S100
X001968Y086614
X001968Y096850
X003937Y023229
X003937Y070473
X027559Y086614
X027559Y096850
X033465Y074410
X033465Y096850
X061024Y033071
X096457Y033071
X125984Y074410
X125984Y096850
X139764Y023229
X139764Y070473
X139764Y074410
X139764Y096850
T19C0.0610F200S100
X059008Y005513
X059008Y007873
X086963Y005513
X086963Y007873
T10C0.0340F200S100
X097974Y030118
X098974Y030118
X103879Y030118
X104879Y030118
X109834Y030118
X110834Y030118
X115690Y030118
X116690Y030118
X121596Y030118
X122596Y030118
X127501Y030118
X128501Y030118
T21C0.0660F200S100
X007550Y073826
X007550Y076946
X018500Y073826
X018500Y076946
X049740Y070386
X051300Y070386
X052860Y070386
X074882Y070386
X076441Y070386
X078000Y070386
X079559Y070386
X081118Y070386
T11C0.0354F200S100
X016683Y093801
X056153Y030266
X060975Y025984
X088092Y027756
T22C0.0748F200S100
X089634Y014449
X090618Y019449
X090618Y020945
X090618Y022441
X091602Y014449
T4C0.0217F200S100
X018722Y091095
X019588Y091095
X019588Y092355
X018722Y092355
X020454Y091095
X020454Y092355
X021714Y091095
X021714Y092355
X097827Y024888
X097827Y026148
X097827Y027014
X097827Y027881
X099087Y024888
X099087Y026148
X099087Y027014
X099087Y027881
X103735Y024888
X103735Y026148
X103735Y027014
X103735Y027881
X104995Y024888
X104995Y026148
X104995Y027014
X104995Y027881
X109643Y024888
X109643Y026148
X109643Y027014
X109643Y027881
X110903Y024888
X110903Y026148
X110903Y027014
X110903Y027881
X115551Y024888
X115551Y026148
X115551Y027014
X115551Y027881
X116811Y024888
X116811Y026148
X116811Y027014
X116811Y027881
X121459Y024888
X121459Y026148
X121459Y027014
X121459Y027881
X122719Y024888
X122719Y026148
X122719Y027014
X122719Y027881
X127367Y024888
X127367Y026148
X127367Y027014
X127367Y027881
X128627Y024888
X128627Y026148
X128627Y027014
X128627Y027881
M30
